<?xml version="1.0" standalone="no"?>
<!DOCTYPE svg PUBLIC "-//W3C//DTD SVG 20010904//EN"
 "http://www.w3.org/TR/2001/REC-SVG-20010904/DTD/svg10.dtd">
<svg version="1.0" xmlns="http://www.w3.org/2000/svg"
 width="900.000000pt" height="900.000000pt" viewBox="0 0 900.000000 900.000000"
 preserveAspectRatio="xMidYMid meet">

<g transform="translate(0.000000,900.000000) scale(0.100000,-0.100000)"
fill="#000000" stroke="none">
<path d="M1755 8978 c-2 -13 -3 -38 -2 -55 l3 -33 -133 0 -133 0 0 -4422 c0
-2433 4 -4434 8 -4448 5 -19 8 -11 12 35 l5 60 300 -3 c165 -2 345 -5 400 -7
55 -1 500 -3 990 -5 490 -1 882 -4 873 -7 -10 -2 -18 -10 -18 -16 0 -8 -4 -7
-12 1 -18 18 -87 15 -95 -4 -3 -8 -1 -20 6 -27 6 -6 11 -17 11 -25 0 -12 -3
-12 -16 -1 -10 8 -14 23 -12 41 5 32 -19 40 -28 11 -3 -10 -10 -26 -16 -37 -7
-13 -6 -22 3 -30 9 -8 10 -8 5 1 -4 7 -5 17 -1 23 8 13 35 1 35 -16 0 -18 56
-19 63 -1 4 9 6 9 6 0 1 -15 71 -18 71 -3 0 6 -4 10 -10 10 -5 0 -10 7 -10 15
0 22 14 18 25 -8 l10 -22 1681 -3 1681 -2 7 107 c3 60 8 826 11 1703 3 877 7
1995 10 2485 3 490 8 1730 11 2758 l7 1867 -34 1 c-47 1 -160 0 -541 -8 l-326
-6 -31 36 c-30 34 -51 41 -68 22 -4 -4 2 -6 14 -3 14 4 28 -1 39 -13 19 -21
13 -24 -18 -8 -16 9 -19 8 -16 -3 3 -7 17 -13 31 -13 14 1 23 -3 21 -7 -7 -12
-54 -10 -54 2 0 6 -14 10 -31 10 -20 0 -28 4 -23 12 4 6 3 8 -4 4 -6 -3 -15 1
-20 10 -7 12 -17 15 -40 9 -18 -3 -35 -11 -39 -17 -4 -8 0 -9 13 -4 38 16 54
18 54 7 0 -6 -8 -11 -17 -11 -10 0 -29 -3 -42 -7 -21 -5 -23 -3 -19 15 9 32
-10 38 -22 8 -10 -27 -44 -36 -54 -13 -3 6 -3 2 0 -10 4 -19 1 -23 -16 -23
-16 0 -20 4 -15 19 3 11 0 23 -6 27 -8 4 -9 3 -5 -4 4 -7 0 -22 -8 -34 -12
-17 -16 -18 -16 -7 0 11 -8 16 -22 15 -17 -1 -25 6 -29 24 l-7 25 -1 -27 c0
-16 -5 -28 -11 -28 -5 0 -11 12 -11 28 -2 23 -2 24 -6 5 -4 -19 -11 -23 -43
-23 -31 0 -38 -3 -34 -15 7 -18 -12 -20 -19 -2 -4 9 -7 9 -14 -1 -5 -7 -27
-11 -50 -10 -39 1 -39 2 -21 20 26 26 23 43 -4 18 -12 -11 -26 -20 -30 -20 -5
0 -6 -4 -3 -10 9 -15 -68 -13 -83 2 -9 9 -17 10 -30 1 -11 -6 -82 -11 -182
-12 -91 -1 -174 -3 -185 -5 -11 -2 -28 1 -37 5 -9 5 -19 6 -22 1 -7 -12 -3586
-15 -3586 -3 0 6 5 11 11 11 8 0 8 4 0 13 -7 9 -8 24 -1 45 7 28 6 32 -11 32
-11 0 -21 -9 -24 -22z m4713 -63 c3 -3 -29 -5 -71 -5 -43 0 -77 4 -77 9 0 8
139 5 148 -4z m-338 -5 c0 -5 -4 -10 -10 -10 -5 0 -10 5 -10 10 0 6 5 10 10
10 6 0 10 -4 10 -10z m65 -1 c4 -5 -5 -9 -19 -9 -14 0 -26 4 -26 8 0 11 39 12
45 1z m-2809 -371 c-20 -11 -23 -117 -4 -136 9 -9 3 -12 -27 -11 -22 1 -32 3
-22 6 14 4 17 16 17 68 0 35 -4 67 -10 70 -21 13 -9 21 26 17 29 -4 33 -7 20
-14z m824 -63 c0 -41 -1 -78 -2 -82 -5 -14 -89 -7 -99 8 -24 39 -3 79 43 79
24 0 28 4 28 29 0 16 -6 32 -12 34 -7 3 -1 6 15 6 l27 1 0 -75z m116 43 c0
-29 3 -33 33 -39 35 -7 51 -23 51 -50 0 -25 -28 -43 -71 -45 l-39 -2 0 72 c0
43 -5 77 -12 84 -9 9 -6 12 14 12 22 0 25 -4 24 -32z m-476 2 c0 -5 -7 -10
-15 -10 -8 0 -15 5 -15 10 0 6 7 10 15 10 8 0 15 -4 15 -10z m-320 -61 c6 -10
10 -27 10 -38 0 -12 7 -21 15 -21 8 0 15 5 15 10 0 6 8 5 20 -2 10 -7 23 -8
27 -4 4 5 2 11 -5 13 -20 8 -43 34 -39 47 2 6 18 12 35 14 25 3 32 -1 32 -14
0 -14 -3 -14 -15 -4 -29 24 -27 1 1 -25 28 -24 29 -25 9 -40 -10 -8 -30 -13
-45 -11 -14 2 -39 5 -55 5 -29 1 -31 3 -27 35 4 38 -11 54 -34 35 -11 -9 -14
-23 -11 -44 5 -28 2 -31 -16 -30 -12 1 -22 4 -21 6 1 2 4 14 8 26 4 12 2 31
-3 42 -10 18 -7 20 26 23 48 4 61 0 73 -23z m250 -9 c20 -36 -20 -78 -62 -64
-19 6 -21 3 -16 -33 5 -37 4 -39 -16 -36 -21 4 -22 7 -13 64 8 51 7 62 -8 79
-16 18 -16 19 27 22 50 4 73 -5 88 -32z m66 22 c-3 -4 -1 -25 4 -45 8 -37 8
-37 -24 -36 -17 0 -25 3 -18 6 15 6 16 55 0 71 -9 9 -6 12 16 12 15 0 25 -4
22 -8z m124 -7 c0 -18 -16 -20 -23 -2 -9 21 -28 -15 -24 -45 3 -25 1 -28 -27
-28 -22 0 -27 3 -17 9 10 6 12 20 8 45 l-6 36 45 0 c32 0 44 -4 44 -15z m100
11 c0 -2 3 -11 6 -19 4 -12 -3 -16 -28 -19 -45 -4 -46 -33 0 -33 34 0 42 -9
16 -19 -27 -10 -43 -7 -64 14 -24 24 -25 43 -4 64 13 14 74 23 74 12z m396 -5
c-4 -5 -2 -20 3 -33 9 -22 10 -22 16 10 5 20 13 32 24 32 14 0 10 -13 -21 -77
-21 -43 -40 -82 -42 -88 -2 -5 -6 -7 -10 -4 -3 3 1 20 10 38 17 35 9 78 -23
113 -15 17 -14 18 16 18 18 0 30 -4 27 -9z m209 -2 c11 -16 -3 -23 -19 -10
-31 26 -56 -27 -26 -54 15 -13 23 -14 39 -5 12 6 21 7 21 2 0 -26 -89 -22 -91
4 -1 8 -2 20 -3 27 -4 34 62 64 79 36z m130 -9 c15 -17 16 -24 7 -45 -21 -45
-87 -42 -112 5 -25 46 67 81 105 40z m65 -20 c0 -38 2 -40 28 -38 26 2 28 5
25 40 -4 46 13 51 19 6 3 -18 7 -39 9 -47 3 -10 -8 -15 -38 -16 -47 -3 -66 11
-61 47 2 13 -4 28 -12 35 -13 11 -12 12 8 13 19 0 22 -5 22 -40z m200 23 c0
-15 -2 -15 -9 -4 -15 24 -44 -6 -39 -41 4 -22 1 -28 -15 -28 -14 0 -17 4 -12
18 5 9 8 25 9 35 0 9 4 17 9 17 4 0 6 4 3 8 -2 4 9 9 25 10 22 2 29 -2 29 -15z
m79 8 c7 -5 10 -14 7 -20 -4 -6 -2 -11 3 -11 6 0 11 -8 11 -18 0 -17 21 -32
60 -45 9 -4 7 -6 -7 -6 -12 -1 -25 4 -28 9 -4 6 -14 9 -23 8 -9 -2 -16 3 -14
10 1 6 -2 12 -8 12 -5 0 -7 7 -3 15 5 13 2 14 -20 4 -15 -7 -23 -17 -20 -25 3
-8 1 -14 -4 -14 -5 0 -9 8 -10 18 -1 12 10 22 30 30 24 9 28 15 20 23 -9 9
-16 9 -28 -1 -17 -14 -31 -8 -20 9 8 13 35 14 54 2z m131 -3 c0 -4 -13 -5 -30
-1 -27 5 -30 3 -30 -21 0 -18 5 -26 18 -27 13 0 14 -2 2 -6 -8 -3 -18 -11 -22
-17 -5 -6 -8 -1 -8 12 0 12 -4 22 -10 22 -5 0 -10 5 -10 11 0 5 5 7 10 4 6 -3
10 3 10 15 0 17 5 20 35 18 19 -1 35 -6 35 -10z m75 2 c-28 -12 -37 -12 -30 0
3 6 16 10 28 9 21 0 21 -1 2 -9z m-83 -42 c-7 -7 -12 -8 -12 -2 0 14 12 26 19
19 2 -3 -1 -11 -7 -17z m58 -9 c0 -10 6 -19 14 -19 8 0 18 -4 21 -10 7 -11
-23 -2 -42 13 -15 11 -18 51 -3 42 6 -3 10 -15 10 -26z m37 25 c-3 -3 -12 -4
-19 -1 -8 3 -5 6 6 6 11 1 17 -2 13 -5z m-80 -106 c-3 -7 -5 -2 -5 12 0 14 2
19 5 13 2 -7 2 -19 0 -25z m-81 3 c0 -11 -4 -17 -8 -15 -4 3 -8 12 -8 20 0 8
4 14 8 14 4 0 8 -9 8 -19z m-2691 -84 c14 -11 17 -22 12 -45 -4 -18 -2 -32 3
-32 18 0 22 -41 5 -60 -14 -15 -31 -19 -78 -19 -33 1 -55 4 -49 8 16 10 19
125 3 145 -12 14 -9 16 36 16 27 0 57 -6 68 -13z m586 -14 c1 -16 0 -32 -1
-38 -5 -26 -4 -93 2 -89 4 2 10 -1 14 -8 4 -7 4 -10 0 -6 -4 3 -23 2 -43 -4
-28 -8 -38 -6 -54 8 -38 34 -7 99 42 87 16 -4 19 0 19 26 0 17 -4 31 -10 31
-5 0 -10 5 -10 10 0 6 9 10 20 10 15 0 20 -7 21 -27z m129 -11 c0 -37 2 -39
31 -39 32 0 49 -15 49 -45 0 -26 -9 -22 -20 8 -7 19 -16 25 -33 22 -17 -2 -22
-10 -22 -33 0 -27 3 -30 33 -29 17 1 32 -2 32 -7 0 -6 -20 -8 -45 -7 l-45 3 0
73 c0 41 -4 72 -10 72 -5 0 -10 5 -10 10 0 6 9 10 20 10 17 0 20 -7 20 -38z
m355 27 c10 -16 -3 -23 -18 -11 -18 15 -27 5 -27 -30 l0 -28 70 0 c39 0 70 -4
70 -10 0 -5 -10 -9 -22 -7 -19 2 -24 -4 -26 -27 -2 -16 2 -32 9 -37 8 -5 1 -7
-19 -7 -18 1 -28 4 -22 8 6 4 10 20 8 36 -3 25 -8 29 -37 32 -33 3 -33 3 -29
-36 3 -36 1 -39 -20 -39 -17 0 -20 3 -13 10 18 18 14 67 -6 67 -17 1 -17 1 0
11 9 5 17 20 17 32 0 39 48 65 65 36z m561 -66 c1 -39 4 -76 8 -82 4 -6 2 -11
-3 -12 -74 -7 -111 5 -111 36 0 32 33 65 58 58 24 -6 36 21 22 47 -14 25 -13
29 7 26 15 -2 18 -15 19 -73z m154 37 c0 -36 2 -39 33 -42 30 -3 32 -6 38 -45
4 -29 2 -43 -6 -43 -7 0 -12 14 -13 31 -1 38 -14 54 -37 45 -13 -5 -16 -15
-13 -41 4 -31 1 -35 -19 -35 -20 0 -22 3 -14 18 12 23 5 126 -9 130 -16 6 -4
17 19 19 18 2 21 -4 21 -37z m522 28 c-16 -16 -16 -120 0 -136 7 -7 26 -13 43
-13 27 -2 27 -2 4 -6 -14 -2 -38 1 -53 7 -27 10 -27 12 -24 75 2 40 0 65 -7
66 -5 1 1 5 15 9 35 11 35 11 22 -2z m1078 -2 c0 -8 -5 -18 -11 -22 -7 -4 -9
-22 -6 -45 3 -22 1 -39 -4 -39 -10 0 -12 103 -2 113 11 12 23 8 23 -7z m-970
0 c0 -3 -4 -8 -10 -11 -5 -3 -10 -1 -10 4 0 6 5 11 10 11 6 0 10 -2 10 -4z
m-1200 -26 c0 -5 -2 -10 -4 -10 -3 0 -8 5 -11 10 -3 6 -1 10 4 10 6 0 11 -4
11 -10z m720 0 c0 -5 -4 -10 -9 -10 -6 0 -13 5 -16 10 -3 6 1 10 9 10 9 0 16
-4 16 -10z m1032 -32 c-7 -7 -12 -8 -12 -2 0 14 12 26 19 19 2 -3 -1 -11 -7
-17z m-2805 -24 c20 -19 13 -43 -18 -66 -33 -25 -75 -11 -85 28 -14 54 60 81
103 38z m1183 -10 c0 -13 -9 -15 -39 -12 -35 3 -38 2 -31 -17 6 -15 17 -20 43
-20 20 0 33 -3 29 -6 -37 -34 -100 -2 -88 45 11 45 86 54 86 10z m1067 9 c1
-22 -1 -24 -8 -10 -6 9 -7 22 -4 27 9 14 10 13 12 -17z m1123 12 c-7 -9 -15
-13 -17 -11 -7 7 7 26 19 26 6 0 6 -6 -2 -15z m266 -12 c-10 -10 -19 5 -10 18
6 11 8 11 12 0 2 -7 1 -15 -2 -18z m52 -4 c-3 -8 -7 -3 -11 10 -4 17 -3 21 5
13 5 -5 8 -16 6 -23z m-3628 -3 c0 -35 10 -56 26 -56 19 0 29 47 14 65 -10 12
-9 15 8 15 16 0 21 -8 24 -42 3 -24 4 -44 3 -46 -1 -1 -19 -3 -39 -4 -42 -1
-56 12 -56 54 0 14 -6 29 -12 31 -7 3 -3 6 10 6 17 1 22 -5 22 -23z m218 -11
c2 -16 8 -36 14 -42 8 -10 3 -13 -23 -13 -22 0 -29 3 -21 9 19 12 11 65 -10
69 -13 2 -22 -8 -34 -37 -20 -51 -31 -53 -26 -5 3 24 0 39 -9 45 -9 6 8 8 46
7 59 -3 60 -4 63 -33z m407 23 c-3 -7 0 -20 5 -28 9 -13 11 -13 20 0 5 8 8 21
5 28 -2 7 3 12 14 12 16 0 16 -4 -7 -51 l-25 -50 -20 43 c-11 24 -25 46 -31
50 -6 4 1 8 16 8 18 0 26 -4 23 -12z m367 -18 c-2 -17 1 -37 8 -45 11 -13 8
-15 -14 -15 -22 0 -25 3 -18 16 11 19 4 55 -12 66 -6 4 1 8 15 8 23 0 25 -3
21 -30z m266 -17 c2 -31 -1 -43 -10 -43 -10 0 -13 10 -10 35 3 26 0 36 -13 42
-23 8 -46 -23 -41 -54 4 -17 0 -23 -14 -23 -15 0 -17 5 -10 35 6 28 4 37 -9
45 -11 7 1 9 44 8 l60 -3 3 -42z m242 38 c0 -5 -10 -7 -22 -4 l-23 6 23 -26
c23 -24 24 -67 2 -67 -20 0 -40 13 -40 27 0 12 2 12 16 -1 8 -9 20 -14 25 -11
15 10 10 23 -10 30 -21 6 -34 31 -25 46 7 12 54 12 54 0z m207 -5 c-3 -8 -2
-29 3 -45 8 -29 7 -31 -18 -30 -15 0 -21 3 -14 6 6 2 12 20 12 38 0 18 -6 36
-12 38 -7 3 -2 6 11 6 16 1 22 -3 18 -13z m147 -19 c7 -20 6 -31 -3 -40 -10
-10 -12 -7 -10 13 4 34 -7 50 -37 50 -13 0 -24 -1 -25 -2 0 -2 -3 -32 -6 -67
-4 -47 -2 -66 8 -72 10 -6 4 -8 -16 -8 -16 0 -24 3 -17 6 8 3 12 26 12 67 0
36 -5 67 -12 75 -11 10 -2 12 42 9 49 -3 56 -6 64 -31z m432 21 c-10 -6 -16
-22 -16 -43 0 -30 -3 -35 -22 -35 -13 0 -18 3 -12 8 15 10 24 51 13 58 -18 11
-8 21 22 21 23 0 27 -3 15 -9z m284 8 c0 -3 -4 -8 -10 -11 -5 -3 -10 -1 -10 4
0 6 5 11 10 11 6 0 10 -2 10 -4z m875 -6 c-4 -6 -11 -7 -17 -4 -7 5 -9 2 -6
-8 4 -8 3 -20 -2 -27 -5 -9 -9 -2 -12 18 -4 27 -2 31 19 31 14 0 21 -4 18 -10z
m75 -11 c0 -6 -5 -7 -11 -3 -8 4 -9 -3 -4 -25 5 -22 3 -31 -6 -31 -7 0 -10 3
-7 6 4 3 2 19 -2 35 -5 18 -5 27 1 24 5 -4 9 -1 9 5 0 6 5 8 10 5 6 -3 10 -11
10 -16z m-247 -11 c-4 -19 -3 -20 6 -8 13 18 14 1 1 -20 -8 -12 -10 -12 -16 3
-3 9 -4 24 0 32 8 23 15 18 9 -7z m109 -16 c-5 -14 -7 -12 -13 8 l-7 25 -2
-25 c-1 -14 -4 -19 -7 -12 -3 7 -2 20 1 28 5 13 9 14 21 4 8 -6 11 -19 7 -28z
m-506 -2 c0 -11 -4 -20 -8 -20 -4 0 -8 9 -8 20 0 11 4 20 8 20 4 0 8 -9 8 -20z
m691 -2 c-3 -8 -6 -5 -6 6 -1 11 2 17 5 13 3 -3 4 -12 1 -19z m-904 -13 c-3
-9 -8 -14 -10 -11 -3 3 -2 9 2 15 9 16 15 13 8 -4z m87 5 c0 -5 -4 -10 -10
-10 -5 0 -10 5 -10 10 0 6 5 10 10 10 6 0 10 -4 10 -10z m272 -12 c-7 -7 -12
-8 -12 -2 0 14 12 26 19 19 2 -3 -1 -11 -7 -17z m-672 -3 c0 -2 -6 -5 -13 -8
-8 -3 -14 1 -14 8 0 7 6 11 14 8 7 -3 13 -6 13 -8z m1330 5 c0 -5 -5 -10 -11
-10 -5 0 -7 5 -4 10 3 6 8 10 11 10 2 0 4 -4 4 -10z m-1750 -8 c0 -5 -7 -9
-15 -9 -8 0 -15 4 -15 9 0 4 7 8 15 8 8 0 15 -4 15 -8z m635 -2 c3 -6 -1 -7
-9 -4 -18 7 -21 14 -7 14 6 0 13 -4 16 -10z m859 -41 c-3 -5 0 -9 5 -9 6 0 11
-4 11 -8 0 -5 -7 -9 -15 -9 -11 0 -15 11 -14 41 0 36 1 38 10 18 5 -13 7 -28
3 -33z m206 47 c0 -2 -7 -7 -16 -10 -8 -3 -12 -2 -9 4 6 10 25 14 25 6z
m-1809 -15 c-8 -5 -20 -7 -28 -4 -21 8 -15 13 15 13 20 0 23 -3 13 -9z m-1201
-51 c-6 -12 -14 -20 -17 -17 -2 3 1 14 8 26 17 26 24 19 9 -9z m-1242 -122 c7
-7 12 -8 12 -2 0 11 139 12 157 1 6 -4 15 -3 18 3 5 8 11 8 20 0 7 -6 20 -8
29 -4 9 3 16 1 16 -6 0 -7 8 -9 20 -5 12 4 20 2 20 -5 0 -7 8 -10 20 -7 13 3
20 0 20 -10 0 -10 6 -12 20 -8 14 4 20 2 20 -8 0 -10 7 -13 20 -10 11 3 20 0
20 -6 0 -6 9 -11 20 -11 11 0 19 -6 18 -12 -2 -7 5 -12 15 -10 10 2 17 -3 17
-13 0 -8 6 -15 14 -15 8 0 16 -7 20 -15 3 -8 13 -15 21 -15 9 0 13 -4 10 -10
-3 -5 3 -10 14 -10 13 0 19 -5 15 -14 -3 -9 3 -17 15 -21 12 -3 19 -11 15 -16
-3 -6 3 -13 14 -16 13 -3 18 -11 15 -19 -3 -9 1 -14 12 -14 11 0 15 -5 12 -14
-3 -8 1 -17 9 -20 8 -3 14 -12 14 -21 0 -8 5 -15 10 -15 6 0 10 -9 10 -20 0
-11 5 -20 10 -20 6 0 10 -9 10 -20 0 -11 5 -20 11 -20 5 0 7 -5 4 -10 -4 -6
-1 -17 5 -25 6 -8 9 -19 6 -24 -4 -5 -2 -12 3 -16 6 -3 8 -12 5 -19 -3 -8 -1
-17 5 -21 6 -3 11 -11 11 -17 0 -6 -7 -5 -17 3 -16 13 -16 13 0 -10 10 -15 14
-34 11 -48 -4 -16 -2 -23 7 -23 11 0 11 -2 0 -9 -12 -8 -12 -12 -2 -24 6 -9 8
-18 3 -21 -5 -3 -8 -21 -7 -41 0 -19 -3 -35 -8 -35 -5 0 -7 -9 -4 -20 4 -14
-1 -25 -14 -33 -24 -15 -25 -29 -1 -20 15 6 15 5 4 -10 -8 -9 -11 -21 -7 -27
3 -5 -1 -10 -11 -10 -11 0 -15 -6 -11 -20 3 -13 0 -20 -9 -20 -17 0 -18 -12
-2 -28 9 -9 7 -12 -10 -12 -12 0 -26 10 -33 21 -7 13 -7 19 -1 15 7 -4 9 13 6
51 -2 32 -1 52 2 46 10 -22 21 -14 17 12 -3 13 -14 27 -24 30 -46 15 -9 72 38
60 l28 -6 -22 20 c-12 12 -27 21 -33 21 -5 0 -10 7 -10 15 0 8 5 15 12 15 9 0
9 3 0 12 -16 16 -15 23 4 42 14 15 14 16 -5 16 -13 0 -21 6 -21 16 0 11 5 14
17 10 9 -4 5 4 -10 18 -22 21 -33 47 -25 59 1 1 -11 21 -25 44 -15 24 -27 47
-27 51 0 5 -14 23 -30 40 -17 18 -30 34 -30 38 1 3 -12 15 -27 27 -15 12 -31
25 -34 30 -4 5 -12 7 -18 3 -7 -5 -8 -1 -4 10 4 12 3 15 -5 10 -7 -4 -12 -2
-12 3 0 6 -6 11 -14 11 -7 0 -19 7 -26 15 -7 8 -16 12 -21 9 -5 -2 -19 2 -31
9 -51 32 -133 51 -229 51 -53 1 -92 4 -86 8 19 12 -1 21 -30 14 -21 -6 -24 -9
-12 -17 10 -6 10 -9 1 -9 -7 0 -15 6 -18 14 -3 8 -12 17 -19 20 -9 3 -12 0 -8
-10 3 -8 -1 -14 -8 -14 -8 0 -22 20 -32 45 -17 40 -17 46 -4 60 9 8 23 15 31
15 9 0 16 5 16 11 0 8 5 8 15 -1 12 -10 16 -9 21 4 7 19 16 20 32 4z m-140
-77 c3 -8 -1 -12 -9 -9 -7 2 -15 10 -17 17 -3 8 1 12 9 9 7 -2 15 -10 17 -17z
m7 -46 c15 -24 -29 -59 -56 -44 -15 8 -19 19 -17 54 l3 44 30 -19 c17 -11 35
-26 40 -35z m-85 21 c0 -3 -4 -8 -10 -11 -5 -3 -10 -1 -10 4 0 6 5 11 10 11 6
0 10 -2 10 -4z m-54 -14 c18 -12 57 -83 49 -90 -7 -7 -44 36 -45 52 0 5 -7 18
-17 28 -16 18 -8 25 13 10z m-28 -48 c-4 -3 -12 5 -18 18 -12 22 -12 22 6 6
10 -10 15 -20 12 -24z m-43 -14 c-6 -20 9 -28 20 -10 9 14 28 12 22 -2 -2 -7
2 -21 11 -31 20 -23 7 -35 -16 -14 -24 22 -29 21 -35 -3 -3 -12 1 -24 11 -29
14 -8 15 -12 5 -22 -7 -7 -13 -24 -13 -37 0 -24 -52 -126 -71 -137 -11 -8 -11
-3 0 28 8 20 5 26 -25 42 -37 20 -42 30 -19 39 9 3 12 12 8 22 -5 13 -2 15 18
9 17 -4 20 -4 10 4 -12 8 -13 12 -1 25 11 14 11 16 -2 11 -16 -6 -45 21 -34
32 3 3 18 1 33 -6 24 -10 26 -10 11 2 -10 8 -18 17 -18 21 0 10 39 46 50 46 6
0 10 7 10 15 0 8 7 15 16 15 11 0 14 -6 9 -20z m-100 -110 c3 -6 -1 -13 -10
-16 -19 -8 -30 0 -20 15 8 14 22 14 30 1z m2215 -105 l0 -95 -140 0 -140 0 -2
-402 -3 -403 -105 0 -105 0 -3 403 -2 402 -145 0 -145 0 0 64 c0 35 3 78 6 95
l7 31 388 0 389 0 0 -95z m360 -115 l0 -210 180 0 c137 0 180 3 180 13 0 6 1
100 3 207 l4 195 107 3 106 3 0 -494 0 -495 -102 -4 c-57 -3 -107 -3 -111 -1
-4 3 -7 89 -7 191 l2 187 -182 0 -181 0 -2 -183 c-2 -150 -5 -184 -17 -193 -8
-5 -55 -8 -105 -7 l-90 3 -3 498 -2 497 110 0 110 0 0 -210z m1420 115 l0 -95
-210 0 -210 0 0 -120 0 -120 180 0 180 0 0 -85 0 -85 -180 0 -180 0 0 -100 0
-100 215 0 215 0 0 -95 0 -95 -325 0 -325 0 0 373 c0 206 3 429 7 495 l6 122
314 0 313 0 0 -95z m-4016 54 c-8 -14 -34 -10 -34 5 0 9 7 12 20 9 11 -3 17
-9 14 -14z m506 -15 c0 -8 -7 -14 -15 -14 -11 0 -15 -12 -15 -50 0 -27 -4 -50
-10 -50 -5 0 -10 23 -10 50 0 38 -4 50 -15 50 -21 0 -19 18 2 22 41 8 63 5 63
-8z m40 -20 c0 -19 5 -24 25 -24 21 0 25 5 25 30 0 17 5 30 10 30 6 0 10 -28
10 -65 0 -37 -4 -65 -10 -65 -5 0 -10 11 -10 25 0 20 -5 25 -24 25 -18 0 -26
-6 -28 -22 -2 -12 -9 -23 -15 -26 -10 -3 -13 13 -13 56 0 32 3 62 6 65 12 11
24 -3 24 -29z m154 27 c7 -11 -22 -23 -35 -15 -5 3 -9 -4 -9 -15 0 -14 6 -21
20 -21 11 0 20 -4 20 -10 0 -5 -9 -10 -20 -10 -11 0 -20 -4 -20 -10 0 -5 11
-10 25 -10 16 0 25 -6 25 -15 0 -10 -11 -15 -35 -15 l-35 0 0 65 0 65 29 0
c17 0 32 -4 35 -9z m-724 -21 c0 -5 -5 -10 -11 -10 -5 0 -7 5 -4 10 3 6 8 10
11 10 2 0 4 -4 4 -10z m-10 -34 c0 -3 -4 -8 -10 -11 -5 -3 -10 -1 -10 4 0 6 5
11 10 11 6 0 10 -2 10 -4z m50 -23 c28 -13 31 -18 18 -27 -8 -6 -13 -17 -11
-23 6 -16 -9 -16 -42 -1 -27 12 -33 36 -13 56 15 15 9 15 48 -5z m-80 -53 c0
-5 -4 -10 -10 -10 -5 0 -10 5 -10 10 0 6 5 10 10 10 6 0 10 -4 10 -10z m1142
-58 c10 -31 17 -64 17 -72 0 -12 -48 124 -49 139 -1 18 17 -20 32 -67z m-1040
17 l-8 -34 -6 27 c-3 15 -1 25 3 22 5 -3 9 3 9 12 0 10 3 15 6 12 3 -3 1 -21
-4 -39z m-89 -3 c-4 -6 1 -5 10 3 15 12 17 11 17 -5 0 -17 1 -17 13 1 17 23
28 8 16 -23 -7 -18 -13 -21 -36 -16 -16 3 -34 13 -40 22 -11 14 -13 12 -13
-12 0 -32 32 -66 62 -66 10 0 18 -5 18 -11 0 -7 -12 -10 -30 -7 -16 3 -30 0
-30 -5 0 -5 -7 -6 -16 -3 -13 5 -15 -6 -13 -77 1 -45 9 -113 19 -150 15 -56
15 -67 3 -67 -7 0 -13 6 -12 13 1 6 -1 19 -4 27 -20 47 -34 146 -30 216 5 105
8 128 17 142 4 7 5 16 2 20 -3 5 8 9 24 9 18 0 27 -4 23 -11z m70 -91 c-3 -9
-8 -14 -10 -11 -3 3 -2 9 2 15 9 16 15 13 8 -4z m281 9 c29 -11 18 -32 -16
-30 -28 1 -33 -3 -36 -25 -3 -29 20 -54 43 -45 19 7 20 26 0 26 -8 0 -15 5
-15 10 0 6 11 10 25 10 19 0 25 -5 25 -23 0 -51 -67 -66 -96 -22 -36 54 12
121 70 99z m249 -4 c14 -1 17 -11 17 -61 0 -44 -3 -60 -12 -56 -8 2 -13 22
-13 53 0 42 -3 49 -20 49 -16 0 -20 -8 -23 -45 -1 -25 -5 -52 -8 -60 -10 -29
-26 19 -19 59 5 33 4 39 -14 44 -19 5 -21 1 -21 -49 0 -41 -4 -54 -15 -54 -9
0 -15 9 -15 25 0 18 -5 25 -20 25 -15 0 -20 -7 -20 -26 0 -16 -5 -24 -12 -22
-8 3 -14 27 -16 61 -2 46 0 57 13 57 9 0 15 -9 15 -25 0 -18 5 -25 20 -25 14
0 20 7 20 23 0 33 4 35 68 31 31 -2 65 -4 75 -4z m131 -14 c-2 -22 9 -20 24 5
15 23 72 24 80 0 3 -10 -1 -12 -15 -9 -29 8 -53 -9 -53 -36 0 -29 22 -49 44
-40 20 8 21 24 1 24 -8 0 -15 5 -15 10 0 6 12 10 26 10 22 0 25 -4 22 -27 -2
-20 -11 -30 -32 -38 -25 -8 -31 -6 -52 18 -28 32 -34 34 -34 7 0 -18 -3 -19
-20 -10 -11 6 -24 9 -29 6 -5 -3 -8 2 -7 11 0 9 -4 18 -11 20 -8 3 -11 -5 -10
-21 1 -14 -2 -25 -8 -25 -11 -1 -14 40 -6 82 l6 29 28 -26 c15 -14 30 -26 33
-26 2 0 4 14 4 31 0 20 4 29 13 26 6 -2 11 -12 11 -21z m204 -44 l21 -53 -35
7 c-21 4 -40 2 -49 -6 -21 -17 -19 -2 7 65 11 31 24 52 28 48 4 -4 16 -32 28
-61z m52 18 c0 -43 3 -50 19 -50 11 0 23 -4 26 -10 4 -6 -8 -10 -29 -10 l-36
0 0 60 c0 33 4 60 10 60 6 0 10 -22 10 -50z m130 36 c0 -6 -10 -12 -21 -13
-12 -1 -23 -4 -26 -7 -10 -9 8 -26 28 -26 11 0 17 -4 14 -10 -3 -5 -15 -10
-26 -10 -28 0 -19 -23 9 -25 41 -3 36 -15 -6 -15 l-42 0 0 59 0 59 35 0 c20 0
35 -5 35 -12z m-949 -38 c23 -25 29 -22 29 12 0 17 5 30 10 30 6 0 10 -27 10
-62 l0 -62 -33 32 c-18 18 -35 32 -38 32 -3 0 -4 -13 -1 -30 3 -23 0 -30 -12
-30 -13 0 -16 12 -16 61 0 66 4 67 51 17z m89 -18 c0 -33 -4 -60 -10 -60 -6 0
-10 27 -10 60 0 33 4 60 10 60 6 0 10 -27 10 -60z m887 -2 c-3 -7 -5 -2 -5 12
0 14 2 19 5 13 2 -7 2 -19 0 -25z m-1107 -26 c0 -4 -5 -13 -12 -20 -9 -9 -9
-12 0 -12 7 0 12 -4 12 -10 0 -5 -14 -10 -30 -10 -28 0 -30 2 -20 20 9 16 8
20 -5 20 -8 0 -15 5 -15 10 0 6 16 10 35 10 19 0 35 -4 35 -8z m1113 -22 c-7
-28 -13 -25 -13 6 0 14 4 23 9 20 5 -3 7 -15 4 -26z m-1107 -82 c-9 -5 -29 -8
-44 -6 -26 4 -26 4 8 15 39 11 62 6 36 -9z m69 -78 c10 -25 25 -52 32 -61 7
-8 13 -20 13 -25 0 -21 171 -169 229 -199 99 -50 245 -65 356 -35 35 10 66 16
68 13 2 -2 10 3 17 12 7 8 23 15 35 15 13 0 26 5 28 10 3 6 4 5 3 -2 -2 -7 1
-21 6 -30 13 -26 -26 -62 -52 -48 -10 5 -22 15 -25 20 -4 7 -13 7 -26 0 -10
-6 -19 -8 -19 -4 0 3 -7 1 -15 -6 -10 -8 -13 -21 -9 -33 5 -16 3 -19 -12 -13
-10 4 -21 2 -25 -5 -4 -8 -12 -2 -22 17 l-15 29 -11 -27 c-13 -33 -26 -41 -57
-34 -17 5 -24 13 -24 31 0 29 -25 25 -33 -6 -6 -24 -27 -25 -27 -1 -1 16 -1
16 -14 0 -19 -25 -26 -22 -26 11 0 20 -6 30 -19 34 -24 6 -31 0 -31 -25 0 -10
-6 -18 -13 -18 -9 0 -12 9 -9 29 5 37 -24 51 -45 21 -29 -42 -77 -15 -53 30
10 18 8 24 -7 35 -16 12 -19 11 -27 -13 -12 -35 -9 -34 -40 -18 l-27 14 27 19
27 20 -42 43 c-22 23 -41 48 -41 56 0 7 -5 16 -11 20 -9 5 -10 -15 -5 -80 4
-48 10 -94 13 -102 3 -8 0 -14 -6 -14 -6 0 -10 6 -8 13 1 6 -4 11 -11 9 -8 -1
-16 7 -19 18 -3 11 -9 20 -13 20 -4 0 -8 37 -9 83 -1 45 -4 91 -7 102 -3 11
-6 31 -8 45 -2 14 -6 33 -10 43 -24 67 -10 58 19 -13z m645 -10 c8 -5 12 -11
10 -14 -3 -2 -14 2 -24 10 -22 15 -10 19 14 4z m-43 -22 c-3 -8 -6 -5 -6 6 -1
11 2 17 5 13 3 -3 4 -12 1 -19z m-707 -58 c0 -5 -4 -10 -10 -10 -5 0 -10 5
-10 10 0 6 5 10 10 10 6 0 10 -4 10 -10z m1190 -28 c-15 -5 -41 18 -34 30 3 5
15 1 26 -9 11 -10 15 -19 8 -21z m-550 -15 c0 -5 -4 -5 -10 -2 -5 3 -10 14
-10 23 0 15 2 15 10 2 5 -8 10 -19 10 -23z m528 -15 c6 -18 -15 -14 -22 4 -4
10 -1 14 6 12 6 -2 14 -10 16 -16z m-24 -27 c4 -10 -1 -15 -16 -15 -17 0 -18
2 -8 15 7 8 14 15 15 15 2 0 5 -7 9 -15z m-174 -43 c0 -4 -12 -16 -27 -26 -16
-9 -20 -15 -11 -12 10 3 20 1 23 -4 4 -6 1 -10 -5 -10 -7 0 -9 -8 -5 -20 9
-29 -10 -25 -30 6 -18 28 -14 37 27 59 30 17 28 16 28 7z m3764 -815 c50 -45
112 -100 137 -122 25 -22 118 -104 207 -183 l162 -143 0 256 0 255 110 0 110
0 0 -480 c0 -264 -4 -480 -8 -480 -4 0 -100 80 -213 178 -112 97 -248 215
-302 260 l-97 84 0 -246 0 -246 -110 0 -110 0 0 475 c0 347 3 475 11 475 7 0
53 -37 103 -83z m-2669 58 c242 -63 390 -277 364 -528 -19 -197 -156 -352
-364 -412 -82 -24 -246 -17 -330 15 -127 48 -223 139 -282 266 -32 69 -43 206
-24 293 27 127 137 269 251 324 117 56 266 73 385 42z m780 -210 l230 -224
225 224 c124 124 231 225 238 225 10 0 12 -99 10 -472 l-3 -473 -105 0 -105 0
-3 235 -2 234 -124 -123 c-68 -68 -129 -122 -135 -120 -5 2 -67 57 -136 122
l-125 118 0 -236 0 -236 -107 3 -108 3 2 395 c1 217 2 430 3 473 0 42 3 77 8
77 4 -1 111 -102 237 -225z m-2075 138 c90 -208 153 -353 173 -396 l23 -49 46
124 c25 67 67 180 93 250 l47 127 42 6 c39 6 174 1 182 -7 2 -2 -65 -175 -147
-383 -83 -209 -167 -422 -186 -472 -20 -51 -41 -93 -48 -93 -7 0 -44 69 -83
153 -39 83 -93 199 -120 257 -27 58 -52 114 -56 124 -4 12 -10 16 -15 10 -9
-9 -185 -385 -231 -492 -15 -34 -28 -52 -38 -50 -8 2 -27 35 -42 73 -15 39
-67 171 -115 295 -48 124 -117 299 -152 390 -36 91 -67 171 -70 178 -4 9 22
12 109 12 l113 0 49 -132 c26 -73 63 -173 81 -223 18 -49 37 -102 40 -117 4
-16 10 -28 14 -28 3 0 25 44 48 98 22 53 69 160 103 237 34 77 66 150 71 163
15 39 35 24 69 -55z m3640 -23 l0 -90 -210 0 -210 0 -5 -23 c-4 -13 -5 -61 -3
-107 l3 -85 185 -1 185 -2 3 -81 3 -81 -185 0 -184 0 -5 -57 c-5 -48 -4 -81 2
-124 1 -3 99 -5 219 -5 l217 1 3 -86 3 -86 -62 -7 c-34 -3 -183 -6 -330 -6
l-269 0 0 465 0 465 320 0 320 0 0 -90z m361 -1063 c-10 -9 -11 -8 -5 6 3 10
9 15 12 12 3 -3 0 -11 -7 -18z m-4082 -20 c0 -21 -1 -21 -9 -2 -12 28 -12 37
0 30 6 -3 10 -16 9 -28z m-75 -13 c3 -8 2 -12 -4 -9 -6 3 -10 10 -10 16 0 14
7 11 14 -7z m4165 -61 c0 -33 -3 -52 -7 -45 -12 18 -15 115 -4 108 5 -3 10
-32 11 -63z m-54 37 c-3 -5 -11 -10 -16 -10 -6 0 -7 5 -4 10 3 6 11 10 16 10
6 0 7 -4 4 -10z m134 -24 c-3 -3 -11 5 -18 17 -13 21 -12 21 5 5 10 -10 16
-20 13 -22z m225 18 c10 -25 -1 -29 -14 -5 -6 12 -7 21 -1 21 5 0 12 -7 15
-16z m156 6 c0 -5 -4 -10 -10 -10 -5 0 -10 5 -10 10 0 6 5 10 10 10 6 0 10 -4
10 -10z m-696 -15 c3 -8 1 -15 -4 -15 -6 0 -10 7 -10 15 0 8 2 15 4 15 2 0 6
-7 10 -15z m-3706 -20 c-3 -3 -9 2 -12 12 -6 14 -5 15 5 6 7 -7 10 -15 7 -18z
m319 3 c-3 -8 -6 -5 -6 6 -1 11 2 17 5 13 3 -3 4 -12 1 -19z m3843 -20 c0 -10
-4 -18 -10 -18 -5 0 -10 15 -10 33 0 24 3 28 10 17 5 -8 10 -23 10 -32z m-383
0 c-3 -8 -6 -5 -6 6 -1 11 2 17 5 13 3 -3 4 -12 1 -19z m-3917 2 c0 -5 -5 -10
-11 -10 -5 0 -7 5 -4 10 3 6 8 10 11 10 2 0 4 -4 4 -10z m41 -53 c-13 -13 -15
21 -3 50 6 15 8 13 10 -11 2 -16 -1 -33 -7 -39z m3719 42 c0 -5 -4 -9 -10 -9
-5 0 -10 7 -10 16 0 8 5 12 10 9 6 -3 10 -10 10 -16z m464 -12 c-9 -25 -25
-21 -20 6 3 12 5 24 5 27 1 2 6 -1 11 -6 6 -6 8 -18 4 -27z m-4324 3 c6 -11 8
-20 6 -20 -3 0 -10 9 -16 20 -6 11 -8 20 -6 20 3 0 10 -9 16 -20z m303 -12
c-6 -31 -20 -39 -18 -10 1 18 15 46 20 40 2 -2 1 -15 -2 -30z m3947 6 c0 -8
-8 -14 -17 -14 -14 0 -15 2 -4 9 8 5 10 14 6 21 -5 9 -4 11 3 6 7 -4 12 -14
12 -22z m234 14 c-3 -4 -12 -8 -20 -8 -8 0 -13 4 -10 8 3 5 12 9 20 9 8 0 13
-4 10 -9z m206 -9 c0 -5 -4 -9 -10 -9 -5 0 -10 7 -10 16 0 8 5 12 10 9 6 -3
10 -10 10 -16z m-4127 -14 c-7 -21 -13 -19 -13 6 0 11 4 18 10 14 5 -3 7 -12
3 -20z m3227 15 c0 -5 -5 -10 -11 -10 -5 0 -7 5 -4 10 3 6 8 10 11 10 2 0 4
-4 4 -10z m280 -5 c7 -9 8 -15 2 -15 -5 0 -12 7 -16 15 -3 8 -4 15 -2 15 2 0
9 -7 16 -15z m-3976 -10 c-7 -16 -24 -21 -24 -6 0 8 7 13 27 20 1 1 0 -6 -3
-14z m4566 5 c0 -5 -2 -10 -4 -10 -3 0 -8 5 -11 10 -3 6 -1 10 4 10 6 0 11 -4
11 -10z m-3876 -9 c3 -5 0 -11 -7 -14 -8 -3 -14 1 -14 9 0 16 13 19 21 5z
m116 -6 c0 -8 -7 -15 -15 -15 -16 0 -20 12 -8 23 11 12 23 8 23 -8z m-715 -5
c-3 -5 -11 -10 -16 -10 -6 0 -7 5 -4 10 3 6 11 10 16 10 6 0 7 -4 4 -10z m290
0 c3 -5 1 -10 -4 -10 -6 0 -11 5 -11 10 0 6 2 10 4 10 3 0 8 -4 11 -10z m1712
4 c-3 -3 -12 -4 -19 -1 -8 3 -5 6 6 6 11 1 17 -2 13 -5z m2433 -15 c0 -14 -17
-10 -23 5 -4 10 -1 13 9 9 7 -3 14 -9 14 -14z m-2598 0 c6 -18 96 -23 309 -18
94 2 111 0 160 -23 68 -31 161 -97 154 -109 -6 -9 -565 -4 -615 6 -14 2 -44 8
-68 13 -23 5 -44 6 -46 3 -7 -11 -196 -12 -196 -2 0 5 9 12 19 16 11 3 18 12
15 19 -6 15 131 86 167 86 13 0 31 5 39 10 20 13 57 13 62 -1z m2503 -37 c-3
-3 -11 0 -18 7 -9 10 -8 11 6 5 10 -3 15 -9 12 -12z m-345 -22 c0 -5 -4 -10
-10 -10 -5 0 -10 5 -10 10 0 6 5 10 10 10 6 0 10 -4 10 -10z m-4040 -77 c0
-43 -5 -85 -10 -93 -8 -13 -10 -12 -11 5 -5 62 -4 101 4 112 5 7 7 22 4 33 -3
11 -1 20 4 20 5 0 9 -35 9 -77z m780 56 c0 -5 -4 -9 -10 -9 -5 0 -10 7 -10 16
0 8 5 12 10 9 6 -3 10 -10 10 -16z m3405 0 c-10 -15 -25 -10 -19 6 4 8 10 12
15 9 5 -3 7 -10 4 -15z m-3435 1 c0 -5 -2 -10 -4 -10 -3 0 -8 5 -11 10 -3 6
-1 10 4 10 6 0 11 -4 11 -10z m3286 -70 c3 -50 2 -61 -8 -52 -9 7 -12 30 -10
67 5 71 12 65 18 -15z m-4364 13 c-4 -67 -11 -95 -22 -88 -6 3 -10 33 -10 65
0 47 3 59 18 63 9 3 17 5 17 6 0 0 -1 -20 -3 -46z m108 -70 c-11 -17 -11 -17
-6 0 3 10 7 42 8 70 l2 52 3 -52 c2 -29 -1 -61 -7 -70z m850 113 c0 -3 -4 -8
-10 -11 -5 -3 -10 -1 -10 4 0 6 5 11 10 11 6 0 10 -2 10 -4z m-403 -38 c-3 -8
-6 -5 -6 6 -1 11 2 17 5 13 3 -3 4 -12 1 -19z m461 -28 c1 -59 7 -71 30 -64
14 5 15 4 2 -5 -26 -19 -36 -12 -38 26 -2 21 -8 40 -13 44 -8 4 -8 13 0 28 7
11 13 21 15 21 2 0 4 -23 4 -50z m3419 18 c-3 -7 -5 -2 -5 12 0 14 2 19 5 13
2 -7 2 -19 0 -25z m-3337 9 c0 -9 10 -12 31 -9 32 5 49 -8 49 -37 0 -10 -7 -8
-23 8 -32 29 -57 19 -57 -24 0 -18 6 -36 13 -39 6 -3 2 -4 -11 -3 -12 1 -23 5
-22 10 0 4 0 30 0 57 0 28 5 50 10 50 6 0 10 -6 10 -13z m2458 -19 c1 -26 -1
-29 -9 -16 -5 9 -6 23 -3 32 9 23 11 20 12 -16z m596 24 c2 -4 -4 -8 -14 -8
-10 0 -16 4 -14 8 3 4 9 8 14 8 5 0 11 -4 14 -8z m153 -7 c8 -23 0 -24 -19 -3
-15 15 -16 18 -3 18 9 0 18 -7 22 -15z m213 -5 c0 -11 -6 -20 -12 -21 -10 0
-10 -2 0 -6 16 -6 15 -21 -2 -38 -11 -11 -13 -8 -11 23 3 58 4 62 15 62 6 0
10 -9 10 -20z m95 10 c-3 -5 -12 -10 -18 -10 -7 0 -6 4 3 10 19 12 23 12 15 0z
m48 -9 c-4 -3 -11 -10 -15 -15 -4 -4 -6 1 -5 12 1 12 6 18 15 15 7 -3 10 -9 5
-12z m-477 -28 c-2 -32 -13 -53 -27 -53 -6 0 -4 6 4 14 8 8 13 28 12 45 -1 16
2 28 5 26 4 -3 7 -17 6 -32z m-3776 0 c-1 -16 -7 -39 -15 -53 -14 -24 -14 -24
-15 -3 0 12 5 25 11 29 6 3 9 17 6 30 -2 13 0 24 4 24 5 0 9 -12 9 -27z m270
12 c0 -8 -4 -15 -10 -15 -5 0 -10 7 -10 15 0 8 5 15 10 15 6 0 10 -7 10 -15z
m204 -34 c-13 -33 -19 -39 -30 -30 -14 12 -9 33 6 24 4 -2 13 9 20 25 7 17 15
29 17 27 2 -3 -4 -23 -13 -46z m76 33 c0 -14 -3 -15 -17 -3 -10 7 -20 15 -22
16 -2 2 5 3 17 3 14 0 22 -6 22 -16z m90 12 c0 -3 -4 -8 -10 -11 -5 -3 -10 -1
-10 4 0 6 5 11 10 11 6 0 10 -2 10 -4z m2775 -6 c3 -5 1 -10 -4 -10 -6 0 -11
5 -11 10 0 6 2 10 4 10 3 0 8 -4 11 -10z m210 0 c3 -5 1 -10 -4 -10 -6 0 -11
5 -11 10 0 6 2 10 4 10 3 0 8 -4 11 -10z m405 -42 c0 -19 -18 -34 -28 -23 -4
4 -1 10 6 12 6 3 12 9 12 14 0 6 -3 8 -7 6 -5 -3 -9 6 -9 19 -2 23 -1 24 12 7
7 -10 14 -26 14 -35z m150 4 c0 -23 -17 -4 -23 25 -5 26 -4 26 9 8 8 -10 14
-25 14 -33z m-4115 -19 l-8 -38 -10 32 c-11 38 -2 72 15 55 7 -7 8 -24 3 -49z
m3632 -8 c-1 -37 -6 -65 -12 -65 -10 0 -11 90 -1 116 10 27 14 13 13 -51z
m-3550 8 c-3 -10 -5 -2 -5 17 0 19 2 27 5 18 2 -10 2 -26 0 -35z m1553 37 c0
-5 -7 -10 -16 -10 -8 0 -12 -4 -9 -10 3 -5 34 -10 68 -11 48 -1 55 -3 32 -8
-34 -8 -88 -6 -104 4 -6 3 -16 15 -21 26 -10 17 -7 19 20 19 16 0 30 -4 30
-10z m2620 6 c0 -2 -7 -9 -15 -16 -13 -11 -14 -10 -9 4 5 14 24 23 24 12z
m-4535 -30 c0 -13 -5 -28 -11 -34 -9 -8 -13 -3 -16 18 -2 16 -1 27 4 24 4 -3
8 0 8 5 0 6 3 11 8 11 4 0 7 -11 7 -24z m4055 0 c0 -10 -34 2 -38 13 -3 10 0
10 17 2 11 -7 21 -13 21 -15z m420 10 c0 -7 -7 -19 -15 -26 -12 -10 -15 -9
-15 7 0 11 3 23 7 26 11 12 23 8 23 -7z m-3996 -12 c3 -8 2 -12 -4 -9 -6 3
-10 10 -10 16 0 14 7 11 14 -7z m1846 5 c0 -8 17 -9 58 -4 75 10 149 7 172 -7
14 -9 28 -9 57 1 23 7 46 9 59 4 44 -17 105 -107 134 -197 11 -34 11 -40 -5
-48 -15 -9 -15 -11 6 -22 22 -10 24 -18 24 -81 0 -68 -1 -70 -25 -71 -14 0
-32 5 -40 12 -9 7 -36 13 -60 14 -106 3 -198 0 -240 -8 -25 -4 -66 -5 -92 -2
-34 4 -48 2 -48 -6 0 -15 59 -36 92 -33 59 5 109 -1 102 -13 -4 -7 -11 -32
-15 -56 -8 -57 13 -106 42 -97 10 4 19 4 19 0 0 -11 -54 -26 -109 -31 -96 -8
-225 -25 -234 -31 -4 -3 -17 3 -29 14 -11 10 -22 17 -24 16 -2 -1 -9 -1 -16 1
-7 3 -31 7 -52 10 -22 3 -43 10 -46 17 -5 7 -40 12 -87 13 l-79 1 2 48 c2 38
-2 52 -19 67 -29 27 -79 25 -127 -5 -43 -27 -50 -48 -23 -64 23 -13 12 -23
-28 -24 -31 -2 -33 0 -41 42 -9 54 -21 69 -65 77 -27 5 -39 2 -57 -15 l-23
-22 -17 25 c-11 18 -16 48 -16 105 0 115 -2 113 89 105 42 -4 88 -13 103 -20
15 -8 38 -14 53 -14 14 0 25 -6 25 -12 0 -7 5 -5 11 5 6 9 15 15 20 11 15 -9
139 27 139 40 0 6 -11 22 -23 36 -19 22 -29 25 -63 22 -28 -3 -46 1 -57 12 -9
9 -18 12 -21 7 -3 -5 -26 -12 -51 -15 -29 -5 -45 -12 -45 -22 0 -11 -17 -14
-81 -14 -92 0 -91 -4 -39 100 41 80 63 100 113 101 23 0 51 3 62 5 47 12 141
11 155 -1 8 -7 38 -16 65 -19 28 -3 77 -11 111 -17 73 -14 120 -3 117 28 -1
14 7 22 30 30 45 14 137 16 137 2z m1370 -9 c0 -11 -2 -20 -4 -20 -2 0 -6 9
-9 20 -3 11 -1 20 4 20 5 0 9 -9 9 -20z m83 0 c3 -13 0 -20 -9 -20 -8 0 -14 9
-14 20 0 11 4 20 9 20 5 0 11 -9 14 -20z m897 -1 c0 -5 -4 -9 -10 -9 -5 0 -10
7 -10 16 0 8 5 12 10 9 6 -3 10 -10 10 -16z m-4600 -14 c0 -25 -18 -25 -22 -1
-4 17 -1 23 9 19 7 -3 13 -11 13 -18z m534 10 c-4 -8 -10 -12 -15 -9 -14 8
-10 24 6 24 9 0 12 -6 9 -15z m3224 1 c-7 -8 -15 -12 -17 -11 -5 6 10 25 20
25 5 0 4 -6 -3 -14z m-3078 -16 c0 -11 -4 -20 -10 -20 -5 0 -10 9 -10 20 0 11
5 20 10 20 6 0 10 -9 10 -20z m3355 10 c-3 -5 -14 -10 -23 -9 -14 0 -13 2 3 9
27 11 27 11 20 0z m-3135 -21 c0 -5 -4 -9 -10 -9 -5 0 -10 7 -10 16 0 8 5 12
10 9 6 -3 10 -10 10 -16z m3527 15 c-3 -3 -12 -4 -19 -1 -8 3 -5 6 6 6 11 1
17 -2 13 -5z m-4202 -14 c3 -5 1 -10 -4 -10 -6 0 -11 5 -11 10 0 6 2 10 4 10
3 0 8 -4 11 -10z m175 0 c0 -5 -5 -10 -11 -10 -5 0 -7 5 -4 10 3 6 8 10 11 10
2 0 4 -4 4 -10z m4130 -19 c0 -3 -10 -12 -22 -20 -21 -13 -22 -13 -9 2 7 9 10
24 7 33 -5 14 -4 15 9 4 8 -7 15 -15 15 -19z m-4619 -48 c-9 -16 -10 -16 -11
-1 0 9 3 25 7 35 7 16 8 17 11 1 2 -10 -1 -25 -7 -35z m4535 25 c3 -4 -1 -5
-10 -4 -8 1 -18 5 -22 8 -3 4 1 5 10 4 8 -1 18 -5 22 -8z m-265 -31 c-10 -9
-11 -8 -5 6 3 10 9 15 12 12 3 -3 0 -11 -7 -18z m189 8 c0 -8 -4 -15 -10 -15
-5 0 -10 7 -10 15 0 8 5 15 10 15 6 0 10 -7 10 -15z m-12 -93 c2 -58 0 -65
-11 -50 -8 10 -15 43 -16 74 -1 31 -4 62 -8 68 -4 6 3 3 14 -7 16 -14 20 -31
21 -85z m-3603 78 c7 -11 -16 -50 -29 -50 -4 0 -2 7 5 17 11 13 11 17 1 20 -6
3 -10 9 -6 14 7 12 21 12 29 -1z m-876 -77 c-1 -61 -3 -73 -11 -56 -9 19 -3
133 7 133 3 0 4 -35 4 -77z m498 45 c-3 -8 -6 -5 -6 6 -1 11 2 17 5 13 3 -3 4
-12 1 -19z m3759 -47 c4 -40 2 -61 -5 -61 -6 0 -11 15 -11 33 0 18 -5 38 -12
45 -9 9 -9 12 0 12 7 0 12 10 12 22 0 44 12 8 16 -51z m-591 39 c3 -5 1 -10
-4 -10 -6 0 -11 5 -11 10 0 6 2 10 4 10 3 0 8 -4 11 -10z m-76 -50 c-1 -27 -6
-47 -10 -44 -12 7 -11 94 1 94 5 0 9 -22 9 -50z m221 10 c0 -15 -5 -12 -26 11
-19 22 -19 22 4 10 12 -6 22 -16 22 -21z m187 24 c-3 -3 -12 -4 -19 -1 -8 3
-5 6 6 6 11 1 17 -2 13 -5z m92 -8 c7 -8 8 -17 3 -20 -6 -3 -12 3 -15 14 -6
24 -4 25 12 6z m116 4 c-3 -5 -11 -10 -16 -10 -6 0 -7 5 -4 10 3 6 11 10 16
10 6 0 7 -4 4 -10z m135 -35 c0 -36 4 -45 18 -46 9 0 12 -3 5 -5 -17 -7 -53
14 -53 31 0 8 4 15 9 15 4 0 7 11 6 25 -2 14 1 25 6 25 5 0 9 -20 9 -45z m75
36 c3 -5 1 -12 -4 -15 -5 -3 -11 1 -15 9 -6 16 9 21 19 6z m-3918 -63 c-2 -13
-4 -3 -4 22 0 25 2 35 4 23 2 -13 2 -33 0 -45z m309 19 c2 -15 0 -27 -6 -27
-5 0 -10 9 -10 19 0 23 -35 37 -54 22 -10 -9 -15 -8 -20 4 -3 9 -2 14 2 11 5
-3 22 -1 38 3 34 10 43 4 50 -32z m3118 3 c-5 -5 -10 3 -11 18 -1 22 0 24 9 8
6 -10 6 -22 2 -26z m-3726 -1 c-3 -8 -7 -3 -11 10 -4 17 -3 21 5 13 5 -5 8
-16 6 -23z m241 -13 c-1 -20 -2 -20 -6 -1 -3 11 -10 27 -17 35 -10 13 -9 13 7
1 9 -7 16 -23 16 -35z m3575 35 c3 -5 -1 -11 -9 -14 -9 -4 -12 -1 -8 9 6 16
10 17 17 5z m133 -58 c-3 -3 -13 -3 -21 -1 -15 3 -15 6 1 28 l18 25 3 -23 c2
-13 1 -26 -1 -29z m264 13 c-6 -7 -7 -16 -3 -21 4 -4 0 -6 -8 -3 -8 3 -15 16
-15 31 -1 22 2 24 18 16 13 -8 15 -14 8 -23z m-4160 -33 c-9 -16 -10 -16 -11
4 0 12 3 30 7 40 7 16 8 16 11 -4 2 -12 -1 -30 -7 -40z m95 22 c-3 -8 -11 -15
-18 -14 -10 0 -10 2 0 6 6 2 12 14 13 26 0 12 3 16 6 9 3 -7 2 -19 -1 -27z
m3665 12 c-10 -9 -11 -8 -5 6 3 10 9 15 12 12 3 -3 0 -11 -7 -18z m-3886 -16
c-3 -12 -11 -19 -16 -16 -5 4 -5 14 2 26 13 26 23 18 14 -10z m475 12 c0 -10
-5 -25 -10 -33 -7 -12 -12 -12 -22 -2 -9 9 -8 12 8 12 19 1 19 1 -1 17 -16 13
-17 15 -2 10 9 -4 17 -2 17 3 0 6 2 10 5 10 3 0 5 -8 5 -17z m137 -20 c-3 -10
-5 -4 -5 12 0 17 2 24 5 18 2 -7 2 -21 0 -30z m-676 -10 c-10 -17 -10 -16 -11
3 0 23 13 41 18 25 2 -6 -1 -18 -7 -28z m602 17 c3 -11 1 -18 -3 -15 -5 3 -11
1 -15 -5 -8 -13 -25 -13 -25 1 0 5 5 7 10 4 6 -3 10 3 10 14 0 27 16 27 23 1z
m152 -10 c3 -5 1 -10 -4 -10 -6 0 -11 5 -11 10 0 6 2 10 4 10 3 0 8 -4 11 -10z
m3180 -129 c3 -5 1 -12 -5 -16 -5 -3 -10 1 -10 9 0 18 6 21 15 7z m289 -45
c15 -30 18 -42 8 -34 -14 12 -42 68 -42 84 0 12 9 -1 34 -50z m-4125 10 c0
-14 -2 -16 -6 -6 -3 8 -10 21 -16 28 -7 9 -6 11 7 6 9 -3 16 -16 15 -28z m232
-8 c15 -28 5 -21 -21 15 -15 20 -17 27 -6 18 9 -8 22 -23 27 -33z m51 -5 c-5
-61 -22 -81 -22 -26 0 23 3 48 6 57 12 31 19 16 16 -31z m96 -8 c-3 -4 -16 9
-28 27 l-23 33 28 -27 c16 -15 26 -30 23 -33z m230 37 c2 -7 -1 -12 -7 -12 -6
0 -11 -9 -11 -20 0 -13 -5 -18 -15 -14 -17 7 -21 -11 -5 -21 16 -10 12 -25 -5
-19 -21 8 -19 38 5 59 11 10 17 22 14 26 -9 15 -24 10 -24 -8 0 -15 -2 -16
-10 -3 -6 9 -5 17 3 22 16 10 50 4 55 -10z m-458 -37 c0 -12 -8 -29 -17 -36
-15 -11 -16 -11 -5 1 6 8 12 23 12 35 0 12 -6 27 -12 35 -11 12 -10 12 5 1 9
-7 17 -24 17 -36z m3568 9 c-3 -14 -5 -12 -10 9 -3 19 -2 25 4 19 6 -6 8 -18
6 -28z m-3306 -19 c0 -20 -3 -39 -6 -42 -3 -4 -6 15 -6 42 0 27 3 46 6 42 3
-3 6 -22 6 -42z m58 -32 c-10 -16 -11 -15 -6 7 3 14 7 36 7 50 2 19 3 18 6 -7
2 -18 -1 -41 -7 -50z m3530 42 c0 -19 -4 -35 -8 -35 -4 0 -6 16 -4 35 2 19 6
35 8 35 2 0 4 -16 4 -35z m-3943 -1 c1 -18 -2 -23 -9 -16 -6 6 -8 18 -5 26 9
22 12 20 14 -10z m3763 16 c0 -5 -2 -10 -4 -10 -3 0 -8 5 -11 10 -3 6 -1 10 4
10 6 0 11 -4 11 -10z m-177 -20 c3 -11 1 -20 -4 -20 -5 0 -9 9 -9 20 0 11 2
20 4 20 2 0 6 -9 9 -20z m244 -12 c-3 -7 -5 -2 -5 12 0 14 2 19 5 13 2 -7 2
-19 0 -25z m-3683 -13 c5 -22 4 -26 -4 -15 -5 8 -10 24 -10 34 0 26 6 18 14
-19z m-263 -12 c-10 -17 -10 -16 -11 3 0 23 13 41 18 25 2 -6 -1 -18 -7 -28z
m2637 1 c2 -13 0 -15 -6 -6 -4 6 -17 19 -28 27 -18 14 -18 15 6 6 14 -4 26
-17 28 -27z m1202 26 c0 -5 -5 -10 -11 -10 -5 0 -7 5 -4 10 3 6 8 10 11 10 2
0 4 -4 4 -10z m-1132 -12 c-7 -20 -58 -23 -58 -4 0 11 10 16 31 16 20 0 29 -4
27 -12z m-2028 -8 c0 -5 -4 -10 -10 -10 -5 0 -10 5 -10 10 0 6 5 10 10 10 6 0
10 -4 10 -10z m767 -52 c-3 -8 -6 -5 -6 6 -1 11 2 17 5 13 3 -3 4 -12 1 -19z
m1236 -5 c-7 -2 -21 -2 -30 0 -10 3 -4 5 12 5 17 0 24 -2 18 -5z m-38 -71 c-6
-6 -35 18 -35 29 0 5 9 1 20 -8 11 -9 17 -19 15 -21z m1605 17 c0 -5 -4 -9
-10 -9 -5 0 -10 7 -10 16 0 8 5 12 10 9 6 -3 10 -10 10 -16z m-3568 -29 c-7
-12 -8 -20 -2 -20 22 0 10 -40 -14 -46 -30 -7 -46 1 -46 24 1 16 1 16 11 0 12
-22 35 -23 43 -3 3 9 0 15 -8 15 -8 0 -21 11 -30 25 -9 14 -12 25 -6 25 5 0
10 -4 10 -10 0 -5 7 -10 15 -10 9 0 15 9 15 22 0 17 3 19 12 10 10 -10 10 -17
0 -32z m3171 20 c3 -11 3 -20 1 -20 -2 0 -8 9 -14 20 -6 11 -7 20 -2 20 6 0
12 -9 15 -20z m240 -5 c23 -32 17 -32 -13 0 -13 14 -19 25 -14 25 5 0 17 -12
27 -25z m-4046 -17 c-3 -7 -5 -2 -5 12 0 14 2 19 5 13 2 -7 2 -19 0 -25z m107
16 c9 -24 2 -26 -12 -4 -7 11 -8 20 -3 20 5 0 12 -7 15 -16z m146 -9 c0 -25
-15 -24 -16 1 -1 13 2 21 7 18 5 -3 9 -11 9 -19z m80 -19 c0 -12 -5 -7 -19 24
-11 24 -11 24 3 6 9 -11 16 -24 16 -30z m3757 -18 c-2 -13 -4 -3 -4 22 0 25 2
35 4 23 2 -13 2 -33 0 -45z m-3617 12 c0 -17 7 -33 18 -39 9 -6 12 -11 5 -11
-21 0 -43 31 -43 61 0 18 4 28 10 24 6 -3 10 -19 10 -35z m70 10 c0 -10 -3
-25 -6 -34 -11 -29 -20 -16 -16 24 4 39 22 47 22 10z m3595 20 c3 -5 1 -10 -4
-10 -6 0 -11 5 -11 10 0 6 2 10 4 10 3 0 8 -4 11 -10z m-4200 -29 c0 -16 -3
-27 -7 -24 -5 2 -8 15 -8 29 0 13 3 24 8 24 4 0 7 -13 7 -29z m463 -6 c-2 -19
1 -37 7 -39 6 -3 6 -5 0 -5 -20 -1 -38 17 -29 30 5 8 7 22 6 32 -2 9 2 17 8
17 8 0 11 -13 8 -35z m-44 -19 c-5 -14 -9 -15 -15 -5 -5 8 -3 17 4 21 15 9 19
4 11 -16z m3551 14 c3 -5 1 -10 -4 -10 -6 0 -11 5 -11 10 0 6 2 10 4 10 3 0 8
-4 11 -10z m235 0 c0 -5 -2 -10 -4 -10 -3 0 -8 5 -11 10 -3 6 -1 10 4 10 6 0
11 -4 11 -10z m-3833 -7 c-4 -3 -2 -12 4 -20 9 -9 8 -13 0 -13 -6 0 -11 2 -11
4 0 2 -3 11 -6 20 -4 10 -1 16 7 16 7 0 9 -3 6 -7z m-162 -32 c-6 -5 -25 10
-25 20 0 5 6 4 14 -3 8 -7 12 -15 11 -17z m65 14 c7 -9 8 -15 2 -15 -5 0 -12
7 -16 15 -3 8 -4 15 -2 15 2 0 9 -7 16 -15z m59 -12 c2 -2 -3 -3 -11 -3 -9 0
-19 7 -22 16 -6 15 -4 15 11 3 10 -7 20 -15 22 -16z m807 -1451 c-4 -3 -16 -7
-28 -9 -43 -7 -48 -20 -48 -130 0 -101 1 -104 22 -101 12 2 23 9 26 16 3 11 0
12 -18 2 -38 -20 -13 10 83 100 89 84 103 108 67 117 -46 12 -1 24 82 22 97
-3 121 -13 58 -23 -26 -4 -54 -19 -80 -42 -25 -22 -38 -30 -34 -19 5 13 4 16
-4 11 -7 -4 -12 -15 -13 -24 0 -9 -27 -39 -59 -67 -32 -27 -59 -53 -59 -56 -2
-11 252 -245 289 -268 19 -11 43 -21 53 -21 9 0 17 -4 17 -10 0 -6 -45 -10
-115 -10 -70 0 -115 4 -115 10 0 6 9 10 21 10 14 0 19 5 17 18 -4 21 -219 223
-230 216 -12 -8 -10 -192 2 -215 6 -11 21 -19 35 -19 13 0 27 -4 30 -10 4 -6
-34 -10 -107 -9 -99 1 -110 2 -85 13 16 7 33 19 38 27 14 21 10 424 -4 443 -7
9 -23 18 -37 20 -14 3 -26 5 -28 5 -2 1 -1 4 1 9 3 4 55 6 117 4 62 -2 109 -6
106 -10z m888 -51 c4 -5 -3 -7 -14 -4 -16 4 -20 0 -20 -21 0 -18 5 -26 18 -25
10 0 12 3 5 6 -7 2 -13 9 -13 15 0 6 6 6 15 -2 18 -15 11 -30 -16 -30 -15 0
-19 7 -19 35 0 28 4 35 19 35 11 0 22 -4 25 -9z m873 -21 c3 0 2 7 -1 16 -4
10 -1 14 6 12 19 -7 20 -25 2 -32 -9 -3 -23 -1 -30 5 -11 9 -14 8 -14 -5 0 -9
7 -16 15 -16 8 0 15 -5 15 -10 0 -7 -6 -7 -20 0 -19 10 -27 40 -14 53 4 3 13
0 21 -8 8 -8 17 -15 20 -15z m-295 -101 c1 -28 1 -52 -1 -54 -2 -2 -3 -57 -2
-122 1 -82 -2 -113 -9 -103 -5 8 -10 13 -11 10 0 -3 -2 -14 -4 -25 -7 -39 41
-47 87 -14 33 24 49 19 23 -7 -9 -9 -38 -19 -63 -21 -66 -6 -75 11 -80 155 -4
102 -6 112 -23 112 -10 0 -19 5 -19 10 0 6 15 8 35 6 19 -3 33 -1 30 4 -3 5
-13 6 -23 3 -13 -6 -12 -1 6 21 12 16 22 39 22 52 0 14 6 24 14 24 10 0 15
-16 18 -51z m774 -50 c22 -18 34 -78 34 -171 0 -64 -3 -88 -12 -88 -9 0 -8 -4
2 -10 11 -7 -3 -10 -47 -10 -38 0 -63 4 -63 11 0 5 4 8 10 4 5 -3 19 4 31 16
19 19 21 29 17 112 -4 79 -7 92 -27 108 -25 21 -58 18 -101 -9 -22 -13 -23
-13 -13 0 7 8 10 17 7 21 -7 6 29 27 65 37 28 7 75 -2 97 -21z m-1706 -5 c0
-8 -6 -14 -12 -14 -9 0 -8 -3 1 -9 12 -8 15 -36 15 -130 l0 -121 33 4 c18 3
33 0 33 -5 0 -5 -43 -9 -96 -9 -61 0 -93 4 -89 10 3 6 15 10 26 10 27 0 39 37
39 118 0 91 -7 112 -44 127 -33 14 -32 16 39 32 45 10 55 8 55 -13z m135 2
c15 -15 22 -31 18 -44 -10 -38 -47 -36 -54 3 -6 28 -43 31 -67 5 l-19 -21 -6
21 c-3 11 -2 18 1 16 4 -2 21 7 37 20 38 30 60 30 90 0z m225 -3 c0 -22 -2
-25 -10 -13 -8 12 -10 11 -10 -7 0 -12 4 -23 9 -25 5 -1 10 -47 13 -100 2 -53
1 -95 -2 -93 -4 2 -6 -6 -6 -18 1 -20 -5 -22 -51 -25 -32 -2 -53 1 -53 7 0 6
9 11 20 11 31 0 41 34 39 128 -2 96 -10 122 -39 122 -40 0 -19 17 33 27 28 6
53 11 55 12 1 0 2 -11 2 -26z m294 17 c14 -5 26 -17 26 -25 0 -9 4 -14 9 -11
5 3 7 15 4 26 -3 11 0 20 6 20 7 0 11 -20 11 -50 0 -30 -4 -50 -11 -50 -6 0
-9 8 -7 18 3 12 -2 24 -14 31 -10 6 -17 15 -14 19 2 4 -12 6 -32 5 -62 -5 -60
-4 -51 -35 4 -17 4 -40 -1 -53 -6 -16 -6 -27 2 -31 7 -4 8 -3 4 4 -8 14 -4 15
18 6 9 -3 16 -15 16 -26 0 -15 5 -18 23 -13 17 5 19 4 7 -4 -8 -6 -10 -11 -4
-11 15 0 54 -35 54 -49 0 -6 5 -11 10 -11 16 0 11 -26 -8 -43 -29 -26 -75 -31
-111 -12 -31 16 -34 15 -47 -2 -12 -16 -13 -11 -14 45 0 37 4 62 11 62 7 0 8
-16 3 -45 -5 -39 -4 -44 10 -39 14 5 14 9 4 22 -9 11 -4 10 14 -3 15 -11 28
-23 28 -26 0 -11 59 3 71 17 21 26 2 59 -51 88 -86 47 -110 116 -56 163 30 25
51 28 90 13z m582 -261 c-5 -4 -5 -12 -2 -18 5 -8 -12 -11 -56 -10 -35 1 -53
4 -41 6 39 8 48 30 48 128 0 96 -8 118 -50 136 -16 8 -14 8 8 4 20 -4 26 -2
22 5 -5 8 4 9 29 5 27 -5 37 -4 38 6 1 8 4 -47 7 -121 3 -74 2 -138 -3 -141z
m278 255 c3 -9 3 -21 -1 -27 -4 -7 -10 -2 -15 13 -6 20 -7 19 -3 -7 4 -30 -7
-45 -18 -25 -2 4 -2 1 0 -6 1 -8 3 -26 4 -40 l1 -27 7 25 c4 14 13 26 21 28
12 2 14 -12 12 -85 -2 -57 -7 -82 -13 -72 -7 11 -9 9 -9 -9 0 -15 4 -21 13
-17 6 4 4 0 -5 -8 -10 -8 -15 -17 -11 -20 3 -4 -18 -7 -48 -6 -46 0 -50 2 -29
10 36 15 40 25 40 128 0 97 -12 131 -47 131 -8 0 -11 5 -8 11 4 6 13 8 19 6 7
-3 19 -1 27 4 22 14 56 10 63 -7z m-550 -9 c-4 -8 -11 -15 -16 -15 -6 0 -5 6
2 15 7 8 14 15 16 15 2 0 1 -7 -2 -15z m36 0 c0 -8 -4 -15 -10 -15 -5 0 -7 7
-4 15 4 8 8 15 10 15 2 0 4 -7 4 -15z m-307 -134 c11 -9 24 -25 30 -36 6 -11
-5 -4 -25 15 -19 19 -46 43 -59 53 -23 17 -23 17 6 1 17 -10 38 -25 48 -33z
m603 -139 c-10 -2 -22 0 -28 6 -6 6 0 7 19 4 21 -5 23 -7 9 -10z m275 0 c-7
-2 -18 1 -23 6 -8 8 -4 9 13 5 13 -4 18 -8 10 -11z m229 8 c0 -5 -10 -10 -22
-10 -19 0 -20 2 -8 10 19 13 30 13 30 0z m-1377 -7 c-7 -2 -19 -2 -25 0 -7 3
-2 5 12 5 14 0 19 -2 13 -5z m1817 -175 c-1 -19 -2 -20 -10 -7 -6 11 -19 14
-39 11 -34 -5 -46 -25 -31 -52 5 -10 7 -26 3 -36 -5 -13 -3 -15 8 -9 11 6 11
5 2 -5 -9 -10 -8 -24 7 -63 11 -28 16 -54 11 -57 -4 -3 -8 -12 -8 -20 0 -9 -3
-28 -7 -43 -4 -19 -3 -27 6 -27 9 0 8 -3 -2 -10 -14 -9 -22 -70 -9 -70 4 0 4
-15 0 -32 -10 -54 -7 -73 11 -70 9 1 20 -2 23 -8 4 -7 0 -10 -11 -8 -10 2 -19
-3 -20 -9 -1 -7 -3 -14 -4 -15 -6 -7 -6 -79 0 -83 12 -8 4 -50 -11 -53 -12 -2
-14 45 -13 307 0 171 -2 309 -5 309 -3 -1 -19 4 -34 10 -16 7 -35 12 -43 12
-8 0 -14 4 -14 9 0 4 13 8 29 7 16 -1 27 -4 24 -8 -9 -16 17 -7 34 11 16 17
34 23 91 30 6 0 12 -9 12 -21z m-3120 -23 c0 -9 -10 -15 -25 -15 -44 0 -74
-21 -85 -59 -11 -39 -14 -472 -3 -534 7 -44 36 -68 85 -70 18 -1 32 -6 31 -12
-2 -6 -65 -10 -163 -10 -100 0 -160 4 -160 10 0 6 16 11 35 13 62 6 68 26 66
220 l-1 112 -182 0 c-101 0 -193 -3 -206 -6 -23 -7 -23 -8 -20 -144 3 -157 11
-174 79 -185 85 -15 32 -25 -126 -25 -140 0 -165 2 -165 15 0 10 11 15 35 15
22 0 43 8 56 21 19 19 20 30 18 292 -1 286 -5 314 -48 337 -11 5 -31 10 -45
10 -14 0 -26 5 -26 10 0 6 63 10 170 10 94 0 170 -4 170 -9 0 -11 -74 -21 -78
-9 -2 4 -47 8 -100 8 -77 0 -93 -2 -83 -12 7 -8 41 -13 89 -13 l78 0 -13 -27
c-10 -19 -13 -62 -11 -150 3 -114 4 -123 23 -125 16 -1 16 -1 3 3 -10 3 -18
10 -18 15 0 5 84 9 200 9 l200 0 0 104 c0 146 -18 186 -84 186 -14 0 -26 4
-26 9 0 11 50 15 218 18 92 2 112 0 112 -12z m3060 -5 c0 -5 -4 -10 -10 -10
-5 0 -10 5 -10 10 0 6 5 10 10 10 6 0 10 -4 10 -10z m36 -20 c9 0 14 -10 13
-32 -1 -19 -3 -25 -6 -15 -3 12 -10 16 -21 12 -9 -3 -13 -3 -9 1 4 4 2 13 -3
19 -6 7 -7 21 -3 31 7 17 8 18 11 2 2 -10 10 -18 18 -18z m14 -166 c0 -14 -4
-23 -9 -20 -5 3 -7 15 -4 26 7 28 13 25 13 -6z m-2140 -75 c0 -11 -4 -18 -9
-15 -5 4 -16 3 -25 0 -13 -5 -14 -9 -5 -20 9 -11 15 -11 25 -3 11 9 14 8 14
-5 0 -9 -6 -16 -12 -16 -9 0 -8 -4 2 -10 11 -7 11 -10 2 -10 -7 0 -10 -5 -7
-10 4 -6 10 -8 14 -5 5 2 4 -17 -1 -43 -6 -26 -11 -64 -12 -84 -1 -21 -5 -40
-8 -44 -4 -3 -3 -17 3 -31 6 -16 6 -22 -1 -18 -14 8 -13 3 6 -35 10 -20 13
-35 7 -39 -6 -3 -9 -14 -7 -23 2 -15 -6 -18 -39 -19 -94 -3 -111 -2 -115 9 -2
7 7 12 22 12 14 0 35 9 47 21 20 20 21 29 17 171 -3 143 -4 151 -27 169 -13
10 -32 19 -42 19 -10 0 -19 6 -19 13 0 12 146 48 163 40 4 -2 7 -13 7 -24z
m260 11 c8 -5 24 -18 35 -31 l20 -22 -30 20 c-42 30 -68 35 -89 20 -17 -12
-17 -14 -2 -20 9 -4 16 -2 16 3 0 13 37 13 45 0 4 -6 -1 -7 -12 -3 -15 6 -16
4 -6 -9 7 -8 9 -19 5 -24 -4 -5 4 0 18 11 17 14 21 15 12 3 -9 -11 -10 -18 -2
-23 6 -4 8 -16 4 -28 -5 -18 -4 -20 7 -9 7 6 18 12 24 12 5 0 3 -5 -5 -10 -12
-7 -12 -12 -2 -22 9 -9 12 -9 12 0 0 7 5 12 11 12 6 0 8 -8 5 -17 -3 -10 -6
-46 -7 -80 -1 -35 -6 -63 -10 -63 -5 0 -9 -5 -9 -11 0 -5 5 -7 10 -4 6 4 10
-8 10 -29 0 -20 -5 -36 -10 -36 -6 0 -9 -12 -8 -27 2 -18 -1 -27 -9 -25 -20 3
-15 -16 5 -21 9 -3 -16 -5 -55 -6 -43 -1 -73 3 -73 9 0 6 8 10 18 10 10 0 29
11 41 24 21 22 22 32 20 147 -1 133 -10 171 -42 194 -41 29 -96 17 -149 -33
-27 -25 -40 -19 -15 7 10 11 9 13 -6 7 -31 -10 -15 14 30 46 60 44 141 56 193
28z m516 -3 c1 -9 -2 -15 -7 -11 -5 3 -7 10 -4 15 4 5 2 9 -3 9 -5 0 -15 -14
-22 -30 -13 -32 -35 -54 -23 -24 4 12 3 15 -5 10 -7 -4 -12 -3 -12 2 0 5 10
14 23 20 14 7 17 11 7 12 -10 1 -9 4 5 10 26 11 38 8 41 -13z m180 8 c-10 -8
-23 -12 -27 -9 -17 10 -9 20 19 22 25 1 26 1 8 -13z m-1427 -21 c43 -36 53
-85 51 -253 -3 -176 -2 -181 9 -181 6 0 8 9 6 21 -3 16 0 19 15 14 10 -3 21
-1 25 5 9 15 25 12 25 -5 0 -17 -50 -45 -80 -45 -32 0 -60 18 -70 45 l-9 24
-52 -34 c-42 -29 -60 -35 -103 -35 -45 0 -56 4 -81 30 -22 23 -28 39 -28 73 0
78 67 141 178 168 82 20 83 21 74 80 -9 59 -20 75 -53 81 -44 9 -84 -16 -96
-60 -11 -44 -31 -57 -61 -42 -24 13 -25 57 -3 89 25 35 71 50 151 51 63 0 75
-3 102 -26z m2162 9 c13 -17 13 -17 -6 -3 -11 8 -22 16 -24 17 -2 2 0 3 6 3 6
0 17 -8 24 -17z m-997 -1 c-16 -12 -15 -33 5 -58 18 -23 20 -24 30 -7 7 13 8
7 4 -24 -3 -27 -1 -48 7 -57 6 -9 8 -21 4 -28 -5 -8 -1 -8 11 2 17 14 18 14 6
-9 -7 -12 -11 -32 -8 -42 3 -10 1 -19 -5 -19 -6 0 -8 -9 -5 -20 3 -10 0 -21
-7 -24 -6 -2 -3 -5 7 -5 14 -1 16 -5 7 -20 -5 -11 -10 -33 -10 -50 0 -45 -27
-67 -83 -67 -26 -1 -47 3 -47 9 0 5 15 7 35 4 20 -3 37 -1 41 5 5 7 2 8 -5 3
-7 -4 -5 5 5 21 22 33 28 155 13 262 -11 74 -20 90 -56 94 -34 4 -41 25 -11
30 45 6 71 6 62 0z m216 1 c-1 -29 -51 -57 -70 -40 -10 10 -11 8 -6 -9 4 -13
1 -26 -8 -33 -12 -10 -13 -8 -9 10 5 17 3 20 -8 14 -8 -5 -5 1 5 14 11 12 26
19 34 16 7 -3 23 0 34 6 17 9 18 13 7 20 -11 7 -10 9 4 9 9 0 17 -3 17 -7z
m40 -17 c0 -2 -9 -6 -20 -9 -11 -3 -18 -1 -14 4 5 9 34 13 34 5z m1330 -36 c0
-5 -4 -10 -10 -10 -5 0 -10 5 -10 10 0 6 5 10 10 10 6 0 10 -4 10 -10z m-35
-10 c-3 -5 -12 -10 -18 -10 -7 0 -6 4 3 10 19 12 23 12 15 0z m-808 -22 c-3
-8 -6 -5 -6 6 -1 11 2 17 5 13 3 -3 4 -12 1 -19z m237 -23 c-1 -13 4 -29 11
-35 19 -16 8 -42 -13 -31 -13 7 -16 20 -13 61 2 29 6 47 11 41 4 -7 6 -23 4
-36z m534 31 c-2 -1 -14 -10 -28 -21 l-25 -20 18 21 c9 11 14 24 10 28 -4 4 1
4 10 0 10 -3 17 -7 15 -8z m-1148 -74 c0 -7 4 -11 9 -7 6 3 6 -7 1 -26 -5 -18
-7 -36 -4 -41 8 -13 11 -68 4 -68 -3 0 -4 -16 -2 -35 3 -26 -2 -45 -19 -70
-31 -45 -54 -47 -31 -2 14 26 17 60 16 177 0 126 1 141 12 115 7 -17 13 -36
14 -43z m1325 -25 c12 -77 12 -172 1 -192 -5 -11 -9 -23 -8 -27 1 -3 -5 -8
-12 -11 -11 -5 -12 1 -4 31 6 21 8 82 5 140 -5 102 6 139 18 59z m-1598 1 c-3
-7 -5 -2 -5 12 0 14 2 19 5 13 2 -7 2 -19 0 -25z m891 -170 c-7 -4 -15 -8 -18
-8 -4 0 -4 113 0 130 1 3 8 -22 16 -54 12 -48 12 -61 2 -68z m-1601 -68 c13 0
23 -4 23 -9 0 -17 -40 -7 -58 14 -9 11 -10 14 -2 8 8 -7 24 -13 37 -13z m349
-12 c-12 -7 -21 -7 -28 0 -6 6 0 10 18 10 23 0 24 -2 10 -10z m-1978 -472 c3
-32 6 -36 23 -31 27 9 49 -11 49 -44 0 -15 5 -32 12 -39 9 -9 5 -12 -21 -12
-28 0 -32 2 -21 14 18 23 9 61 -15 61 -17 0 -20 -6 -19 -37 1 -34 -2 -38 -22
-38 -13 0 -24 5 -24 10 0 6 5 10 10 10 13 0 13 117 1 124 -5 4 -12 0 -14 -6
-4 -10 -7 -10 -15 0 -5 8 -20 12 -33 10 -21 -3 -24 -9 -27 -57 -2 -30 2 -59 7
-64 18 -18 13 -24 -19 -25 -16 0 -30 4 -30 9 0 5 5 9 10 9 6 0 10 28 10 65 0
65 0 65 -28 65 -15 0 -33 -5 -40 -12 -9 -9 -12 -9 -12 3 0 26 10 29 114 26
l101 -3 3 -38z m351 -19 l46 -60 3 47 c2 26 -1 53 -7 59 -7 9 -2 12 15 12 26
0 30 -5 15 -20 -6 -6 -11 -41 -13 -79 l-3 -70 -44 57 c-24 31 -47 57 -52 57
-12 0 -11 -84 1 -96 5 -5 0 -9 -15 -9 -14 0 -25 3 -25 8 0 4 5 7 10 7 13 0 13
123 0 136 -7 7 -5 11 6 11 9 0 37 -27 63 -60z m479 20 c3 -30 7 -37 19 -33 21
9 63 -20 63 -43 0 -28 -32 -51 -68 -48 l-32 2 0 73 c0 41 -4 72 -10 72 -5 0
-10 5 -10 11 0 6 8 9 18 7 12 -2 18 -14 20 -41z m523 14 c38 -38 39 -82 3
-110 -37 -29 -48 -26 -19 4 14 13 25 36 25 50 0 32 -41 75 -71 75 -56 0 -82
-87 -39 -130 11 -11 15 -20 10 -20 -21 0 -60 49 -60 75 0 38 50 85 90 85 22 0
41 -9 61 -29z m409 -52 c0 -52 -7 -79 -21 -79 -6 0 -5 8 1 19 13 25 13 81 0
118 -9 26 -9 27 5 9 8 -11 15 -40 15 -67z m-1580 -4 c15 -18 15 -19 -29 -31
-33 -9 -34 -10 -17 -27 12 -11 26 -15 40 -12 17 5 18 4 6 -4 -21 -15 -41 -13
-62 6 -22 20 -23 41 -1 65 20 22 46 23 63 3z m505 3 c6 -4 17 -3 25 3 33 20
51 4 63 -56 5 -26 3 -30 -18 -30 -17 0 -21 3 -13 12 16 20 5 58 -17 58 -17 0
-20 -6 -19 -36 1 -29 -2 -35 -15 -32 -11 3 -16 15 -16 36 0 25 -4 32 -20 32
-16 0 -20 -6 -19 -35 1 -30 -2 -35 -24 -37 -17 -1 -21 2 -13 10 15 15 14 67
-1 67 -10 0 -10 2 -1 8 14 9 75 9 88 0z m316 2 c26 -14 24 -30 -3 -30 -17 0
-19 3 -9 9 10 7 11 10 1 16 -14 8 -40 -19 -40 -41 0 -20 28 -36 52 -30 l23 6
-22 -11 c-18 -9 -27 -8 -48 5 -31 20 -32 50 -3 70 27 19 24 19 49 6z m123 -11
c-6 -11 -24 -2 -24 11 0 5 7 7 15 4 8 -4 12 -10 9 -15z m384 8 c5 -6 12 -27
14 -44 4 -26 1 -33 -12 -33 -12 0 -15 8 -12 34 3 24 -1 35 -12 39 -28 11 -42
-2 -41 -38 1 -21 -3 -35 -10 -35 -8 0 -11 12 -8 35 2 24 -1 35 -9 35 -10 0
-10 2 -1 8 20 12 80 12 91 -1z m121 -1 c9 -11 9 -16 0 -22 -8 -4 -9 -3 -5 5 4
7 -2 15 -16 20 -15 7 -17 10 -7 10 9 1 22 -5 28 -13z m-1139 -29 c0 -41 7 -49
31 -36 22 11 25 39 7 57 -9 9 -7 12 9 12 17 0 22 -7 25 -39 3 -38 2 -39 -30
-45 -48 -7 -62 1 -62 39 0 18 -6 36 -12 38 -7 3 -3 6 10 6 18 1 22 -4 22 -32z
m592 -7 c3 -31 0 -40 -12 -40 -11 0 -15 11 -15 40 0 23 5 40 11 40 7 0 14 -18
16 -40z m494 18 c-2 -13 3 -31 12 -40 14 -16 14 -18 -1 -18 -24 0 -40 35 -27
60 14 26 21 25 16 -2z m401 -10 c-3 -8 -6 -5 -6 6 -1 11 2 17 5 13 3 -3 4 -12
1 -19z m-137 2 c0 -5 -5 -10 -11 -10 -5 0 -7 5 -4 10 3 6 8 10 11 10 2 0 4 -4
4 -10z m76 -14 c0 -15 -5 -21 -10 -16 -5 5 -6 16 -3 24 9 23 15 19 13 -8z
m-188 -383 c-10 -2 -28 -2 -40 0 -13 2 -5 4 17 4 22 1 32 -1 23 -4z m-271 -45
c-3 -7 -5 -2 -5 12 0 14 2 19 5 13 2 -7 2 -19 0 -25z m50 10 c-3 -8 -6 -5 -6
6 -1 11 2 17 5 13 3 -3 4 -12 1 -19z m43 13 c0 -6 -4 -13 -10 -16 -5 -3 -10 1
-10 9 0 9 5 16 10 16 6 0 10 -4 10 -9z m134 -19 c2 -4 -4 -8 -14 -8 -10 0 -16
4 -14 8 7 10 21 10 28 0z"/>
<path d="M4137 8464 c-12 -12 -8 -51 6 -62 20 -17 39 2 35 34 -3 27 -26 43
-41 28z"/>
<path d="M4331 8448 c-12 -31 -3 -50 23 -46 16 2 21 10 21 33 0 38 -31 47 -44
13z"/>
<path d="M3713 8463 c-17 -6 -17 -48 0 -61 8 -7 17 -7 30 2 20 15 22 37 5 54
-13 13 -16 13 -35 5z"/>
<path d="M4020 8460 c0 -5 7 -10 15 -10 8 0 15 5 15 10 0 6 -7 10 -15 10 -8 0
-15 -4 -15 -10z"/>
<path d="M4731 8456 c-17 -20 4 -65 31 -66 17 0 35 31 31 54 -6 29 -42 36 -62
12z"/>
<path d="M2448 8221 c-4 -24 -1 -27 16 -23 48 12 57 52 11 52 -17 0 -24 -7
-27 -29z"/>
<path d="M2447 8168 c-14 -44 33 -73 65 -41 18 19 18 21 3 37 -19 19 -62 21
-68 4z"/>
<path d="M3030 8165 c-16 -20 -9 -49 14 -53 27 -6 48 25 35 49 -12 23 -32 24
-49 4z"/>
<path d="M4070 8165 c-17 -20 -8 -50 15 -53 34 -4 47 11 36 41 -12 30 -32 35
-51 12z"/>
<path d="M2595 8160 c-8 -27 12 -52 39 -48 16 2 21 10 21 33 0 25 -4 31 -27
33 -19 2 -28 -2 -33 -18z"/>
<path d="M3800 8170 c0 -5 9 -10 20 -10 11 0 20 5 20 10 0 6 -9 10 -20 10 -11
0 -20 -4 -20 -10z"/>
<path d="M2017 7893 c-3 -5 0 -19 8 -29 15 -20 18 -11 6 20 -4 11 -10 15 -14
9z"/>
<path d="M2055 7890 c3 -5 8 -10 11 -10 2 0 4 5 4 10 0 6 -5 10 -11 10 -5 0
-7 -4 -4 -10z"/>
<path d="M2784 7169 c-5 -9 -2 -10 9 -6 9 3 18 0 20 -9 4 -10 5 -9 3 2 -1 21
-22 29 -32 13z"/>
<path d="M1930 7796 c0 -8 4 -17 9 -20 11 -7 33 18 24 27 -12 12 -33 7 -33 -7z"/>
<path d="M3200 7540 c0 -9 73 -14 218 -12 l62 0 0 -404 c0 -263 3 -404 10
-404 9 0 12 171 11 637 0 90 4 155 10 159 5 3 71 6 146 7 99 2 137 5 140 15 4
9 -60 12 -296 12 -194 0 -301 -4 -301 -10z"/>
<path d="M4127 7543 c-10 -10 -8 -823 2 -823 4 0 11 82 15 183 4 100 11 185
15 190 4 4 126 6 272 5 l264 -3 5 -183 c3 -111 9 -182 15 -182 6 0 11 145 13
411 2 327 0 410 -10 407 -10 -4 -14 -56 -16 -211 l-2 -207 -275 0 -275 0 0
210 c0 192 -4 223 -23 203z"/>
<path d="M5309 7552 l-177 -2 -4 -42 c-2 -23 -5 -210 -7 -415 l-2 -373 230 0
c197 0 231 2 231 15 0 12 -33 15 -212 17 l-213 3 -3 150 c-1 83 0 160 3 172 5
22 9 23 182 25 128 2 177 6 180 15 4 10 -39 13 -179 15 l-183 3 -3 184 c-1
102 1 188 6 193 4 4 96 8 205 8 121 1 199 5 203 11 15 24 2 25 -257 21z"/>
<path d="M2497 7263 c-12 -11 -8 -23 8 -23 8 0 15 7 15 15 0 16 -12 20 -23 8z"/>
<path d="M1942 6743 c-8 -14 -9 -24 -2 -28 12 -7 24 18 18 37 -3 8 -9 5 -16
-9z"/>
<path d="M2452 6736 c1 -10 8 -17 13 -17 15 1 12 24 -3 29 -9 3 -13 -2 -10
-12z"/>
<path d="M2210 6675 c0 -10 7 -15 18 -13 21 4 19 22 -2 26 -10 2 -16 -3 -16
-13z"/>
<path d="M6950 5688 c1 -186 -2 -304 -8 -306 -5 -1 -41 25 -79 60 -38 35 -111
99 -162 142 -51 44 -98 84 -104 90 -7 6 -52 47 -102 91 -49 44 -106 95 -125
112 -19 18 -38 33 -42 33 -5 0 -8 -151 -8 -335 0 -291 2 -335 15 -335 13 0 15
39 15 294 0 163 4 297 9 300 7 5 88 -59 121 -94 3 -3 95 -84 205 -180 110 -96
217 -189 238 -207 20 -18 42 -33 47 -33 6 0 10 119 10 335 0 295 -2 335 -15
335 -14 0 -16 -36 -15 -302z"/>
<path d="M3440 5999 c-25 -5 -58 -14 -75 -21 -50 -20 -116 -68 -109 -80 4 -6
3 -8 -3 -5 -12 8 -52 -35 -81 -86 -64 -112 -69 -270 -13 -389 37 -78 103 -143
188 -184 47 -23 72 -28 162 -32 95 -4 113 -1 171 21 36 14 64 30 63 36 -2 5 4
8 12 5 23 -9 109 80 144 149 18 35 34 81 36 103 2 21 7 50 10 64 8 37 -14 148
-43 210 -75 160 -267 247 -462 209z m264 -51 c137 -70 226 -226 211 -368 -22
-208 -160 -343 -363 -357 -66 -5 -88 -2 -152 21 -41 15 -80 27 -87 28 -7 1
-11 4 -11 7 1 3 -22 30 -51 59 -115 117 -140 284 -65 435 13 27 21 54 17 60
-3 7 -3 9 2 5 4 -4 29 12 55 36 73 68 141 100 230 106 74 5 171 -9 214 -32z"/>
<path d="M3449 5889 c-60 -17 -131 -78 -164 -144 -26 -52 -30 -69 -30 -144 0
-102 17 -143 85 -212 75 -75 188 -99 296 -62 70 24 147 103 168 173 45 150 -7
294 -131 367 -35 20 -61 27 -117 29 -39 2 -87 -1 -107 -7z"/>
<path d="M4291 5568 c1 -178 4 -329 6 -335 10 -27 24 -11 23 25 -6 131 1 563
10 560 5 -1 83 -76 173 -165 90 -90 168 -163 174 -163 5 0 86 74 179 165 93
91 172 165 176 165 5 0 8 -135 8 -301 0 -236 3 -300 13 -297 9 4 13 82 15 337
1 227 -1 332 -8 329 -6 -2 -94 -86 -195 -188 l-185 -185 -188 188 c-103 103
-191 187 -195 187 -5 0 -7 -145 -6 -322z"/>
<path d="M1810 5964 c0 -9 20 -67 44 -128 167 -426 212 -536 217 -536 3 0 27
48 54 108 26 59 63 141 82 182 19 41 38 84 43 95 5 11 23 51 40 89 17 38 34
65 39 60 4 -5 61 -127 126 -271 65 -145 121 -263 125 -263 7 0 190 450 190
469 0 9 38 107 77 199 3 6 -2 12 -11 12 -15 0 -39 -43 -57 -105 -17 -58 -194
-515 -200 -515 -5 0 -103 206 -200 423 -29 65 -56 114 -59 110 -4 -5 -25 -48
-47 -98 -23 -49 -70 -155 -106 -235 -36 -80 -70 -157 -76 -172 -6 -16 -15 -28
-20 -28 -5 0 -32 57 -59 128 -67 170 -134 343 -162 420 -23 63 -40 87 -40 56z"/>
<path d="M5482 5991 c-9 -6 -12 -99 -10 -387 l3 -379 175 -3 c183 -3 280 3
280 19 0 5 -94 10 -212 11 l-213 3 -3 158 -3 157 181 0 c160 0 181 2 178 16
-3 13 -28 16 -178 17 l-175 2 0 180 0 180 208 3 c177 2 207 5 207 18 0 13 -29
15 -213 14 -117 -1 -219 -5 -225 -9z"/>
<path d="M3945 4421 c-18 -7 -17 -8 5 -12 14 -2 72 -2 130 2 l105 5 -97 2
c-53 1 -102 4 -110 6 -7 3 -22 1 -33 -3z"/>
<path d="M4533 4323 c9 -2 25 -2 35 0 9 3 1 5 -18 5 -19 0 -27 -2 -17 -5z"/>
<path d="M4058 4253 c6 -2 18 -2 25 0 6 3 1 5 -13 5 -14 0 -19 -2 -12 -5z"/>
<path d="M4387 4156 c52 -11 52 -11 26 -23 -38 -18 -83 -16 -106 5 -19 16 -19
16 -16 -3 3 -15 13 -21 39 -23 19 -1 60 -7 92 -13 46 -9 60 -9 77 3 20 14 20
15 3 31 -10 9 -42 21 -72 27 -72 14 -108 11 -43 -4z"/>
<path d="M3620 1950 c0 -5 5 -10 11 -10 5 0 7 5 4 10 -3 6 -8 10 -11 10 -2 0
-4 -4 -4 -10z"/>
<path d="M4835 2230 c3 -5 8 -10 11 -10 2 0 4 5 4 10 0 6 -5 10 -11 10 -5 0
-7 -4 -4 -10z"/>
<path d="M5504 2185 c-18 -13 -18 -14 4 -8 12 3 25 9 28 14 8 14 -10 11 -32
-6z"/>
<path d="M5574 2179 c14 -11 30 -17 36 -14 5 3 11 -2 11 -12 1 -10 2 -22 4
-28 1 -5 3 -16 3 -23 2 -10 5 -10 16 0 14 13 13 26 -7 65 -7 16 -17 22 -33 19
-13 -3 -26 0 -29 5 -4 5 -11 9 -17 9 -6 0 1 -9 16 -21z"/>
<path d="M4046 2171 c-8 -12 4 -41 16 -41 5 0 6 5 3 10 -3 6 -2 10 4 10 6 0 8
7 5 15 -7 17 -20 20 -28 6z"/>
<path d="M5110 2169 c0 -5 10 -9 23 -9 17 0 19 -2 8 -9 -13 -8 -13 -15 -1 -53
12 -37 15 -40 18 -18 2 13 -1 26 -7 28 -6 2 -11 8 -11 13 0 6 3 8 8 6 4 -3 8
5 8 18 1 17 -5 24 -22 28 -13 2 -24 0 -24 -4z"/>
<path d="M5380 2182 c0 -5 7 -9 15 -9 8 0 12 4 9 9 -3 4 -9 8 -15 8 -5 0 -9
-4 -9 -8z"/>
<path d="M2835 1700 c3 -5 8 -10 11 -10 2 0 4 5 4 10 0 6 -5 10 -11 10 -5 0
-7 -4 -4 -10z"/>
<path d="M4155 1450 c-3 -5 -1 -10 4 -10 6 0 11 5 11 10 0 6 -2 10 -4 10 -3 0
-8 -4 -11 -10z"/>
<path d="M3505 1270 c3 -5 8 -10 11 -10 2 0 4 5 4 10 0 6 -5 10 -11 10 -5 0
-7 -4 -4 -10z"/>
<path d="M3445 1226 c-66 -31 -93 -62 -101 -116 -4 -25 -3 -42 1 -38 4 4 17 1
29 -7 30 -22 47 -19 100 16 l47 32 -4 65 c-3 37 -9 67 -13 69 -5 2 -31 -8 -59
-21z"/>
<path d="M3355 1050 c-3 -5 -1 -10 4 -10 6 0 11 5 11 10 0 6 -2 10 -4 10 -3 0
-8 -4 -11 -10z"/>
<path d="M3313 513 c-19 -7 -16 -60 3 -67 21 -8 44 11 44 35 0 20 -28 39 -47
32z"/>
<path d="M2605 510 c-3 -5 3 -10 15 -10 12 0 18 5 15 10 -3 6 -10 10 -15 10
-5 0 -12 -4 -15 -10z"/>
<path d="M6010 8989 c0 -5 5 -7 10 -4 6 3 10 8 10 11 0 2 -4 4 -10 4 -5 0 -10
-5 -10 -11z"/>
<path d="M6191 8988 c-1 -10 -5 -18 -11 -18 -5 0 -10 -7 -10 -15 0 -8 5 -15
10 -15 6 0 10 5 10 11 0 5 5 7 10 4 12 -7 12 2 0 30 -7 17 -9 17 -9 3z"/>
<path d="M6560 8989 c0 -8 13 -23 28 -33 l27 -19 -25 29 c-14 16 -26 31 -27
33 -2 2 -3 -2 -3 -10z"/>
<path d="M6835 8959 c-4 -6 -5 -12 -2 -15 2 -3 7 2 10 11 7 17 1 20 -8 4z"/>
<path d="M6726 8935 c-4 -10 1 -15 16 -15 17 0 18 2 8 15 -7 8 -14 15 -15 15
-2 0 -5 -7 -9 -15z"/>
<path d="M7096 8935 c-3 -8 -1 -15 4 -15 13 0 22 18 11 24 -5 3 -11 -1 -15 -9z"/>
<path d="M6635 8930 c-4 -6 9 -10 32 -10 28 0 34 3 23 10 -20 13 -47 13 -55 0z"/>
<path d="M6880 8930 c0 -6 7 -10 15 -10 8 0 15 2 15 4 0 2 -7 6 -15 10 -8 3
-15 1 -15 -4z"/>
<path d="M7040 8936 c0 -2 7 -7 16 -10 8 -3 12 -2 9 4 -6 10 -25 14 -25 6z"/>
<path d="M6838 8923 c7 -3 16 -2 19 1 4 3 -2 6 -13 5 -11 0 -14 -3 -6 -6z"/>
<path d="M3655 80 c-19 -8 -19 -9 3 -9 12 -1 22 4 22 9 0 6 -1 10 -2 9 -2 0
-12 -4 -23 -9z"/>
<path d="M3720 74 c0 -14 3 -14 15 -4 8 7 15 14 15 16 0 2 -7 4 -15 4 -8 0
-15 -7 -15 -16z"/>
<path d="M3803 83 c-21 -8 -16 -54 7 -60 11 -3 18 -9 15 -13 -2 -4 8 -5 23 -2
15 3 21 7 15 9 -19 7 -15 20 7 26 20 5 27 31 11 41 -5 4 -7 -3 -4 -14 4 -15 0
-20 -16 -20 -11 0 -21 -4 -21 -8 0 -4 -10 -9 -22 -9 -13 -1 -18 1 -13 5 9 6
21 53 13 51 -2 0 -9 -3 -15 -6z"/>
<path d="M3756 64 c-3 -9 -2 -23 4 -32 7 -14 9 -10 10 16 0 35 -5 41 -14 16z"/>
<path d="M3520 60 c0 -5 5 -10 10 -10 6 0 10 5 10 10 0 6 -4 10 -10 10 -5 0
-10 -4 -10 -10z"/>
<path d="M3578 33 c7 -3 16 -2 19 1 4 3 -2 6 -13 5 -11 0 -14 -3 -6 -6z"/>
<path d="M3565 10 c-3 -6 1 -7 9 -4 18 7 21 14 7 14 -6 0 -13 -4 -16 -10z"/>
</g>
</svg>
