<?xml version="1.0" encoding="utf-8"?>
<!-- Generator: Adobe Illustrator 27.5.0, SVG Export Plug-In . SVG Version: 6.00 Build 0)  -->
<svg version="1.1" xmlns="http://www.w3.org/2000/svg" xmlns:xlink="http://www.w3.org/1999/xlink" x="0px" y="0px"
	 viewBox="0 0 500 500" style="enable-background:new 0 0 500 500;" xml:space="preserve">
<g id="Background_Complete">
	<g>
		<path style="fill:#EBEBEB;" d="M189.651,228.65c10.314,8.018,25.174,6.156,33.192-4.157c8.018-10.314,6.156-25.174-4.157-33.192
			c-8.822-6.858-20.966-6.482-29.313,0.222l-0.007-0.006l-5.189-4.034l-7.705,2.402l0.882-7.706l-6.502-5.054l-7.705,2.402
			l0.882-7.706l-5.589-4.344l-4.696,1.464l0.538-4.696l-3.253-2.529l-7.376,0.728l-0.992,11.336l38.66,30.054
			C178.928,212.749,181.906,222.629,189.651,228.65z M217.815,220.585c-2.3,2.958-6.563,3.492-9.521,1.192
			c-2.958-2.3-3.492-6.563-1.192-9.521c2.3-2.958,6.563-3.492,9.521-1.193C219.581,213.363,220.115,217.626,217.815,220.585z"/>
	</g>
	<g>
		<path style="fill:#EBEBEB;" d="M220.806,138.266c4.425-5.417,3.622-13.395-1.795-17.82c-5.417-4.425-13.395-3.622-17.82,1.795
			c-3.785,4.633-3.742,11.138-0.261,15.693l-0.003,0.004l-2.227,2.725l1.186,4.155l-4.113-0.572l-2.79,3.415l1.186,4.155
			l-4.113-0.572l-2.398,2.935l0.723,2.533l-2.507-0.349l-1.396,1.708l0.294,3.958l6.055,0.678l16.588-20.304
			C212.156,143.8,217.483,142.334,220.806,138.266z M216.854,123.087c1.554,1.27,1.784,3.558,0.515,5.112
			c-1.269,1.554-3.558,1.784-5.112,0.515c-1.554-1.269-1.784-3.558-0.515-5.112C213.011,122.048,215.3,121.817,216.854,123.087z"/>
	</g>
	<g>
		<g>
			<polygon style="fill:#E0E0E0;" points="167.32,52.364 167.32,125.754 61.913,125.754 58.115,52.878 			"/>
		</g>
		<g>
			
				<rect x="74.458" y="36.535" transform="matrix(6.123234e-17 -1 1 6.123234e-17 21.5799 200.0572)" style="fill:#FFFFFF;" width="72.722" height="105.407"/>
			<path style="fill:#E0E0E0;" d="M164.022,126.099H57.615V52.378h106.407V126.099z M58.615,125.099h104.407V53.378H58.615V125.099z
				"/>
		</g>
		<g>
			<g>
				<rect x="69.531" y="61.913" style="fill:#FFFFFF;" width="82.575" height="54.652"/>
			</g>
			<g>
				<g>
					<path style="fill:#E0E0E0;" d="M152.106,61.913c0,0-0.142,0.009-0.407,0.014c-0.28,0.003-0.668,0.008-1.174,0.014
						c-1.046,0.007-2.565,0.016-4.535,0.029c-3.966,0.015-9.733,0.037-17.016,0.064c-14.562,0.029-35.174,0.07-59.442,0.118
						l0.239-0.239c0.007,16.698,0.014,35.199,0.021,54.645v0.007l-0.26-0.26c31.149,0.02,59.868,0.038,82.574,0.053l-0.207,0.207
						c0.046-16.631,0.083-30.268,0.109-39.764c0.023-4.746,0.041-8.454,0.053-10.996c0.01-1.256,0.018-2.22,0.023-2.889
						C152.091,62.261,152.106,61.913,152.106,61.913s0.015,0.318,0.022,0.959c0.005,0.66,0.013,1.612,0.023,2.851
						c0.012,2.531,0.03,6.223,0.053,10.949c0.026,9.527,0.064,23.207,0.109,39.893l0.001,0.207l-0.208,0
						c-22.706,0.015-51.425,0.033-82.574,0.053l-0.26,0v-0.261v-0.007c0.008-19.446,0.015-37.947,0.021-54.645l0-0.239l0.239,0
						c24.332,0.048,44.998,0.089,59.599,0.118c7.26,0.028,13.009,0.049,16.962,0.064c1.949,0.013,3.452,0.022,4.487,0.029
						c0.494,0.006,0.874,0.011,1.147,0.014C151.983,61.903,152.106,61.913,152.106,61.913z"/>
				</g>
			</g>
		</g>
		<g>
			<g>
				<path style="fill:#E0E0E0;" d="M58.115,52.674c0.044-0.057,0.734,0.396,1.812,1.174c1.078,0.779,2.547,1.883,4.132,3.152
					c1.586,1.27,2.98,2.47,3.962,3.369c0.982,0.899,1.556,1.492,1.51,1.545c-0.098,0.111-2.632-1.979-5.797-4.507
					C60.566,54.881,58.022,52.792,58.115,52.674z"/>
			</g>
		</g>
		<g>
			<g>
				<path style="fill:#E0E0E0;" d="M163.522,52.878c0.089,0.113-2.394,2.227-5.546,4.722c-3.153,2.495-5.781,4.426-5.87,4.314
					c-0.089-0.113,2.394-2.226,5.547-4.722C160.805,54.696,163.433,52.765,163.522,52.878z"/>
			</g>
		</g>
		<g>
			<g>
				<path style="fill:#FFFFFF;" d="M163.439,125.61c-3.917-3.175-7.835-6.35-11.752-9.525"/>
			</g>
			<g>
				<g>
					<path style="fill:#E0E0E0;" d="M151.686,116.085c0.09-0.112,2.795,1.93,6.04,4.56c3.246,2.631,5.803,4.854,5.713,4.965
						c-0.09,0.112-2.794-1.93-6.04-4.561C154.153,118.419,151.596,116.196,151.686,116.085z"/>
				</g>
			</g>
		</g>
		<g>
			<g>
				<path style="fill:#E0E0E0;" d="M58.115,125.6c-0.089-0.113,2.368-2.205,5.488-4.672c3.121-2.468,5.722-4.377,5.812-4.264
					c0.089,0.113-2.368,2.205-5.489,4.673C60.806,123.803,58.204,125.712,58.115,125.6z"/>
			</g>
		</g>
		<g>
			
				<rect x="103.126" y="62.111" transform="matrix(6.123234e-17 -1 1 6.123234e-17 24.1861 200.3656)" style="fill:#E0E0E0;" width="18.299" height="51.957"/>
		</g>
	</g>
</g>
<g id="Background_Simple" style="display:none;">
	<path style="display:inline;fill:#E0E0E0;" d="M426.761,105.41c-25.037-24.844-61.915-37.189-96.864-32.426
		c-34.949,4.764-67.177,26.528-84.653,57.166c-8.036,14.089-13.009,29.695-20.051,44.307c-7.042,14.611-16.753,28.763-31.094,36.341
		c-25.174,13.303-55.964,2.871-84.27,5.948c-33.759,3.669-64.188,28.877-74.073,61.364c-0.247,0.812-0.486,1.631-0.715,2.457
		c-12.16,43.741,3.195,96.807,43.874,116.966l42.631,16.829c82.661,40.962,179.734,27.397,255.061-25.862
		c0.721-0.51,1.432-1.016,2.132-1.52c44.815-32.211,73.755-83.897,83.613-138.199C471.505,198.366,463.133,141.501,426.761,105.41z"
		/>
</g>
<g id="Floor">
	<g>
		<g>
			<path style="fill:#263238;" d="M428.991,469.2c0,0.144-85.884,0.26-191.804,0.26c-105.956,0-191.822-0.117-191.822-0.26
				s85.866-0.26,191.822-0.26C343.107,468.94,428.991,469.056,428.991,469.2z"/>
		</g>
	</g>
</g>
<g id="Character">
	<g>
		<g>
			<g>
				<polygon style="fill:#263238;" points="348.789,432.995 373.544,468.992 382.392,469.2 366.168,432.185 				"/>
			</g>
			<g>
				<polygon style="fill:#263238;" points="87.617,434.835 74.575,468.828 81.096,468.828 103.874,434.984 				"/>
			</g>
			<g>
				<path style="fill:#E8505B;" d="M82.031,311.301l0.956,43.985c0.135,6.221,5.144,11.232,11.365,11.371l246.191,5.48
					c6.521,0.145,11.885-5.101,11.885-11.623v-52.99c0-15.644-11.535-28.894-27.032-31.025
					c-45.068-6.197-138.023-15.728-213.145-2.185C94.451,277.522,81.638,293.217,82.031,311.301z"/>
			</g>
			<g>
				<path style="fill:#E8505B;" d="M80.925,326.671c0,0-20.282-9.387-24.431,0c-4.149,9.387,0.461,20.911,5.071,27.364
					c4.61,6.453,4.535,85.74,4.535,85.74l307.576-3.287l3.645-76.272c0,0,14.751-18.166,13.829-26.002s-13.368-19.235-27.657-7.543
					c-14.29,11.692-17.977,36.123-17.977,36.123l-245.229,1.844C100.285,364.638,101.096,330.305,80.925,326.671z"/>
			</g>
			<g>
				<g>
					<path style="fill:#263238;" d="M342.381,378.026c0,0.144-54.488,0.26-121.687,0.26c-67.222,0-121.698-0.116-121.698-0.26
						c0-0.144,54.476-0.26,121.698-0.26C287.893,377.766,342.381,377.883,342.381,378.026z"/>
				</g>
			</g>
			<g>
				<g>
					<path style="fill:#263238;" d="M98.996,411.597c-0.009,0-0.018-0.081-0.028-0.241c-0.008-0.19-0.019-0.423-0.031-0.708
						c-0.024-0.623-0.044-1.542-0.053-2.724c-0.006-2.411-0.015-5.822-0.025-10.017c-0.012-8.456,0.059-20.142-0.326-33.034
						c-0.235-6.437-0.466-12.605-1.407-18.083c-0.179-0.662-0.355-1.315-0.529-1.961c-0.251-0.628-0.493-1.253-0.758-1.857
						c-0.528-1.208-1.068-2.37-1.658-3.457c-1.16-2.185-2.427-4.12-3.744-5.758c-1.315-1.64-2.679-2.976-3.973-4.03
						c-1.312-1.032-2.541-1.789-3.594-2.313c-2.114-1.037-3.417-1.29-3.393-1.365c0.002-0.009,0.083,0.006,0.238,0.044
						c0.185,0.049,0.41,0.108,0.687,0.181c0.608,0.147,1.477,0.465,2.558,0.957c1.078,0.501,2.339,1.242,3.686,2.267
						c1.328,1.045,2.729,2.381,4.078,4.026c1.351,1.643,2.651,3.588,3.839,5.786c0.604,1.094,1.157,2.263,1.697,3.479
						c0.271,0.608,0.519,1.235,0.776,1.87c0.185,0.669,0.372,1.347,0.562,2.034c0.979,5.55,1.22,11.711,1.457,18.163
						c0.385,12.907,0.255,24.595,0.173,33.052c-0.059,4.194-0.107,7.604-0.141,10.015c-0.019,1.148-0.034,2.057-0.045,2.723
						c-0.008,0.285-0.015,0.518-0.021,0.708C99.013,411.515,99.005,411.597,98.996,411.597z"/>
				</g>
			</g>
			<g>
				<g>
					<path style="fill:#263238;" d="M78.526,344.374c-0.011-0.021,0.259-0.191,0.818-0.254c0.549-0.064,1.413,0.046,2.255,0.629
						c0.413,0.292,0.823,0.699,1.101,1.245c0.275,0.544,0.406,1.222,0.292,1.901c-0.198,1.339-1.259,2.749-2.873,3.068
						c-1.621,0.273-3.109-0.653-3.798-1.812c-0.363-0.582-0.506-1.252-0.487-1.856c0.026-0.608,0.209-1.151,0.446-1.596
						c0.487-0.897,1.183-1.399,1.686-1.624c0.511-0.229,0.826-0.234,0.83-0.209c0.012,0.045-0.283,0.119-0.735,0.388
						c-0.446,0.265-1.05,0.776-1.452,1.612c-0.404,0.814-0.543,2.018,0.121,3.034c0.617,1,1.946,1.786,3.296,1.551
						c1.343-0.255,2.304-1.477,2.493-2.632c0.231-1.191-0.408-2.235-1.137-2.773c-0.734-0.562-1.513-0.724-2.029-0.723
						C78.829,344.319,78.54,344.419,78.526,344.374z"/>
				</g>
			</g>
			<g>
				<g>
					<path style="fill:#263238;" d="M79.92,364.112c-0.039,0.041-0.684-0.497-1.391-1.64c-0.705-1.128-1.41-2.921-1.434-4.992
						c-0.025-2.072,0.637-3.881,1.315-5.025c0.679-1.16,1.311-1.712,1.351-1.673c0.067,0.055-0.455,0.685-1.026,1.846
						c-0.573,1.15-1.142,2.883-1.119,4.846c0.024,1.961,0.634,3.681,1.234,4.817C79.449,363.438,79.986,364.056,79.92,364.112z"/>
				</g>
			</g>
			<g>
				<g>
					<path style="fill:#263238;" d="M76.705,334.423c0.078,0.035-0.138,0.582-0.306,1.494c-0.172,0.909-0.238,2.2,0.051,3.579
						c0.297,1.378,0.882,2.53,1.409,3.291c0.524,0.765,0.944,1.177,0.887,1.241c-0.035,0.045-0.553-0.274-1.181-1.019
						c-0.628-0.737-1.31-1.942-1.624-3.405c-0.308-1.464-0.175-2.841,0.099-3.771C76.311,334.899,76.654,334.397,76.705,334.423z"/>
				</g>
			</g>
			<g>
				<g>
					<path style="fill:#263238;" d="M70.714,345.485c0.114-0.104,1.045,0.836,2.463,1.564c1.409,0.746,2.712,0.971,2.692,1.124
						c0.002,0.134-1.419,0.135-2.933-0.662C71.417,346.726,70.604,345.56,70.714,345.485z"/>
				</g>
			</g>
			<g>
				<g>
					<path style="fill:#263238;" d="M374.865,411.597c0,0.144-69.379,0.26-154.941,0.26c-85.593,0-154.956-0.117-154.956-0.26
						s69.364-0.26,154.956-0.26C305.486,411.336,374.865,411.453,374.865,411.597z"/>
				</g>
			</g>
			<g>
				<g>
					<path style="fill:#263238;" d="M341.313,363.046c0.144,0,0.26,10.862,0.26,24.259c0,13.401-0.117,24.261-0.26,24.261
						s-0.26-10.86-0.26-24.261C341.052,373.908,341.169,363.046,341.313,363.046z"/>
				</g>
			</g>
			<g>
				<g>
					<path style="fill:#263238;" d="M238.598,279.141c0,0-0.161,0.021-0.476,0.036c-0.337,0.013-0.801,0.03-1.398,0.052
						c-1.254,0.035-3.061,0.086-5.376,0.151c-4.693,0.109-11.443,0.265-19.775,0.457c-16.719,0.336-39.776,0.8-65.244,1.312
						c-6.371,0.154-12.599,0.134-18.582,0.529c-5.973,0.396-11.746,1.232-16.922,3.089c-5.193,1.782-9.667,4.755-12.865,8.433
						c-1.591,1.84-2.933,3.796-3.94,5.826c-1.077,1.996-1.794,4.061-2.448,6.031c-1.186,3.989-1.719,7.739-2.024,11.031
						c-0.306,3.298-0.342,6.155-0.357,8.487c-0.01,2.333,0.04,4.146,0.067,5.374c0.013,0.597,0.023,1.061,0.03,1.398
						c0.004,0.315-0.008,0.477-0.008,0.477s-0.024-0.16-0.046-0.475c-0.02-0.337-0.047-0.801-0.082-1.397
						c-0.061-1.228-0.144-3.04-0.165-5.377c-0.016-2.336-0.009-5.2,0.27-8.513c0.278-3.308,0.788-7.082,1.961-11.113
						c0.648-1.992,1.362-4.082,2.443-6.109c1.01-2.059,2.362-4.052,3.972-5.926c3.233-3.749,7.78-6.787,13.029-8.601
						c5.235-1.891,11.051-2.741,17.049-3.146c6.012-0.403,12.237-0.387,18.606-0.541c25.469-0.453,48.528-0.862,65.247-1.16
						c8.333-0.123,15.084-0.223,19.778-0.292c2.316-0.023,4.124-0.041,5.378-0.053c0.597,0,1.061-0.001,1.399-0.001
						C238.436,279.126,238.598,279.141,238.598,279.141z"/>
				</g>
			</g>
			<g>
				<g>
					<path style="fill:#263238;" d="M159.863,313.395c0.018,0.045-0.332,0.169-0.848,0.556c-0.51,0.38-1.176,1.088-1.55,2.165
						c-0.381,1.051-0.383,2.545,0.556,3.717c0.882,1.158,2.583,1.976,4.242,1.595c1.654-0.408,2.803-1.905,3.068-3.337
						c0.31-1.47-0.366-2.802-1.18-3.568c-0.82-0.793-1.734-1.124-2.36-1.233c-0.635-0.113-1.003-0.066-1.007-0.114
						c-0.006-0.022,0.358-0.141,1.035-0.087c0.666,0.052,1.664,0.344,2.584,1.165c0.452,0.41,0.884,0.95,1.164,1.627
						c0.274,0.675,0.391,1.486,0.237,2.297c-0.274,1.603-1.518,3.28-3.419,3.757c-1.912,0.431-3.778-0.505-4.745-1.811
						c-0.504-0.654-0.765-1.431-0.825-2.157c-0.055-0.73,0.086-1.407,0.305-1.977c0.451-1.148,1.21-1.858,1.781-2.205
						C159.48,313.43,159.858,313.373,159.863,313.395z"/>
				</g>
			</g>
			<g>
				<g>
					<path style="fill:#263238;" d="M155.648,339.306c-0.06,0.014-0.424-1.096-0.759-2.957c-0.319-1.845-0.608-4.532,0.157-7.378
						c0.781-2.854,2.656-4.98,4.311-5.941c0.826-0.492,1.57-0.748,2.094-0.849c0.523-0.105,0.819-0.106,0.823-0.077
						c0.029,0.106-1.179,0.207-2.719,1.237c-1.529,0.995-3.262,3.051-4.007,5.769c-0.734,2.726-0.519,5.346-0.295,7.186
						C155.491,338.147,155.728,339.288,155.648,339.306z"/>
				</g>
			</g>
			<g>
				<g>
					<path style="fill:#263238;" d="M159.29,297.949c0.072,0.067-0.719,0.757-1.474,2.205c-0.756,1.416-1.385,3.708-0.84,6.125
						c0.558,2.415,2.119,4.207,3.415,5.155c1.309,0.977,2.32,1.255,2.284,1.347c-0.009,0.03-0.267-0.009-0.714-0.155
						c-0.448-0.144-1.076-0.425-1.783-0.892c-1.404-0.908-3.113-2.762-3.71-5.339c-0.581-2.58,0.155-4.992,1.026-6.419
						c0.434-0.728,0.879-1.253,1.219-1.577C159.053,298.073,159.269,297.926,159.29,297.949z"/>
				</g>
			</g>
			<g>
				<g>
					<path style="fill:#263238;" d="M158.374,317.967c0.009,0.162-2.519,0.229-5.423,1.221c-2.915,0.964-4.969,2.438-5.06,2.303
						c-0.09-0.089,1.885-1.798,4.894-2.797C155.785,317.673,158.392,317.842,158.374,317.967z"/>
				</g>
			</g>
			<g style="opacity:0.3;">
				<g>
					<path d="M126.063,378.938c9.573,7.401,21.919,11.124,33.988,10.25c-2.527,11.756-5.054,23.512-7.581,35.267
						c-0.674,3.137-1.298,6.625,0.341,9.384c2.298,3.867,7.646,4.253,12.144,4.191c5.008-0.069,10.228-0.189,14.667-2.508
						c6.291-3.286,9.667-10.239,12.108-16.904c2.441-6.665,4.546-13.797,9.569-18.811c5.692,6.524,13.633,11.047,22.148,12.615
						c2.506,0.461,5.338,0.599,7.347-0.969c1.994-1.556,2.567-4.423,2.059-6.9c-0.508-2.477-1.905-4.667-3.275-6.793
						c-4.878-7.568-9.755-15.135-14.633-22.703c-1.98-3.072-4.147-6.307-7.495-7.772c-2.626-1.149-5.609-1.035-8.47-0.868
						c-23.886,1.389-47.643,4.982-70.871,10.717"/>
				</g>
			</g>
			<g style="opacity:0.3;">
				<g>
					<path d="M204.278,266.402c-5.92,15.639-28.022,19.225-35.784,34.037c-7.674,14.645,1.84,34.042-6.066,48.564
						c-2.928,5.378-7.954,9.391-10.814,14.805c-1.926,3.646-2.919,7.977-6.026,10.688c-3.62,3.158-9.227,3.096-13.576,1.056
						c-4.349-2.04-7.697-5.699-10.794-9.371c-5.804-6.882-11.253-14.322-13.964-22.906c-4.667-14.776-0.39-31.481,8.973-43.827
						s23.27-20.669,37.941-25.654c14.672-4.985,30.195-6.876,45.623-8.322"/>
				</g>
			</g>
		</g>
		<g>
			<g>
				<path style="fill:#263238;" d="M133.176,225.273c2.297-3.422,5.293-6.45,8.968-8.315c3.675-1.865,8.07-2.484,11.988-1.204
					c3.918,1.279,7.226,4.598,8.024,8.641c0.633,3.205-0.22,6.786,1.435,9.602c1.905,3.241,6.495,4.267,8.106,7.663
					c0.97,2.046,0.582,4.531-0.483,6.529c-1.065,1.998-2.729,3.601-4.393,5.136c1.007,0.715,2.03,1.454,2.74,2.465
					c0.709,1.011,1.058,2.361,0.582,3.501c-0.502,1.204-1.763,1.889-2.964,2.398c-5.54,2.349-11.811,2.938-17.692,1.663
					c-1.579-0.342-3.387-0.772-4.687,0.187"/>
			</g>
			<g>
				<path style="fill:#B78876;" d="M173.211,237.136l-3.233,9.798l21.867,12.406l-21.984,0.712l1.644,17.826l42.343-10.394
					C213.848,267.483,216.388,250.215,173.211,237.136l-3.037-0.714c-1.101-0.259-2.004-1.042-2.417-2.095l0,0
					c-0.326-0.83-0.94-1.515-1.731-1.928l-3.606-1.882l0.025,2.861l1.983,2.331l-0.317,5.531c-0.169,2.445,1.457,4.653,3.843,5.216
					l2.025,0.478"/>
			</g>
			<g>
				<g>
					<g>
						<path style="fill:#FAFAFA;" d="M125.316,272.54c-0.865,0-8.941,1.961-13.556,7.842c-4.615,5.882-11.303,27.933-11.303,27.933
							l17.017,2.941l7.338,18.437c0,0,43.445-5.693,41.138-7.981c-2.307-2.287-7.053-5.817-7.053-5.817l10.017-33.306l12.024-6.48
							l-4.044-16.642l-24.177,3.268L125.316,272.54z"/>
					</g>
					<g>
						<g>
							<path style="fill:#E8505B;" d="M166.859,290.27c0,0.144-13.546,0.26-30.252,0.26c-16.711,0-30.254-0.117-30.254-0.26
								s13.543-0.26,30.254-0.26C153.313,290.01,166.859,290.126,166.859,290.27z"/>
						</g>
					</g>
					<g>
						<g>
							<path style="fill:#E8505B;" d="M164.148,300.061c0,0.144-13.546,0.26-30.252,0.26c-16.712,0-30.255-0.116-30.255-0.26
								c0-0.144,13.543-0.26,30.255-0.26C150.602,299.801,164.148,299.917,164.148,300.061z"/>
						</g>
					</g>
					<g>
						<g>
							<path style="fill:#E8505B;" d="M164.148,310.635c0,0.144-10.26,0.26-22.913,0.26c-12.658,0-22.915-0.117-22.915-0.26
								s10.258-0.26,22.915-0.26C153.888,310.374,164.148,310.491,164.148,310.635z"/>
						</g>
					</g>
					<g>
						<g>
							<path style="fill:#E8505B;" d="M167.664,320.817c0,0.144-10.26,0.26-22.913,0.26c-12.658,0-22.915-0.117-22.915-0.26
								c0-0.144,10.258-0.26,22.915-0.26C157.404,320.557,167.664,320.673,167.664,320.817z"/>
						</g>
					</g>
					<g>
						<g>
							<path style="fill:#E8505B;" d="M178.511,277.104c0,0.144-6.777,0.26-15.135,0.26c-8.361,0-15.137-0.117-15.137-0.26
								s6.776-0.26,15.137-0.26C171.734,276.844,178.511,276.961,178.511,277.104z"/>
						</g>
					</g>
					<g>
						<g>
							<path style="fill:#E8505B;" d="M179.612,266.722c0.003,0.144-6.747,0.418-15.076,0.613
								c-8.331,0.195-15.086,0.236-15.089,0.092c-0.003-0.144,6.746-0.418,15.077-0.613
								C172.852,266.62,179.608,266.578,179.612,266.722z"/>
						</g>
					</g>
				</g>
				<g>
					<g>
						<path style="fill:#263238;" d="M121.005,295.353c0.14,0.032-0.588,3.695-1.625,8.18c-1.038,4.486-1.992,8.096-2.132,8.064
							c-0.14-0.032,0.587-3.695,1.625-8.181C119.91,298.931,120.865,295.321,121.005,295.353z"/>
					</g>
				</g>
			</g>
			<g>
				<g>
					<polygon style="fill:#B78876;" points="168.3,420.209 155.636,460.143 170.903,461.675 185.242,426.983 					"/>
				</g>
				<g>
					<g>
						<g>
							<path style="fill:#455A64;" d="M179.47,446.14l-7.272,18.031c0,0,15.885,13.447,14.866,16.91l-35.467-12.844l10.178-28.56
								L179.47,446.14z"/>
						</g>
						<g>
							<g>
								<path style="fill:#E0E0E0;" d="M161.788,458.663c-0.754-0.061-1.508,0.539-1.6,1.29c-0.092,0.751,0.512,1.523,1.265,1.597
									c0.753,0.074,1.68-0.619,1.687-1.375c0.007-0.757-0.751-1.624-1.5-1.516"/>
							</g>
						</g>
						<g>
							<path style="fill:#E0E0E0;" d="M151.597,468.237l1.138-2.839l33.58,13.376c0,0,1.33,1.259,0.749,2.306L151.597,468.237z"/>
						</g>
						<g>
							<g>
								<path style="fill:#263238;" d="M172.839,464.199c-0.068,0.171-0.963-0.064-2.017,0.184
									c-1.061,0.221-1.771,0.812-1.906,0.686c-0.148-0.091,0.486-1.033,1.767-1.312
									C171.961,463.468,172.933,464.054,172.839,464.199z"/>
							</g>
						</g>
						<g>
							<g>
								<path style="fill:#263238;" d="M176.001,467.085c-0.021,0.182-0.878,0.205-1.731,0.725
									c-0.869,0.494-1.304,1.233-1.474,1.163c-0.173-0.032,0.075-1.09,1.148-1.715
									C175.012,466.622,176.057,466.918,176.001,467.085z"/>
							</g>
						</g>
						<g>
							<g>
								<path style="fill:#263238;" d="M176.502,472.302c-0.171-0.02-0.098-0.973,0.69-1.76c0.783-0.793,1.735-0.872,1.756-0.701
									c0.046,0.178-0.664,0.496-1.301,1.153C176.994,471.635,176.68,472.348,176.502,472.302z"/>
							</g>
						</g>
						<g>
							<g>
								<path style="fill:#263238;" d="M174.04,459.906c-0.13,0.132-0.838-0.395-1.841-0.683c-0.997-0.308-1.878-0.256-1.914-0.437
									c-0.055-0.161,0.921-0.533,2.098-0.177C173.561,458.955,174.174,459.801,174.04,459.906z"/>
							</g>
						</g>
					</g>
					<g>
						<g>
							<path style="fill:#263238;" d="M175.44,456.241c-0.024,0.072-0.747-0.069-1.773-0.652c-0.51-0.291-1.087-0.702-1.652-1.244
								c-0.282-0.271-0.56-0.575-0.824-0.911c-0.126-0.164-0.281-0.34-0.385-0.612c-0.127-0.25-0.069-0.749,0.254-0.95
								c0.28-0.207,0.644-0.208,0.902-0.121c0.264,0.086,0.457,0.216,0.633,0.333c0.36,0.239,0.683,0.504,0.967,0.779
								c0.566,0.554,0.975,1.143,1.249,1.668c0.547,1.06,0.593,1.809,0.522,1.821c-0.099,0.029-0.303-0.658-0.913-1.591
								c-0.304-0.464-0.72-0.981-1.261-1.466c-0.271-0.241-0.574-0.474-0.906-0.684c-0.34-0.235-0.659-0.353-0.815-0.221
								c-0.058,0.051-0.072,0.075-0.033,0.213c0.045,0.131,0.161,0.285,0.284,0.448c0.24,0.318,0.491,0.61,0.744,0.876
								c0.508,0.531,1.023,0.955,1.479,1.28C174.825,455.859,175.477,456.148,175.44,456.241z"/>
						</g>
					</g>
					<g>
						<g>
							<path style="fill:#263238;" d="M175.124,456.408c-0.071,0.004-0.19-0.741,0.153-1.885c0.172-0.567,0.474-1.22,0.947-1.857
								c0.238-0.317,0.518-0.628,0.843-0.915c0.335-0.275,0.758-0.652,1.458-0.486c0.356,0.114,0.548,0.493,0.563,0.764
								c0.03,0.282-0.021,0.497-0.054,0.717c-0.085,0.438-0.24,0.841-0.432,1.197c-0.385,0.715-0.921,1.231-1.423,1.56
								c-1.026,0.668-1.824,0.613-1.817,0.549c-0.026-0.108,0.699-0.224,1.549-0.915c0.419-0.341,0.859-0.831,1.166-1.466
								c0.154-0.316,0.275-0.666,0.339-1.038c0.081-0.397,0.05-0.752-0.105-0.765c-0.175-0.067-0.578,0.109-0.832,0.357
								c-0.297,0.252-0.56,0.525-0.789,0.803c-0.454,0.56-0.773,1.139-0.986,1.648C175.278,455.7,175.228,456.415,175.124,456.408z"
								/>
						</g>
					</g>
				</g>
			</g>
			<g>
				<g>
					<polygon style="fill:#B78876;" points="216.349,382.618 235.247,415.466 250.707,405.549 231.729,372.201 					"/>
				</g>
				<g>
					<g>
						<g>
							<path style="fill:#455A64;" d="M245.374,396.163l9.762,16.814c0,0,20.369-4.276,22.476-1.344l-31.921,20.099l-16.285-25.574
								L245.374,396.163z"/>
						</g>
						<g>
							<g>
								<path style="fill:#E0E0E0;" d="M244.394,417.808c-0.511,0.558-0.501,1.521,0.035,2.055c0.536,0.534,1.516,0.532,2.037-0.017
									c0.521-0.549,0.544-1.706-0.049-2.176c-0.593-0.471-1.743-0.405-2.117,0.253"/>
							</g>
						</g>
						<g>
							<path style="fill:#E0E0E0;" d="M245.69,431.731l-1.541-2.642l31.182-18.283c0,0,1.81-0.276,2.28,0.826L245.69,431.731z"/>
						</g>
						<g>
							<g>
								<path style="fill:#263238;" d="M255.551,412.488c0.093,0.159-0.642,0.721-1.093,1.705c-0.477,0.972-0.447,1.896-0.63,1.925
									c-0.163,0.06-0.517-1.018,0.05-2.2C254.435,412.732,255.495,412.324,255.551,412.488z"/>
							</g>
						</g>
						<g>
							<g>
								<path style="fill:#263238;" d="M259.771,411.765c0.131,0.129-0.378,0.819-0.492,1.811c-0.143,0.989,0.172,1.786,0.012,1.877
									c-0.131,0.117-0.814-0.728-0.648-1.96C258.798,412.261,259.674,411.619,259.771,411.765z"/>
							</g>
						</g>
						<g>
							<g>
								<path style="fill:#263238;" d="M264.196,414.575c-0.121,0.122-0.828-0.52-0.965-1.625c-0.145-1.105,0.378-1.904,0.526-1.816
									c0.169,0.073-0.016,0.829,0.111,1.735C263.972,413.777,264.341,414.462,264.196,414.575z"/>
							</g>
						</g>
						<g>
							<g>
								<path style="fill:#263238;" d="M252.901,408.903c0.024,0.183-0.826,0.418-1.67,1.033c-0.856,0.597-1.355,1.325-1.521,1.242
									c-0.161-0.056,0.145-1.054,1.148-1.764C251.857,408.697,252.901,408.733,252.901,408.903z"/>
							</g>
						</g>
					</g>
					<g>
						<g>
							<path style="fill:#263238;" d="M250.869,405.548c0.042,0.063-0.513,0.547-1.604,0.998c-0.543,0.224-1.221,0.427-1.996,0.539
								c-0.387,0.056-0.798,0.089-1.225,0.091c-0.207-0.002-0.441,0.013-0.719-0.072c-0.275-0.054-0.633-0.405-0.594-0.784
								c0.009-0.348,0.232-0.636,0.459-0.786c0.23-0.156,0.451-0.228,0.652-0.295c0.41-0.138,0.817-0.229,1.209-0.285
								c0.785-0.107,1.501-0.068,2.083,0.039c1.172,0.22,1.792,0.643,1.757,0.706c-0.038,0.096-0.706-0.165-1.816-0.257
								c-0.553-0.045-1.217-0.034-1.932,0.094c-0.357,0.066-0.726,0.162-1.096,0.295c-0.394,0.124-0.683,0.303-0.675,0.508
								c0.005,0.077,0.015,0.103,0.148,0.157c0.131,0.045,0.324,0.048,0.528,0.051c0.398,0.006,0.783-0.012,1.148-0.049
								c0.731-0.074,1.382-0.221,1.918-0.381C250.19,405.798,250.819,405.461,250.869,405.548z"/>
						</g>
					</g>
					<g>
						<g>
							<path style="fill:#263238;" d="M250.807,405.899c-0.04,0.059-0.701-0.305-1.394-1.279c-0.342-0.484-0.672-1.124-0.884-1.888
								c-0.104-0.382-0.177-0.794-0.204-1.227c-0.012-0.433-0.049-0.999,0.512-1.449c0.308-0.211,0.726-0.129,0.948,0.025
								c0.241,0.149,0.379,0.322,0.533,0.483c0.293,0.336,0.517,0.706,0.679,1.076c0.327,0.743,0.405,1.483,0.357,2.081
								c-0.103,1.22-0.636,1.816-0.682,1.771c-0.101-0.045,0.253-0.689,0.229-1.784c-0.012-0.54-0.128-1.188-0.44-1.821
								c-0.155-0.315-0.357-0.626-0.611-0.905c-0.263-0.308-0.563-0.501-0.668-0.387c-0.16,0.097-0.269,0.523-0.23,0.876
								c0.016,0.389,0.07,0.764,0.15,1.116c0.163,0.703,0.424,1.31,0.695,1.79C250.343,405.343,250.877,405.822,250.807,405.899z"/>
						</g>
					</g>
				</g>
			</g>
			<g>
				<g>
					<path style="fill:#263238;" d="M160.094,377.986l37.111-25.236l23.41,45.57l21.287-11.518c0,0-24.514-59.774-33.314-61.704
						c-4.931-1.081-61.466,9.717-61.466,9.717l-6.317-3.176l-15.992-1.945l-1.022,2.586c-5.65,14.301-5.005,30.322,1.777,44.122
						l0.778,1.584H160.094z"/>
				</g>
				<g>
					<path style="fill:#263238;" d="M147.064,346.422c0.276,1.251,30.955,29.979,30.955,29.979l-17.702,59.487l26.419,5.054
						l26.529-71.662l-48.489-47.567l-22.145,9.322L147.064,346.422z"/>
				</g>
				<g>
					<g>
						<path style="fill:#455A64;" d="M197.206,352.749c0.081,0.119-8.162,5.865-18.408,12.833
							c-10.25,6.97-18.622,12.523-18.703,12.404c-0.081-0.119,8.16-5.864,18.41-12.834
							C188.751,358.184,197.125,352.63,197.206,352.749z"/>
					</g>
				</g>
				<g>
					<g>
						<path style="fill:#455A64;" d="M216.255,389.832c-0.031,0.018-0.348-0.473-0.896-1.376c-0.553-0.9-1.314-2.225-2.243-3.868
							c-1.846-3.293-4.306-7.892-6.911-13.027c-2.609-5.136-4.892-9.823-6.505-13.235c-0.806-1.706-1.447-3.092-1.877-4.056
							c-0.43-0.964-0.65-1.505-0.618-1.521c0.033-0.016,0.314,0.496,0.801,1.433c0.519,1.021,1.201,2.363,2.025,3.983
							c1.738,3.445,4.065,8.059,6.638,13.161c2.604,5.132,5.01,9.753,6.771,13.087c0.853,1.604,1.559,2.933,2.096,3.944
							C216.029,389.29,216.286,389.814,216.255,389.832z"/>
					</g>
				</g>
				<g>
					<g>
						<path style="fill:#455A64;" d="M183.568,365.781c0.127,0.067-1.144,2.921-2.839,6.374c-1.696,3.454-3.176,6.205-3.307,6.145
							c-0.131-0.06,1.14-2.914,2.84-6.375C181.96,368.466,183.441,365.714,183.568,365.781z"/>
					</g>
				</g>
			</g>
			<g>
				<path style="fill:#B78876;" d="M100.458,308.315l-5.962,22.161c-0.771,2.867-0.417,5.92,0.991,8.533l0,0
					c2.485,4.614,7.751,6.996,12.857,5.814l47.549-11.714l-4.971-9.875l-37.459,3.248l4.012-15.227L100.458,308.315z"/>
			</g>
			<g>
				<g>
					<polygon style="fill:#455A64;" points="121.551,341.954 122.171,338.733 147.938,334.103 155.426,294.374 203.287,288.672 
						195.245,331.083 					"/>
				</g>
				<g>
					<path style="fill:#EBEBEB;" d="M176.917,315.766c-1.254-0.242-2.045-1.611-1.766-3.057c0.279-1.447,1.522-2.424,2.776-2.182
						c1.254,0.242,2.045,1.611,1.766,3.057C179.414,315.031,178.171,316.008,176.917,315.766z"/>
				</g>
			</g>
			<g>
				<g>
					<g>
						<g>
							<g>
								<g>
									<g>
										<path style="fill:#B78876;" d="M128.553,228.018l0.09,2.873l1.077,43.008c0.125,4.993,4.517,8.862,9.862,8.687h0
											c5.398-0.177,9.735-4.407,9.692-9.453c-0.045-5.296,0.004-10.872,0.004-10.872s6.809-1.212,8.119-10.13
											c0.651-4.435,0.345-11.69-0.098-17.619c-0.399-5.336-5.155-9.267-10.469-8.642L128.553,228.018z"/>
									</g>
								</g>
							</g>
						</g>
					</g>
					<g>
						<g>
							<g>
								<g>
									<g>
										<g>
											<path style="fill:#263238;" d="M153.852,239.471c0.028,0.603-0.459,1.123-1.087,1.164
												c-0.628,0.041-1.16-0.413-1.189-1.015c-0.028-0.603,0.458-1.124,1.086-1.165
												C153.29,238.413,153.824,238.868,153.852,239.471z"/>
										</g>
									</g>
								</g>
							</g>
						</g>
						<g>
							<g>
								<g>
									<g>
										<g>
											<g>
												<path style="fill:#263238;" d="M155.77,238.305c-0.14,0.15-1.012-0.479-2.241-0.462c-1.227,0-2.121,0.642-2.256,0.493
													c-0.066-0.066,0.075-0.336,0.464-0.626c0.383-0.289,1.039-0.574,1.804-0.579c0.765-0.005,1.412,0.269,1.785,0.553
													C155.708,237.97,155.839,238.238,155.77,238.305z"/>
											</g>
										</g>
									</g>
								</g>
							</g>
						</g>
					</g>
					<g>
						<g>
							<g>
								<g>
									<g>
										<g>
											<path style="fill:#263238;" d="M141.727,239.913c0.028,0.603-0.459,1.123-1.087,1.165
												c-0.628,0.041-1.16-0.413-1.189-1.016c-0.028-0.602,0.459-1.124,1.086-1.165
												C141.166,238.856,141.699,239.311,141.727,239.913z"/>
										</g>
									</g>
								</g>
							</g>
						</g>
						<g>
							<g>
								<g>
									<g>
										<g>
											<g>
												<path style="fill:#263238;" d="M143.698,238.675c-0.14,0.151-1.013-0.479-2.241-0.462c-1.227,0-2.122,0.642-2.257,0.493
													c-0.066-0.066,0.074-0.336,0.464-0.626c0.383-0.289,1.039-0.574,1.804-0.579c0.765-0.005,1.412,0.27,1.786,0.553
													C143.635,238.34,143.766,238.608,143.698,238.675z"/>
											</g>
										</g>
									</g>
								</g>
							</g>
						</g>
					</g>
					<g>
						<g>
							<g>
								<g>
									<g>
										<g>
											<path style="fill:#263238;" d="M148.262,247.733c-0.007-0.07,0.756-0.21,1.991-0.383c0.313-0.036,0.609-0.102,0.66-0.317
												c0.071-0.227-0.064-0.564-0.22-0.927c-0.304-0.756-0.622-1.548-0.955-2.378c-1.328-3.386-2.293-6.171-2.156-6.223
												c0.137-0.052,1.324,2.649,2.652,6.035c0.32,0.835,0.626,1.631,0.917,2.392c0.123,0.355,0.332,0.757,0.177,1.229
												c-0.082,0.235-0.31,0.408-0.511,0.465c-0.2,0.064-0.377,0.069-0.532,0.08
												C149.04,247.788,148.267,247.803,148.262,247.733z"/>
										</g>
									</g>
								</g>
							</g>
						</g>
					</g>
					<g>
						<g>
							<g>
								<g>
									<g>
										<path style="fill:#AA6550;" d="M149.28,262.26c0,0-5.984,0.456-11.958-3.041c0,0,2.963,6.081,11.862,5.144L149.28,262.26z
											"/>
									</g>
								</g>
							</g>
						</g>
					</g>
					<g>
						<g>
							<g>
								<g>
									<g>
										<path style="fill:#263238;" d="M144.192,236.652c-0.137,0.328-1.354,0.113-2.802,0.22c-1.45,0.078-2.63,0.446-2.808,0.138
											c-0.079-0.147,0.138-0.452,0.623-0.753c0.48-0.301,1.237-0.573,2.105-0.63c0.868-0.055,1.654,0.119,2.168,0.357
											C143.997,236.222,144.251,236.496,144.192,236.652z"/>
									</g>
								</g>
							</g>
						</g>
					</g>
					<g>
						<g>
							<g>
								<g>
									<g>
										<path style="fill:#263238;" d="M155.256,234.044c-0.213,0.281-1.063,0.002-2.08,0c-1.018-0.038-1.877,0.209-2.079-0.08
											c-0.088-0.141,0.044-0.422,0.417-0.69c0.368-0.268,0.986-0.49,1.686-0.477c0.699,0.014,1.308,0.26,1.666,0.542
											C155.228,233.62,155.35,233.906,155.256,234.044z"/>
									</g>
								</g>
							</g>
						</g>
					</g>
					<g>
						<g>
							<path style="fill:#AA6550;" d="M148.127,252.182c-0.347,0.104-0.72-0.02-1.069-0.11c-0.349-0.102-0.679-0.192-0.956-0.284
								c-0.278-0.092-0.596-0.216-0.937-0.343c-0.334-0.136-0.707-0.26-0.923-0.55c-0.212-0.278-0.169-0.759,0.311-1.186
								c0.459-0.42,1.385-0.715,2.368-0.392c0.981,0.327,1.548,1.117,1.665,1.728C148.716,251.674,148.463,252.085,148.127,252.182z
								"/>
						</g>
					</g>
					<g>
						<g>
							<path style="fill:#263238;" d="M148.296,252.074c-0.119,0.083-0.716-1.143-2.153-1.513c-1.438-0.365-2.55,0.423-2.615,0.294
								c-0.042-0.048,0.163-0.326,0.65-0.577c0.476-0.25,1.262-0.433,2.094-0.221c0.831,0.214,1.433,0.752,1.73,1.199
								C148.309,251.709,148.355,252.051,148.296,252.074z"/>
						</g>
					</g>
				</g>
				<g>
					<path style="fill:#263238;" d="M138.85,222.216c2.846,4.239,2.124,10.504-1.613,13.984c-2.128,1.982-5.295,3.528-5.511,6.428
						c-0.24,3.212,3.481,5.615,3.486,8.836c0.006,3.311-3.815,5.421-4.558,8.648c-0.598,2.598,0.954,5.203,2.753,7.169
						c1.799,1.967,3.963,3.712,5.043,6.149c1.191,2.687,0.854,5.863-0.304,8.565c-1.157,2.702-3.061,5.01-5.027,7.196
						c-2.655-0.955-5.431-1.572-8.24-1.833c0.176-1.062,0.353-2.124,0.529-3.186c0.061,1.236-0.975,2.315-2.15,2.703
						c-1.175,0.388-2.453,0.238-3.675,0.046c-3.746-0.59-7.436-1.538-11.002-2.828c1.522-1.525,3.072-3.088,4.02-5.023
						c0.948-1.935,1.203-4.345,0.111-6.203c-0.878-1.494-2.498-2.454-3.306-3.987c-1.212-2.298-0.214-5.221,1.509-7.166
						c1.723-1.945,4.055-3.224,6.104-4.823c2.048-1.599,3.93-3.762,4.095-6.356c0.214-3.365-2.508-6.431-2.174-9.787
						c0.38-3.821,4.421-6.157,6.008-9.654c1.148-2.531,0.994-5.653,2.756-7.802c1.305-1.591,3.473-2.308,5.527-2.201
						c2.055,0.107,4.01,0.949,5.763,2.026"/>
				</g>
				<g>
					<path style="fill:#263238;" d="M150.024,263.216c-1.608,0.887-1.515,3.329-0.536,4.882c0.979,1.554,2.554,2.663,3.521,4.224
						c1.725,2.785,0.979,6.828-1.627,8.814l3.841,1.453l0.838-0.474l2.358-1.334l-1.106,2.724l2.459,0
						c2.586,0.03,5.13-1.496,6.32-3.792c1.19-2.296,0.971-5.255-0.545-7.35c-1.012-1.399-2.582-2.514-2.923-4.207
						c-0.411-2.041,1.131-3.893,1.886-5.833c1.262-3.241,0.108-7.258-2.683-9.334"/>
				</g>
			</g>
		</g>
	</g>
</g>
<g id="Speech_Bubble">
	<g>
		<g>
			<g>
				<g>
					<path style="fill:#E8505B;" d="M74.248,182.291c0.449,0.216,0.758,0.675,0.759,1.206l-0.001,6.66
						c0,0.419-0.196,0.814-0.53,1.066c-0.334,0.253-0.767,0.335-1.17,0.221c-1.057-0.298-2.246-0.116-3.26,0.5
						c-0.934,0.566-1.582,1.432-1.777,2.376c-0.196,0.94,0.052,2,0.68,2.91c0.672,0.973,1.697,1.654,2.748,1.821
						c2.146,0.341,4.545-1.21,5.238-3.388c0.224-0.704,0.976-1.092,1.68-0.868c0.715,0.23,1.093,0.977,0.869,1.68
						c-1.09,3.423-4.772,5.764-8.208,5.218c-1.781-0.284-3.434-1.356-4.528-2.943c-1.041-1.508-1.441-3.32-1.098-4.973
						c0.346-1.667,1.442-3.168,3.008-4.118c1.132-0.687,2.411-1.037,3.674-1.027l-0.001-5.133c0-0.739,0.599-1.337,1.338-1.337
						C73.877,182.16,74.073,182.207,74.248,182.291z"/>
				</g>
			</g>
			<g>
				<g>
					<path style="fill:#E8505B;" d="M72.407,179.491c-0.015-0.604,0.462-1.106,1.066-1.122c0.604-0.015,1.106,0.462,1.122,1.066
						c0.015,0.604-0.462,1.106-1.066,1.122C72.925,180.572,72.422,180.095,72.407,179.491z"/>
				</g>
			</g>
		</g>
		<g>
			<g>
				<g>
					<path style="fill:#263238;" d="M105.033,215.151c0.005,0.031-0.333,0.051-0.879,0.275c-0.539,0.219-1.292,0.704-1.856,1.592
						c-0.275,0.441-0.502,0.98-0.573,1.586c-0.065,0.603,0.024,1.268,0.335,1.88c0.585,1.217,1.993,2.27,3.583,2.191
						c1.588-0.109,2.862-1.322,3.3-2.599c0.237-0.644,0.246-1.316,0.11-1.907c-0.142-0.593-0.431-1.102-0.756-1.507
						c-0.664-0.815-1.47-1.208-2.031-1.362c-0.569-0.158-0.907-0.137-0.906-0.169c0-0.01,0.083-0.016,0.242-0.02
						c0.08-0.005,0.178-0.001,0.294,0.015c0.117,0.01,0.25,0.027,0.398,0.066c0.587,0.125,1.441,0.502,2.159,1.34
						c0.352,0.417,0.669,0.948,0.831,1.58c0.157,0.629,0.155,1.358-0.092,2.05c-0.231,0.693-0.675,1.356-1.286,1.865
						c-0.602,0.519-1.395,0.873-2.247,0.934c-0.853,0.04-1.682-0.218-2.341-0.662c-0.666-0.434-1.186-1.039-1.497-1.7
						c-0.326-0.658-0.414-1.381-0.333-2.024c0.086-0.646,0.338-1.211,0.638-1.667c0.614-0.917,1.417-1.392,1.986-1.586
						c0.142-0.056,0.273-0.088,0.387-0.112c0.113-0.03,0.21-0.045,0.29-0.05C104.949,215.145,105.032,215.141,105.033,215.151z"/>
				</g>
			</g>
			<g>
				<g>
					<path style="fill:#263238;" d="M114.762,224.823c0.004,0.027-0.208,0.047-0.546,0.193c-0.334,0.143-0.799,0.45-1.144,1.003
						c-0.346,0.537-0.532,1.376-0.137,2.141c0.363,0.749,1.235,1.397,2.208,1.348c0.973-0.066,1.763-0.812,2.034-1.599
						c0.302-0.806,0.018-1.617-0.389-2.109c-0.408-0.509-0.906-0.759-1.255-0.861c-0.353-0.105-0.566-0.099-0.565-0.126
						c-0.002-0.012,0.212-0.057,0.593,0.018c0.374,0.074,0.921,0.308,1.383,0.84c0.227,0.265,0.431,0.603,0.537,1.008
						c0.103,0.403,0.103,0.872-0.054,1.317c-0.291,0.881-1.149,1.719-2.267,1.799c-1.119,0.052-2.069-0.679-2.463-1.519
						c-0.208-0.423-0.264-0.889-0.209-1.301c0.057-0.414,0.221-0.774,0.414-1.064c0.396-0.583,0.911-0.88,1.274-0.997
						C114.544,224.792,114.762,224.811,114.762,224.823z"/>
				</g>
			</g>
			<g>
				<g>
					<g>
						<path style="fill:#263238;" d="M103.417,195.327c0,0-0.005-0.17-0.001-0.502c0.006-0.339,0.015-0.829,0.026-1.47
							c0.007-0.324,0.014-0.684,0.023-1.082c-0.01-0.398-0.06-0.832-0.092-1.303c-0.037-0.471-0.076-0.978-0.119-1.519
							c-0.011-0.272-0.054-0.549-0.111-0.833c-0.051-0.285-0.104-0.578-0.158-0.88c-0.354-2.425-1.245-5.327-2.768-8.45
							c-1.538-3.111-3.851-6.417-7.127-9.327c-0.412-0.36-0.829-0.725-1.25-1.093c-0.442-0.342-0.912-0.661-1.374-0.999
							c-0.233-0.167-0.466-0.335-0.702-0.503c-0.234-0.171-0.469-0.343-0.728-0.48c-0.506-0.293-1.017-0.59-1.534-0.889
							c-0.259-0.148-0.516-0.304-0.78-0.448c-0.274-0.125-0.55-0.251-0.827-0.377c-0.554-0.253-1.114-0.507-1.678-0.765
							c-0.572-0.24-1.176-0.413-1.771-0.626c-0.299-0.102-0.599-0.204-0.901-0.307c-0.152-0.049-0.301-0.108-0.455-0.15
							l-0.469-0.109c-1.255-0.28-2.517-0.642-3.845-0.753c-0.66-0.075-1.322-0.191-1.994-0.234
							c-0.674-0.018-1.354-0.036-2.039-0.054c-0.342-0.003-0.686-0.032-1.03-0.014c-0.344,0.026-0.689,0.051-1.036,0.077
							c-0.692,0.06-1.393,0.085-2.09,0.174c-1.383,0.262-2.808,0.428-4.185,0.88c-0.348,0.098-0.697,0.196-1.047,0.294
							c-0.174,0.051-0.352,0.094-0.525,0.151l-0.51,0.199c-0.681,0.266-1.367,0.533-2.057,0.801c-0.675,0.301-1.329,0.661-2,0.992
							c-0.33,0.176-0.678,0.322-0.995,0.525l-0.956,0.606c-1.314,0.758-2.488,1.744-3.711,2.686
							c-0.562,0.529-1.126,1.061-1.693,1.595l-0.426,0.401c-0.133,0.142-0.259,0.293-0.389,0.439l-0.775,0.885l-0.779,0.889
							l-0.696,0.961l-0.696,0.968l-0.349,0.485c-0.106,0.169-0.202,0.344-0.304,0.516c-0.402,0.691-0.805,1.385-1.21,2.082
							c-0.335,0.733-0.672,1.468-1.01,2.207c-1.241,3.001-2.034,6.229-2.338,9.553c-0.216,3.332,0.066,6.645,0.826,9.803
							c0.219,0.782,0.437,1.561,0.655,2.337c0.292,0.751,0.583,1.5,0.873,2.245l0.22,0.557l0.27,0.534l0.538,1.064l0.539,1.058
							l0.632,0.999l0.629,0.995l0.316,0.494l0.359,0.462c0.478,0.616,0.953,1.229,1.426,1.839c1.062,1.12,2.069,2.276,3.25,3.23
							l0.851,0.747c0.281,0.25,0.603,0.448,0.902,0.673c0.612,0.431,1.201,0.888,1.822,1.29c0.64,0.372,1.276,0.743,1.908,1.111
							l0.473,0.276c0.162,0.083,0.33,0.154,0.495,0.231c0.331,0.151,0.66,0.302,0.989,0.453c1.291,0.661,2.673,1.045,3.998,1.519
							c0.676,0.195,1.364,0.33,2.038,0.496c0.338,0.079,0.675,0.158,1.011,0.237c0.337,0.071,0.682,0.096,1.02,0.146
							c0.679,0.088,1.354,0.176,2.023,0.263c0.671,0.062,1.343,0.05,2.007,0.078c1.33,0.096,2.633-0.066,3.916-0.148l0.48-0.035
							c0.159-0.018,0.315-0.053,0.473-0.078c0.314-0.055,0.627-0.109,0.938-0.164c0.62-0.118,1.244-0.195,1.846-0.344
							c0.598-0.167,1.19-0.332,1.777-0.495c0.293-0.082,0.585-0.163,0.876-0.244c0.282-0.108,0.562-0.215,0.84-0.322
							c0.557-0.216,1.108-0.429,1.653-0.641c0.277-0.095,0.536-0.229,0.794-0.361c0.258-0.13,0.516-0.26,0.771-0.389
							c0.509-0.262,1.022-0.503,1.512-0.773c0.474-0.299,0.942-0.594,1.405-0.886c3.688-2.367,6.485-5.274,8.486-8.109
							c0.253-0.354,0.51-0.696,0.747-1.042c0.212-0.362,0.42-0.718,0.624-1.067c0.204-0.349,0.404-0.691,0.601-1.027
							c0.095-0.169,0.201-0.331,0.285-0.501c0.08-0.173,0.158-0.344,0.236-0.513c0.312-0.677,0.61-1.325,0.895-1.943
							c0.267-0.625,0.446-1.249,0.656-1.824c0.1-0.29,0.198-0.571,0.292-0.844c0.101-0.272,0.186-0.539,0.239-0.806
							c0.126-0.528,0.243-1.023,0.353-1.482c0.105-0.46,0.222-0.881,0.293-1.273c0.054-0.394,0.102-0.752,0.145-1.073
							c0.088-0.635,0.156-1.121,0.202-1.456C103.385,195.495,103.417,195.327,103.417,195.327s-0.012,0.169-0.049,0.498
							c-0.04,0.337-0.098,0.824-0.174,1.461c-0.04,0.322-0.084,0.681-0.132,1.077c-0.067,0.393-0.18,0.816-0.28,1.279
							c-0.106,0.462-0.219,0.959-0.341,1.49c-0.051,0.269-0.135,0.537-0.234,0.81c-0.093,0.275-0.188,0.558-0.287,0.85
							c-0.207,0.579-0.383,1.207-0.647,1.836c-0.282,0.622-0.578,1.274-0.887,1.956c-0.077,0.171-0.156,0.343-0.235,0.517
							c-0.084,0.172-0.189,0.335-0.284,0.505c-0.195,0.338-0.395,0.683-0.598,1.035c-0.203,0.352-0.411,0.71-0.622,1.075
							c-0.236,0.349-0.493,0.694-0.746,1.051c-1.999,2.858-4.803,5.794-8.507,8.187c-0.465,0.295-0.936,0.594-1.411,0.896
							c-0.492,0.273-1.008,0.518-1.52,0.783c-0.257,0.13-0.516,0.262-0.776,0.393c-0.259,0.134-0.519,0.269-0.798,0.366
							c-0.549,0.214-1.103,0.431-1.664,0.65c-0.281,0.108-0.56,0.223-0.846,0.326c-0.292,0.082-0.586,0.165-0.882,0.248
							c-0.591,0.166-1.187,0.334-1.789,0.503c-0.606,0.151-1.234,0.231-1.859,0.351c-0.314,0.055-0.629,0.111-0.945,0.167
							c-0.159,0.026-0.316,0.061-0.476,0.079l-0.484,0.036c-1.293,0.085-2.606,0.25-3.946,0.156
							c-0.669-0.028-1.346-0.014-2.023-0.076c-0.675-0.087-1.355-0.174-2.039-0.261c-0.341-0.05-0.689-0.075-1.029-0.146
							c-0.339-0.079-0.679-0.158-1.02-0.237c-0.68-0.167-1.374-0.301-2.056-0.497c-1.338-0.475-2.732-0.862-4.035-1.526
							c-0.332-0.151-0.664-0.303-0.998-0.456c-0.166-0.078-0.336-0.149-0.499-0.232l-0.478-0.278
							c-0.638-0.371-1.28-0.744-1.926-1.119c-0.626-0.405-1.222-0.865-1.839-1.299c-0.301-0.227-0.626-0.426-0.91-0.678
							l-0.859-0.752c-1.192-0.961-2.21-2.126-3.281-3.256c-0.478-0.615-0.958-1.234-1.44-1.855l-0.362-0.467l-0.319-0.498
							l-0.636-1.003l-0.638-1.008l-0.545-1.067l-0.543-1.074l-0.272-0.539l-0.222-0.562c-0.293-0.752-0.587-1.507-0.882-2.266
							c-0.22-0.783-0.441-1.57-0.662-2.359c-0.768-3.187-1.053-6.532-0.835-9.894c0.306-3.355,1.108-6.613,2.361-9.641
							c0.341-0.745,0.681-1.487,1.02-2.227c0.409-0.703,0.816-1.403,1.222-2.101c0.103-0.173,0.2-0.35,0.307-0.52l0.353-0.49
							l0.703-0.976l0.704-0.969l0.787-0.897l0.783-0.893c0.131-0.147,0.258-0.299,0.393-0.442l0.43-0.405
							c0.573-0.539,1.143-1.075,1.71-1.608c1.234-0.95,2.42-1.942,3.746-2.707l0.965-0.61c0.32-0.205,0.671-0.351,1.004-0.529
							c0.677-0.333,1.337-0.696,2.018-0.998c0.696-0.27,1.388-0.539,2.076-0.806l0.515-0.2c0.175-0.057,0.353-0.101,0.529-0.152
							c0.353-0.099,0.705-0.197,1.056-0.295c1.39-0.454,2.827-0.62,4.222-0.882c0.704-0.088,1.411-0.113,2.108-0.172
							c0.349-0.025,0.697-0.051,1.044-0.076c0.347-0.018,0.694,0.012,1.039,0.015c0.69,0.02,1.375,0.039,2.055,0.058
							c0.678,0.044,1.345,0.162,2.01,0.239c1.339,0.115,2.61,0.482,3.874,0.766l0.472,0.111c0.155,0.043,0.305,0.102,0.458,0.152
							c0.304,0.104,0.606,0.208,0.907,0.311c0.599,0.216,1.207,0.392,1.782,0.635c0.568,0.261,1.131,0.519,1.689,0.774
							c0.279,0.128,0.556,0.255,0.832,0.382c0.266,0.145,0.525,0.303,0.785,0.453c0.52,0.303,1.034,0.603,1.543,0.9
							c0.26,0.139,0.497,0.312,0.732,0.485c0.236,0.171,0.471,0.34,0.705,0.509c0.465,0.341,0.936,0.663,1.381,1.009
							c0.423,0.372,0.842,0.74,1.255,1.104c3.289,2.939,5.603,6.273,7.136,9.407c1.517,3.146,2.396,6.066,2.734,8.502
							c0.052,0.303,0.103,0.598,0.152,0.884c0.055,0.285,0.096,0.564,0.105,0.837c0.038,0.544,0.073,1.052,0.106,1.525
							c0.028,0.472,0.073,0.908,0.079,1.307c-0.013,0.399-0.026,0.761-0.037,1.085c-0.024,0.641-0.042,1.132-0.054,1.471
							C103.431,195.158,103.417,195.327,103.417,195.327z"/>
					</g>
				</g>
			</g>
		</g>
	</g>
</g>
<g id="Sreen">
	<g>
		<g>
			<rect x="237.763" y="47.117" style="fill:#FFFFFF;" width="206.445" height="313.386"/>
		</g>
		<g>
			<rect x="237.335" y="63.08" style="fill:#F5F5F5;" width="206.507" height="134.87"/>
		</g>
		<g>
			<g>
				<path style="fill:none;stroke:#4E585D;stroke-miterlimit:10;" d="M370.657,340.291"/>
			</g>
		</g>
		<g>
			<path style="fill:#263238;" d="M287.792,216.962v3.068h4.413v1.081h-4.413v3.558h-1.257v-8.801h6.211v1.094H287.792z"/>
			<path style="fill:#263238;" d="M293.514,221.338c0-1.986,1.471-3.395,3.47-3.395c1.999,0,3.458,1.408,3.458,3.395
				c0,1.987-1.459,3.408-3.458,3.408C294.985,224.745,293.514,223.324,293.514,221.338z M299.222,221.338
				c0-1.42-0.955-2.338-2.238-2.338c-1.282,0-2.25,0.918-2.25,2.338c0,1.421,0.968,2.351,2.25,2.351
				C298.267,223.689,299.222,222.759,299.222,221.338z"/>
			<path style="fill:#263238;" d="M305.698,217.943v1.169c-0.101-0.013-0.188-0.013-0.276-0.013c-1.295,0-2.1,0.792-2.1,2.251v3.319
				h-1.207v-6.663h1.156v1.119C303.699,218.346,304.529,217.943,305.698,217.943z"/>
			<path style="fill:#263238;" d="M313.494,218.006v5.758c0,2.351-1.194,3.42-3.457,3.42c-1.22,0-2.452-0.339-3.182-0.993
				l0.578-0.931c0.616,0.528,1.585,0.868,2.565,0.868c1.571,0,2.288-0.729,2.288-2.238v-0.528c-0.578,0.691-1.445,1.031-2.401,1.031
				c-1.924,0-3.382-1.308-3.382-3.231c0-1.924,1.458-3.219,3.382-3.219c0.993,0,1.898,0.365,2.465,1.094v-1.031H313.494z
				 M312.312,221.162c0-1.295-0.955-2.163-2.288-2.163c-1.346,0-2.301,0.867-2.301,2.163c0,1.282,0.955,2.175,2.301,2.175
				C311.357,223.337,312.312,222.444,312.312,221.162z"/>
			<path style="fill:#263238;" d="M315.179,221.338c0-1.986,1.471-3.395,3.47-3.395c1.999,0,3.458,1.408,3.458,3.395
				c0,1.987-1.459,3.408-3.458,3.408C316.65,224.745,315.179,223.324,315.179,221.338z M320.887,221.338
				c0-1.42-0.956-2.338-2.238-2.338c-1.282,0-2.25,0.918-2.25,2.338c0,1.421,0.968,2.351,2.25,2.351
				C319.931,223.689,320.887,222.759,320.887,221.338z"/>
			<path style="fill:#263238;" d="M327.527,224.28c-0.364,0.314-0.918,0.465-1.458,0.465c-1.346,0-2.112-0.742-2.112-2.087v-3.659
				h-1.132v-0.993h1.132v-1.459h1.207v1.459h1.911v0.993h-1.911v3.608c0,0.717,0.377,1.119,1.043,1.119
				c0.353,0,0.692-0.113,0.943-0.314L327.527,224.28z"/>
			<path style="fill:#263238;" d="M339.271,221.338c0,2.049-1.421,3.408-3.369,3.408c-0.943,0-1.773-0.365-2.326-1.082v3.445h-1.207
				v-9.103h1.156v1.056c0.541-0.742,1.396-1.119,2.377-1.119C337.85,217.943,339.271,219.301,339.271,221.338z M338.051,221.338
				c0-1.408-0.968-2.338-2.251-2.338c-1.27,0-2.237,0.93-2.237,2.338c0,1.421,0.968,2.351,2.237,2.351
				C337.084,223.689,338.051,222.759,338.051,221.338z"/>
			<path style="fill:#263238;" d="M346.163,220.646v4.023h-1.143v-0.88c-0.402,0.604-1.145,0.956-2.189,0.956
				c-1.509,0-2.464-0.805-2.464-1.962c0-1.068,0.691-1.949,2.678-1.949h1.911v-0.239c0-1.018-0.591-1.609-1.785-1.609
				c-0.792,0-1.597,0.276-2.112,0.717l-0.503-0.905c0.691-0.553,1.685-0.855,2.753-0.855
				C345.132,217.943,346.163,218.823,346.163,220.646z M344.956,222.633v-0.931h-1.86c-1.195,0-1.534,0.465-1.534,1.031
				c0,0.666,0.553,1.081,1.471,1.081C343.937,223.815,344.654,223.4,344.956,222.633z"/>
			<path style="fill:#263238;" d="M347.559,223.966l0.503-0.956c0.565,0.402,1.471,0.691,2.339,0.691
				c1.119,0,1.584-0.339,1.584-0.905c0-1.496-4.212-0.201-4.212-2.854c0-1.194,1.068-1.999,2.778-1.999
				c0.868,0,1.849,0.226,2.427,0.604l-0.516,0.956c-0.603-0.39-1.27-0.528-1.924-0.528c-1.056,0-1.571,0.39-1.571,0.918
				c0,1.572,4.225,0.289,4.225,2.879c0,1.207-1.106,1.974-2.879,1.974C349.207,224.745,348.113,224.406,347.559,223.966z"/>
			<path style="fill:#263238;" d="M353.859,223.966l0.503-0.956c0.565,0.402,1.471,0.691,2.339,0.691
				c1.119,0,1.584-0.339,1.584-0.905c0-1.496-4.212-0.201-4.212-2.854c0-1.194,1.068-1.999,2.778-1.999
				c0.868,0,1.849,0.226,2.427,0.604l-0.516,0.956c-0.604-0.39-1.27-0.528-1.924-0.528c-1.056,0-1.571,0.39-1.571,0.918
				c0,1.572,4.225,0.289,4.225,2.879c0,1.207-1.106,1.974-2.879,1.974C355.507,224.745,354.412,224.406,353.859,223.966z"/>
			<path style="fill:#263238;" d="M370.959,218.006l-2.489,6.663h-1.156l-1.924-5.054l-1.949,5.054h-1.156l-2.477-6.663h1.144
				l1.937,5.306l2.012-5.306h1.019l1.974,5.331l1.986-5.331H370.959z"/>
			<path style="fill:#263238;" d="M371.376,221.338c0-1.986,1.471-3.395,3.47-3.395c1.999,0,3.458,1.408,3.458,3.395
				c0,1.987-1.459,3.408-3.458,3.408C372.846,224.745,371.376,223.324,371.376,221.338z M377.084,221.338
				c0-1.42-0.955-2.338-2.238-2.338c-1.282,0-2.25,0.918-2.25,2.338c0,1.421,0.968,2.351,2.25,2.351
				C376.129,223.689,377.084,222.759,377.084,221.338z"/>
			<path style="fill:#263238;" d="M383.559,217.943v1.169c-0.101-0.013-0.189-0.013-0.276-0.013c-1.295,0-2.1,0.792-2.1,2.251v3.319
				h-1.207v-6.663h1.156v1.119C381.56,218.346,382.39,217.943,383.559,217.943z"/>
			<path style="fill:#263238;" d="M391.267,215.34v9.329h-1.156v-1.056c-0.541,0.754-1.397,1.132-2.377,1.132
				c-1.948,0-3.369-1.371-3.369-3.408c0-2.037,1.421-3.395,3.369-3.395c0.943,0,1.773,0.352,2.326,1.069v-3.672H391.267z
				 M390.073,221.338c0-1.42-0.968-2.338-2.238-2.338c-1.282,0-2.25,0.918-2.25,2.338c0,1.421,0.968,2.351,2.25,2.351
				C389.105,223.689,390.073,222.759,390.073,221.338z"/>
			<path style="fill:#263238;" d="M397.492,218.195c0-0.805-0.666-1.358-1.798-1.358c-1.019,0-1.747,0.352-2.25,0.993l-0.918-0.654
				c0.691-0.893,1.785-1.408,3.257-1.408c1.81,0,2.979,0.842,2.979,2.238c0,2.1-2.226,2.238-2.226,3.885h-1.258
				C395.279,219.917,397.492,219.64,397.492,218.195z M395.103,223.941c0-0.453,0.34-0.805,0.817-0.805
				c0.466,0,0.805,0.352,0.805,0.805c0,0.44-0.339,0.805-0.805,0.805C395.443,224.745,395.103,224.381,395.103,223.941z"/>
		</g>
		<g>
			<g>
				<path d="M422.611,242.733c0,0.144-35.377,0.26-79.008,0.26c-43.645,0-79.015-0.117-79.015-0.26c0-0.144,35.37-0.26,79.015-0.26
					C387.234,242.473,422.611,242.589,422.611,242.733z"/>
			</g>
		</g>
		<g>
			<g>
				<path d="M388.884,251.177c0,0.144-20.276,0.26-45.283,0.26c-25.015,0-45.287-0.117-45.287-0.26c0-0.144,20.272-0.26,45.287-0.26
					C368.608,250.917,388.884,251.033,388.884,251.177z"/>
			</g>
		</g>
		<g>
			<g>
				<g>
					<g>
						<g>
							<path style="fill:#263238;" d="M374.601,144.089c9.723-9.071,10.251-24.306,1.18-34.029
								c-9.071-9.723-24.306-10.251-34.029-1.18c-8.316,7.759-9.899,20.025-4.509,29.496l-4.899,4.57l1.17,8.132l-7.602-2.131
								l-6.129,5.718l1.17,8.131l-7.602-2.131l-5.268,4.915l0.713,4.956l-4.633-1.299l-3.066,2.861l-0.459,7.531l11.232,2.827
								l36.445-34.002C356.889,152.299,367.299,150.901,374.601,144.089z M371.042,114.482c2.602,2.789,2.45,7.159-0.339,9.761
								c-2.789,2.602-7.159,2.45-9.762-0.339c-2.602-2.789-2.45-7.159,0.339-9.761C364.069,111.542,368.44,111.693,371.042,114.482z
								"/>
						</g>
					</g>
					<g>
						<g>
							<g>
								<path style="fill:none;" d="M374.601,144.089c9.723-9.071,10.251-24.306,1.18-34.029
									c-9.071-9.723-24.306-10.251-34.029-1.18c-8.316,7.759-9.899,20.025-4.509,29.496l-4.899,4.57l1.17,8.132l-7.602-2.131
									l-6.129,5.718l1.17,8.131l-7.602-2.131l-5.268,4.915l0.713,4.956l-4.633-1.299l-3.066,2.861l-0.459,7.531l11.232,2.827
									l36.445-34.002C356.889,152.299,367.299,150.901,374.601,144.089z M371.042,114.482c2.602,2.789,2.45,7.159-0.339,9.761
									c-2.789,2.602-7.159,2.45-9.762-0.339c-2.602-2.789-2.45-7.159,0.339-9.761C364.069,111.542,368.44,111.693,371.042,114.482
									z"/>
							</g>
						</g>
						<g>
							<g>
								<g>
									<path style="fill:#263238;" d="M371.042,114.482c-0.044,0.045-0.451-0.421-1.372-0.987
										c-0.905-0.555-2.437-1.169-4.346-0.954c-1.874,0.176-4.102,1.379-5.23,3.641c-1.163,2.195-0.94,5.404,1.068,7.518
										c1.97,2.151,5.156,2.596,7.427,1.588c2.335-0.969,3.689-3.109,3.995-4.966c0.346-1.89-0.161-3.461-0.651-4.402
										C371.43,114.962,370.993,114.523,371.042,114.482c0.015-0.014,0.128,0.088,0.331,0.299
										c0.207,0.206,0.479,0.546,0.764,1.025c0.57,0.937,1.176,2.566,0.865,4.587c-0.269,1.983-1.677,4.324-4.197,5.404
										c-1.232,0.542-2.704,0.746-4.151,0.466c-1.452-0.252-2.858-1.019-3.933-2.153c-1.056-1.151-1.723-2.606-1.874-4.072
										c-0.179-1.462,0.127-2.916,0.752-4.107c1.252-2.438,3.684-3.681,5.681-3.812c2.037-0.171,3.62,0.547,4.516,1.181
										c0.458,0.317,0.779,0.613,0.97,0.833C370.963,114.349,371.057,114.468,371.042,114.482z"/>
								</g>
							</g>
						</g>
						<g>
							<g>
								<g>
									<path style="fill:#263238;" d="M374.601,144.089c0,0-0.111,0.118-0.346,0.333c-0.254,0.226-0.604,0.539-1.06,0.945
										c-0.991,0.76-2.472,1.909-4.66,2.962c-2.177,1.044-5.058,2.009-8.556,2.299c-3.482,0.261-7.605-0.184-11.738-2.008
										l0.198-0.033c-9.394,8.796-21.891,20.496-36.384,34.067l-0.107,0.101l-0.143-0.036c-3.526-0.884-7.336-1.839-11.235-2.816
										l-0.227-0.057l0.014-0.234c0.141-2.348,0.296-4.922,0.453-7.531l0.007-0.114l0.084-0.079
										c0.951-0.889,2.004-1.872,3.064-2.863l0.119-0.111l0.157,0.044c1.443,0.404,3.033,0.848,4.634,1.296l-0.369,0.324
										c-0.223-1.547-0.469-3.245-0.716-4.955l-0.022-0.153l0.113-0.105c1.655-1.545,3.453-3.224,5.266-4.917l0.122-0.114
										l0.161,0.045c2.4,0.672,4.99,1.397,7.602,2.129l-0.378,0.331c-0.371-2.577-0.77-5.344-1.171-8.131l-0.022-0.156
										l0.115-0.107c0.513-0.478,1.068-0.997,1.625-1.516c1.51-1.409,3.013-2.811,4.505-4.202l0.124-0.115l0.163,0.046
										c2.556,0.717,5.09,1.428,7.602,2.132l-0.377,0.33c-0.393-2.738-0.783-5.45-1.168-8.132l-0.022-0.154l0.113-0.106
										c1.65-1.538,3.284-3.061,4.9-4.568l-0.055,0.36c-1.897-3.409-2.989-7.192-3.13-10.962c-0.078-1.88,0.034-3.758,0.399-5.571
										c0.313-1.824,0.896-3.573,1.603-5.236c2.888-6.688,8.716-11.503,14.967-13.44c6.285-1.995,12.876-1.196,18.023,1.362
										c5.225,2.521,8.926,6.76,11.082,11.071c2.107,4.379,2.723,8.852,2.368,12.637c-0.313,3.805-1.453,6.938-2.701,9.27
										c-0.154,0.294-0.303,0.58-0.448,0.857c-0.17,0.263-0.335,0.517-0.495,0.764c-0.327,0.487-0.6,0.965-0.913,1.366
										c-0.65,0.783-1.149,1.486-1.639,1.975c-0.479,0.478-0.848,0.846-1.113,1.111
										C374.739,143.973,374.601,144.089,374.601,144.089s0.113-0.143,0.352-0.402c0.256-0.273,0.61-0.651,1.072-1.144
										c0.476-0.499,0.959-1.209,1.591-1.996c0.304-0.403,0.568-0.883,0.886-1.37c0.155-0.247,0.316-0.501,0.481-0.764
										c0.14-0.277,0.285-0.562,0.433-0.856c1.209-2.327,2.307-5.438,2.587-9.199c0.323-3.742-0.316-8.146-2.412-12.445
										c-2.146-4.231-5.804-8.381-10.94-10.833c-5.06-2.49-11.523-3.249-17.67-1.28c-6.113,1.912-11.802,6.636-14.611,13.175
										c-0.688,1.627-1.256,3.336-1.557,5.118c-0.354,1.771-0.461,3.605-0.382,5.441c0.143,3.682,1.213,7.372,3.067,10.697
										l0.113,0.203l-0.168,0.157c-1.615,1.508-3.248,3.033-4.897,4.572l0.091-0.259c0.387,2.681,0.778,5.393,1.173,8.131
										l0.065,0.455l-0.442-0.124c-2.512-0.704-5.046-1.414-7.602-2.13l0.286-0.07c-1.492,1.392-2.994,2.794-4.504,4.203
										c-0.557,0.519-1.112,1.037-1.625,1.516l0.092-0.262c0.401,2.787,0.799,5.554,1.169,8.131l0.066,0.456l-0.443-0.124
										c-2.612-0.733-5.202-1.46-7.601-2.133l0.283-0.069c-1.815,1.692-3.614,3.369-5.27,4.913l0.091-0.258
										c0.245,1.71,0.489,3.408,0.711,4.956l0.064,0.445l-0.433-0.122c-1.6-0.45-3.189-0.896-4.632-1.301l0.276-0.067
										c-1.061,0.989-2.116,1.971-3.068,2.859l0.091-0.192c-0.161,2.608-0.32,5.182-0.465,7.53l-0.212-0.29
										c3.897,0.985,7.705,1.947,11.229,2.837l-0.25,0.064c14.542-13.518,27.08-25.174,36.506-33.936l0.088-0.082l0.11,0.049
										c4.06,1.819,8.125,2.287,11.568,2.057c3.46-0.259,6.321-1.185,8.493-2.193c2.182-1.017,3.673-2.132,4.681-2.864
										c0.469-0.389,0.828-0.688,1.089-0.905C374.467,144.183,374.601,144.089,374.601,144.089z"/>
								</g>
							</g>
						</g>
					</g>
				</g>
				<g>
					<g>
						<g>
							<path style="fill:#E8505B;" d="M373.794,141.357c9.723-9.071,10.251-24.306,1.18-34.029
								c-9.071-9.723-24.306-10.251-34.029-1.18c-8.316,7.759-9.899,20.025-4.509,29.496l-0.007,0.006l-4.892,4.564l1.17,8.131
								l-7.602-2.131l-6.129,5.718l1.17,8.131l-7.602-2.131l-5.268,4.915l0.713,4.956l-4.633-1.299l-3.066,2.861l-0.459,7.531
								l11.232,2.827l36.445-34.002C356.082,149.566,366.493,148.169,373.794,141.357z M370.235,111.75
								c2.602,2.789,2.45,7.16-0.339,9.762c-2.789,2.602-7.159,2.451-9.762-0.339c-2.602-2.789-2.451-7.159,0.339-9.761
								C363.262,108.809,367.633,108.961,370.235,111.75z"/>
						</g>
					</g>
					<g>
						<g>
							<g>
								<path style="fill:none;" d="M373.794,141.357c9.723-9.071,10.251-24.306,1.18-34.029
									c-9.071-9.723-24.306-10.251-34.029-1.18c-8.316,7.759-9.899,20.025-4.509,29.496l-0.007,0.006l-4.892,4.564l1.17,8.131
									l-7.602-2.131l-6.129,5.718l1.17,8.131l-7.602-2.131l-5.268,4.915l0.713,4.956l-4.633-1.299l-3.066,2.861l-0.459,7.531
									l11.232,2.827l36.445-34.002C356.082,149.566,366.493,148.169,373.794,141.357z M370.235,111.75
									c2.602,2.789,2.45,7.16-0.339,9.762c-2.789,2.602-7.159,2.451-9.762-0.339c-2.602-2.789-2.451-7.159,0.339-9.761
									C363.262,108.809,367.633,108.961,370.235,111.75z"/>
							</g>
						</g>
						<g>
							<g>
								<g>
									<path style="fill:#263238;" d="M370.235,111.75c-0.044,0.045-0.451-0.421-1.372-0.987
										c-0.905-0.555-2.437-1.168-4.347-0.954c-1.874,0.176-4.102,1.379-5.23,3.641c-1.163,2.195-0.94,5.404,1.068,7.518
										c1.97,2.151,5.156,2.596,7.427,1.587c2.335-0.968,3.689-3.108,3.995-4.966c0.346-1.89-0.16-3.461-0.651-4.402
										C370.623,112.229,370.187,111.79,370.235,111.75c0.015-0.014,0.128,0.088,0.331,0.299c0.207,0.206,0.479,0.546,0.764,1.025
										c0.57,0.937,1.176,2.566,0.865,4.587c-0.269,1.983-1.677,4.324-4.197,5.404c-1.232,0.541-2.704,0.746-4.151,0.466
										c-1.452-0.253-2.858-1.019-3.933-2.153c-1.056-1.151-1.723-2.606-1.874-4.072c-0.179-1.462,0.127-2.916,0.752-4.108
										c1.252-2.439,3.684-3.681,5.681-3.812c2.037-0.17,3.62,0.547,4.516,1.181c0.458,0.318,0.779,0.613,0.97,0.833
										C370.156,111.616,370.25,111.735,370.235,111.75z"/>
								</g>
							</g>
						</g>
						<g>
							<g>
								<g>
									<path style="fill:#263238;" d="M373.794,141.357c0,0-0.111,0.118-0.346,0.333c-0.254,0.226-0.604,0.538-1.06,0.945
										c-0.991,0.76-2.473,1.909-4.66,2.962c-2.177,1.044-5.058,2.009-8.556,2.3c-3.482,0.261-7.605-0.184-11.738-2.008
										l0.198-0.033c-9.394,8.796-21.891,20.496-36.384,34.067l-0.107,0.101l-0.143-0.036c-3.526-0.884-7.336-1.839-11.235-2.816
										l-0.227-0.057l0.014-0.234c0.141-2.348,0.296-4.923,0.453-7.531l0.007-0.114l0.084-0.078
										c0.951-0.889,2.004-1.872,3.064-2.863l0.119-0.111l0.157,0.044c1.443,0.404,3.033,0.848,4.633,1.296l-0.369,0.324
										c-0.223-1.547-0.469-3.245-0.716-4.955l-0.022-0.153l0.113-0.105c1.655-1.545,3.453-3.224,5.266-4.917l0.122-0.114
										l0.161,0.045c2.4,0.672,4.99,1.398,7.602,2.129l-0.378,0.331c-0.371-2.577-0.77-5.344-1.171-8.131l-0.022-0.156
										l0.115-0.107c0.513-0.478,1.068-0.996,1.625-1.516c1.51-1.409,3.013-2.811,4.505-4.202l0.124-0.115l0.163,0.046
										c2.556,0.717,5.09,1.428,7.602,2.132l-0.377,0.331c-0.393-2.738-0.783-5.45-1.168-8.132l-0.022-0.154l0.113-0.106
										c1.65-1.538,3.284-3.061,4.9-4.568l-0.055,0.36c-1.897-3.409-2.989-7.192-3.13-10.962c-0.078-1.88,0.034-3.758,0.399-5.571
										c0.313-1.823,0.896-3.572,1.603-5.236c2.888-6.689,8.716-11.503,14.967-13.44c6.285-1.995,12.876-1.196,18.023,1.362
										c5.225,2.521,8.926,6.76,11.082,11.071c2.106,4.38,2.723,8.852,2.367,12.637c-0.313,3.805-1.453,6.938-2.701,9.27
										c-0.154,0.294-0.303,0.58-0.448,0.857c-0.17,0.262-0.335,0.517-0.495,0.764c-0.327,0.487-0.6,0.965-0.913,1.366
										c-0.65,0.783-1.149,1.486-1.639,1.975c-0.479,0.478-0.848,0.846-1.113,1.111
										C373.932,141.24,373.794,141.357,373.794,141.357s0.113-0.143,0.352-0.402c0.256-0.273,0.61-0.651,1.072-1.143
										c0.476-0.499,0.959-1.209,1.591-1.996c0.304-0.403,0.568-0.883,0.886-1.37c0.155-0.247,0.316-0.501,0.481-0.764
										c0.14-0.277,0.285-0.562,0.433-0.856c1.209-2.327,2.307-5.438,2.587-9.199c0.323-3.741-0.316-8.146-2.412-12.445
										c-2.146-4.231-5.804-8.381-10.94-10.833c-5.06-2.49-11.523-3.249-17.67-1.28c-6.113,1.912-11.802,6.637-14.611,13.175
										c-0.688,1.627-1.256,3.336-1.557,5.118c-0.354,1.771-0.461,3.605-0.382,5.441c0.142,3.682,1.213,7.372,3.066,10.697
										l0.113,0.203l-0.168,0.157c-1.615,1.508-3.248,3.033-4.896,4.572l0.091-0.259c0.387,2.681,0.778,5.393,1.173,8.131
										l0.065,0.454l-0.442-0.124c-2.512-0.704-5.046-1.413-7.602-2.13l0.286-0.069c-1.492,1.392-2.994,2.794-4.504,4.203
										c-0.556,0.519-1.112,1.038-1.625,1.516l0.092-0.262c0.401,2.787,0.799,5.554,1.169,8.131l0.066,0.456l-0.443-0.124
										c-2.612-0.733-5.202-1.459-7.601-2.132l0.283-0.069c-1.815,1.692-3.614,3.369-5.27,4.913l0.091-0.258
										c0.245,1.71,0.489,3.408,0.711,4.956l0.064,0.445l-0.433-0.121c-1.6-0.45-3.189-0.896-4.632-1.301l0.276-0.067
										c-1.061,0.989-2.116,1.971-3.068,2.859l0.091-0.192c-0.161,2.608-0.32,5.182-0.465,7.53l-0.212-0.29
										c3.897,0.985,7.705,1.947,11.229,2.837l-0.251,0.065c14.542-13.519,27.08-25.174,36.506-33.936l0.089-0.082l0.11,0.049
										c4.06,1.819,8.125,2.287,11.568,2.057c3.46-0.259,6.321-1.185,8.493-2.193c2.182-1.017,3.673-2.132,4.681-2.864
										c0.469-0.389,0.828-0.688,1.089-0.904C373.66,141.45,373.794,141.357,373.794,141.357z"/>
								</g>
							</g>
						</g>
					</g>
				</g>
				<g>
					<g>
						<g>
							<path style="fill:#263238;" d="M371.584,139.479c-0.082-0.072,1.409-1.262,3.234-4.079c0.932-1.391,1.811-3.268,2.475-5.542
								c0.651-2.276,1.002-5.004,0.688-7.972c-0.322-2.951-1.261-6.173-3.174-9.113c-1.913-2.909-4.636-5.666-8.177-7.404
								c-1.737-0.917-3.671-1.56-5.692-1.922c-1.007-0.223-2.047-0.268-3.092-0.357c-1.049,0.018-2.11-0.003-3.169,0.157
								c-4.256,0.453-8.461,2.394-11.803,5.454c-3.287,3.122-5.515,7.183-6.263,11.398c-0.233,1.046-0.286,2.106-0.377,3.151
								c0.017,1.049-0.011,2.09,0.142,3.11c0.221,2.042,0.729,4.016,1.523,5.813c1.488,3.653,4.05,6.56,6.82,8.671
								c2.802,2.112,5.951,3.273,8.872,3.798c2.939,0.519,5.685,0.358,8-0.134c2.315-0.505,4.249-1.253,5.7-2.086
								C370.228,140.796,371.518,139.392,371.584,139.479c0.007,0.008-0.075,0.09-0.242,0.244c-0.195,0.174-0.443,0.396-0.753,0.674
								c-0.327,0.303-0.747,0.659-1.292,1.017c-0.532,0.376-1.136,0.826-1.892,1.212c-1.451,0.873-3.397,1.665-5.742,2.209
								c-2.345,0.531-5.139,0.727-8.143,0.225c-2.985-0.508-6.214-1.67-9.097-3.815c-2.85-2.142-5.49-5.11-7.034-8.855
								c-0.822-1.842-1.351-3.868-1.584-5.965c-0.159-1.047-0.135-2.117-0.153-3.195c0.089-1.074,0.143-2.164,0.38-3.24
								c0.761-4.334,3.05-8.52,6.432-11.729c3.436-3.149,7.768-5.142,12.144-5.6c1.089-0.161,2.18-0.14,3.257-0.154
								c1.074,0.093,2.143,0.143,3.176,0.374c2.076,0.378,4.059,1.046,5.84,1.993c3.629,1.8,6.406,4.639,8.346,7.63
								c1.94,3.024,2.876,6.326,3.177,9.339c0.293,3.031-0.096,5.804-0.788,8.108c-0.705,2.302-1.63,4.189-2.602,5.576
								c-0.438,0.727-0.928,1.299-1.34,1.803c-0.395,0.519-0.78,0.913-1.104,1.218c-0.299,0.29-0.537,0.523-0.725,0.705
								C371.679,139.41,371.591,139.486,371.584,139.479z"/>
						</g>
					</g>
				</g>
				<g>
					<g>
						<g>
							<path style="fill:#263238;" d="M370.605,122.394c-0.048-0.046,0.503-0.519,1.175-1.597c0.657-1.06,1.386-2.861,1.138-5.111
								c-0.13-1.108-0.489-2.314-1.212-3.412c-0.723-1.086-1.746-2.114-3.072-2.758c-1.303-0.666-2.884-0.986-4.467-0.782
								c-1.589,0.172-3.156,0.897-4.404,2.039c-1.227,1.166-2.059,2.679-2.341,4.252c-0.313,1.566-0.104,3.166,0.471,4.512
								c0.551,1.367,1.506,2.459,2.539,3.256c1.046,0.797,2.224,1.24,3.32,1.445c2.227,0.402,4.074-0.2,5.177-0.782
								C370.053,122.859,370.563,122.342,370.605,122.394c0.014,0.015-0.108,0.145-0.357,0.38c-0.243,0.239-0.643,0.556-1.205,0.886
								c-1.099,0.661-3.004,1.364-5.361,0.996c-1.16-0.189-2.419-0.633-3.545-1.463c-1.113-0.828-2.146-1.981-2.753-3.44
								c-0.63-1.437-0.867-3.153-0.54-4.838c0.295-1.693,1.188-3.33,2.509-4.583c1.342-1.23,3.036-2.008,4.745-2.184
								c1.704-0.209,3.399,0.146,4.788,0.874c1.413,0.707,2.491,1.817,3.24,2.985c0.75,1.181,1.106,2.467,1.214,3.637
								c0.204,2.377-0.629,4.229-1.365,5.28c-0.369,0.538-0.712,0.915-0.967,1.141C370.757,122.296,370.619,122.409,370.605,122.394
								z"/>
						</g>
					</g>
				</g>
				<g>
					<g>
						<g>
							<path style="fill:#263238;" d="M308.12,178.391c-0.113-0.121,8.093-7.962,18.328-17.511
								c10.238-9.552,18.627-17.194,18.74-17.073s-8.092,7.96-18.33,17.512C316.624,170.868,308.233,178.512,308.12,178.391z"/>
						</g>
					</g>
				</g>
			</g>
			<g>
				<path style="fill:#E8505B;" d="M312.645,130.67l0.333-0.743l0.447,0.681c0.358,0.546,0.864,0.977,1.46,1.244l0.743,0.333
					l-0.681,0.447c-0.546,0.358-0.977,0.864-1.244,1.46l-0.333,0.743l-0.447-0.681c-0.358-0.546-0.864-0.977-1.46-1.244
					l-0.743-0.333l0.681-0.447C311.947,131.772,312.378,131.266,312.645,130.67z"/>
			</g>
			<g>
				<path style="fill:#E8505B;" d="M290.326,125.107l0.193-0.432l0.259,0.395c0.208,0.317,0.502,0.567,0.848,0.722l0.432,0.193
					l-0.395,0.259c-0.317,0.208-0.567,0.502-0.722,0.848l-0.193,0.432l-0.259-0.396c-0.208-0.317-0.502-0.567-0.848-0.722
					l-0.432-0.193l0.395-0.259C289.921,125.747,290.171,125.453,290.326,125.107z"/>
			</g>
			<g>
				<path style="fill:#E8505B;" d="M360.601,163.143l0.193-0.432l0.259,0.395c0.208,0.317,0.502,0.567,0.848,0.722l0.432,0.193
					l-0.395,0.259c-0.317,0.208-0.567,0.502-0.722,0.848l-0.193,0.432l-0.259-0.396c-0.208-0.317-0.502-0.567-0.848-0.722
					l-0.432-0.193l0.395-0.259C360.196,163.783,360.447,163.489,360.601,163.143z"/>
			</g>
			<g>
				<path style="fill:#E8505B;" d="M395.008,143.641l0.333-0.743l0.446,0.681c0.358,0.546,0.864,0.977,1.46,1.244l0.743,0.333
					l-0.681,0.447c-0.546,0.358-0.977,0.864-1.244,1.46l-0.333,0.743l-0.447-0.681c-0.358-0.546-0.864-0.977-1.46-1.244
					l-0.743-0.333l0.681-0.447C394.31,144.743,394.742,144.236,395.008,143.641z"/>
			</g>
			<g>
				<path style="fill:#E8505B;" d="M390.527,116.321l0.559-1.249l0.75,1.144c0.601,0.917,1.452,1.642,2.453,2.09l1.249,0.559
					l-1.144,0.75c-0.917,0.601-1.642,1.452-2.089,2.453l-0.559,1.249l-0.75-1.144c-0.601-0.917-1.452-1.642-2.453-2.09l-1.249-0.559
					l1.144-0.75C389.354,118.172,390.079,117.321,390.527,116.321z"/>
			</g>
			<g>
				<path style="fill:#E8505B;" d="M305.71,107.896l0.559-1.249l0.75,1.144c0.601,0.917,1.452,1.642,2.453,2.09l1.249,0.559
					l-1.144,0.75c-0.917,0.601-1.642,1.452-2.09,2.453l-0.559,1.249l-0.75-1.144c-0.601-0.917-1.452-1.642-2.453-2.089l-1.249-0.559
					l1.144-0.75C304.537,109.748,305.262,108.897,305.71,107.896z"/>
			</g>
		</g>
		<g>
			<g>
				<path style="fill:#263238;" d="M411.882,298.307c0,0,0.32-0.034,0.942-0.074c0.312-0.008,0.697-0.048,1.152-0.136
					c0.228-0.037,0.474-0.077,0.738-0.119c0.259-0.067,0.536-0.139,0.829-0.215c1.17-0.308,2.598-0.843,4.078-1.826
					c1.472-0.972,3.044-2.36,4.26-4.319c0.628-0.964,1.136-2.075,1.543-3.282c0.349-1.221,0.66-2.537,0.659-3.939
					c0.035-0.694,0.026-1.425,0-2.151c-0.019-0.363-0.039-0.731-0.058-1.101c-0.056-0.367-0.113-0.737-0.171-1.112
					c-0.282-1.486-0.801-2.988-1.599-4.408c-1.574-2.842-4.355-5.309-7.861-6.478c-1.753-0.609-3.648-0.777-5.617-0.736
					c-1.969,0.003-3.99,0.006-6.059,0.009c-33.127,0.02-78.87,0.046-129.392,0.076c-3.096,0.035-6.186,1.023-8.593,2.935
					c-1.21,0.937-2.266,2.062-3.124,3.319c-0.844,1.267-1.467,2.669-1.869,4.122c-0.218,0.725-0.32,1.473-0.43,2.217
					c-0.044,0.752-0.096,1.495-0.081,2.265c0.007,1.517,0.097,3.01,0.542,4.441c0.413,1.428,1.035,2.788,1.85,4.02
					c0.837,1.216,1.85,2.299,2.993,3.211c1.135,0.926,2.44,1.617,3.793,2.128c0.671,0.279,1.381,0.43,2.078,0.613
					c0.714,0.103,1.422,0.246,2.143,0.251c2.898,0.071,5.812,0.022,8.672,0.039c5.731,0.003,11.341,0.006,16.815,0.009
					c21.893,0.021,41.609,0.04,58.171,0.056c16.55,0.035,29.945,0.063,39.217,0.083c4.621,0.021,8.212,0.038,10.662,0.049
					c1.21,0.011,2.135,0.02,2.773,0.026C411.562,298.29,411.882,298.307,411.882,298.307s-0.32,0.018-0.945,0.027
					c-0.638,0.006-1.563,0.015-2.773,0.026c-2.451,0.011-6.041,0.028-10.662,0.049c-9.272,0.02-22.667,0.048-39.217,0.083
					c-16.562,0.016-36.278,0.035-58.171,0.056c-5.474,0.003-11.084,0.006-16.815,0.009c-2.871-0.015-5.75,0.038-8.697-0.032
					c-0.746-0.005-1.48-0.151-2.219-0.259c-0.723-0.188-1.458-0.346-2.154-0.633c-1.402-0.528-2.754-1.244-3.931-2.202
					c-1.185-0.943-2.235-2.065-3.103-3.325c-0.845-1.276-1.492-2.686-1.92-4.166c-0.461-1.474-0.558-3.053-0.564-4.581
					c-0.015-0.758,0.036-1.543,0.083-2.319c0.112-0.772,0.219-1.547,0.445-2.299c0.417-1.507,1.063-2.961,1.938-4.275
					c0.889-1.304,1.984-2.47,3.238-3.442c2.495-1.982,5.702-3.01,8.911-3.044c50.522,0.03,96.265,0.057,129.392,0.076
					c2.07,0.003,4.09,0.006,6.059,0.009c1.963-0.036,3.942,0.143,5.722,0.772c3.585,1.209,6.414,3.742,8.009,6.649
					c0.808,1.453,1.33,2.988,1.611,4.503c0.057,0.381,0.113,0.759,0.168,1.133c0.018,0.378,0.036,0.752,0.054,1.122
					c0.023,0.741,0.028,1.452-0.011,2.164c-0.007,1.425-0.33,2.763-0.693,4c-0.421,1.224-0.944,2.348-1.587,3.322
					c-1.247,1.979-2.849,3.371-4.347,4.34c-1.505,0.979-2.952,1.503-4.135,1.797c-0.297,0.072-0.575,0.149-0.838,0.203
					c-0.266,0.038-0.514,0.074-0.745,0.107c-0.458,0.079-0.846,0.111-1.16,0.11C412.202,298.309,411.882,298.307,411.882,298.307z"
					/>
			</g>
		</g>
		<g>
			<path style="fill:#E8505B;" d="M411.882,334.811H275.317c-7.924,0-14.348-6.424-14.348-14.348v-1.374
				c0-7.924,6.424-14.348,14.348-14.348h136.565c7.924,0,14.348,6.424,14.348,14.348v1.374
				C426.23,328.388,419.806,334.811,411.882,334.811z"/>
		</g>
		<g>
			<g>
				<g>
					<path style="fill:#263238;" d="M294.149,289.27c-0.015-0.015-0.03-0.322-0.046-0.888c-0.013-0.62-0.031-1.43-0.053-2.433
						c-0.027-2.138-0.064-5.096-0.109-8.674l0.208,0.208c-4.957,0.014-11.153,0.033-17.868,0.052
						c-0.058,0.056,0.491-0.493,0.259-0.259v0.003v0.006v0.013v0.025v0.05v0.1v0.2v0.399l0,0.794c0,0.527-0.001,1.051-0.001,1.571
						c-0.001,1.039-0.003,2.062-0.004,3.066c-0.006,2.006-0.011,3.935-0.016,5.766l-0.238-0.238
						c5.187,0.048,9.606,0.088,12.805,0.117c1.536,0.027,2.777,0.048,3.701,0.064c0.397,0.011,0.725,0.021,0.999,0.029
						C294.016,289.251,294.139,289.26,294.149,289.27c0.019,0.019-0.422,0.037-1.26,0.057c-0.911,0.016-2.134,0.038-3.647,0.064
						c-3.238,0.029-7.711,0.07-12.962,0.117l-0.238,0.002l-0.001-0.241c-0.005-1.831-0.011-3.761-0.016-5.766
						c-0.001-1.004-0.003-2.027-0.004-3.066c0-0.52-0.001-1.043-0.001-1.571l0-0.794l0-0.399v-0.2v-0.1v-0.05v-0.025v-0.013v-0.006
						v-0.003c-0.233,0.231,0.317-0.319,0.262-0.262c6.715,0.02,12.91,0.038,17.868,0.052l0.211,0.001l-0.003,0.208
						c-0.045,3.632-0.082,6.634-0.109,8.803c-0.022,0.984-0.04,1.778-0.053,2.386C294.179,289.007,294.164,289.285,294.149,289.27z"
						/>
				</g>
			</g>
			<g>
				<g>
					<path style="fill:#263238;" d="M294.149,277.275c0.047,0.054-0.91,0.97-2.496,2.405c-1.586,1.436-3.8,3.392-6.267,5.527
						c-0.682,0-0.191-0.002-0.345-0.002l-0.004-0.003l-0.007-0.006l-0.014-0.013l-0.029-0.025l-0.058-0.05l-0.115-0.1l-0.229-0.199
						l-0.453-0.394c-0.299-0.261-0.594-0.518-0.885-0.771c-0.575-0.505-1.132-0.994-1.667-1.464
						c-1.027-0.916-1.969-1.757-2.803-2.501c-1.586-1.436-2.543-2.35-2.496-2.405c0.047-0.054,1.09,0.762,2.737,2.126
						c0.856,0.719,1.823,1.532,2.877,2.417c0.542,0.463,1.105,0.944,1.687,1.441c0.292,0.251,0.589,0.506,0.89,0.765l0.454,0.392
						l0.229,0.198l0.115,0.1l0.058,0.05l0.029,0.025l0.014,0.013l0.007,0.006l0.004,0.003c-0.151,0.001,0.343,0.003-0.337,0.002
						c2.467-2.136,4.72-4.048,6.367-5.412C293.059,278.038,294.102,277.221,294.149,277.275z"/>
				</g>
			</g>
			<g>
				<g>
					<path style="fill:#263238;" d="M282.735,282.864c0.101,0.102-1.262,1.619-3.044,3.388c-1.783,1.769-3.31,3.12-3.411,3.018
						c-0.101-0.102,1.261-1.619,3.044-3.388C281.106,284.113,282.633,282.762,282.735,282.864z"/>
				</g>
			</g>
			<g>
				<g>
					<path style="fill:#263238;" d="M294.149,289.27c-0.107,0.095-1.544-1.344-3.207-3.215c-1.664-1.872-2.926-3.466-2.818-3.562
						c0.107-0.096,1.543,1.344,3.208,3.216C292.994,287.579,294.256,289.174,294.149,289.27z"/>
				</g>
			</g>
		</g>
		<g>
			<path style="fill:#263238;" d="M304.941,285.671v0.396h-4.15v-6.014h4.021v0.396h-3.582v2.371h3.204v0.387h-3.204v2.465H304.941z
				"/>
			<path style="fill:#263238;" d="M313.767,283.447v2.62h-0.43v-2.586c0-1.014-0.523-1.546-1.4-1.546
				c-1.014,0-1.641,0.679-1.641,1.743v2.389h-0.43v-2.586c0-1.014-0.523-1.546-1.399-1.546c-1.015,0-1.642,0.679-1.642,1.743v2.389
				h-0.43v-4.484h0.413v0.962c0.292-0.627,0.901-0.996,1.718-0.996c0.808,0,1.4,0.369,1.641,1.082
				c0.292-0.652,0.945-1.082,1.813-1.082C313.063,281.548,313.767,282.193,313.767,283.447z"/>
			<path style="fill:#263238;" d="M318.768,283.223v2.844h-0.412v-0.799c-0.284,0.516-0.834,0.833-1.615,0.833
				c-1.005,0-1.615-0.516-1.615-1.28c0-0.679,0.43-1.254,1.675-1.254h1.538v-0.36c0-0.834-0.455-1.28-1.331-1.28
				c-0.619,0-1.178,0.231-1.547,0.567l-0.215-0.31c0.447-0.396,1.1-0.636,1.796-0.636
				C318.15,281.548,318.768,282.115,318.768,283.223z M318.339,284.743v-0.842h-1.529c-0.928,0-1.254,0.387-1.254,0.902
				c0,0.584,0.455,0.945,1.245,0.945C317.557,285.749,318.081,285.388,318.339,284.743z"/>
			<path style="fill:#263238;" d="M320.397,280.148c0-0.189,0.154-0.353,0.352-0.353c0.198,0,0.353,0.155,0.353,0.344
				c0,0.197-0.154,0.352-0.353,0.352C320.551,280.491,320.397,280.336,320.397,280.148z M320.534,281.582h0.43v4.484h-0.43V281.582z
				"/>
			<path style="fill:#263238;" d="M322.774,279.693h0.43v6.374h-0.43V279.693z"/>
		</g>
		<g>
			<path style="fill:#FFFFFF;" d="M310.666,323.812l-1.617-2.267c-0.214,0.029-0.427,0.049-0.659,0.049h-1.938v2.219h-0.494v-6.782
				h2.433c1.705,0,2.732,0.853,2.732,2.286c0,1.076-0.581,1.822-1.589,2.122l1.695,2.374H310.666z M308.389,321.157
				c1.453,0,2.229-0.678,2.229-1.841c0-1.172-0.775-1.841-2.229-1.841h-1.938v3.682H308.389z"/>
			<path style="fill:#FFFFFF;" d="M317.052,321.399h-4.351c0.049,1.202,0.931,2.016,2.142,2.016c0.64,0,1.23-0.232,1.618-0.707
				l0.281,0.319c-0.446,0.543-1.143,0.824-1.909,0.824c-1.531,0-2.606-1.066-2.606-2.568c0-1.502,1.037-2.567,2.423-2.567
				c1.385,0,2.412,1.047,2.412,2.549C317.062,321.302,317.052,321.351,317.052,321.399z M312.712,321.021h3.876
				c-0.067-1.095-0.862-1.879-1.938-1.879C313.574,319.142,312.79,319.916,312.712,321.021z"/>
			<path style="fill:#FFFFFF;" d="M317.819,323.202l0.223-0.388c0.388,0.329,1.075,0.61,1.821,0.61c1.066,0,1.492-0.378,1.492-0.949
				c0-1.473-3.353-0.388-3.353-2.374c0-0.766,0.64-1.386,1.919-1.386c0.64,0,1.337,0.194,1.734,0.494l-0.223,0.388
				c-0.427-0.311-0.979-0.455-1.521-0.455c-0.988,0-1.425,0.406-1.425,0.949c0,1.522,3.352,0.445,3.352,2.374
				c0,0.823-0.707,1.386-1.996,1.386C319.01,323.851,318.216,323.57,317.819,323.202z"/>
			<path style="fill:#FFFFFF;" d="M327.469,321.399h-4.351c0.049,1.202,0.931,2.016,2.142,2.016c0.64,0,1.231-0.232,1.618-0.707
				l0.281,0.319c-0.446,0.543-1.143,0.824-1.909,0.824c-1.53,0-2.606-1.066-2.606-2.568c0-1.502,1.037-2.567,2.423-2.567
				c1.385,0,2.412,1.047,2.412,2.549C327.479,321.302,327.469,321.351,327.469,321.399z M323.129,321.021h3.876
				c-0.067-1.095-0.862-1.879-1.938-1.879C323.991,319.142,323.207,319.916,323.129,321.021z"/>
			<path style="fill:#FFFFFF;" d="M331.491,323.492c-0.251,0.242-0.658,0.358-1.036,0.358c-0.892,0-1.376-0.523-1.376-1.376v-3.305
				h-0.931v-0.416h0.931v-1.105h0.484v1.105h1.608v0.416h-1.608v3.256c0,0.649,0.319,1.008,0.94,1.008
				c0.301,0,0.582-0.097,0.785-0.281L331.491,323.492z"/>
			<path style="fill:#FFFFFF;" d="M340.649,319.316c0,1.425-1.027,2.277-2.732,2.277h-1.938v2.219h-0.494v-6.782h2.433
				C339.622,317.03,340.649,317.882,340.649,319.316z M340.145,319.316c0-1.172-0.775-1.841-2.229-1.841h-1.938v3.672h1.938
				C339.37,321.147,340.145,320.479,340.145,319.316z"/>
			<path style="fill:#FFFFFF;" d="M345.765,320.605v3.207H345.3v-0.901c-0.319,0.582-0.939,0.94-1.821,0.94
				c-1.134,0-1.822-0.582-1.822-1.444c0-0.765,0.484-1.414,1.89-1.414h1.734v-0.407c0-0.939-0.514-1.443-1.502-1.443
				c-0.697,0-1.327,0.262-1.744,0.639l-0.242-0.349c0.504-0.445,1.24-0.717,2.025-0.717
				C345.068,318.715,345.765,319.355,345.765,320.605z M345.281,322.32v-0.949h-1.725c-1.046,0-1.415,0.436-1.415,1.017
				c0,0.659,0.514,1.066,1.405,1.066C344.399,323.453,344.991,323.046,345.281,322.32z"/>
			<path style="fill:#FFFFFF;" d="M347.016,323.202l0.223-0.388c0.388,0.329,1.075,0.61,1.821,0.61c1.066,0,1.492-0.378,1.492-0.949
				c0-1.473-3.353-0.388-3.353-2.374c0-0.766,0.64-1.386,1.919-1.386c0.64,0,1.337,0.194,1.734,0.494l-0.223,0.388
				c-0.427-0.311-0.979-0.455-1.521-0.455c-0.988,0-1.425,0.406-1.425,0.949c0,1.522,3.353,0.445,3.353,2.374
				c0,0.823-0.707,1.386-1.996,1.386C348.208,323.851,347.414,323.57,347.016,323.202z"/>
			<path style="fill:#FFFFFF;" d="M351.649,323.202l0.223-0.388c0.388,0.329,1.075,0.61,1.821,0.61c1.066,0,1.492-0.378,1.492-0.949
				c0-1.473-3.352-0.388-3.352-2.374c0-0.766,0.64-1.386,1.919-1.386c0.64,0,1.337,0.194,1.734,0.494l-0.223,0.388
				c-0.427-0.311-0.979-0.455-1.521-0.455c-0.988,0-1.425,0.406-1.425,0.949c0,1.522,3.353,0.445,3.353,2.374
				c0,0.823-0.707,1.386-1.996,1.386C352.84,323.851,352.046,323.57,351.649,323.202z"/>
			<path style="fill:#FFFFFF;" d="M364.158,318.754l-1.918,5.058h-0.455l-1.706-4.39l-1.715,4.39h-0.445L356,318.754h0.465
				l1.687,4.515l1.725-4.515h0.417l1.715,4.505l1.705-4.505H364.158z"/>
			<path style="fill:#FFFFFF;" d="M364.586,321.283c0-1.502,1.076-2.567,2.529-2.567s2.528,1.065,2.528,2.567
				c0,1.502-1.075,2.568-2.528,2.568S364.586,322.784,364.586,321.283z M369.149,321.283c0-1.268-0.872-2.131-2.034-2.131
				c-1.163,0-2.035,0.862-2.035,2.131c0,1.27,0.872,2.132,2.035,2.132C368.277,323.414,369.149,322.552,369.149,321.283z"/>
			<path style="fill:#FFFFFF;" d="M373.539,318.715v0.475c-0.038,0-0.077-0.01-0.116-0.01c-1.124,0-1.792,0.746-1.792,1.996v2.636
				h-0.484v-5.058h0.465v1.104C371.921,319.122,372.589,318.715,373.539,318.715z"/>
			<path style="fill:#FFFFFF;" d="M379.324,316.622v7.189h-0.475v-1.191c-0.397,0.784-1.162,1.23-2.073,1.23
				c-1.425,0-2.5-1.057-2.5-2.568c0-1.521,1.075-2.567,2.5-2.567c0.901,0,1.657,0.446,2.063,1.211v-3.304H379.324z M378.839,321.283
				c0-1.268-0.872-2.131-2.034-2.131c-1.163,0-2.035,0.862-2.035,2.131c0,1.27,0.872,2.132,2.035,2.132
				C377.967,323.414,378.839,322.552,378.839,321.283z"/>
		</g>
		<g>
			<g>
				<path style="fill:#263238;" d="M443.842,63.08c0,0.144-46.232,0.26-103.249,0.26c-57.037,0-103.259-0.117-103.259-0.26
					c0-0.144,46.222-0.26,103.259-0.26C397.61,62.82,443.842,62.936,443.842,63.08z"/>
			</g>
		</g>
		<g>
			<path style="fill:#263238;" d="M249.043,54.878c0,1.388-1.125,2.513-2.513,2.513c-1.388,0-2.513-1.125-2.513-2.513
				s1.125-2.513,2.513-2.513C247.918,52.364,249.043,53.49,249.043,54.878z"/>
		</g>
		<g>
			<path style="fill:#263238;" d="M256.263,54.878c0,1.388-1.125,2.513-2.513,2.513c-1.388,0-2.513-1.125-2.513-2.513
				s1.125-2.513,2.513-2.513C255.138,52.364,256.263,53.49,256.263,54.878z"/>
		</g>
		<g>
			<path style="fill:#263238;" d="M263.483,54.878c0,1.388-1.125,2.513-2.513,2.513s-2.513-1.125-2.513-2.513
				s1.125-2.513,2.513-2.513S263.483,53.49,263.483,54.878z"/>
		</g>
		<g>
			<g>
				<path style="fill:#263238;" d="M444.209,360.504c-0.002-2.14-0.098-128.941-0.239-313.386l0.239,0.239
					c-63.21,0.007-133.216,0.014-206.786,0.021h-0.025l0.26-0.26c-0.02,118.259-0.038,227.288-0.053,313.386l-0.207-0.207
					C363.526,360.423,442.517,360.502,444.209,360.504c-1.691,0.002-80.683,0.081-206.811,0.207l-0.207,0l0-0.208
					c-0.015-86.098-0.033-195.127-0.053-313.386v-0.261h0.26h0.025c73.57,0.008,143.577,0.015,206.786,0.022h0.239l0,0.239
					C444.307,231.563,444.21,358.366,444.209,360.504z"/>
			</g>
		</g>
	</g>
</g>
<g id="Plant">
	<g>
		<g>
			<g>
				<g>
					<g>
						<g>
							<g>
								<g>
									<path style="fill:#263238;" d="M440.43,444.964c0.009-0.005-0.049-0.144-0.17-0.409c-0.136-0.289-0.318-0.677-0.549-1.172
										c-0.467-1.035-1.074-2.603-1.614-4.689c-1.068-4.169-1.441-10.54,0.138-18.108c0.733-3.789,1.915-7.854,3.358-12.163
										c1.422-4.317,3.073-8.897,4.421-13.848c1.334-4.939,2.386-10.302,2.183-15.922c-0.205-5.632-1.872-11.254-3.706-16.849
										c-1.83-5.605-3.722-11.083-4.289-16.593c-0.641-5.5,0.536-10.9,3.042-15.324c2.427-4.471,5.481-8.296,7.766-12.257
										c2.321-3.948,3.773-8.008,4.667-11.784c1.734-7.613,1.127-14.028,0.296-18.255c-0.901-4.25-1.905-6.447-1.905-6.447
										c-0.01,0.004,0.029,0.149,0.113,0.428c0.095,0.305,0.223,0.714,0.386,1.236c0.336,1.086,0.771,2.708,1.184,4.826
										c0.759,4.219,1.296,10.589-0.474,18.118c-0.912,3.734-2.37,7.74-4.683,11.634c-2.28,3.914-5.347,7.722-7.822,12.247
										c-2.559,4.473-3.789,10.049-3.137,15.636c0.571,5.604,2.477,11.119,4.303,16.716c1.833,5.591,3.481,11.154,3.689,16.691
										c0.208,5.534-0.818,10.845-2.131,15.76c-1.326,4.927-2.958,9.508-4.362,13.837c-1.426,4.322-2.593,8.419-3.304,12.235
										c-1.537,7.624-1.099,14.059,0.046,18.243c0.579,2.094,1.224,3.659,1.728,4.682c0.254,0.485,0.454,0.866,0.603,1.15
										C440.346,444.84,440.421,444.969,440.43,444.964z"/>
								</g>
							</g>
						</g>
					</g>
				</g>
				<g>
					<g>
						<g>
							<g>
								<g>
									<path style="fill:#E8505B;" d="M447.906,321.537c0,0,4.64-14.839-3.684-23.527c-0.292-0.305-0.807-0.161-0.882,0.255
										C442.896,300.716,442.341,308.18,447.906,321.537z"/>
								</g>
							</g>
						</g>
					</g>
					<g>
						<g>
							<g>
								<g>
									<g>
										<path style="fill:#263238;" d="M445.126,302.955c-0.079,0.016,0.054,1.06,0.313,2.738
											c0.305,1.886,0.663,4.099,1.058,6.545c0.388,2.446,0.74,4.659,1.039,6.544c0.254,1.676,0.407,2.715,0.491,2.708
											c0.075-0.006,0.068-1.062-0.083-2.758c-0.154-1.695-0.452-4.028-0.873-6.588c-0.418-2.56-0.865-4.865-1.228-6.526
											C445.481,303.956,445.205,302.939,445.126,302.955z"/>
									</g>
								</g>
							</g>
						</g>
					</g>
				</g>
				<g>
					<g>
						<g>
							<g>
								<g>
									<path style="fill:#E8505B;" d="M442.455,356.535c0,0-2.838-15.286-14.259-19.073c-0.401-0.133-0.788,0.235-0.66,0.638
										C428.289,340.473,431.289,347.33,442.455,356.535z"/>
								</g>
							</g>
						</g>
					</g>
					<g>
						<g>
							<g>
								<g>
									<g>
										<path style="fill:#263238;" d="M431.308,341.409c-0.062,0.051,0.543,0.911,1.556,2.274
											c1.152,1.524,2.503,3.313,3.996,5.29c1.487,1.98,2.833,3.772,3.979,5.299c1.008,1.362,1.629,2.21,1.701,2.164
											c0.064-0.04-0.437-0.97-1.363-2.399c-0.928-1.427-2.284-3.349-3.853-5.415c-1.567-2.067-3.04-3.896-4.138-5.194
											C432.09,342.129,431.37,341.359,431.308,341.409z"/>
									</g>
								</g>
							</g>
						</g>
					</g>
				</g>
				<g>
					<g>
						<g>
							<g>
								<g>
									<path style="fill:#E8505B;" d="M445.542,394.883c0,0,1.724-15.452-8.104-22.392c-0.345-0.244-0.823-0.004-0.817,0.418
										C436.651,375.4,437.53,382.832,445.542,394.883z"/>
								</g>
							</g>
						</g>
					</g>
					<g>
						<g>
							<g>
								<g>
									<g>
										<path style="fill:#263238;" d="M439.267,377.172c-0.074,0.03,0.255,1.03,0.829,2.627c0.659,1.793,1.433,3.898,2.288,6.223
											c0.848,2.327,1.615,4.432,2.268,6.226c0.569,1.597,0.917,2.588,0.999,2.565c0.073-0.02-0.136-1.055-0.608-2.691
											c-0.474-1.635-1.213-3.868-2.114-6.301c-0.899-2.433-1.778-4.611-2.451-6.172
											C439.806,378.087,439.342,377.142,439.267,377.172z"/>
									</g>
								</g>
							</g>
						</g>
					</g>
				</g>
				<g>
					<g>
						<g>
							<g>
								<g>
									<path style="fill:#E8505B;" d="M436.939,433.455c0,0,1.17-15.503-8.901-22.087c-0.354-0.231-0.822,0.026-0.802,0.448
										C427.356,414.303,428.5,421.699,436.939,433.455z"/>
								</g>
							</g>
						</g>
					</g>
					<g>
						<g>
							<g>
								<g>
									<g>
										<path style="fill:#263238;" d="M430.034,415.98c-0.073,0.033,0.292,1.02,0.923,2.596c0.723,1.768,1.572,3.844,2.509,6.137
											c0.93,2.295,1.773,4.372,2.49,6.141c0.626,1.575,1.009,2.553,1.09,2.527c0.072-0.022-0.174-1.049-0.704-2.668
											c-0.532-1.617-1.35-3.822-2.338-6.221c-0.986-2.399-1.942-4.544-2.67-6.08
											C430.606,416.876,430.107,415.947,430.034,415.98z"/>
									</g>
								</g>
							</g>
						</g>
					</g>
				</g>
				<g>
					<g>
						<g>
							<g>
								<g>
									<path style="fill:#E8505B;" d="M454.575,308.5c0,0,13.781-7.197,14.051-19.226c0.009-0.422-0.456-0.684-0.803-0.444
										C465.775,290.246,460.099,295.125,454.575,308.5z"/>
								</g>
							</g>
						</g>
					</g>
					<g>
						<g>
							<g>
								<g>
									<g>
										<path style="fill:#263238;" d="M465.765,293.406c-0.067-0.045-0.712,0.786-1.717,2.155
											c-1.12,1.548-2.433,3.365-3.885,5.372c-1.457,2.003-2.776,3.815-3.899,5.358c-1.007,1.364-1.635,2.206-1.57,2.261
											c0.057,0.049,0.799-0.702,1.893-2.007c1.092-1.306,2.532-3.165,4.047-5.272c1.516-2.105,2.833-4.049,3.752-5.479
											C465.306,294.364,465.832,293.451,465.765,293.406z"/>
									</g>
								</g>
							</g>
						</g>
					</g>
				</g>
				<g>
					<g>
						<g>
							<g>
								<g>
									<path style="fill:#E8505B;" d="M439.777,340.367c0,0,14.193-6.347,15.193-18.337c0.035-0.421-0.414-0.711-0.775-0.492
										C452.064,322.827,446.103,327.353,439.777,340.367z"/>
								</g>
							</g>
						</g>
					</g>
					<g>
						<g>
							<g>
								<g>
									<g>
										<path style="fill:#263238;" d="M451.863,325.981c-0.064-0.049-0.758,0.742-1.845,2.047
											c-1.211,1.477-2.633,3.211-4.204,5.127c-1.576,1.91-3.002,3.639-4.217,5.111c-1.088,1.3-1.766,2.102-1.704,2.161
											c0.054,0.053,0.84-0.652,2.012-1.888c1.169-1.237,2.719-3.006,4.36-5.016c1.641-2.009,3.073-3.87,4.078-5.242
											C451.347,326.91,451.926,326.03,451.863,325.981z"/>
									</g>
								</g>
							</g>
						</g>
					</g>
				</g>
				<g>
					<g>
						<g>
							<g>
								<g>
									<path style="fill:#E8505B;" d="M447.943,375.914c0,0,9.745-12.114,5.174-23.245c-0.161-0.391-0.692-0.444-0.914-0.085
										C450.894,354.702,447.647,361.446,447.943,375.914z"/>
								</g>
							</g>
						</g>
					</g>
					<g>
						<g>
							<g>
								<g>
									<g>
										<path style="fill:#263238;" d="M452.151,357.602c-0.079-0.014-0.337,1.006-0.71,2.662
											c-0.405,1.867-0.882,4.058-1.408,6.479c-0.533,2.418-1.015,4.607-1.426,6.471c-0.376,1.653-0.615,2.676-0.533,2.7
											c0.072,0.022,0.451-0.964,0.931-2.598c0.477-1.634,1.052-3.915,1.596-6.451c0.547-2.536,0.974-4.845,1.243-6.524
											C452.114,358.663,452.229,357.616,452.151,357.602z"/>
									</g>
								</g>
							</g>
						</g>
					</g>
				</g>
				<g>
					<g>
						<g>
							<g>
								<g>
									<path style="fill:#E8505B;" d="M438.29,417.744c0,0,14.084-6.584,14.883-18.59c0.028-0.421-0.426-0.704-0.783-0.479
										C450.282,400,444.397,404.625,438.29,417.744z"/>
								</g>
							</g>
						</g>
					</g>
					<g>
						<g>
							<g>
								<g>
									<g>
										<path style="fill:#263238;" d="M450.133,403.157c-0.065-0.048-0.746,0.755-1.81,2.077
											c-1.186,1.497-2.579,3.255-4.117,5.196c-1.544,1.936-2.94,3.689-4.13,5.182c-1.066,1.318-1.73,2.131-1.668,2.19
											c0.055,0.052,0.829-0.666,1.98-1.922c1.148-1.257,2.668-3.051,4.275-5.089c1.608-2.036,3.008-3.921,3.989-5.309
											C449.633,404.094,450.198,403.204,450.133,403.157z"/>
									</g>
								</g>
							</g>
						</g>
					</g>
				</g>
				<g>
					<g>
						<g>
							<g>
								<g>
									<g>
										<path style="fill:#263238;" d="M410.237,356.618c-0.013,0.001-0.019,0.117-0.018,0.342
											c0.007,0.271,0.015,0.597,0.025,0.994c0.041,0.934,0.097,2.196,0.167,3.77c0.182,3.314,0.435,7.935,0.738,13.463
											l0.001,0.013l0.003,0.019c1.005,5.626,3.871,11.861,7.719,17.915c2.823,4.46,5.783,8.514,8.335,12.285
											c2.569,3.76,4.737,7.243,6.249,10.329c1.521,3.082,2.406,5.73,2.923,7.58c0.248,0.929,0.434,1.653,0.541,2.149
											c0.116,0.494,0.186,0.752,0.206,0.748c0.02-0.003-0.012-0.268-0.091-0.771c-0.07-0.505-0.221-1.24-0.436-2.183
											c-0.453-1.878-1.285-4.571-2.772-7.702c-1.477-3.136-3.625-6.665-6.175-10.45c-2.535-3.798-5.478-7.859-8.287-12.296
											c-3.829-6.024-6.679-12.165-7.722-17.7l0.004,0.032c-0.388-5.522-0.712-10.139-0.945-13.45
											c-0.127-1.571-0.229-2.829-0.304-3.761c-0.04-0.395-0.072-0.72-0.099-0.989
											C410.271,356.732,410.25,356.617,410.237,356.618z"/>
									</g>
								</g>
							</g>
						</g>
					</g>
					<g>
						<g>
							<g>
								<g>
									<g>
										<path style="fill:#E8505B;" d="M418.623,391.977c0,0-5.965-14.358,1.538-23.764c0.263-0.33,0.789-0.233,0.902,0.174
											C421.727,370.787,422.957,378.17,418.623,391.977z"/>
									</g>
								</g>
							</g>
						</g>
						<g>
							<g>
								<g>
									<g>
										<g>
											<path style="fill:#263238;" d="M419.709,373.219c-0.08-0.008-0.262,1.029-0.473,2.716
												c-0.211,1.687-0.447,4.023-0.632,6.611c-0.187,2.588-0.273,4.938-0.273,6.641c0.004,1.703,0.091,2.755,0.167,2.754
												c0.085-0.001,0.143-1.05,0.244-2.742c0.127-1.905,0.277-4.141,0.442-6.612c0.172-2.471,0.329-4.708,0.462-6.614
												C419.752,374.279,419.789,373.227,419.709,373.219z"/>
										</g>
									</g>
								</g>
							</g>
						</g>
						<g style="opacity:0.3;">
							<g>
								<g>
									<g>
										<path d="M418.623,391.977c0,0-5.965-14.358,1.538-23.764c0.263-0.33,0.789-0.233,0.902,0.174
											C421.727,370.787,422.957,378.17,418.623,391.977z"/>
									</g>
								</g>
							</g>
						</g>
					</g>
					<g>
						<g>
							<g>
								<g>
									<g>
										<path style="fill:#E8505B;" d="M437.098,426.576c0,0-4.781-14.794,3.46-23.561c0.289-0.308,0.805-0.168,0.884,0.246
											C441.91,405.707,442.537,413.166,437.098,426.576z"/>
									</g>
								</g>
							</g>
						</g>
						<g>
							<g>
								<g>
									<g>
										<g>
											<path style="fill:#263238;" d="M439.702,407.968c-0.079-0.015-0.345,1.005-0.692,2.669
												c-0.347,1.664-0.772,3.974-1.166,6.538c-0.396,2.564-0.673,4.9-0.81,6.596c-0.135,1.698-0.132,2.754-0.057,2.759
												c0.085,0.006,0.227-1.035,0.466-2.713c0.281-1.888,0.612-4.105,0.977-6.554c0.372-2.449,0.709-4.666,0.996-6.555
												C439.658,409.027,439.781,407.982,439.702,407.968z"/>
										</g>
									</g>
								</g>
							</g>
						</g>
						<g style="opacity:0.3;">
							<g>
								<g>
									<g>
										<path d="M437.098,426.576c0,0-4.781-14.794,3.46-23.561c0.289-0.308,0.805-0.168,0.884,0.246
											C441.91,405.707,442.537,413.166,437.098,426.576z"/>
									</g>
								</g>
							</g>
						</g>
					</g>
					<g>
						<g>
							<g>
								<g>
									<g>
										<path style="fill:#E8505B;" d="M411.027,374.43c0,0-12.737-8.916-11.451-20.879c0.045-0.42,0.54-0.62,0.854-0.337
											C402.278,354.883,407.276,360.454,411.027,374.43z"/>
									</g>
								</g>
							</g>
						</g>
						<g style="opacity:0.3;">
							<g>
								<g>
									<g>
										<path d="M411.027,374.43c0,0-12.737-8.916-11.451-20.879c0.045-0.42,0.54-0.62,0.854-0.337
											C402.278,354.883,407.276,360.454,411.027,374.43z"/>
									</g>
								</g>
							</g>
						</g>
						<g>
							<g>
								<g>
									<g>
										<g>
											<path style="fill:#263238;" d="M401.88,358.018c-0.072,0.036,0.331,1.01,1.058,2.546
												c0.727,1.537,1.781,3.635,3.013,5.918c1.23,2.285,2.418,4.314,3.332,5.75c0.917,1.435,1.556,2.276,1.618,2.235
												c0.071-0.047-0.443-0.962-1.265-2.445c-0.914-1.676-1.988-3.643-3.174-5.817c-1.181-2.178-2.249-4.15-3.159-5.829
												C402.484,358.89,401.952,357.982,401.88,358.018z"/>
										</g>
									</g>
								</g>
							</g>
						</g>
					</g>
					<g>
						<g>
							<g>
								<g>
									<g>
										<path style="fill:#E8505B;" d="M431.962,411.909c0,0-15.362-2.395-19.477-13.702c-0.144-0.397,0.212-0.795,0.618-0.679
											C415.499,398.213,422.44,401.013,431.962,411.909z"/>
									</g>
								</g>
							</g>
						</g>
						<g style="opacity:0.3;">
							<g>
								<g>
									<g>
										<path d="M431.962,411.909c0,0-15.362-2.395-19.477-13.702c-0.144-0.397,0.212-0.795,0.618-0.679
											C415.499,398.213,422.44,401.013,431.962,411.909z"/>
									</g>
								</g>
							</g>
						</g>
						<g>
							<g>
								<g>
									<g>
										<g>
											<path style="fill:#263238;" d="M416.522,401.203c-0.049,0.064,0.742,0.76,2.072,1.82c1.329,1.06,3.2,2.479,5.312,3.986
												c2.111,1.509,4.071,2.808,5.524,3.695c1.455,0.885,2.399,1.358,2.437,1.293c0.044-0.073-0.821-0.669-2.212-1.638
												c-1.559-1.102-3.389-2.395-5.411-3.824c-2.019-1.436-3.847-2.735-5.403-3.842
												C417.448,401.72,416.57,401.139,416.522,401.203z"/>
										</g>
									</g>
								</g>
							</g>
						</g>
					</g>
				</g>
			</g>
			<g>
				<g>
					<g>
						<g>
							<polygon style="fill:#455A64;" points="450.138,440.18 445.733,469.081 428.136,469.051 422.208,440.18 							"/>
						</g>
					</g>
				</g>
			</g>
		</g>
		<g>
			<g>
				<path style="fill:#263238;" d="M434.078,449.458c0.451-0.684,0.765-1.511,0.815-2.418c0.066-0.885-0.281-1.96-1.194-2.485
					c-0.91-0.525-2.083-0.335-2.948,0.243c-0.905,0.587-1.434,1.615-1.686,2.654c-0.253,1.056-0.281,2.154-0.219,3.264
					c0.072,1.111,0.277,2.25,0.714,3.338c0.426,1.088,1.112,2.117,2.04,2.91c0.923,0.789,2.107,1.355,3.386,1.414
					c1.279,0.057,2.501-0.385,3.522-1.023c1.027-0.645,1.9-1.462,2.628-2.375c0.721-0.914,1.264-2.007,1.331-3.175
					c0.056-1.147-0.348-2.341-1.249-3.061c-0.913-0.742-2.207-0.688-3.118-0.19c-0.938,0.473-1.635,1.371-1.799,2.356
					c-0.338,1.983,0.819,3.771,2.225,4.575c1.44,0.822,3.006,0.846,4.248,0.614c1.262-0.245,2.257-0.742,3.027-1.185
					c0.77-0.451,1.324-0.864,1.695-1.148c0.369-0.286,0.553-0.45,0.543-0.462c-0.011-0.014-0.214,0.123-0.6,0.383
					c-0.388,0.257-0.957,0.643-1.73,1.063c-0.772,0.412-1.762,0.872-2.982,1.083c-1.204,0.201-2.699,0.144-4.027-0.642
					c-1.292-0.753-2.332-2.446-2.006-4.204c0.151-0.863,0.765-1.638,1.599-2.055c0.818-0.433,1.9-0.456,2.649,0.161
					c0.753,0.603,1.122,1.663,1.065,2.688c-0.063,1.035-0.557,2.046-1.243,2.908c-0.692,0.865-1.54,1.654-2.508,2.259
					c-0.967,0.602-2.094,1.001-3.247,0.949c-1.15-0.053-2.237-0.564-3.097-1.297c-0.864-0.738-1.506-1.691-1.913-2.721
					c-0.417-1.028-0.619-2.119-0.692-3.192c-0.066-1.073-0.04-2.145,0.191-3.13c0.231-0.976,0.71-1.896,1.489-2.406
					c0.761-0.518,1.776-0.672,2.514-0.249c0.751,0.424,1.067,1.309,1.021,2.123c-0.035,0.822-0.318,1.606-0.729,2.245
					c-0.865,1.275-2.123,2.059-3.28,2.458c-1.169,0.411-2.262,0.462-3.127,0.373c-1.752-0.199-2.575-0.843-2.6-0.772
					c-0.004,0.007,0.045,0.043,0.147,0.107c0.103,0.06,0.251,0.163,0.463,0.265c0.421,0.206,1.076,0.464,1.967,0.587
					c0.886,0.121,2.015,0.098,3.235-0.304C431.81,451.591,433.134,450.808,434.078,449.458"/>
			</g>
		</g>
	</g>
</g>
</svg>
