<?xml version="1.0" standalone="no"?>
<!DOCTYPE svg PUBLIC "-//W3C//DTD SVG 20010904//EN"
 "http://www.w3.org/TR/2001/REC-SVG-20010904/DTD/svg10.dtd">
<svg version="1.0" xmlns="http://www.w3.org/2000/svg"
 width="1280.000000pt" height="1280.000000pt" viewBox="0 0 1280.000000 1280.000000"
 preserveAspectRatio="xMidYMid meet">

<g transform="translate(0.000000,1280.000000) scale(0.100000,-0.100000)"
fill="#000000" stroke="none">
<path d="M6900 10567 c0 -5 4 -16 10 -26 7 -14 4 -24 -10 -41 l-19 -22 -38 22
c-62 37 -173 65 -158 40 7 -12 1 -12 -47 -1 -21 5 -36 5 -33 1 2 -4 23 -10 45
-14 22 -3 55 -16 72 -27 l33 -21 -30 8 c-16 4 -39 7 -50 6 -70 -3 -94 -7 -82
-14 7 -5 1 -8 -16 -8 -32 0 -60 -13 -100 -46 -16 -13 -39 -24 -53 -24 -13 0
-24 -5 -24 -11 0 -5 -5 -7 -10 -4 -6 3 -13 -1 -16 -9 -3 -9 -11 -13 -17 -9 -6
3 -7 1 -3 -5 3 -6 -12 -28 -35 -50 -38 -35 -46 -62 -18 -62 6 0 7 4 4 10 -3 6
1 7 10 3 13 -5 14 -7 3 -14 -7 -5 -23 -9 -35 -9 -13 0 -23 -4 -23 -10 0 -17
28 -11 80 16 49 25 54 32 51 64 -2 12 0 12 7 2 7 -10 14 -4 31 23 12 21 35 42
57 51 46 19 51 14 21 -22 -13 -16 -33 -45 -45 -65 -12 -20 -46 -59 -77 -88
l-55 -52 63 7 c76 9 122 39 131 88 4 18 15 41 25 50 18 16 17 12 -4 -41 -29
-70 -69 -109 -123 -118 -48 -8 -73 -32 -107 -108 -23 -49 -25 -62 -16 -89 15
-43 12 -59 -4 -23 -24 51 -19 123 11 162 28 37 27 51 -4 34 -11 -6 -21 -8 -24
-6 -3 3 -11 -6 -18 -20 -7 -14 -18 -25 -24 -25 -13 -1 -46 -63 -46 -86 0 -38
78 -144 106 -144 6 0 17 -7 24 -15 11 -13 10 -14 -6 -9 -65 24 -100 55 -118
104 -10 27 -22 48 -27 45 -5 -3 -18 -27 -30 -53 -17 -36 -23 -67 -23 -128 -1
-95 -16 -104 -17 -11 0 34 -3 56 -6 49 -2 -6 -9 -9 -14 -6 -7 4 -8 -8 -3 -33
6 -35 6 -37 -9 -24 -10 7 -17 21 -17 30 0 13 -2 13 -9 2 -13 -20 -26 6 -23 44
2 26 1 28 -9 12 -6 -11 -8 -32 -5 -48 6 -34 -9 -39 -20 -7 -6 20 -10 18 -56
-32 -27 -30 -46 -48 -42 -40 7 13 6 13 -12 0 -94 -72 -120 -100 -122 -132 -1
-18 3 -40 8 -48 7 -11 10 -6 10 20 0 19 4 41 9 49 13 21 41 5 41 -23 0 -45 23
-131 39 -146 12 -11 12 -11 3 0 -6 7 -12 23 -12 33 0 17 5 18 38 12 21 -4 51
-20 70 -38 22 -21 31 -26 26 -13 -7 17 -5 17 25 2 36 -19 41 -30 9 -21 -17 6
-20 4 -12 -4 6 -7 22 -12 35 -13 29 0 69 -18 69 -30 0 -5 23 -32 51 -59 35
-34 54 -47 59 -39 6 10 17 9 46 -1 22 -7 54 -12 72 -10 33 2 34 1 27 -31 -4
-18 -11 -38 -16 -44 -5 -6 -9 -39 -10 -72 -1 -37 -6 -62 -13 -62 -6 0 0 -7 12
-16 33 -23 27 -34 -18 -34 -25 0 -40 5 -40 13 0 9 -2 9 -8 0 -6 -10 -19 -9
-56 2 -68 21 -76 19 -41 -10 17 -13 38 -24 47 -22 9 1 17 -2 17 -8 0 -5 -7 -9
-15 -9 -26 3 -14 -15 26 -37 22 -13 40 -28 40 -34 0 -12 31 -48 68 -77 20 -16
21 -58 0 -58 -5 0 -6 -5 -3 -10 4 -6 11 -7 17 -4 7 4 8 2 4 -4 -4 -7 -14 -12
-22 -12 -8 0 -14 -6 -14 -13 0 -7 -13 -21 -30 -30 -16 -10 -35 -28 -42 -40
-13 -24 -18 -88 -5 -80 4 2 7 15 7 27 0 15 16 37 46 62 25 22 65 59 87 83 142
150 134 144 169 137 87 -16 109 -18 107 -10 -5 20 14 64 28 64 8 0 12 4 9 9
-9 14 30 56 51 56 12 0 17 6 15 18 -2 9 2 17 8 17 5 0 10 6 10 13 0 15 149
143 204 176 98 57 126 71 139 71 15 0 57 -69 57 -93 0 -7 13 -37 29 -69 l29
-56 -47 -18 c-25 -9 -58 -25 -73 -35 -14 -11 -29 -19 -32 -19 -13 0 -114 -85
-206 -174 -52 -50 -114 -99 -137 -110 -40 -18 -44 -18 -68 -2 -14 9 -37 35
-52 57 -33 50 -69 67 -89 42 -7 -10 -14 -23 -14 -30 0 -25 -89 -100 -137 -116
-26 -8 -40 -16 -30 -16 19 -1 23 -26 5 -37 -8 -5 -6 -11 6 -20 16 -11 16 -15
3 -41 -8 -15 -17 -41 -21 -56 -4 -17 -11 -25 -18 -21 -8 5 -9 0 -5 -17 4 -13
7 -30 7 -36 0 -24 20 -13 26 15 12 49 51 127 73 146 24 22 27 12 6 -24 -21
-37 -18 -60 3 -27 10 15 22 24 26 20 4 -5 6 -3 4 3 -2 6 8 36 21 67 18 40 31
57 47 60 20 3 22 1 14 -14 -6 -10 -10 -28 -9 -41 l0 -23 10 24 c22 54 89 90
89 47 0 -19 36 -40 45 -26 11 17 37 11 42 -10 5 -19 7 -20 24 -4 10 9 23 13
28 9 6 -3 11 -2 11 4 0 5 -6 12 -12 14 -10 4 -9 8 2 16 30 22 40 13 25 -23 -8
-18 -16 -49 -18 -67 -5 -38 -17 -71 -28 -79 -9 -6 -51 -292 -44 -299 8 -7 89
72 115 111 18 29 23 49 21 87 -2 46 22 163 39 186 4 6 27 46 50 90 23 44 53
94 66 112 35 46 168 130 244 154 85 26 131 19 186 -30 23 -20 54 -44 69 -55
15 -10 41 -47 57 -81 16 -35 35 -66 42 -68 8 -3 29 -36 46 -74 28 -56 33 -80
33 -136 0 -49 3 -65 10 -58 20 20 45 12 52 -16 3 -16 13 -41 20 -58 23 -52 35
-97 35 -129 0 -17 -4 -26 -8 -21 -11 16 -44 12 -75 -9 -27 -18 -28 -18 -45 1
-13 15 -24 18 -43 13 -26 -7 -26 -7 -12 22 8 16 12 32 8 36 -10 10 -65 -58
-65 -79 0 -10 -4 -19 -8 -21 -5 -1 -31 -34 -57 -73 -27 -38 -61 -81 -75 -95
-15 -14 -40 -46 -56 -72 -16 -27 -34 -48 -41 -48 -7 0 -16 -6 -20 -13 -4 -7
-29 -28 -54 -46 -26 -18 -52 -43 -59 -57 -8 -13 -16 -24 -20 -24 -3 0 -21 -13
-40 -30 -18 -16 -36 -27 -40 -25 -4 3 -10 -4 -13 -15 -3 -11 -12 -20 -21 -20
-9 0 -16 -6 -16 -13 0 -7 -9 -18 -20 -25 -11 -7 -20 -19 -20 -27 0 -8 -5 -15
-11 -15 -6 0 -35 -20 -66 -45 -56 -46 -87 -56 -96 -31 -4 10 -1 13 10 9 14 -5
32 11 33 29 0 4 -15 5 -32 3 l-33 -5 30 14 c21 10 32 11 37 3 4 -7 12 -4 23 6
9 10 21 17 26 17 14 0 39 26 39 39 0 6 5 11 10 11 6 0 10 6 10 13 0 7 9 23 20
35 11 12 20 26 20 32 0 6 7 13 16 17 8 3 13 12 10 19 -3 8 -1 14 4 14 6 0 10
6 10 13 0 6 20 34 45 61 24 28 42 52 40 55 -6 6 -115 -108 -115 -121 0 -5 -4
-7 -8 -4 -4 2 -27 -22 -51 -55 -47 -65 -104 -119 -125 -119 -7 0 -34 -11 -60
-25 -25 -13 -46 -22 -46 -19 0 3 -13 -3 -30 -13 -16 -9 -30 -20 -30 -24 0 -12
-49 -16 -54 -5 -3 8 -7 7 -13 -1 -11 -15 -38 0 -29 16 4 6 1 11 -8 11 -34 0
-23 -21 30 -59 57 -41 136 -65 192 -60 29 3 52 -6 52 -22 0 -6 -20 -8 -51 -4
-34 4 -49 2 -44 -5 3 -5 13 -10 21 -10 22 0 17 -15 -15 -41 -71 -60 -111 -100
-111 -113 0 -7 -7 -19 -15 -26 -8 -7 -15 -10 -15 -7 0 3 -11 -5 -25 -18 -29
-30 -33 -30 -132 -6 -118 28 -163 46 -249 97 -127 75 -144 84 -160 84 -8 0
-22 13 -31 28 -26 46 -69 64 -160 70 -70 4 -86 2 -110 -15 -15 -11 -41 -23
-57 -27 -29 -7 -29 -7 -23 31 4 21 11 39 17 41 5 2 21 27 36 55 14 28 50 86
80 129 30 42 54 88 54 101 0 31 33 65 86 89 24 10 46 23 49 28 3 5 1 46 -6 89
-10 67 -10 83 2 99 8 11 56 71 106 133 63 77 93 122 92 139 0 39 -26 137 -31
120 -7 -22 -36 -121 -44 -150 -4 -14 -15 -36 -25 -49 -11 -13 -19 -28 -19 -32
0 -14 -35 -46 -46 -42 -5 1 -17 -15 -28 -37 -10 -21 -25 -41 -32 -44 -8 -3
-14 -12 -14 -21 0 -8 -4 -15 -10 -15 -5 0 -10 -6 -10 -14 0 -8 -9 -21 -21 -29
-15 -11 -17 -16 -7 -20 10 -4 10 -8 -2 -16 -8 -6 -19 -13 -25 -15 -6 -3 -4 -9
4 -14 14 -10 5 -39 -14 -42 -5 -1 -9 -9 -8 -20 2 -13 -6 -20 -32 -24 -19 -4
-35 -11 -35 -16 0 -5 7 -7 15 -4 8 4 15 1 15 -5 0 -6 -6 -11 -12 -11 -22 -1
-63 -38 -63 -57 0 -11 -9 -19 -24 -21 -13 -2 -32 -13 -41 -24 -10 -12 -29 -21
-48 -22 -17 0 -31 -6 -29 -11 2 -10 -38 -55 -49 -55 -13 0 -54 -51 -54 -66 0
-13 -8 -14 -40 -9 -26 4 -40 3 -40 -4 0 -6 5 -11 11 -11 6 0 9 -6 6 -12 -2 -7
-12 -11 -22 -10 -15 3 -17 1 -7 -11 13 -16 6 -27 -17 -27 -24 -1 -58 -29 -45
-38 6 -4 13 -14 16 -23 5 -12 0 -14 -23 -11 -22 3 -29 0 -29 -12 0 -9 -7 -16
-15 -16 -20 0 -19 -16 1 -24 9 -4 14 -9 11 -12 -3 -3 -14 -1 -24 4 -13 7 -24
6 -38 -4 -11 -8 -19 -17 -17 -19 6 -13 0 -16 -12 -6 -15 13 -49 4 -40 -10 3
-5 16 -9 29 -9 31 0 41 -17 14 -25 -14 -5 -19 -13 -16 -26 4 -15 1 -18 -18
-13 -15 4 -24 0 -28 -10 -4 -10 -1 -13 8 -9 11 4 15 -2 14 -18 -1 -13 -1 -28
1 -34 8 -31 -25 -57 -42 -33 -8 10 -11 10 -15 1 -2 -7 -11 -13 -18 -13 -23 0
-28 21 -9 35 18 13 17 14 -9 15 -16 0 -26 -4 -22 -10 6 -10 -7 -14 -35 -10
-10 1 -9 -3 5 -14 11 -8 27 -16 35 -16 9 -1 5 -5 -8 -11 -13 -5 -21 -13 -17
-18 3 -6 13 -7 22 -4 11 4 14 3 9 -6 -5 -7 -14 -10 -22 -7 -15 6 -54 -13 -54
-26 0 -5 10 -8 23 -9 19 0 20 -1 4 -8 -10 -4 -19 -10 -19 -14 0 -20 -11 -47
-19 -47 -6 0 -14 -10 -18 -22 -9 -23 -9 -23 -16 4 -6 22 -10 25 -28 19 -12 -5
-28 -6 -34 -4 -7 3 -13 -2 -13 -11 0 -9 5 -16 10 -16 6 0 10 -7 10 -15 0 -8
-6 -15 -14 -15 -13 0 -56 -57 -56 -74 0 -3 23 -6 51 -6 57 0 58 -15 1 -25 -20
-3 -44 -11 -52 -16 -12 -9 -10 -10 8 -6 17 4 23 0 28 -19 3 -13 10 -21 15 -18
5 3 9 0 9 -5 0 -10 -13 -15 -32 -13 -22 3 -41 -69 -24 -96 3 -6 2 -13 -3 -17
-14 -8 -2 -35 15 -35 8 0 14 -4 14 -10 0 -5 -11 -10 -24 -10 -23 0 -25 -3 -22
-42 2 -24 0 -48 -5 -54 -6 -7 -3 -25 6 -48 9 -21 11 -36 5 -36 -13 0 -13 -53
0 -66 7 -7 0 -20 -20 -41 -27 -27 -29 -32 -13 -36 17 -4 17 -5 1 -6 -11 -1
-18 -9 -18 -21 0 -16 -7 -20 -32 -21 -18 0 -27 -3 -20 -6 6 -2 12 -12 12 -21
0 -14 2 -15 10 -2 5 8 13 11 17 6 4 -4 0 -14 -10 -21 -16 -11 -17 -17 -7 -35
16 -30 0 -45 -50 -45 -37 0 -38 -1 -23 -17 9 -10 22 -18 30 -18 7 0 13 -4 13
-8 0 -5 9 -18 21 -30 l20 -22 -31 -6 c-24 -5 -28 -9 -19 -20 8 -10 6 -12 -10
-9 -13 2 -19 0 -15 -6 3 -5 1 -16 -5 -23 -9 -11 -6 -15 10 -19 19 -5 20 -8 9
-21 -7 -9 -9 -16 -5 -16 4 0 2 -7 -6 -16 -11 -13 -9 -19 14 -37 29 -24 31 -59
4 -63 -27 -4 -77 -28 -77 -38 0 -4 12 -5 26 -2 l25 7 -19 -22 c-14 -14 -27
-19 -41 -14 -12 3 -21 2 -21 -4 0 -13 29 -41 43 -41 7 0 4 -7 -7 -15 -11 -8
-16 -21 -13 -30 4 -9 1 -15 -8 -15 -8 0 -15 5 -15 10 0 6 -5 10 -11 10 -7 0
-18 8 -25 18 -13 16 -13 16 -14 0 0 -10 5 -18 10 -18 16 0 12 -27 -5 -34 -8
-3 -12 -12 -9 -21 4 -10 0 -15 -13 -15 -22 0 -43 -18 -43 -37 0 -7 7 -13 15
-13 7 0 18 -6 22 -13 4 -8 17 -19 28 -25 17 -9 15 -11 -16 -9 -21 1 -35 5 -32
10 2 4 -1 7 -7 7 -6 0 -13 -7 -17 -16 -6 -15 -7 -15 -18 -1 -10 14 -12 13 -23
-4 -11 -17 -9 -19 15 -19 22 0 25 -2 13 -10 -8 -5 -29 -10 -47 -10 -31 0 -32
-1 -26 -35 5 -30 3 -35 -13 -35 -14 0 -12 -4 10 -15 15 -8 38 -15 50 -15 17 0
18 -2 6 -9 -8 -6 -18 -8 -22 -5 -4 3 -10 -7 -14 -21 -6 -24 -34 -36 -34 -15 0
6 -7 10 -16 10 -11 0 -15 6 -11 20 6 24 -8 27 -17 3 -8 -19 33 -63 58 -63 10
0 13 -6 10 -15 -4 -8 -12 -15 -20 -15 -8 0 -14 -5 -14 -11 0 -6 6 -9 13 -6 6
3 19 8 27 11 11 5 16 0 17 -14 1 -11 -2 -18 -8 -15 -5 4 -16 -1 -25 -9 -9 -9
-20 -14 -25 -11 -5 4 -9 1 -9 -4 0 -6 6 -11 14 -11 14 0 31 -29 21 -38 -2 -3
-11 1 -20 8 -12 10 -15 9 -16 -6 0 -17 -2 -17 -16 3 -17 26 -35 31 -27 8 4
-10 -4 -19 -22 -26 -23 -10 -25 -13 -11 -16 15 -4 16 -7 5 -21 -12 -14 -9 -15
20 -9 18 4 32 2 32 -3 0 -6 -9 -10 -21 -10 -14 0 -19 -5 -16 -14 4 -10 -1 -12
-16 -9 -19 4 -20 3 -5 -7 9 -6 15 -17 12 -25 -5 -11 1 -15 20 -15 28 0 35 -17
11 -26 -8 -4 -15 -12 -15 -20 0 -8 -4 -14 -10 -14 -5 0 -10 -4 -10 -10 0 -5 9
-10 21 -10 11 0 17 4 14 10 -3 6 -2 10 3 10 15 0 33 -50 23 -67 -4 -9 -6 -24
-4 -33 5 -20 -39 -34 -56 -17 -6 6 -14 8 -17 4 -4 -4 3 -16 15 -26 12 -11 21
-26 19 -34 -2 -8 8 -24 22 -35 25 -21 24 -22 -15 -22 -3 0 -13 -8 -23 -17 -16
-16 -17 -21 -5 -38 19 -28 17 -32 -19 -45 -32 -12 -33 -12 -10 -22 28 -14 28
-28 0 -29 -17 -1 -19 -2 -5 -6 9 -2 17 -11 17 -19 0 -16 -35 -54 -50 -54 -5 0
-10 -4 -10 -8 0 -8 59 -36 76 -35 8 0 8 -6 0 -23 -6 -13 -17 -24 -23 -24 -7 0
-13 -7 -13 -16 0 -10 -7 -14 -22 -12 -24 3 -24 2 -15 -47 4 -16 4 -24 1 -17
-3 6 -10 12 -15 12 -11 0 -41 -71 -34 -79 8 -7 25 21 19 30 -8 14 16 20 36 9
16 -9 20 -8 20 5 0 8 5 15 11 15 5 0 7 -5 4 -10 -3 -6 1 -13 9 -16 23 -9 20
-24 -4 -24 -11 0 -20 -4 -20 -10 0 -5 -10 -9 -22 -7 -20 2 -23 -2 -20 -30 3
-31 1 -33 -27 -33 -17 0 -31 -5 -31 -11 0 -6 7 -8 16 -5 11 4 15 2 11 -8 -3
-8 -1 -17 6 -20 7 -2 2 -5 -10 -5 -13 -1 -23 4 -23 9 0 6 -7 10 -15 10 -8 0
-15 4 -15 9 0 5 -7 11 -15 14 -11 5 -10 -2 5 -28 14 -24 16 -35 7 -39 -9 -3
-9 -5 1 -5 17 -1 15 -31 -3 -31 -8 0 -15 -4 -15 -10 0 -5 -7 -10 -16 -10 -11
0 -14 -6 -9 -20 5 -15 2 -20 -14 -20 -11 0 -24 -6 -28 -13 -9 -14 -43 -19 -43
-6 0 16 -28 9 -33 -9 -2 -9 -8 -25 -12 -34 -4 -10 -3 -18 3 -18 5 0 12 10 16
22 4 17 8 20 17 11 13 -13 -23 -55 -43 -49 -7 3 -25 7 -40 10 -22 5 -25 3 -21
-14 3 -11 8 -20 12 -20 3 0 13 -4 21 -10 12 -7 10 -12 -9 -29 -30 -27 -46 -26
-57 0 -9 19 -11 20 -23 5 -11 -14 -11 -16 3 -16 9 0 16 -7 16 -15 0 -8 5 -15
11 -15 5 0 7 -4 4 -10 -8 -14 -62 -13 -67 1 -5 14 -48 3 -48 -12 0 -5 10 -9
23 -8 12 1 31 1 42 0 l20 -2 -20 -9 c-11 -5 -32 -9 -47 -9 -31 -1 -39 -21 -9
-21 10 0 22 -7 25 -16 9 -24 1 -28 -18 -9 -9 9 -19 14 -24 11 -11 -6 -25 4
-45 34 -14 20 -17 21 -17 7 0 -10 4 -26 10 -36 7 -14 3 -23 -21 -40 -16 -12
-27 -26 -24 -31 3 -5 1 -11 -5 -15 -5 -3 -10 -1 -10 4 0 6 -4 11 -10 11 -5 0
-10 -11 -10 -24 0 -19 4 -23 20 -19 14 4 20 0 20 -12 0 -12 -5 -15 -22 -9 -13
3 -29 11 -35 16 -9 7 -13 7 -13 -2 0 -34 -58 -57 -150 -62 -19 -1 -39 -5 -45
-9 -11 -8 -123 -30 -329 -63 -106 -17 -142 -27 -152 -41 -12 -16 -11 -21 2
-36 8 -9 30 -20 49 -23 40 -8 55 -24 61 -68 14 -90 12 -120 -10 -112 -6 2 -28
-13 -48 -34 -30 -32 -46 -40 -85 -45 -26 -3 -59 -8 -73 -12 -29 -8 -49 -10
-145 -20 -117 -11 -126 -13 -141 -32 -8 -10 -13 -31 -12 -46 5 -52 -58 -64
-106 -19 l-29 27 23 -34 23 -33 73 6 c89 8 140 -10 128 -46 -5 -16 -3 -20 9
-15 16 6 97 -17 204 -59 34 -13 69 -21 78 -18 22 9 58 -3 88 -28 14 -13 35
-30 47 -38 14 -11 22 -29 24 -62 3 -26 7 -52 10 -56 7 -11 -16 -72 -27 -72 -4
0 -7 7 -5 16 2 10 -2 19 -9 21 -7 3 -10 -5 -9 -21 3 -28 -8 -34 -21 -13 -11
18 -83 59 -160 91 -35 15 -94 41 -132 60 -71 34 -110 48 -148 50 -34 2 -18 -8
107 -64 206 -94 244 -112 302 -147 53 -33 64 -36 180 -44 68 -5 163 -14 211
-20 67 -9 104 -9 155 0 37 6 151 23 253 37 l186 25 58 -19 c55 -19 60 -19 84
-4 19 13 23 13 16 3 -6 -11 -4 -13 9 -8 10 4 20 7 22 7 2 0 4 7 4 15 0 8 9 19
21 26 17 9 24 7 40 -10 16 -17 32 -21 78 -21 32 0 61 3 64 6 4 4 23 8 44 9 21
1 88 12 148 23 162 32 197 30 355 -22 25 -8 77 -21 115 -30 68 -16 170 -42
325 -85 41 -11 210 -65 376 -119 165 -55 316 -103 335 -107 60 -12 251 -77
319 -107 41 -19 92 -32 140 -37 41 -5 109 -17 150 -29 41 -11 120 -30 175 -42
55 -12 120 -29 145 -38 58 -20 391 -24 398 -4 2 7 17 12 32 12 16 0 32 5 35
10 3 5 27 10 53 10 26 0 60 7 76 15 16 9 37 15 45 13 9 -1 32 3 51 9 19 6 85
19 145 28 61 9 128 21 150 28 24 7 141 12 300 13 228 2 271 5 345 23 79 20 88
25 130 71 43 48 48 50 102 54 31 2 121 -3 200 -11 78 -7 217 -20 308 -27 195
-17 208 -19 240 -36 14 -8 36 -15 50 -16 14 -2 52 -5 85 -8 33 -3 107 -10 165
-15 110 -11 214 -13 192 -4 -6 2 -10 9 -6 14 8 13 -10 11 -24 -3 -15 -15 -43
7 -35 28 4 10 0 12 -11 8 -8 -3 -14 -11 -13 -17 1 -9 -20 -11 -73 -9 -82 3
-93 8 -67 26 9 7 17 18 17 25 0 15 11 14 38 -5 33 -23 37 -12 7 20 -33 36 -32
50 8 70 25 12 27 16 12 16 -12 0 -26 -5 -32 -11 -14 -14 -55 -8 -61 9 -2 8 7
12 27 12 18 0 35 7 41 17 8 13 13 14 16 6 9 -20 24 -15 24 7 0 21 5 21 112 5
15 -2 31 2 38 10 7 8 17 12 23 8 21 -13 87 -11 87 3 0 16 16 19 25 4 3 -5 2
-10 -3 -10 -6 0 -12 -7 -16 -15 -4 -11 1 -14 19 -13 13 1 23 7 22 13 -2 9 5 9
46 -2 13 -4 16 -1 11 10 -5 14 10 16 131 14 106 -1 138 1 145 12 6 11 27 13
97 7 187 -14 189 -14 166 -6 -12 5 -48 11 -81 14 -32 3 -69 9 -83 14 -13 5
-68 7 -121 4 -109 -5 -148 1 -148 24 0 12 -6 15 -21 11 -12 -3 -22 0 -26 9 -7
20 -23 17 -23 -4 0 -25 -75 -29 -89 -4 -8 15 -15 15 -55 4 -57 -15 -88 -16
-66 -2 18 11 14 15 -36 40 -32 16 -35 19 -16 20 13 0 30 7 38 15 9 8 24 15 35
15 10 0 19 5 19 10 0 6 -4 10 -10 10 -5 0 -10 4 -10 9 0 17 54 8 72 -13 15
-18 17 -19 18 -3 0 9 -5 17 -12 17 -6 0 -9 2 -6 5 3 3 18 0 33 -7 23 -10 29
-10 33 0 4 14 38 16 47 2 3 -6 18 -7 33 -4 21 4 24 3 12 -5 -11 -8 -2 -11 39
-11 52 0 53 1 34 18 -11 9 -18 23 -15 31 3 11 0 12 -14 6 -37 -15 -62 -17 -69
-4 -6 9 -3 10 10 6 9 -4 23 -2 31 4 20 16 59 7 58 -14 -1 -9 5 -17 13 -17 8 0
12 4 8 10 -3 5 6 17 21 26 21 14 30 15 45 6 25 -16 29 -15 29 4 0 14 3 14 16
3 12 -10 17 -10 23 0 6 9 18 10 47 2 57 -14 164 -11 164 6 0 17 24 17 40 -1 6
-8 18 -12 26 -9 8 3 14 -1 15 -8 0 -8 2 -27 3 -44 1 -16 3 -74 4 -127 1 -54 6
-98 10 -98 5 0 6 50 4 111 -3 67 0 132 7 164 10 42 9 58 -1 74 -9 15 -15 17
-25 9 -18 -14 -184 -3 -194 13 -4 7 -17 9 -34 5 -31 -8 -95 2 -95 15 0 5 7 9
15 9 24 0 17 20 -7 21 l-23 0 23 16 c12 8 22 24 22 33 0 26 36 31 162 26 59
-3 109 -2 111 2 2 4 2 2 1 -5 -2 -7 1 -15 6 -18 6 -4 10 -24 10 -46 0 -21 4
-39 9 -39 12 0 22 41 13 54 -4 6 -7 23 -8 38 -1 18 3 25 12 21 8 -3 14 -1 14
4 0 16 -120 23 -445 24 -286 1 -305 2 -250 15 33 7 114 14 180 14 66 0 143 1
170 1 l50 1 -60 9 c-33 5 -69 7 -81 5 -12 -4 -27 2 -38 15 -13 16 -20 18 -31
9 -12 -10 -17 -7 -26 14 -9 19 -20 26 -41 26 -15 0 -28 4 -28 9 0 5 11 8 25 6
16 -1 25 3 25 12 0 8 -3 12 -7 10 -5 -3 -19 0 -33 5 -20 7 -22 11 -10 18 13 8
12 10 -2 10 -10 0 -18 -4 -18 -10 0 -5 -14 -10 -31 -10 -16 0 -28 4 -24 9 8
14 -35 25 -48 12 -6 -6 -16 -11 -22 -11 -5 0 -1 7 10 16 19 14 19 15 -3 21
-17 4 -20 8 -11 14 10 6 7 10 -10 17 -20 7 -21 10 -8 21 10 8 17 9 22 1 3 -5
11 -10 16 -10 17 0 1 18 -29 33 -16 7 -40 13 -55 13 -15 -1 -27 2 -27 6 0 4 5
8 10 8 6 0 10 7 10 17 0 14 2 14 20 -2 11 -10 20 -14 20 -8 0 5 12 15 26 21
14 7 22 17 18 23 -5 8 -9 8 -14 -1 -4 -7 -13 -9 -19 -6 -6 4 -9 12 -6 17 4 5
-1 9 -9 9 -28 0 -17 20 12 21 l27 1 -30 7 c-28 6 -29 8 -26 55 2 32 -2 52 -10
57 -8 4 -10 11 -6 16 5 4 12 1 17 -7 7 -12 12 -12 22 -2 6 6 20 12 30 12 10 0
18 5 18 11 0 6 -11 8 -27 5 -16 -3 -35 -2 -43 3 -11 8 -8 12 15 22 30 11 30
11 8 22 -23 10 -31 27 -13 27 6 0 10 7 10 15 0 10 -10 15 -30 15 -16 0 -30 5
-30 10 0 6 7 10 15 10 8 0 15 5 15 10 0 6 -7 10 -17 10 -14 0 -15 2 -1 18 9 9
13 23 11 30 -3 8 5 12 22 12 22 0 25 3 16 14 -6 7 -9 20 -5 29 4 10 0 15 -12
14 -11 -1 -20 6 -22 17 -2 11 -10 26 -18 33 -7 8 -11 20 -8 28 6 14 -5 19 -32
16 -19 -2 -24 27 -9 43 8 8 15 20 15 27 0 9 3 9 14 0 22 -18 31 6 11 29 -20
22 -63 16 -44 -6 10 -12 9 -13 -5 -8 -12 4 -16 0 -16 -15 0 -27 -11 -27 -38 2
l-22 23 34 12 c39 15 56 42 26 42 -30 0 -24 19 8 27 l27 7 -25 6 -25 6 24 13
c19 11 25 11 32 0 7 -11 9 -10 9 3 0 9 6 18 13 21 6 2 9 8 5 12 -4 4 -27 -2
-51 -14 -24 -11 -48 -21 -53 -21 -16 1 40 40 57 40 22 0 31 11 20 24 -8 10 17
45 28 38 3 -1 6 4 7 13 3 22 -13 28 -24 9 -6 -11 -12 -13 -16 -6 -4 6 -13 9
-20 6 -7 -3 -16 2 -19 10 -5 12 0 16 18 16 14 0 25 4 25 9 0 5 9 7 20 4 16 -4
20 0 20 17 0 18 -3 20 -13 11 -16 -13 -28 -5 -20 15 6 17 -22 46 -61 61 -29
11 -30 12 -9 18 13 4 20 11 17 16 -3 5 3 9 13 9 16 1 15 3 -5 20 -21 17 -21
19 -5 29 15 8 16 13 7 28 -14 23 4 53 31 53 15 0 15 2 4 16 -10 13 -10 17 1
24 12 7 11 10 -3 16 -9 3 -17 12 -17 20 0 31 -79 -9 -80 -40 0 -4 9 -6 19 -3
13 3 21 -1 24 -14 4 -15 -2 -20 -29 -25 -19 -3 -38 -4 -41 0 -4 3 1 6 10 6 24
0 21 23 -5 39 -22 14 -22 14 -3 22 20 8 20 8 0 9 -14 2 -11 5 10 10 28 7 28 8
8 15 -24 8 -37 31 -23 40 6 4 10 -1 10 -9 0 -10 9 -16 26 -16 14 0 23 4 19 10
-3 6 -13 10 -21 10 -8 0 -14 9 -14 21 0 11 -5 17 -10 14 -6 -3 -17 0 -25 8
-13 13 -11 17 11 31 25 17 24 36 -2 36 -9 0 -12 -5 -8 -12 6 -10 4 -10 -7 0
-7 6 -21 12 -32 12 -10 0 -15 4 -12 10 3 6 -1 7 -9 4 -22 -8 -20 12 2 26 15
10 15 11 0 6 -17 -5 -33 20 -18 29 5 3 5 18 1 33 -9 31 -3 91 11 109 11 13 -4
49 -23 55 -8 3 -6 9 4 20 20 20 11 31 -15 17 -11 -6 -22 -8 -25 -6 -3 3 8 12
23 20 l27 14 -31 28 c-18 16 -32 36 -32 44 0 18 34 51 52 51 9 0 9 3 0 12 -10
10 -15 10 -21 -1 -6 -9 -18 -11 -36 -7 -22 6 -25 9 -15 21 9 11 9 15 1 15 -6
0 -11 6 -11 14 0 9 18 17 47 22 25 5 48 15 51 23 3 10 -2 12 -22 7 -16 -4 -26
-2 -26 5 0 7 -9 9 -24 5 -30 -7 -41 7 -26 34 12 22 35 17 26 -6 -4 -11 -2 -12
14 -4 25 14 30 13 24 -5 -4 -8 -2 -15 4 -15 6 0 13 6 15 13 4 9 6 9 6 0 1 -15
31 -18 31 -3 0 6 5 10 10 10 6 0 10 -7 10 -16 0 -21 23 -13 26 9 1 11 -5 17
-17 17 -12 0 -23 10 -29 25 -7 19 -15 24 -32 22 -13 -2 -17 -2 -10 0 28 10 10
25 -23 20 -42 -7 -45 -1 -7 15 l27 11 -29 6 c-26 5 -27 7 -13 19 9 8 20 11 26
8 5 -3 21 -2 35 4 16 6 27 6 31 0 4 -6 2 -10 -3 -10 -6 0 -13 -7 -16 -16 -5
-12 -1 -14 17 -8 12 4 25 12 29 18 8 12 -9 36 -26 36 -6 0 -21 16 -34 35 -15
24 -30 35 -47 35 -13 0 -27 5 -30 10 -3 6 4 10 17 10 13 0 29 4 37 9 18 12
-38 37 -99 44 l-45 6 28 -17 c32 -20 35 -35 5 -30 -25 4 -48 56 -29 67 6 4 9
15 5 24 -4 13 -1 17 15 17 12 0 21 5 21 11 0 6 -15 10 -32 9 -51 -3 -55 -1
-61 20 -6 22 3 26 21 8 15 -15 28 -2 14 15 -8 10 -7 20 3 40 l14 28 -28 -21
c-36 -25 -37 -25 -44 -1 -3 15 -11 18 -27 14 -20 -5 -21 -4 -11 15 14 26 14
52 1 52 -5 0 -10 -7 -10 -15 0 -8 -4 -15 -8 -15 -17 0 -21 13 -11 32 8 15 5
23 -13 38 -21 19 -22 21 -5 30 9 6 17 20 17 31 0 11 4 18 8 15 5 -3 19 8 31
24 12 17 28 30 36 30 17 0 20 16 4 26 -6 3 -9 14 -6 24 3 11 -1 21 -9 24 -19
7 -18 32 1 40 17 6 21 36 4 36 -5 0 -8 4 -5 9 4 5 0 12 -6 14 -10 4 -10 6 0 6
6 1 12 5 12 11 0 16 -44 51 -57 46 -16 -6 -16 -1 -2 25 5 11 14 17 20 14 5 -4
12 1 15 9 3 9 12 16 20 16 8 0 14 4 14 10 0 5 6 7 14 4 8 -3 23 -1 33 5 16 9
17 10 1 11 -11 0 -15 5 -12 15 4 8 1 15 -5 15 -6 0 -11 -4 -11 -10 0 -7 -41
-8 -129 0 -2 0 2 7 9 15 8 9 8 15 2 15 -6 0 -10 15 -9 33 2 29 -1 32 -26 32
-28 -1 -29 1 -23 36 4 24 2 40 -6 45 -8 5 -6 10 8 15 17 7 15 9 -13 20 -39 16
-44 34 -8 25 30 -8 33 7 4 27 -15 11 -17 16 -7 20 10 4 10 6 1 6 -7 1 -13 7
-13 14 0 7 -12 18 -27 24 l-28 11 26 1 c14 1 29 -3 35 -9 10 -10 54 -2 54 10
0 4 -18 10 -40 14 -28 4 -40 11 -40 23 0 15 1 15 18 0 28 -25 42 -21 38 11 -4
36 -54 88 -69 73 -8 -8 -6 -11 6 -11 9 0 17 -4 17 -10 0 -5 -8 -10 -18 -10
-21 0 -44 42 -36 65 4 10 0 15 -12 16 -15 0 -13 3 6 11 l25 10 -27 10 c-16 5
-28 14 -28 19 0 5 -7 9 -15 9 -8 0 -15 5 -15 10 0 6 7 10 15 10 8 0 15 7 15
15 0 9 12 27 26 40 15 14 22 25 15 25 -21 0 -11 15 22 30 38 18 49 50 18 50
-15 0 -19 -4 -14 -17 5 -13 2 -15 -18 -10 -13 4 -30 7 -38 7 -8 0 -11 7 -8 20
7 27 -11 36 -31 16 -11 -10 -12 -16 -4 -16 7 0 12 -4 12 -9 0 -5 -6 -9 -12 -8
-42 1 -51 -3 -38 -18 17 -20 8 -27 -24 -19 -27 6 -36 24 -13 24 7 0 13 9 13
20 0 11 -4 20 -8 20 -4 0 -7 3 -7 8 4 24 -3 42 -17 42 -8 0 -13 -4 -9 -10 6
-10 -42 -46 -51 -37 -4 3 4 20 16 37 22 31 22 31 2 37 -13 3 -18 11 -15 19 3
9 -1 14 -12 14 -18 0 -45 23 -45 38 0 6 7 13 16 16 13 5 14 9 5 20 -9 10 -8
15 4 20 19 7 19 30 0 50 -16 15 -4 33 15 21 6 -3 10 1 10 9 0 9 -8 16 -19 16
-11 0 -23 5 -27 11 -3 6 1 10 12 9 32 -4 40 0 24 11 -12 9 -12 10 5 6 16 -3
20 2 22 25 3 32 -4 35 -24 11 -13 -17 -14 -16 -10 5 4 15 0 22 -10 22 -13 0
-13 3 -2 16 11 13 9 14 -14 9 -34 -9 -45 -1 -39 30 3 17 11 25 26 25 17 0 18
2 6 10 -13 8 -12 10 3 10 11 0 15 5 11 11 -3 6 0 15 7 20 10 6 8 9 -8 9 -13 0
-23 5 -23 11 0 6 7 9 15 5 18 -6 18 -5 5 28 -7 19 -6 27 4 33 16 9 4 53 -14
53 -6 0 -10 8 -8 17 4 22 -60 43 -71 24 -6 -10 -10 -9 -14 3 -4 9 -2 16 3 16
6 0 10 5 10 10 0 6 -11 10 -24 10 -15 0 -27 7 -31 19 -3 10 -15 21 -26 24 -12
3 -18 10 -14 16 3 6 1 11 -4 11 -6 0 -11 5 -11 10 0 6 6 10 13 10 7 0 23 11
34 24 19 21 19 25 6 30 -9 4 -18 4 -21 1 -3 -3 1 -5 8 -5 7 0 11 -2 8 -5 -3
-4 -17 -3 -30 0 -20 5 -24 11 -20 31 3 19 1 23 -12 18 -11 -4 -16 -1 -16 10 0
9 8 16 17 16 15 0 14 2 -4 15 -17 12 -20 23 -18 67 2 62 14 108 26 108 5 0 9
7 9 15 0 8 -6 12 -14 9 -13 -5 -27 15 -32 46 -10 63 -5 288 7 296 5 3 9 14 9
25 0 14 -7 19 -25 19 -29 0 -33 -15 -8 -24 14 -6 12 -9 -12 -22 -20 -10 -30
-11 -35 -4 -4 7 -10 -5 -13 -26 -4 -21 -2 -41 3 -44 5 -3 0 -17 -10 -30 -11
-14 -20 -19 -20 -12 0 6 -12 12 -27 12 -33 0 -27 7 12 14 17 2 32 5 34 5 10 2
-34 41 -46 41 -7 0 -16 7 -19 15 -4 8 -14 15 -25 15 -28 0 -88 33 -89 50 0 11
-3 11 -12 2 -17 -17 -28 -15 -21 5 5 12 2 15 -9 11 -9 -4 -23 2 -33 14 -17 20
-16 20 12 16 23 -3 29 0 30 14 1 14 -3 17 -23 12 -14 -4 -24 -2 -24 4 0 6 10
13 23 15 14 3 8 5 -15 6 -20 0 -40 6 -44 12 -4 7 -11 2 -18 -13 -6 -12 -20
-24 -31 -26 -15 -2 -17 -1 -6 6 7 6 11 14 7 20 -3 6 0 13 6 15 11 5 -9 9 -28
6 -10 -1 -23 24 -18 33 3 4 25 8 50 8 25 0 44 5 44 11 0 6 -11 8 -27 5 -24 -5
-31 -1 -51 30 l-24 37 26 -5 c14 -3 26 -2 26 3 0 15 -18 19 -44 9 -35 -13 -49
-6 -69 37 -18 40 -16 53 6 35 13 -11 57 -6 57 7 0 8 -70 37 -82 34 -4 -2 -4 5
-1 14 5 13 2 15 -15 11 -12 -4 -20 -2 -17 2 7 11 -5 60 -14 60 -11 0 -30 -51
-24 -66 3 -8 14 -14 24 -14 19 0 25 -11 13 -23 -9 -9 -54 15 -48 25 3 5 -14 7
-40 4 -36 -5 -47 -2 -56 12 -9 14 -10 11 -6 -17 5 -27 3 -32 -10 -27 -9 3 -22
6 -30 6 -8 0 -11 6 -8 15 4 8 12 15 19 15 7 0 15 9 18 19 3 13 1 18 -8 14 -8
-2 -18 5 -25 16 -8 15 -8 21 0 21 6 0 9 4 5 10 -3 5 -13 6 -22 3 -12 -5 -15
-2 -10 10 5 13 1 16 -15 14 -14 -1 -24 4 -26 16 -3 12 3 17 22 17 42 0 38 17
-10 35 -42 16 -47 16 -62 2 -14 -15 -14 -17 2 -23 9 -4 22 -2 29 5 17 17 31
13 17 -4 -7 -8 -22 -15 -33 -15 -29 0 -87 22 -87 33 0 5 -7 4 -15 -3 -8 -7
-15 -8 -15 -3 0 5 -9 19 -21 32 l-21 22 -22 -20 c-28 -27 -68 -27 -91 -1 -10
11 -28 20 -40 20 -25 0 -49 -23 -37 -34 4 -4 -6 -6 -22 -4 -16 1 -32 9 -34 17
-3 10 0 12 12 8 10 -4 16 -1 16 7 0 16 -41 15 -62 -1 -17 -13 -58 -14 -58 -2
0 5 -9 9 -20 9 -12 0 -33 11 -47 24 -25 24 -43 26 -43 5 0 -5 9 -9 20 -9 11 0
20 -4 20 -10 0 -12 -27 -13 -34 -2 -3 5 -23 8 -46 7 -22 -1 -40 2 -40 7 0 4
-7 8 -15 8 -8 0 -15 5 -15 10 0 6 -6 10 -13 10 -7 0 -18 10 -26 21 -11 18 -11
21 1 17 7 -3 20 2 28 10 13 14 12 15 -3 9 -11 -4 -17 -1 -17 9 0 20 -22 42
-38 36 -17 -5 -15 3 14 83 14 39 28 78 31 88 3 9 9 17 14 17 5 0 9 4 9 9 0 5
5 22 12 38 6 15 13 33 14 38 2 6 15 42 28 81 14 39 28 90 31 113 9 78 16 92
36 86 11 -4 19 -2 19 4 0 6 -4 11 -9 11 -19 0 -42 32 -36 51 4 11 2 19 -4 19
-26 0 -8 18 29 29 22 6 44 20 50 31 17 31 11 35 -14 11 -22 -21 -29 -22 -57
-12 -41 14 -69 39 -69 61 0 9 -4 20 -10 26 -13 13 -40 104 -30 104 23 0 60
-45 68 -83 7 -28 10 -34 11 -17 1 37 -32 103 -78 153 -22 24 -45 55 -50 70
-13 34 -77 66 -144 74 -61 7 -73 14 -80 51 -5 25 -76 117 -77 99z m-340 -121
c0 -11 -19 -15 -25 -6 -3 5 1 10 9 10 9 0 16 -2 16 -4z m190 -215 c-18 -77
-30 -85 -31 -20 -1 54 -1 54 -14 24 -8 -16 -14 -44 -15 -62 0 -17 -4 -35 -10
-38 -6 -3 -10 5 -10 19 0 14 -4 28 -10 31 -18 11 -11 41 20 83 30 42 72 59 79
33 2 -8 -2 -40 -9 -70z m-166 -16 c-12 -19 -20 -23 -28 -15 -8 8 -5 17 13 31
31 25 37 18 15 -16z m-24 -62 c1 -16 7 -39 15 -53 17 -30 19 -44 5 -35 -6 4
-17 21 -24 38 -12 29 -14 30 -21 12 -3 -11 -10 -27 -14 -35 -10 -18 -2 -78 10
-86 5 -3 9 -9 9 -14 0 -13 -52 10 -72 32 -22 25 -40 23 -36 -4 2 -16 -3 -24
-16 -26 -13 -3 -16 0 -11 10 3 7 -1 4 -9 -6 -9 -11 -16 -16 -16 -10 1 18 40
127 51 140 15 18 29 18 29 0 0 -22 69 15 76 42 9 31 24 28 24 -5z m-195 -313
c10 -11 16 -20 13 -20 -3 0 -15 9 -28 20 -13 11 -19 20 -13 20 5 0 18 -9 28
-20z m-479 -301 c3 -6 1 -16 -5 -22 -9 -9 -14 -8 -21 3 -9 15 -4 30 10 30 5 0
12 -5 16 -11z m639 -149 c3 -5 1 -10 -5 -10 -6 0 -8 -4 -5 -10 3 -6 -1 -7 -9
-4 -17 7 -20 16 -9 27 9 10 21 9 28 -3z m289 -95 c-1 -36 3 -68 8 -71 5 -3 4
-12 -3 -20 -9 -11 -9 -18 -1 -26 20 -20 -24 -83 -115 -162 -113 -99 -98 -88
-197 -140 -94 -50 -112 -54 -155 -31 -45 23 -58 71 -16 61 28 -7 37 17 9 28
-21 8 -7 28 19 25 35 -2 40 0 29 14 -8 9 -3 17 18 29 28 16 30 16 40 0 8 -15
9 -14 10 6 0 17 6 22 25 22 14 0 28 7 32 16 4 12 8 13 14 3 13 -21 41 10 34
38 -4 17 -1 23 10 23 11 0 13 4 8 13 -10 16 -13 67 -3 67 5 0 10 -6 12 -12 3
-9 10 -7 24 6 13 14 15 21 6 24 -17 5 -15 22 3 22 18 0 19 12 3 28 -6 6 -8 15
-4 19 4 4 12 1 17 -7 8 -11 12 -12 16 -2 2 6 12 12 20 12 10 0 13 6 9 15 -3
10 1 18 12 21 9 3 25 10 34 14 13 7 19 4 24 -13 5 -12 7 -25 6 -29 -1 -5 2 -8
7 -8 11 0 41 62 35 72 -3 4 -2 8 3 8 4 0 7 -29 7 -65z m106 20 c0 -2 -9 -9
-20 -15 -12 -6 -20 -7 -20 -1 0 5 8 12 18 14 9 3 18 5 20 6 1 0 2 -1 2 -4z
m756 -170 c-3 -8 2 -19 12 -24 16 -10 16 -10 -1 -11 -23 0 -51 26 -42 40 10
16 38 12 31 -5z m654 -315 c0 -5 -4 -10 -9 -10 -6 0 -13 5 -16 10 -3 6 1 10 9
10 9 0 16 -4 16 -10z m33 -48 c-20 -21 -35 -19 -26 3 3 8 14 15 24 15 18 0 18
-1 2 -18z m-1713 -57 c0 -8 -4 -15 -10 -15 -5 0 -7 7 -4 15 4 8 8 15 10 15 2
0 4 -7 4 -15z m1888 -152 c-10 -2 -28 -2 -40 0 -13 2 -5 4 17 4 22 1 32 -1 23
-4z m-1708 -28 c-6 -8 -9 -23 -5 -35 4 -13 1 -22 -9 -26 -9 -3 -16 -18 -17
-33 0 -14 -4 -35 -9 -46 -7 -16 -9 -14 -9 15 -1 19 6 48 14 64 9 16 13 31 11
34 -8 7 13 42 26 42 7 0 6 -5 -2 -15z m1718 -26 c-20 -13 -38 -11 -38 5 0 9 8
12 26 8 19 -3 22 -7 12 -13z m97 11 c3 -5 2 -18 -4 -28 -8 -15 -6 -18 12 -17
12 0 28 4 35 8 7 5 12 4 12 -2 0 -6 10 -12 23 -12 12 -1 2 -5 -23 -9 -26 -4
-48 -3 -51 2 -3 5 -10 10 -15 11 -5 1 -9 14 -9 30 -1 27 9 35 20 17z m122
-144 c-2 -6 -12 -12 -23 -14 -16 -3 -16 -1 -4 7 11 8 12 11 2 11 -7 0 -11 4
-7 10 8 12 37 0 32 -14z m57 12 c-4 -7 -14 -21 -22 -30 -7 -9 -11 -22 -6 -29
5 -9 1 -11 -14 -7 -12 4 -25 2 -28 -3 -3 -5 -13 -9 -22 -9 -15 1 -15 2 1 11 9
6 15 14 12 20 -4 5 1 9 10 9 19 0 45 23 45 39 0 6 7 11 16 11 9 0 12 -5 8 -12z
m-114 -52 c0 -2 -7 -6 -15 -10 -8 -3 -15 -1 -15 4 0 6 7 10 15 10 8 0 15 -2
15 -4z m115 -25 c3 -5 1 -12 -5 -16 -5 -3 -10 1 -10 9 0 18 6 21 15 7z m-83
-63 c-9 -9 -15 -9 -24 0 -9 9 -7 12 12 12 19 0 21 -3 12 -12z m48 -8 c0 -5 -4
-10 -10 -10 -5 0 -10 5 -10 10 0 6 5 10 10 10 6 0 10 -4 10 -10z m-15 -31 c16
-6 14 -8 -13 -8 -18 -1 -40 6 -49 14 -14 14 -13 15 13 9 16 -4 38 -11 49 -15z
m-72 -39 c-3 -11 -9 -17 -15 -14 -5 3 -4 12 3 20 16 19 18 18 12 -6z m-887 -7
c8 -11 13 -13 14 -5 0 23 23 12 63 -34 54 -61 117 -147 116 -158 0 -5 5 -12
12 -16 9 -6 6 -16 -10 -38 -11 -17 -21 -35 -21 -41 0 -6 -13 -36 -28 -68 -16
-32 -39 -81 -52 -110 -26 -56 -46 -67 -99 -57 -27 6 -59 27 -34 23 15 -2 53
13 53 22 0 5 6 9 13 9 16 0 72 86 81 125 7 30 7 30 -21 -8 l-28 -38 -72 5
c-52 3 -73 1 -74 -7 0 -8 -2 -8 -6 1 -2 6 -11 12 -19 12 -8 0 -14 8 -14 18 0
9 -4 23 -9 31 -8 12 -12 12 -26 -3 -10 -9 -24 -15 -31 -12 -8 3 -11 0 -7 -10
6 -16 -22 -64 -38 -64 -6 0 -8 4 -4 9 3 5 0 13 -6 17 -8 4 -9 3 -5 -4 4 -7 5
-12 2 -12 -2 0 -12 -3 -20 -6 -12 -5 -15 -2 -10 10 5 12 2 15 -10 10 -11 -4
-16 -1 -16 10 0 9 -6 16 -12 17 -7 0 -4 5 7 10 14 6 -3 8 -55 6 -67 -2 -76 0
-76 15 0 10 4 18 8 18 4 0 5 6 2 14 -7 19 52 31 86 18 20 -8 39 -4 85 14 32
13 65 24 72 24 22 0 -3 37 -42 63 -44 28 -51 45 -22 57 12 5 16 9 10 9 -22 1
-14 15 22 38 19 13 41 20 50 17 8 -4 21 -2 28 4 6 5 29 15 50 22 20 6 35 15
32 20 -10 16 7 40 27 40 12 0 27 -8 34 -17z m-46 -418 c0 -8 -4 -15 -10 -15
-5 0 -10 7 -10 15 0 8 5 15 10 15 6 0 10 -7 10 -15z m-2100 -115 c0 -5 -7 -10
-15 -10 -8 0 -18 0 -22 -1 -4 0 -9 4 -11 10 -2 6 8 11 22 11 14 0 26 -4 26
-10z m-86 -92 c-8 -13 -24 -9 -24 6 0 8 -8 16 -17 18 -16 3 -15 6 7 28 l24 24
7 -34 c4 -19 5 -38 3 -42z m71 32 c3 -5 -1 -10 -9 -10 -8 0 -18 5 -21 10 -3 6
1 10 9 10 8 0 18 -4 21 -10z m-235 -110 c0 -5 -4 -10 -10 -10 -5 0 -10 5 -10
10 0 6 5 10 10 10 6 0 10 -4 10 -10z m470 -111 c0 -6 4 -8 9 -5 4 3 7 -32 7
-79 -2 -56 1 -82 8 -78 6 4 7 2 3 -2 -4 -5 -19 -11 -32 -12 -14 -2 -35 -7 -47
-12 -17 -6 -8 -9 37 -14 65 -7 103 8 184 69 49 38 79 42 117 18 24 -16 24 -18
8 -43 -9 -14 -22 -31 -29 -36 -7 -6 -31 -25 -52 -43 -22 -18 -74 -50 -116 -72
-76 -40 -106 -51 -73 -27 16 12 14 13 -19 14 -20 1 -44 8 -54 17 -23 21 -40
20 -95 -3 -25 -11 -53 -20 -63 -20 -33 1 -58 -9 -55 -20 3 -16 -8 -14 -29 5
-15 13 -21 14 -52 1 -27 -12 -34 -21 -34 -41 0 -33 5 -33 18 0 9 26 10 26 29
9 24 -22 22 -93 -4 -107 -9 -5 -16 -15 -16 -22 0 -7 -8 -24 -18 -37 -11 -13
-21 -34 -24 -46 -8 -30 29 -39 62 -14 34 25 81 34 111 22 16 -7 18 -10 7 -10
-20 -1 -80 -34 -130 -73 -21 -16 -50 -30 -65 -31 -27 -2 -28 0 -26 38 1 22 2
53 3 68 1 15 8 43 16 62 20 48 18 52 -11 21 -13 -14 -31 -26 -38 -26 -8 0 -18
-12 -21 -26 -5 -19 -11 -24 -25 -19 -27 8 -31 -5 -20 -51 6 -21 13 -50 16 -64
3 -14 9 -27 13 -30 4 -3 10 -23 13 -45 8 -49 -6 -31 -29 38 -20 60 -63 137
-75 137 -6 0 -7 -4 -4 -10 11 -17 -7 -11 -20 7 -22 29 -39 -55 -25 -115 6 -26
11 -55 11 -64 0 -10 4 -20 10 -23 5 -4 9 -20 9 -36 0 -17 5 -39 11 -51 13 -25
7 -32 -23 -25 -19 5 -23 14 -26 49 -5 86 -30 129 -43 76 l-5 -23 -7 25 c-5 18
-9 22 -18 13 -10 -10 -15 -65 -7 -88 1 -6 -14 -31 -34 -55 l-38 -44 1 45 c1
56 23 204 44 294 9 39 19 85 23 104 6 28 21 45 72 82 36 26 68 48 72 48 4 1
65 29 135 62 71 34 152 72 181 85 42 19 52 28 52 48 0 17 6 26 21 28 15 2 27
19 43 56 26 66 69 119 98 124 27 5 58 -8 58 -23z m85 -59 c3 -5 2 -10 -4 -10
-5 0 -13 5 -16 10 -3 6 -2 10 4 10 5 0 13 -4 16 -10z m538 -233 c42 -23 53
-33 40 -38 -12 -4 -13 -8 -5 -13 7 -4 16 -5 22 -1 11 7 50 -25 50 -41 0 -7 6
-15 13 -18 6 -4 -9 -4 -35 -1 -31 3 -48 1 -48 -6 0 -7 -7 -8 -17 -4 -50 21
-98 26 -108 12 -5 -8 -21 -17 -35 -20 -14 -3 -47 -13 -75 -21 -49 -14 -49 -15
-14 -15 19 -1 44 -9 55 -19 10 -10 45 -24 77 -31 32 -7 56 -15 53 -18 -8 -8
-107 -4 -120 5 -27 19 -266 -6 -266 -29 0 -5 18 -21 40 -35 22 -15 40 -27 40
-28 0 -1 -30 -3 -66 -4 -82 -2 -107 -9 -100 -28 3 -8 1 -14 -4 -14 -6 0 -10 5
-10 10 0 6 -7 10 -15 10 -8 0 -15 -9 -15 -20 0 -11 3 -20 8 -20 8 0 42 -73 42
-92 0 -6 -10 -2 -22 9 -13 11 -32 23 -43 25 -11 3 -28 9 -37 13 -13 5 -18 2
-18 -10 0 -9 -4 -13 -10 -10 -13 8 -13 -1 2 -24 8 -14 9 -26 1 -43 l-10 -23
-16 32 c-10 18 -17 39 -17 48 0 24 -24 18 -55 -15 -16 -16 -25 -30 -20 -30 4
0 6 -2 3 -5 -3 -3 -12 -3 -20 0 -13 5 -13 16 -2 80 27 154 65 202 230 283 70
35 182 96 224 122 8 5 44 23 80 40 55 26 72 29 115 24 28 -3 76 -20 108 -37z
m2697 -77 c0 -15 -7 -20 -25 -20 -25 0 -30 18 -10 32 19 14 35 8 35 -12z
m-1510 -50 c0 -5 -4 -10 -10 -10 -5 0 -10 5 -10 10 0 6 5 10 10 10 6 0 10 -4
10 -10z m1610 1 c0 -10 -40 -22 -52 -15 -18 11 -6 24 22 24 17 0 30 -4 30 -9z
m-1490 -30 c13 -28 6 -39 -14 -22 -12 10 -14 8 -9 -11 4 -17 -1 -13 -21 15
-14 21 -26 40 -26 42 0 2 13 3 30 2 20 -1 32 -10 40 -26z m357 -17 c42 -32 42
-42 -2 -41 -20 1 -35 6 -35 13 0 7 -15 25 -32 39 l-33 27 34 -6 c19 -3 49 -18
68 -32z m-460 6 c-2 -24 -21 -21 -25 3 -2 10 3 17 12 17 9 0 14 -8 13 -20z
m-2787 -20 c0 -11 -2 -20 -4 -20 -2 0 -6 9 -9 20 -3 11 -1 20 4 20 5 0 9 -9 9
-20z m3628 -27 c14 -6 16 -23 2 -23 -5 0 -10 5 -10 12 0 13 -14 2 -16 -13 -1
-5 -2 -14 -3 -19 -3 -29 -61 43 -61 77 0 2 17 -4 38 -13 20 -9 43 -18 50 -21z
m320 -1 c19 -24 16 -53 -5 -45 -27 10 -72 61 -59 67 17 7 50 -4 64 -22z
m-3188 -25 c-27 -15 -36 -14 -25 2 3 6 16 11 28 11 21 0 21 -1 -3 -13z m3643
-29 c2 -7 -3 -18 -12 -25 -14 -11 -13 -12 7 -13 14 0 21 -4 16 -11 -3 -6 -16
-8 -27 -5 -12 3 -28 0 -36 -6 -13 -10 -14 -10 -4 1 6 7 9 20 6 27 -3 8 1 14
11 14 9 0 16 7 16 15 0 18 17 20 23 3z m-1617 -44 c-3 -9 -9 -27 -12 -40 -3
-13 -11 -24 -16 -24 -6 0 -7 8 -3 18 4 9 10 27 12 40 3 12 10 22 15 22 6 0 7
-7 4 -16z m-1399 -28 c11 -10 -16 -12 -65 -3 -29 5 -50 12 -47 16 4 8 103 -4
112 -13z m50 -12 c-3 -3 -12 -4 -19 -1 -8 3 -5 6 6 6 11 1 17 -2 13 -5z m823
-91 c0 -18 -13 -53 -19 -53 -4 0 -12 14 -18 30 -11 28 -10 30 13 30 13 0 24
-3 24 -7z m120 -40 c0 -9 -5 -9 -22 0 -50 26 -53 30 -33 37 20 7 55 -16 55
-37z m35 38 c10 -17 -12 -21 -25 -6 -10 12 -10 15 3 15 9 0 18 -4 22 -9z
m-1797 -11 c13 0 17 -46 4 -54 -5 -3 -19 6 -30 19 -12 14 -27 25 -33 25 -5 0
-7 5 -3 11 3 6 16 8 28 5 11 -3 27 -6 34 -6z m2118 -32 c15 -29 12 -64 -5 -54
-4 3 -11 18 -14 33 -3 16 -9 37 -13 47 -12 30 13 10 32 -26z m678 7 c3 -13 9
-30 12 -39 3 -9 2 -16 -3 -16 -5 0 -15 17 -23 38 -8 20 -16 40 -18 45 -2 4 3
4 11 1 8 -3 18 -16 21 -29z m-148 -31 c14 -31 23 -59 20 -62 -3 -2 -10 8 -17
24 -11 28 -29 71 -37 87 -2 4 -1 7 3 7 3 0 17 -25 31 -56z m435 32 c5 3 17 0
25 -7 12 -10 12 -14 2 -20 -10 -7 -10 -12 -1 -28 10 -15 9 -20 -2 -25 -19 -7
-28 10 -21 39 5 19 3 23 -9 19 -8 -4 -15 -2 -15 4 0 6 -3 19 -6 29 -5 17 -5
17 6 0 6 -9 16 -15 21 -11z m-337 -11 c14 -11 27 -34 29 -52 5 -31 4 -31 -20
-20 -22 10 -23 12 -7 17 15 6 11 9 -19 19 -20 7 -35 16 -32 21 3 5 1 11 -5 15
-16 10 -11 21 10 21 11 0 31 -9 44 -21z m124 -5 c14 0 35 -37 30 -52 -9 -25
-37 -16 -43 13 -4 16 -11 31 -16 34 -5 4 -9 14 -9 23 1 16 2 16 14 0 7 -10 18
-18 24 -18z m322 -35 c0 -18 -4 -22 -19 -18 -21 5 -35 29 -25 44 3 5 0 9 -5 9
-6 0 -11 5 -11 11 0 5 5 7 10 4 6 -3 10 0 10 7 1 23 40 -33 40 -57z m-195 45
c3 -5 -1 -10 -10 -10 -9 0 -13 5 -10 10 3 6 8 10 10 10 2 0 7 -4 10 -10z m449
-28 c30 -44 32 -57 10 -66 -11 -4 -15 -2 -11 8 7 17 -16 40 -27 28 -5 -4 -6 2
-4 13 2 12 -2 19 -9 18 -16 -4 -17 9 -1 25 15 15 11 18 42 -26z m-1599 7 c4
-11 4 -23 1 -27 -8 -7 -36 30 -30 40 9 14 23 8 29 -13z m172 4 c4 -9 1 -19 -5
-21 -7 -2 -10 -8 -6 -13 3 -5 0 -9 -6 -9 -7 0 -9 7 -6 16 4 9 1 23 -5 30 -9
11 -8 14 5 14 9 0 20 -8 23 -17z m48 -13 c3 -5 1 -10 -4 -10 -6 0 -11 5 -11
10 0 6 2 10 4 10 3 0 8 -4 11 -10z m470 -10 c3 -5 1 -10 -4 -10 -6 0 -11 5
-11 10 0 6 2 10 4 10 3 0 8 -4 11 -10z m778 -1 c7 0 3 -4 -8 -9 -29 -13 -35
-12 -35 6 0 11 5 14 16 10 9 -3 21 -6 27 -7z m547 1 c0 -5 -2 -10 -4 -10 -3 0
-8 5 -11 10 -3 6 -1 10 4 10 6 0 11 -4 11 -10z m-25 -48 c-8 -8 -25 10 -19 20
4 6 9 5 15 -3 4 -7 6 -15 4 -17z m-3627 -1 c-4 -19 -22 -18 -26 2 -2 7 4 14
13 14 9 0 15 -7 13 -16z m2277 9 c3 -5 1 -10 -4 -10 -6 0 -11 5 -11 10 0 6 2
10 4 10 3 0 8 -4 11 -10z m-25 -10 c0 -5 -2 -10 -4 -10 -3 0 -8 5 -11 10 -3 6
-1 10 4 10 6 0 11 -4 11 -10z m1420 -30 c0 -5 -4 -10 -10 -10 -5 0 -10 5 -10
10 0 6 5 10 10 10 6 0 10 -4 10 -10z m-3685 -12 c-5 -13 46 -48 68 -48 10 0
24 -10 83 -58 5 -5 21 -15 35 -22 32 -17 82 -59 93 -78 7 -13 3 -14 -28 -9
-33 5 -36 4 -25 -9 10 -13 10 -20 0 -35 -11 -18 -10 -19 9 -9 14 7 20 7 20 0
0 -6 -11 -16 -25 -22 -26 -12 -34 -28 -13 -28 6 0 3 -7 -8 -15 -19 -14 -19
-15 4 -21 12 -3 22 -10 22 -15 0 -5 -7 -6 -16 -2 -10 4 -17 -2 -21 -17 -5 -19
-8 -20 -17 -9 -6 8 -24 19 -41 24 -16 6 -35 20 -41 33 -6 12 -14 19 -17 16 -3
-4 -27 12 -53 35 -57 50 -82 58 -122 37 -17 -9 -40 -16 -52 -16 -26 0 -36 -24
-22 -56 15 -31 2 -30 -22 2 -22 31 -17 98 15 186 24 66 34 76 114 117 68 36
66 35 60 19z m-533 -83 c58 -3 97 -11 128 -25 57 -27 88 -45 98 -55 4 -5 1 -5
-5 -1 -7 4 -13 2 -13 -3 0 -6 6 -11 13 -11 9 0 14 -12 15 -31 0 -17 5 -36 9
-42 16 -21 16 -77 0 -77 -22 0 -26 10 -17 35 6 17 5 27 -6 36 -12 10 -14 8
-12 -11 3 -20 -2 -23 -24 -23 -46 1 -48 2 -48 18 0 19 -16 20 -27 1 -13 -21
-35 -24 -78 -9 -59 20 -120 20 -143 0 -10 -9 -24 -17 -30 -17 -6 0 -23 -5 -37
-12 -30 -13 -33 -46 -9 -84 15 -21 15 -24 1 -18 -17 6 -47 73 -47 104 0 11 11
54 24 96 24 75 57 124 83 124 7 0 13 7 13 16 0 13 3 14 14 5 8 -7 52 -14 98
-16z m2093 -95 c4 -6 11 -8 16 -5 13 9 77 -16 83 -32 9 -22 -11 -23 -37 -2
-27 21 -51 23 -129 13 -61 -8 -65 11 -5 24 58 13 65 14 72 2z m-127 -22 c-5
-14 -86 -29 -102 -20 -6 3 8 11 30 18 53 16 77 17 72 2z m2335 6 c3 -3 0 -12
-6 -19 -13 -14 -41 0 -31 16 6 10 28 12 37 3z m-2047 -17 c6 0 11 -5 12 -11 1
-6 5 -26 8 -43 8 -39 -11 -45 -20 -7 -4 14 -19 37 -34 51 l-27 26 25 -8 c14
-5 30 -8 36 -8z m224 -29 c28 -30 30 -31 30 -10 0 12 6 22 13 22 23 0 37 -23
37 -59 0 -34 0 -35 -15 -14 -10 14 -22 19 -36 16 -14 -4 -30 4 -53 26 -29 28
-36 30 -59 22 -15 -6 -27 -16 -27 -23 0 -10 -2 -10 -9 1 -5 7 -13 11 -19 7 -5
-3 -12 5 -14 18 -5 22 -2 23 59 25 60 2 65 0 93 -31z m283 -2 c9 -7 17 -18 17
-25 0 -14 -37 -15 -46 0 -4 6 -19 8 -38 5 -61 -12 -116 -12 -116 2 0 6 -4 12
-10 12 -5 0 -10 5 -10 10 0 16 181 12 203 -4z m177 -2 c78 -4 97 -12 87 -38
-6 -16 -30 -16 -129 2 -33 6 -48 5 -48 -2 0 -6 -6 -2 -12 9 -6 11 -19 26 -27
33 -14 11 -11 12 19 6 19 -4 69 -8 110 -10z m-2116 -3 c4 -5 -3 -7 -14 -4 -23
6 -26 13 -6 13 8 0 17 -4 20 -9z m2242 -36 c9 -20 14 -39 10 -42 -3 -3 -6 1
-6 9 0 9 -7 21 -15 28 -8 7 -15 19 -15 26 0 23 8 16 26 -21z m-1811 15 c3 -5
1 -10 -4 -10 -6 0 -11 5 -11 10 0 6 2 10 4 10 3 0 8 -4 11 -10z m1865 -15 c0
-8 3 -20 6 -29 12 -31 -12 -15 -27 18 -14 31 -14 33 3 28 10 -2 18 -10 18 -17z
m171 9 c10 -9 19 -27 19 -38 0 -14 -3 -17 -8 -9 -11 17 -107 36 -143 29 -23
-4 -29 -2 -29 12 0 26 133 31 161 6z m-473 -30 c2 -28 2 -28 -13 -10 -18 24
-20 49 -2 44 6 -3 13 -18 15 -34z m538 -1 c-8 -8 -36 10 -36 25 0 13 3 12 20
-3 11 -10 18 -20 16 -22z m124 20 c0 -5 -18 -8 -40 -9 -22 0 -40 4 -40 8 0 4
18 8 40 8 22 0 40 -3 40 -7z m90 -3 c0 -5 -13 -10 -29 -10 -17 0 -33 5 -36 10
-4 6 8 10 29 10 20 0 36 -4 36 -10z m-1500 -22 c19 -6 52 -27 73 -47 l37 -36
-22 -45 c-16 -30 -30 -46 -45 -48 -13 -2 -23 1 -23 7 0 13 -42 14 -55 2 -12
-12 -235 -19 -235 -8 0 4 -9 3 -20 -3 -16 -9 -18 -8 -14 5 4 8 18 15 33 15 32
0 43 8 34 24 -4 5 -8 38 -10 72 l-3 62 48 10 c53 12 149 7 202 -10z m1327 6
c3 -8 1 -20 -6 -27 -8 -8 -11 -8 -11 0 0 6 -3 18 -6 27 -3 9 -1 16 5 16 7 0
14 -7 18 -16z m302 10 c45 -9 38 -23 -10 -20 -43 3 -81 26 -42 26 11 0 35 -3
52 -6z m-3221 -95 c16 -18 42 -58 57 -89 l27 -57 -30 -64 c-17 -35 -45 -79
-61 -97 -17 -18 -31 -36 -31 -38 0 -3 -6 -11 -12 -19 -7 -7 -26 -30 -43 -50
-43 -53 -162 -175 -170 -175 -4 0 -18 -11 -31 -25 l-23 -25 -15 28 c-16 30
-66 70 -66 52 0 -5 5 -10 10 -10 6 0 10 -9 10 -20 0 -24 -13 -26 -30 -5 -8 9
-10 27 -6 46 5 27 4 30 -12 24 -9 -4 -24 -8 -32 -10 -8 -1 -9 0 -2 2 20 7 14
25 -7 18 -16 -5 -19 0 -19 32 -1 21 -8 98 -17 172 -16 139 -13 216 10 225 19
7 82 -12 128 -37 26 -14 40 -30 44 -49 3 -18 16 -32 39 -43 27 -13 34 -22 34
-46 0 -16 -6 -32 -12 -34 -7 -3 -14 -22 -16 -42 -1 -21 -7 -42 -12 -47 -6 -6
-10 -15 -10 -20 1 -15 37 31 59 74 10 19 27 51 38 70 11 19 44 82 73 140 43
85 82 145 97 149 1 1 15 -13 31 -30z m342 21 c0 -5 -2 -10 -4 -10 -3 0 -8 5
-11 10 -3 6 -1 10 4 10 6 0 11 -4 11 -10z m1412 -174 c11 -16 10 -56 -2 -56
-5 0 -10 11 -10 25 0 21 -5 25 -30 25 -28 0 -38 9 -25 22 9 8 59 -4 67 -16z
m-432 0 c-19 -18 -112 -25 -117 -9 -5 13 22 20 87 22 38 1 42 -1 30 -13z m90
0 c0 5 7 0 15 -10 17 -22 21 -106 5 -106 -5 0 -13 12 -16 28 -4 15 -13 36 -20
47 -8 11 -14 28 -14 38 0 16 3 17 15 7 8 -7 15 -9 15 -4z m117 8 c-3 -3 -12
-4 -19 -1 -8 3 -5 6 6 6 11 1 17 -2 13 -5z m139 -3 c-3 -5 -15 -7 -26 -4 -28
7 -25 13 6 13 14 0 23 -4 20 -9z m124 -1 c0 -5 -2 -10 -4 -10 -3 0 -8 5 -11
10 -3 6 -1 10 4 10 6 0 11 -4 11 -10z m-605 -10 c-3 -5 -15 -10 -26 -10 -10 0
-19 5 -19 10 0 6 12 10 26 10 14 0 23 -4 19 -10z m301 -17 c-10 -10 -19 5 -10
18 6 11 8 11 12 0 2 -7 1 -15 -2 -18z m1944 -13 c0 -5 -2 -10 -4 -10 -3 0 -8
5 -11 10 -3 6 -1 10 4 10 6 0 11 -4 11 -10z m-1493 -6 c-3 -3 -12 -4 -19 -1
-8 3 -5 6 6 6 11 1 17 -2 13 -5z m793 -32 c0 -13 -3 -12 -15 4 -19 25 -19 40
0 24 8 -7 15 -20 15 -28z m277 -34 c-2 -13 -4 -5 -4 17 -1 22 1 32 4 23 2 -10
2 -28 0 -40z m-1237 16 c0 -8 -4 -12 -10 -9 -5 3 -10 13 -10 21 0 8 5 12 10 9
6 -3 10 -13 10 -21z m277 4 c-3 -8 -6 -5 -6 6 -1 11 2 17 5 13 3 -3 4 -12 1
-19z m-813 -4 c111 -7 126 -10 126 -30 0 -8 9 -14 19 -14 24 0 37 -18 23 -32
-6 -6 -7 -21 -1 -41 5 -19 5 -45 -1 -67 -5 -19 -10 -51 -10 -71 0 -20 -7 -55
-15 -78 -8 -23 -15 -45 -16 -49 -1 -4 -8 -16 -15 -27 -12 -16 -16 -17 -23 -6
-6 10 -35 14 -100 15 -66 1 -94 5 -100 15 -7 11 -10 11 -15 0 -5 -11 -7 -11
-12 -1 -3 6 -11 12 -17 12 -18 0 -47 32 -47 52 0 10 -7 18 -15 18 -9 0 -20 10
-25 23 -6 12 -19 36 -30 52 -31 47 -40 74 -43 127 -2 31 1 52 10 59 7 6 10 15
7 21 -3 5 -3 16 0 24 6 15 9 15 300 -2z m736 -10 c0 -2 -7 -4 -15 -4 -8 0 -15
4 -15 10 0 5 7 7 15 4 8 -4 15 -8 15 -10z m673 5 c-8 -8 -16 -8 -30 0 -16 9
-14 10 12 11 21 0 26 -3 18 -11z m527 7 c0 -3 -4 -8 -10 -11 -5 -3 -10 -1 -10
4 0 6 5 11 10 11 6 0 10 -2 10 -4z m-1403 -48 c-3 -8 -6 -5 -6 6 -1 11 2 17 5
13 3 -3 4 -12 1 -19z m1108 -18 c3 -5 1 -10 -4 -10 -6 0 -11 5 -11 10 0 6 2
10 4 10 3 0 8 -4 11 -10z m1038 -97 c-7 -2 -21 -2 -30 0 -10 3 -4 5 12 5 17 0
24 -2 18 -5z m-3610 -32 c18 -16 39 -42 47 -58 8 -15 21 -33 28 -38 13 -10 20
-32 21 -67 1 -10 9 -18 18 -18 15 0 15 -2 3 -14 -12 -12 -24 -13 -63 -4 -50
10 -97 5 -97 -12 0 -6 31 -10 70 -10 64 0 70 -2 70 -20 0 -20 -6 -20 -135 -19
-102 0 -135 4 -135 13 0 9 -10 12 -27 9 -26 -4 -26 -3 -10 10 9 8 17 24 17 36
0 18 6 21 40 21 46 0 48 5 21 75 l-19 50 36 37 c45 45 71 47 115 9z m638 -42
c16 -29 29 -57 29 -61 0 -7 -76 0 -100 9 -8 4 -18 7 -22 7 -18 3 -18 16 1 35
26 26 27 41 4 41 -12 1 -7 6 12 15 17 7 34 12 39 11 5 -1 22 -27 37 -57z
m3002 -26 c-7 -2 -19 -2 -25 0 -7 3 -2 5 12 5 14 0 19 -2 13 -5z m-4463 -27
c0 -2 -7 -7 -16 -10 -8 -3 -12 -2 -9 4 6 10 25 14 25 6z m-610 -21 c0 -8 -7
-15 -15 -15 -8 0 -15 7 -15 15 0 8 7 15 15 15 8 0 15 -7 15 -15z m2131 -26 c9
-17 8 -20 -3 -13 -7 5 -22 8 -33 7 -16 -1 -16 -1 -2 3 9 3 17 10 17 15 0 15 9
10 21 -12z m-1461 -19 c9 0 23 -6 29 -14 10 -12 8 -13 -10 -9 -17 5 -20 3 -14
-8 6 -11 5 -12 -6 -1 -7 6 -23 12 -36 12 -13 0 -23 3 -23 6 0 12 35 33 38 23
2 -5 12 -9 22 -9z m-90 0 c21 -7 19 -8 -17 -9 -33 -1 -46 -7 -63 -28 -14 -18
-19 -21 -16 -10 3 10 6 23 6 28 0 10 37 28 55 27 6 0 21 -4 35 -8z m4660 0 c0
-5 -6 -10 -14 -10 -8 0 -18 5 -21 10 -3 6 3 10 14 10 12 0 21 -4 21 -10z
m-4620 -45 c0 -8 -4 -15 -10 -15 -5 0 -7 7 -4 15 4 8 8 15 10 15 2 0 4 -7 4
-15z m550 -45 c-19 -12 -30 -12 -30 -1 0 10 31 20 40 14 2 -2 -2 -8 -10 -13z
m1041 6 c-7 -8 -20 -12 -30 -9 -10 2 -25 -3 -34 -11 -20 -20 -41 -20 -57 -1
-7 8 -20 15 -29 15 -14 0 -14 2 -1 10 8 5 48 10 89 10 62 0 72 -2 62 -14z
m326 -1 c107 -4 156 -12 148 -24 -2 -4 7 -29 20 -56 24 -46 25 -65 3 -65 -6 0
-8 9 -5 20 3 11 1 22 -4 25 -5 3 -16 21 -25 40 -15 33 -37 44 -69 35 -5 -2
-80 -3 -165 -2 -85 1 -163 2 -173 2 -31 0 -13 25 24 32 19 3 59 4 89 2 30 -3
101 -7 157 -9z m2281 -21 c12 -14 22 -33 21 -42 -1 -11 -5 -7 -12 10 -8 20
-20 28 -48 33 -21 4 -40 13 -43 22 -10 26 55 8 82 -23z m-4223 -4 c-10 -11
-20 -18 -23 -15 -3 3 3 14 13 25 10 11 20 18 23 15 3 -3 -3 -14 -13 -25z
m4096 20 c5 0 9 -4 9 -8 0 -4 -13 -8 -29 -7 -19 0 -27 4 -23 13 2 7 11 11 19
8 8 -3 19 -6 24 -6z m-1751 -10 c-118 -11 -192 -11 -185 0 4 6 57 9 133 8 119
-1 122 -2 52 -8z m1680 1 c0 -12 -28 -22 -34 -12 -3 5 -3 11 1 15 9 9 33 7 33
-3z m-715 -11 c-3 -5 -1 -10 4 -10 6 0 11 4 11 9 0 4 12 6 26 3 l26 -5 -31
-13 c-23 -10 -31 -19 -31 -39 0 -16 -4 -24 -11 -20 -6 4 -8 13 -5 21 3 8 1 14
-4 14 -6 0 -10 -15 -11 -32 l-1 -33 -9 29 c-5 20 -4 34 3 43 7 9 7 13 -1 13
-20 0 -11 19 12 23 12 2 23 5 25 6 2 0 0 -3 -3 -9z m160 0 c-3 -5 -16 -10 -28
-9 -20 1 -20 2 3 9 14 4 26 8 28 9 2 1 0 -3 -3 -9z m425 0 c0 -5 -7 -10 -16
-10 -8 0 -12 5 -9 10 3 6 10 10 16 10 5 0 9 -4 9 -10z m30 7 c0 -1 9 -26 19
-55 11 -29 15 -52 9 -52 -6 0 -7 -7 -4 -16 3 -8 2 -12 -4 -9 -6 3 -10 15 -10
26 0 10 -4 19 -10 19 -5 0 -10 5 -10 11 0 5 5 7 10 4 13 -8 2 44 -13 63 -6 8
-6 12 2 12 6 0 11 -1 11 -3z m-1330 -23 c0 -2 -7 -4 -15 -4 -8 0 -15 4 -15 10
0 5 7 7 15 4 8 -4 15 -8 15 -10z m138 9 c-10 -2 -26 -2 -35 0 -10 3 -2 5 17 5
19 0 27 -2 18 -5z m172 -8 c0 -8 4 -15 9 -15 14 0 20 -25 10 -41 -6 -11 -11
-11 -21 -1 -9 9 -8 12 8 13 17 0 17 1 -3 9 -23 9 -33 50 -13 50 6 0 10 -7 10
-15z m133 -2 c-3 -8 -15 -13 -27 -11 -30 4 -46 -9 -47 -40 -1 -21 -2 -23 -6
-7 -3 11 -10 26 -15 33 -8 8 -6 12 5 12 8 0 17 6 20 13 3 7 21 13 40 14 27 1
34 -2 30 -14z m163 6 c8 -6 14 -19 14 -28 -1 -14 -2 -14 -14 2 -10 13 -28 17
-80 17 -37 0 -65 3 -63 8 9 13 127 14 143 1z m-3898 -23 c3 -15 1 -16 -17 -6
-12 6 -19 16 -15 21 9 15 28 5 32 -15z m3098 12 c4 -7 3 -8 -5 -4 -6 4 -14 0
-17 -8 -5 -12 -21 -16 -62 -16 -30 0 -52 3 -48 7 4 4 23 6 42 4 39 -3 44 5 12
19 -19 7 -14 9 24 9 26 1 50 -4 54 -11z m1784 8 c0 -3 -4 -8 -10 -11 -5 -3
-10 -1 -10 4 0 6 5 11 10 11 6 0 10 -2 10 -4z m-1705 -24 c1 -4 7 -18 14 -31
7 -12 11 -31 8 -41 -2 -10 -1 -24 4 -31 4 -7 5 -17 2 -22 -3 -5 -12 5 -19 23
-8 18 -11 36 -8 41 3 5 0 9 -5 9 -6 0 -11 6 -11 14 0 7 -7 20 -16 27 -14 12
-14 14 3 20 18 6 28 3 28 -9z m320 8 c4 -6 -19 -10 -57 -11 -35 0 -75 -2 -90
-4 -15 -2 -30 0 -32 4 -3 4 13 8 36 9 23 1 43 3 44 5 8 8 94 5 99 -3z m41 -16
c-3 -7 -1 -16 4 -19 15 -9 12 -35 -3 -35 -8 0 -14 15 -16 41 -1 28 2 39 9 34
6 -4 9 -13 6 -21z m794 -5 c0 -6 -4 -7 -10 -4 -5 3 -10 11 -10 16 0 6 5 7 10
4 6 -3 10 -11 10 -16z m-1420 7 c0 -3 -4 -8 -10 -11 -5 -3 -10 -1 -10 4 0 6 5
11 10 11 6 0 10 -2 10 -4z m40 -6 c0 -5 -7 -7 -15 -4 -8 4 -15 8 -15 10 0 2 7
4 15 4 8 0 15 -4 15 -10z m1960 0 c0 -5 -2 -10 -4 -10 -3 0 -8 5 -11 10 -3 6
-1 10 4 10 6 0 11 -4 11 -10z m-4241 -48 c-5 -2 -18 2 -30 9 -22 11 -22 12 -4
25 16 12 20 11 30 -9 6 -12 8 -23 4 -25z m3501 28 c0 -12 -68 -33 -86 -26 -25
10 -10 31 27 36 37 6 59 2 59 -10z m-470 0 c0 -5 -2 -10 -4 -10 -3 0 -8 5 -11
10 -3 6 -1 10 4 10 6 0 11 -4 11 -10z m530 -5 c0 -9 -9 -15 -25 -15 -16 0 -25
6 -25 15 0 9 9 15 25 15 16 0 25 -6 25 -15z m-2290 -16 c0 -9 4 -8 15 1 8 7
15 8 15 3 0 -9 28 -8 178 1 30 1 47 -1 40 -5 -8 -5 6 -9 35 -9 26 0 47 4 47 8
0 18 235 -1 246 -19 5 -9 -13 -11 -96 -11 l-45 1 50 -10 c28 -5 66 -11 85 -13
19 -3 36 -9 38 -15 2 -6 12 -11 23 -11 11 0 30 -7 43 -16 14 -8 46 -15 75 -16
50 0 100 -24 74 -34 -10 -4 -9 -9 2 -21 17 -16 20 -43 5 -43 -5 0 -7 -6 -4
-14 3 -8 1 -17 -5 -20 -6 -4 -8 -13 -4 -21 3 -8 0 -15 -7 -15 -6 0 -8 -4 -5
-10 3 -5 10 -10 15 -10 10 0 40 96 38 120 -4 30 15 130 24 130 9 0 4 -122 -5
-138 -3 -4 -8 -28 -12 -52 -7 -50 -26 -100 -37 -100 -5 0 -8 -9 -8 -19 0 -14
-12 -23 -42 -33 -37 -12 -67 -13 -208 -2 -91 7 -280 18 -420 24 -273 11 -346
16 -385 26 -60 15 -2 22 167 19 l183 -3 -155 8 c-187 9 -181 8 -178 18 1 4 -4
18 -11 31 -7 13 -14 41 -15 62 0 22 -4 39 -8 39 -16 0 -75 160 -63 172 2 2 74
4 159 6 116 3 156 0 156 -9z m307 5 c-3 -3 -12 -4 -19 -1 -8 3 -5 6 6 6 11 1
17 -2 13 -5z m798 -4 c-3 -5 -13 -10 -21 -10 -8 0 -14 5 -14 10 0 6 9 10 21
10 11 0 17 -4 14 -10z m-2429 -26 c25 -37 3 -54 -25 -18 -11 15 -21 31 -21 35
0 19 30 8 46 -17z m-42 -30 c5 -14 4 -15 -9 -4 -17 14 -19 20 -6 20 5 0 12 -7
15 -16z m0 -54 c14 -24 15 -31 5 -23 -8 7 -31 13 -51 15 -22 1 -34 6 -31 13
26 45 49 44 77 -5z m3543 23 c3 -7 -3 -9 -16 -6 -12 3 -21 10 -21 15 0 13 32
6 37 -9z m-1430 1 c-3 -3 -12 -4 -19 -1 -8 3 -5 6 6 6 11 1 17 -2 13 -5z
m-2225 -26 c-7 -7 -12 -8 -12 -2 0 14 12 26 19 19 2 -3 -1 -11 -7 -17z m4875
-4 c-3 -3 -12 -4 -19 -1 -8 3 -5 6 6 6 11 1 17 -2 13 -5z m-4831 -36 l19 -21
-38 6 -38 6 21 -33 c18 -30 19 -66 1 -66 -7 1 -41 72 -41 88 0 10 38 42 51 42
3 0 14 -10 25 -22z m1153 -10 c16 -26 9 -31 -28 -23 -27 6 -40 23 -26 36 12
12 43 5 54 -13z m-1234 -74 c13 -14 29 -42 36 -62 7 -21 17 -40 23 -44 6 -4 7
-10 3 -14 -4 -4 -21 3 -39 16 -23 17 -30 19 -25 7 4 -10 -1 -18 -14 -22 -22
-7 -25 -21 -6 -28 7 -3 5 -6 -6 -6 -10 -1 -20 6 -23 14 -4 8 -13 15 -21 15
-10 0 -13 -6 -9 -17 6 -15 5 -15 -11 -2 -21 18 -69 23 -78 9 -4 -6 -1 -9 6 -8
16 4 22 -22 11 -40 -5 -7 -29 -19 -54 -27 -36 -10 -50 -11 -69 -1 -28 14 -33
52 -10 80 21 24 97 60 111 51 5 -3 10 -1 10 4 0 6 7 11 16 11 10 0 13 6 9 19
-4 14 1 20 19 25 14 3 30 15 36 26 15 28 56 25 85 -6z m4877 -6 c-7 -7 -12 -8
-12 -2 0 14 12 26 19 19 2 -3 -1 -11 -7 -17z m-3622 -8 c0 -5 -8 -10 -17 -10
-15 0 -16 2 -3 10 19 12 20 12 20 0z m-1745 -10 c3 -5 1 -10 -4 -10 -6 0 -11
5 -11 10 0 6 2 10 4 10 3 0 8 -4 11 -10z m1750 -20 c3 -5 -1 -10 -9 -10 -8 0
-18 5 -21 10 -3 6 1 10 9 10 8 0 18 -4 21 -10z m-1785 -15 c0 -8 -2 -15 -4
-15 -2 0 -6 7 -10 15 -3 8 -1 15 4 15 6 0 10 -7 10 -15z m22 -27 c-7 -7 -12
-8 -12 -2 0 6 3 14 7 17 3 4 9 5 12 2 2 -3 -1 -11 -7 -17z m8 -52 c0 -2 -8
-10 -17 -17 -16 -13 -17 -12 -4 4 13 16 21 21 21 13z m1643 -23 c-7 -2 -19 -2
-25 0 -7 3 -2 5 12 5 14 0 19 -2 13 -5z m547 -18 c91 -3 175 -8 188 -11 13 -2
64 -7 115 -10 152 -9 339 -57 345 -89 3 -15 -1 -17 -32 -11 -22 4 -36 3 -36
-3 0 -6 -7 -8 -15 -5 -9 4 -15 1 -15 -7 0 -10 -3 -10 -12 -1 -7 7 -23 12 -38
12 -37 1 -118 24 -132 38 -7 7 -17 12 -24 12 -7 0 -14 6 -17 13 -2 6 -7 9 -11
5 -4 -3 0 -20 9 -37 15 -30 5 -45 -12 -18 -4 8 -20 22 -35 32 -16 9 -28 23
-28 30 0 7 -7 15 -15 18 -16 7 -29 -8 -21 -21 8 -13 -92 -7 -139 7 -27 9 -56
10 -90 4 -72 -12 -105 -6 -105 19 0 20 -1 20 -26 3 -22 -14 -41 -16 -113 -11
-85 7 -231 33 -241 43 -3 3 72 3 165 -1 94 -3 244 -8 335 -11z m-1679 -22 c13
-16 12 -17 -3 -4 -17 13 -22 21 -14 21 2 0 10 -8 17 -17z m-292 -97 c-17 -18
-64 28 -67 65 l-4 33 40 -44 c25 -28 37 -49 31 -54z m2991 80 c0 -2 -7 -9 -15
-16 -12 -10 -15 -10 -15 4 0 9 7 16 15 16 8 0 15 -2 15 -4z m-1430 -20 c25 -3
59 -8 75 -10 17 -2 94 -7 173 -11 78 -4 142 -12 142 -17 0 -5 3 -7 8 -5 4 3
54 -2 112 -9 115 -15 195 -47 232 -93 19 -24 20 -24 14 -3 -9 26 2 29 20 5 18
-24 18 -53 0 -53 -8 0 -21 -9 -29 -20 -8 -11 -16 -17 -20 -14 -3 3 -3 -3 0
-15 4 -18 1 -21 -23 -22 -16 0 -23 -3 -16 -6 10 -4 10 -8 1 -19 -14 -18 3 -19
33 -3 24 13 39 2 17 -14 -8 -7 -18 -20 -22 -29 -7 -20 -52 -25 -62 -8 -5 8
-11 7 -21 -1 -10 -8 -36 -10 -82 -5 -37 3 -94 9 -127 12 -33 3 -114 11 -180
19 -66 8 -158 17 -205 20 -47 4 -102 13 -123 21 -27 10 -43 11 -57 4 -29 -16
-71 -12 -86 8 -18 23 -17 30 4 35 12 3 11 5 -6 6 -16 1 -22 6 -20 19 2 9 7 20
11 23 4 3 -2 17 -13 32 -18 22 -19 29 -8 47 10 16 24 20 68 21 30 1 44 4 30 6
-14 3 -31 10 -39 16 -12 10 -9 13 14 17 27 5 28 6 12 22 -9 9 -17 19 -17 21 0
2 23 5 52 6 28 0 53 3 56 6 3 3 13 3 21 1 9 -3 36 -8 61 -10z m1350 -6 c0 -5
-4 -10 -10 -10 -5 0 -10 5 -10 10 0 6 5 10 10 10 6 0 10 -4 10 -10z m-3140
-70 c0 -5 -4 -10 -9 -10 -5 0 -18 -3 -28 -7 -16 -6 -16 -5 -4 10 15 19 41 23
41 7z m2557 -37 c-8 -7 -37 9 -31 19 3 5 12 4 20 -3 8 -6 13 -14 11 -16z
m2903 23 c0 -2 -7 -6 -15 -10 -8 -3 -15 -1 -15 4 0 6 7 10 15 10 8 0 15 -2 15
-4z m-519 -143 c19 -60 21 -93 4 -87 -8 3 -14 9 -13 12 1 4 -5 21 -14 37 -8
17 -18 45 -21 63 -6 30 -5 32 12 22 11 -5 25 -27 32 -47z m-4022 21 c3 -16 1
-17 -13 -5 -19 16 -21 34 -3 29 6 -3 14 -13 16 -24z m3909 18 c25 -16 -33 -32
-157 -42 -69 -6 -127 -13 -130 -15 -2 -3 1 -5 8 -5 14 0 44 -67 36 -80 -10
-16 -25 -11 -19 5 4 8 1 15 -5 15 -6 0 -11 7 -11 15 0 7 -6 18 -14 22 -8 4
-15 17 -18 28 -3 19 7 22 142 41 80 12 147 22 150 23 3 0 11 -3 18 -7z m-4458
-29 c-1 -5 -7 -19 -15 -33 -10 -18 -10 -29 -3 -38 9 -10 1 -22 -33 -52 -24
-21 -47 -36 -51 -34 -5 3 -8 -1 -8 -10 0 -26 -34 -10 -42 20 -5 20 -4 31 6 36
8 4 26 28 40 53 15 24 34 49 44 54 20 12 62 14 62 4z m5160 -3 c0 -5 -9 -10
-21 -10 -11 0 -17 5 -14 10 3 6 13 10 21 10 8 0 14 -4 14 -10z m-2970 -20 c0
-11 -7 -20 -15 -20 -18 0 -19 12 -3 28 16 16 18 15 18 -8z m2308 -40 c0 -9 -3
-7 -8 5 -5 11 -8 29 -8 40 0 16 2 15 8 -5 4 -14 8 -32 8 -40z m-445 43 c-7 -2
-21 -2 -30 0 -10 3 -4 5 12 5 17 0 24 -2 18 -5z m-3463 -22 l45 -8 -37 -2
c-20 0 -41 -7 -45 -15 -4 -7 -26 -16 -48 -20 -132 -20 -125 -20 -125 0 0 23
36 57 50 49 6 -4 10 -3 10 2 0 9 86 6 150 -6z m3327 13 c-3 -3 -12 -4 -19 -1
-8 3 -5 6 6 6 11 1 17 -2 13 -5z m-67 -14 c20 -7 16 -8 -22 -9 -54 -1 -60 -14
-34 -67 17 -34 28 -124 16 -124 -4 0 -13 24 -20 53 -19 82 -20 86 -34 81 -8
-3 -16 4 -20 18 -11 42 -7 51 14 27 10 -13 19 -19 20 -12 0 6 -5 15 -12 19
-28 17 46 29 92 14z m-488 -32 c34 -27 58 -144 39 -191 -6 -16 -38 71 -68 186
-5 20 7 22 29 5z m-3537 -42 c-16 -24 -16 -26 -1 -20 20 8 21 -3 1 -22 -27
-28 10 -63 80 -75 l40 -6 -41 -2 c-28 -1 -50 6 -68 20 -54 43 -39 5 19 -47 51
-46 56 -54 40 -59 -11 -4 -28 -11 -37 -16 -17 -9 -23 -1 -19 23 0 4 -6 5 -14
2 -11 -5 -15 1 -15 24 0 57 -52 52 -68 -6 -10 -35 -10 -34 -8 20 3 61 31 125
74 170 31 33 40 30 17 -6z m3257 22 c3 -9 20 -9 73 0 38 6 72 7 75 3 3 -5 16
-11 30 -12 18 -3 31 -16 47 -49 24 -50 27 -60 15 -60 -5 0 -19 23 -31 50 l-23
50 -57 0 c-32 0 -60 -2 -63 -6 -3 -3 -56 -6 -117 -7 -83 -2 -111 -5 -111 -15
0 -7 9 -41 19 -75 28 -89 35 -127 22 -127 -6 0 -11 7 -11 16 0 18 -31 100 -64
167 -15 28 -20 50 -14 53 5 4 39 7 74 9 36 1 68 5 71 9 11 11 61 7 65 -6z
m-1884 -12 c8 11 175 2 412 -22 184 -19 229 -32 120 -35 -41 -1 -64 -3 -50 -6
78 -12 90 -15 87 -25 -1 -8 28 -10 96 -9 58 2 97 -1 97 -7 0 -5 11 -9 25 -8
14 0 25 4 25 7 0 12 42 18 74 12 31 -7 31 -7 6 -14 -19 -5 -14 -7 25 -9 l50
-2 -40 -8 c-67 -13 -108 -21 -150 -26 -67 -9 -66 -9 -46 -56 30 -68 36 -108
17 -108 -9 0 -16 6 -16 14 0 8 -5 27 -12 43 -6 15 -12 33 -12 38 -1 6 -9 25
-19 43 -10 19 -17 35 -15 37 2 2 19 8 38 13 l35 10 -42 1 c-51 1 -94 -31 -96
-72 -1 -17 -7 -26 -17 -24 -17 2 -38 -72 -39 -141 -1 -64 -21 -41 -21 25 0 53
-1 55 -23 49 -13 -3 -32 1 -45 10 -19 13 -22 13 -32 -6 -8 -16 -7 -22 9 -32
21 -13 17 -38 -6 -38 -9 0 -31 14 -51 31 -29 26 -41 30 -68 26 -19 -3 -36 -1
-39 4 -4 5 -13 9 -21 9 -8 0 -12 -4 -9 -10 3 -5 -1 -10 -9 -10 -10 0 -13 -6
-10 -15 5 -12 -2 -15 -30 -15 -20 0 -36 4 -36 9 0 8 -49 17 -125 23 -11 1 -28
-2 -37 -6 -15 -7 -18 -3 -18 20 l-1 29 -19 -35 c-11 -19 -20 -30 -20 -25 -1 6
-6 1 -11 -10 -7 -15 -8 -10 -5 20 l4 40 -13 -30 c-8 -16 -14 -42 -15 -57 0
-16 -3 -28 -8 -28 -4 0 -6 18 -4 40 l4 40 -55 0 c-31 0 -59 5 -62 11 -4 6 -13
8 -20 5 -7 -2 -16 2 -19 10 -7 18 -32 18 -40 -1 -6 -17 -36 -21 -36 -5 0 6 5
10 10 10 6 0 10 5 10 11 0 7 -11 9 -31 5 -21 -4 -35 -1 -46 9 -13 13 -13 20 3
63 10 26 23 52 29 58 5 7 18 21 27 33 15 17 30 21 85 23 l68 1 -55 7 -55 6 36
16 c32 15 118 33 194 41 17 1 36 -2 43 -7 9 -6 16 -6 20 0z m2889 -18 c-20
-13 -27 -9 -27 12 0 18 3 19 20 8 14 -9 16 -14 7 -20z m-1238 -68 c6 -26 7
-60 2 -76 l-8 -29 -7 40 c-4 21 -14 52 -22 67 -17 33 -19 62 -2 52 8 -5 9 -1
5 12 -7 18 -7 18 7 0 8 -10 19 -39 25 -66z m1284 60 c3 -11 1 -18 -4 -14 -5 3
-9 12 -9 20 0 20 7 17 13 -6z m137 10 c0 -5 6 -7 13 -4 8 3 13 -4 14 -18 2
-18 0 -20 -8 -8 -9 12 -10 10 -6 -7 3 -13 2 -25 -3 -28 -4 -3 -10 5 -13 18 -2
12 -8 30 -12 40 -4 10 -3 17 4 17 6 0 11 -4 11 -10z m-501 -45 l0 -20 -9 20
c-5 11 -9 27 -9 35 -1 13 0 13 9 0 5 -8 9 -24 9 -35z m451 14 c0 -11 -4 -17
-10 -14 -5 3 -10 13 -10 21 0 8 5 14 10 14 6 0 10 -9 10 -21z m-330 -15 c0 -8
-4 -14 -10 -14 -5 0 -10 -4 -10 -10 0 -5 7 -6 17 -3 10 4 14 2 10 -4 -4 -6
-15 -13 -26 -16 -15 -4 -22 2 -30 26 -15 42 -15 44 19 39 17 -2 30 -10 30 -18z
m1280 6 c0 -5 -5 -10 -11 -10 -5 0 -7 5 -4 10 3 6 8 10 11 10 2 0 4 -4 4 -10z
m-1913 -6 c-3 -3 -12 -4 -19 -1 -8 3 -5 6 6 6 11 1 17 -2 13 -5z m-249 -21
c-4 -22 -22 -20 -26 1 -2 10 3 16 13 16 10 0 15 -7 13 -17z m156 9 c2 -4 -12
-6 -32 -4 -62 6 -69 10 -20 11 26 0 49 -3 52 -7z m-832 -25 c12 -19 46 -142
51 -184 7 -59 -8 -63 -23 -5 -7 26 -16 52 -20 57 -4 6 -10 23 -14 39 -4 16
-16 48 -27 70 -10 22 -19 41 -19 44 0 7 45 -11 52 -21z m51 -14 c8 -21 18 -54
21 -73 6 -33 6 -34 -8 -16 -9 10 -13 22 -11 26 3 4 -4 26 -15 48 -23 46 -24
52 -11 52 5 0 16 -17 24 -37z m1564 -3 l26 -20 -37 0 c-39 0 -39 0 -30 24 8
20 11 20 41 -4z m-937 -10 c0 -5 -4 -10 -10 -10 -5 0 -10 5 -10 10 0 6 5 10
10 10 6 0 10 -4 10 -10z m150 1 c0 -5 -11 -8 -25 -8 -13 0 -22 3 -19 8 3 5 14
9 25 9 10 0 19 -4 19 -9z m177 -13 c-3 -8 -6 -5 -6 6 -1 11 2 17 5 13 3 -3 4
-12 1 -19z m-1057 -17 c6 -16 10 -38 8 -48 -2 -11 -9 -1 -19 30 -18 51 -9 65
11 18z m-2190 -5 c0 -3 -4 -8 -10 -11 -5 -3 -10 -1 -10 4 0 6 5 11 10 11 6 0
10 -2 10 -4z m2777 -18 c-3 -8 -6 -5 -6 6 -1 11 2 17 5 13 3 -3 4 -12 1 -19z
m307 14 c3 -5 -8 -6 -25 -4 -16 2 -29 6 -29 8 0 8 49 4 54 -4z m-3634 -6 c0
-3 -4 -8 -10 -11 -5 -3 -10 -1 -10 4 0 6 5 11 10 11 6 0 10 -2 10 -4z m526
-33 c-3 -4 -6 -1 -6 7 0 9 -3 10 -13 2 -7 -6 -24 -8 -36 -5 -22 6 -22 7 10 17
27 9 36 9 42 -2 5 -7 6 -16 3 -19z m2173 -54 c5 -16 7 -29 2 -29 -13 0 -52 60
-46 71 10 15 31 -6 44 -42z m802 28 c-13 -13 -26 -3 -16 12 3 6 11 8 17 5 6
-4 6 -10 -1 -17z m132 16 c-7 -2 -21 -2 -30 0 -10 3 -4 5 12 5 17 0 24 -2 18
-5z m-1117 -25 c4 -6 1 -16 -7 -22 -8 -6 -14 -17 -14 -25 0 -25 -21 -23 -35 3
-11 21 -11 28 0 41 15 18 46 20 56 3z m241 -10 c-3 -8 -6 -5 -6 6 -1 11 2 17
5 13 3 -3 4 -12 1 -19z m120 0 c-3 -8 -6 -5 -6 6 -1 11 2 17 5 13 3 -3 4 -12
1 -19z m-2386 -31 c-8 -8 -11 -7 -11 4 0 20 13 34 18 19 3 -7 -1 -17 -7 -23z
m-5 -95 c-11 -10 -14 3 -7 38 l6 35 3 -33 c2 -19 1 -36 -2 -40z m2225 41 c7
-21 6 -22 -11 -11 -26 17 -35 40 -14 36 9 -2 20 -13 25 -25z m-2736 3 c-10 -7
-16 -20 -13 -28 4 -8 -3 -20 -14 -27 -20 -13 -41 -6 -22 7 6 4 14 19 18 35 4
19 13 27 28 27 21 0 21 -1 3 -14z m5795 0 c0 -3 -4 -8 -10 -11 -5 -3 -10 -1
-10 4 0 6 5 11 10 11 6 0 10 -2 10 -4z m-3810 -37 c0 -5 -12 -8 -27 -8 -24 2
-25 2 -5 6 13 3 19 9 16 15 -4 7 -2 8 4 4 7 -4 12 -11 12 -17z m-1960 7 c0 -3
-4 -8 -10 -11 -5 -3 -10 -1 -10 4 0 6 5 11 10 11 6 0 10 -2 10 -4z m1590 -6
c0 -5 -2 -10 -4 -10 -3 0 -8 5 -11 10 -3 6 -1 10 4 10 6 0 11 -4 11 -10z
m-1717 -92 c6 -22 2 -36 -8 -26 -3 3 -7 15 -10 27 -5 28 11 27 18 -1z m82 12
c-3 -5 -11 -10 -16 -10 -6 0 -7 5 -4 10 3 6 11 10 16 10 6 0 7 -4 4 -10z m50
-30 c-3 -5 -10 -10 -16 -10 -5 0 -9 5 -9 10 0 6 7 10 16 10 8 0 12 -4 9 -10z
m5261 -2 c17 -8 36 -31 50 -62 25 -55 25 -60 0 -50 -11 4 -15 13 -11 22 3 9 3
13 -1 10 -4 -4 -19 9 -33 30 -50 69 -50 70 -5 50z m-66 -30 c0 -5 5 -6 11 -2
6 3 15 0 20 -7 10 -16 12 -35 2 -26 -3 4 -14 0 -24 -9 -15 -14 -18 -13 -32 6
-15 22 -96 43 -83 22 4 -7 2 -12 -3 -12 -6 0 -11 4 -11 9 0 5 -8 12 -17 14
-10 3 6 5 35 6 28 0 52 5 52 10 0 4 11 6 25 3 14 -2 25 -9 25 -14z m-5360 -12
c0 -7 10 -17 23 -21 61 -21 64 -23 40 -24 -13 -1 -23 -7 -24 -13 0 -8 -3 -7
-6 2 -8 21 -34 39 -55 40 -29 0 -20 30 9 30 7 0 13 -6 13 -14z m68 2 c7 -7 12
-17 12 -22 0 -8 -3 -7 -8 0 -4 6 -16 16 -27 22 -15 8 -16 11 -4 12 8 0 20 -5
27 -12z m5092 2 c-8 -5 -19 -10 -25 -10 -5 0 -3 5 5 10 8 5 20 10 25 10 6 0 3
-5 -5 -10z m-151 -55 c14 -30 18 -51 13 -61 -7 -13 -10 -13 -20 -1 -16 19 -44
99 -32 92 6 -3 10 -1 10 4 0 20 8 11 29 -34z m-59 -9 c0 -6 -7 -2 -15 8 -8 11
-15 25 -15 30 0 6 7 2 15 -8 8 -11 15 -25 15 -30z m227 38 c-3 -3 -12 -4 -19
-1 -8 3 -5 6 6 6 11 1 17 -2 13 -5z m-96 -62 c12 -30 9 -34 -13 -18 -9 7 -20
25 -24 42 -7 27 -6 28 10 14 10 -8 22 -25 27 -38z m-198 31 c-7 -2 -21 -2 -30
0 -10 3 -4 5 12 5 17 0 24 -2 18 -5z m-369 -22 c10 -11 18 -25 20 -33 1 -7 4
-18 8 -23 13 -22 20 -83 9 -89 -7 -4 -11 1 -11 13 0 11 -4 22 -9 25 -4 3 -11
27 -14 53 -3 29 -12 52 -23 60 -10 7 -13 13 -7 13 5 0 18 -9 27 -19z m316 15
c0 -2 -16 -6 -35 -8 -19 -2 -35 0 -35 4 0 4 16 8 35 8 19 0 35 -2 35 -4z
m-140 -16 c-14 -4 -36 -8 -50 -8 -23 -1 -23 0 -5 8 11 5 34 8 50 8 29 0 29 0
5 -8z m230 -10 c0 -5 -2 -10 -4 -10 -3 0 -8 5 -11 10 -3 6 -1 10 4 10 6 0 11
-4 11 -10z m-420 -21 c0 -6 -4 -7 -10 -4 -5 3 -10 11 -10 16 0 6 5 7 10 4 6
-3 10 -11 10 -16z m114 -19 c-6 -5 -24 21 -24 34 0 6 6 1 14 -10 8 -10 12 -21
10 -24z m-167 13 c3 -7 -3 -9 -16 -6 -12 3 -21 10 -21 15 0 13 32 6 37 -9z
m-428 -32 c11 -15 18 -31 14 -34 -3 -4 0 -13 7 -22 7 -8 8 -15 3 -15 -12 0
-63 74 -63 90 0 19 19 10 39 -19z m114 -3 c29 -69 44 -128 35 -134 -14 -9 -19
1 -25 43 -3 21 -14 55 -24 75 -22 42 -23 48 -9 48 5 0 15 -15 23 -32z m-3578
13 c-16 -15 -48 -17 -52 -3 -3 8 6 12 28 12 20 0 29 -4 24 -9z m3635 5 c0 -3
-4 -8 -10 -11 -5 -3 -10 -1 -10 4 0 6 5 11 10 11 6 0 10 -2 10 -4z m147 -2
c-3 -3 -12 -4 -19 -1 -8 3 -5 6 6 6 11 1 17 -2 13 -5z m595 -16 c-6 -6 -15 -8
-19 -4 -4 4 -1 11 7 16 8 5 17 7 19 4 3 -2 -1 -10 -7 -16z m-4214 -9 c39 -7
72 -16 72 -21 0 -10 -6 -10 -93 2 -105 15 -119 19 -111 31 3 6 18 9 33 6 14
-3 59 -11 99 -18z m3907 11 c10 -16 15 -52 9 -62 -8 -12 -30 13 -38 45 -5 20
-3 27 8 27 8 0 18 -4 21 -10z m-657 -22 c8 -10 -4 -13 -54 -14 -94 -2 -80 19
17 25 15 0 31 -5 37 -11z m-3103 -8 c8 -13 -17 -51 -31 -46 -7 3 -10 -6 -8
-20 1 -13 -2 -24 -8 -24 -6 0 -8 6 -5 14 3 7 1 18 -4 23 -6 6 -2 19 11 36 23
28 35 33 45 17z m2890 0 c-3 -5 -12 -10 -20 -10 -8 0 -17 5 -20 10 -4 6 5 10
20 10 15 0 24 -4 20 -10z m80 0 c-3 -5 -16 -10 -28 -9 -20 1 -20 2 3 9 14 4
26 8 28 9 2 1 0 -3 -3 -9z m-2775 -18 l55 -7 -3 -34 c-2 -19 -8 -45 -13 -58
-9 -25 -29 -31 -29 -9 0 12 -4 12 -30 0 -16 -9 -34 -13 -39 -10 -5 4 -12 0
-14 -6 -4 -9 -6 -7 -6 3 -1 22 -26 42 -55 45 -18 2 -23 -2 -19 -15 5 -20 -42
-57 -52 -41 -3 6 0 10 7 11 10 0 10 2 1 6 -20 7 -15 64 8 102 23 37 9 36 189
13z m2617 -19 c15 -37 42 -138 42 -158 0 -24 -28 45 -40 98 -7 32 -16 60 -21
63 -9 6 -11 34 -2 34 3 0 12 -17 21 -37z m583 28 c0 -5 15 -16 33 -25 23 -11
27 -16 12 -15 -11 0 -30 8 -42 18 -25 21 -29 31 -13 31 6 0 10 -4 10 -9z
m-147 -31 c3 -11 2 -20 -3 -20 -4 0 -10 9 -13 20 -3 11 -2 20 3 20 4 0 10 -9
13 -20z m-2735 -2 c44 -3 48 -7 33 -36 -5 -9 -15 -30 -23 -47 -12 -27 -36 -39
-48 -24 -3 4 -16 10 -29 14 -19 6 -23 4 -18 -9 10 -26 -13 -30 -44 -7 -28 21
-56 20 -43 -1 4 -6 -1 -8 -15 -3 -12 4 -21 2 -21 -4 0 -6 -7 -11 -15 -11 -8 0
-15 7 -15 15 0 8 5 15 10 15 6 0 10 10 9 23 0 14 -3 17 -6 7 -3 -8 -14 -23
-25 -34 -13 -14 -18 -16 -18 -5 0 13 15 75 25 107 4 10 27 12 102 7 54 -3 117
-6 141 -7z m4479 6 c-3 -3 -12 -4 -19 -1 -8 3 -5 6 6 6 11 1 17 -2 13 -5z
m-4224 -19 c26 -3 47 -10 47 -15 0 -6 11 -5 26 0 14 6 29 8 34 5 8 -5 -30
-125 -40 -125 -3 0 -4 19 -3 43 l3 42 -22 -42 c-21 -40 -25 -43 -64 -43 -48 0
-76 -8 -69 -20 3 -4 -6 -7 -20 -6 -21 1 -23 3 -10 12 21 16 19 24 -7 24 -40 0
-51 14 -44 54 4 22 3 36 -3 36 -6 0 -13 -16 -17 -35 -8 -44 -24 -56 -24 -17 0
49 20 94 40 89 9 -2 35 -1 56 3 21 4 46 6 54 5 8 -2 36 -6 63 -10z m2765 8
c-10 -2 -28 -2 -40 0 -13 2 -5 4 17 4 22 1 32 -1 23 -4z m-488 -29 c14 -7 34
-16 45 -20 19 -7 19 -8 -4 -12 -13 -2 -28 1 -34 7 -17 17 -27 13 -28 -11 l-2
-23 -4 23 c-3 13 -12 22 -22 22 -9 0 -26 6 -36 14 -11 8 -25 12 -32 9 -7 -3
-13 0 -13 5 0 14 96 4 130 -14z m-320 -28 c0 -6 -7 -2 -15 8 -8 11 -15 25 -15
30 0 6 7 2 15 -8 8 -11 15 -25 15 -30z m488 20 c3 -13 0 -16 -10 -10 -7 5 -17
9 -22 9 -5 0 -11 5 -13 11 -2 6 6 11 19 10 14 -1 24 -8 26 -20z m-3332 -11 c8
-7 14 -44 15 -91 1 -44 6 -82 12 -85 18 -12 -4 -29 -36 -29 -36 0 -183 25
-209 35 -26 10 -22 25 7 25 24 0 25 2 25 75 0 74 0 75 26 75 14 0 23 4 20 8
-8 13 127 0 140 -13z m1247 3 c26 -5 57 -8 67 -5 24 6 25 -2 5 -29 -8 -10 -15
-29 -15 -41 0 -19 -6 -23 -30 -23 -16 0 -30 -4 -30 -8 0 -5 -7 -9 -15 -9 -8 0
-12 4 -9 9 5 7 -93 2 -122 -7 -9 -3 -92 13 -101 20 -7 4 21 83 35 98 14 16 27
17 92 12 41 -3 97 -11 123 -17z m1749 -23 c-6 -32 -9 -29 -17 14 -5 29 -4 32
8 23 8 -7 12 -23 9 -37z m-4015 29 c-3 -3 -12 -4 -19 -1 -8 3 -5 6 6 6 11 1
17 -2 13 -5z m3472 -28 c-3 -3 -11 5 -18 17 -13 21 -12 21 5 5 10 -10 16 -20
13 -22z m-280 -30 c0 -15 -2 -17 -6 -6 -4 8 -12 21 -20 28 -21 21 -15 37 7 17
11 -10 20 -28 19 -39z m-3229 34 c0 -5 -4 -10 -9 -10 -6 0 -13 5 -16 10 -3 6
1 10 9 10 9 0 16 -4 16 -10z m2496 -16 c-3 -8 0 -11 9 -8 26 10 156 -17 162
-33 5 -14 8 -13 20 3 12 17 13 17 13 -4 0 -13 -6 -22 -15 -22 -8 0 -15 -4 -15
-10 0 -16 -28 -11 -38 6 -7 12 -11 13 -16 5 -4 -7 -2 -18 4 -26 9 -11 9 -15 1
-15 -6 0 -11 5 -11 11 0 6 -12 10 -27 9 -16 -1 -30 -1 -33 0 -30 11 -51 7 -62
-10 -17 -27 -35 -25 -42 5 -4 14 -11 25 -17 25 -7 0 -9 -10 -5 -25 4 -14 2
-25 -3 -25 -5 0 -12 14 -16 30 -4 17 -11 28 -16 25 -5 -4 -7 0 -5 7 3 7 7 26
10 41 5 22 11 27 25 22 11 -3 22 -2 25 3 9 15 58 1 52 -14z m902 8 c6 -18 -15
-14 -22 4 -4 10 -1 14 6 12 6 -2 14 -10 16 -16z m481 -22 c0 -10 -3 -8 -9 5
-12 27 -12 43 0 25 5 -8 9 -22 9 -30z m291 8 c0 -15 -3 -17 -19 -9 -30 17 -34
39 -5 33 15 -3 24 -11 24 -24z m-260 -3 c0 -8 -2 -15 -4 -15 -2 0 -6 7 -10 15
-3 8 -1 15 4 15 6 0 10 -7 10 -15z m2300 -15 c0 -5 -5 -10 -11 -10 -5 0 -7 5
-4 10 3 6 8 10 11 10 2 0 4 -4 4 -10z m-2792 -25 c14 -31 15 -55 3 -55 -9 0
-12 8 -27 63 -8 26 11 20 24 -8z m302 15 c0 -5 -4 -10 -10 -10 -5 0 -10 5 -10
10 0 6 5 10 10 10 6 0 10 -4 10 -10z m-970 -17 c-1 -21 -27 -82 -33 -76 -9 8
-9 68 0 76 9 9 33 9 33 0z m494 -19 c10 -38 0 -41 -12 -5 -6 17 -7 31 -3 31 5
0 12 -12 15 -26z m-2507 0 c-3 -3 -12 -4 -19 -1 -8 3 -5 6 6 6 11 1 17 -2 13
-5z m-842 -14 c-3 -5 -13 -10 -21 -10 -8 0 -14 5 -14 10 0 6 9 10 21 10 11 0
17 -4 14 -10z m805 0 c23 -7 23 -8 -13 -15 -22 -4 -36 -12 -34 -19 2 -6 1 -20
-3 -31 -7 -18 -9 -18 -19 8 -10 26 -31 30 -31 6 0 -6 5 -7 11 -3 8 4 7 0 -1
-15 -6 -12 -16 -19 -22 -15 -7 5 -7 8 0 13 7 4 7 12 3 20 -5 7 -14 10 -20 7
-6 -4 -9 -11 -6 -15 7 -12 -59 -8 -67 4 -5 6 -8 5 -8 -2 0 -7 -7 -13 -15 -13
-8 0 -24 -6 -35 -12 -16 -10 -22 -10 -28 -1 -5 8 -13 9 -22 3 -11 -7 -12 -12
-3 -21 20 -20 4 -36 -33 -32 -19 2 -34 -1 -34 -7 0 -6 -10 -8 -25 -4 -15 4
-32 1 -40 -6 -11 -9 -19 -9 -28 -2 -9 8 -20 7 -40 -3 -35 -18 -142 -33 -191
-27 -27 3 -37 1 -32 -7 4 -6 4 -12 -1 -12 -17 -3 -60 -8 -118 -13 -42 -4 -51
-3 -30 3 l30 9 -27 1 c-15 0 -31 -5 -35 -13 -4 -7 -26 -16 -48 -19 -22 -3 -87
-15 -145 -26 -97 -18 -106 -18 -123 -3 -16 14 -23 14 -60 3 -53 -17 -123 -17
-143 0 -8 7 -32 12 -52 11 -41 -2 -116 21 -105 31 10 11 61 8 68 -3 8 -13 56
-13 75 1 12 8 11 9 -5 5 -11 -3 -26 -2 -34 3 -9 6 12 11 58 16 39 4 73 11 76
15 7 12 166 26 373 34 30 1 47 16 20 16 -7 0 -5 5 5 11 13 7 22 7 31 0 7 -6
16 -7 20 -3 8 7 13 8 119 12 37 2 70 6 72 10 3 4 33 8 67 9 35 1 81 3 102 4
25 1 41 -3 44 -12 3 -10 -3 -12 -27 -6 -24 5 -30 4 -26 -7 6 -15 71 -18 93 -5
6 5 17 5 22 2 6 -3 10 1 10 10 0 13 -6 16 -27 11 -16 -3 -22 -3 -15 0 6 3 10
10 6 15 -3 5 4 9 16 9 12 0 31 5 42 11 18 10 24 8 40 -12 l19 -24 -6 25 c-4
18 -3 21 3 11 6 -8 17 -11 28 -7 16 6 16 9 4 17 -13 10 -13 10 0 6 8 -3 24 -9
34 -13 14 -5 17 -4 12 5 -6 9 0 12 20 9 20 -2 35 4 46 17 10 12 17 15 18 8 0
-7 -6 -13 -12 -13 -9 0 -8 -4 2 -10 24 -16 42 -12 36 8 -5 13 0 18 17 18 12 0
25 -5 29 -10 5 -7 8 -7 8 2 0 8 8 10 24 6 16 -4 25 -1 29 10 7 17 18 18 57 6z
m3065 0 c3 -5 -1 -10 -9 -10 -9 0 -16 5 -16 10 0 6 4 10 9 10 6 0 13 -4 16
-10z m-2485 -10 c0 -5 -2 -10 -4 -10 -3 0 -8 5 -11 10 -3 6 -1 10 4 10 6 0 11
-4 11 -10z m2270 -18 c0 -15 -2 -15 -10 -2 -13 20 -13 33 0 25 6 -3 10 -14 10
-23z m62 -17 c3 -14 1 -25 -3 -25 -5 0 -9 11 -9 25 0 14 2 25 4 25 2 0 6 -11
8 -25z m-512 -55 c-8 -6 -24 -9 -35 -9 l-20 1 20 5 c11 3 24 9 29 14 5 5 12 6
15 3 3 -3 -1 -9 -9 -14z m-2323 -6 c-3 -3 -12 -4 -19 -1 -8 3 -5 6 6 6 11 1
17 -2 13 -5z m-40 -10 c-3 -3 -12 -4 -19 -1 -8 3 -5 6 6 6 11 1 17 -2 13 -5z
m-220 -10 c-3 -3 -12 -4 -19 -1 -8 3 -5 6 6 6 11 1 17 -2 13 -5z m133 -6 c-14
-6 -56 -16 -93 -22 -55 -10 -70 -10 -79 1 -8 10 2 13 53 14 35 1 75 5 89 9 37
12 59 10 30 -2z m302 -13 c26 -7 60 -12 75 -9 31 6 164 -25 175 -41 4 -5 54
-12 110 -14 108 -4 168 -7 283 -15 179 -13 224 -18 295 -31 41 -7 102 -16 135
-19 115 -10 330 -37 345 -43 8 -3 24 -7 35 -8 11 -1 56 -10 100 -20 44 -10 94
-19 112 -19 18 0 30 -3 28 -7 -3 -4 4 -9 14 -12 14 -3 18 -1 14 9 -4 10 6 13
39 11 24 -2 49 -6 55 -10 6 -4 34 -7 60 -6 50 2 123 -16 123 -31 0 -4 -10 -10
-23 -12 -48 -9 -308 2 -401 17 -53 8 -115 14 -138 14 l-43 -2 45 -8 c74 -13
292 -39 340 -40 41 -1 38 -2 -35 -18 -45 -10 -87 -21 -94 -26 -13 -7 -33 -10
-141 -19 -19 -2 -40 1 -46 6 -7 5 -61 11 -120 14 -60 4 -111 9 -114 13 -6 9
-260 35 -267 27 -2 -2 26 -7 64 -11 37 -3 88 -11 113 -16 118 -26 146 -30 191
-26 32 4 47 2 43 -5 -4 -6 1 -8 15 -3 11 3 21 2 21 -3 0 -5 20 -12 45 -16 63
-8 84 -21 78 -46 -6 -21 -23 -26 -38 -11 -6 5 -50 14 -99 20 -49 6 -95 16
-102 22 -8 6 -25 9 -38 5 -15 -4 -28 0 -36 10 -7 8 -19 13 -26 10 -7 -3 -16
-1 -19 4 -4 6 -35 10 -70 10 -35 0 -66 4 -70 9 -3 6 -27 10 -53 10 -26 -1 -60
4 -76 10 -16 7 -36 9 -45 6 -9 -3 -43 2 -74 10 -32 8 -79 15 -105 15 -26 0
-85 9 -132 20 -47 11 -102 20 -122 20 -21 0 -38 4 -38 10 0 5 -21 9 -47 8 -47
-1 -106 9 -323 52 -58 12 -125 22 -150 23 -25 1 -50 6 -57 10 -7 4 -28 7 -47
5 -38 -2 -55 7 -40 21 5 5 35 5 68 1 37 -6 67 -5 78 1 10 5 22 8 26 5 10 -6
228 13 268 23 18 5 69 3 125 -5 52 -7 123 -16 159 -18 l65 -5 -55 14 c-77 20
-251 54 -335 66 -38 6 -93 17 -121 25 -28 8 -73 14 -100 15 -37 0 -44 3 -29 9
30 13 75 11 127 -5z m2168 5 c0 -5 -7 -10 -16 -10 -8 0 -12 5 -9 10 3 6 10 10
16 10 5 0 9 -4 9 -10z m-204 -15 c-21 -16 -32 -13 -21 4 3 6 14 11 23 11 15
-1 15 -2 -2 -15z m44 5 c0 -5 -2 -10 -4 -10 -3 0 -8 5 -11 10 -3 6 -1 10 4 10
6 0 11 -4 11 -10z m2750 6 c0 -2 -8 -10 -17 -17 -16 -13 -17 -12 -4 4 13 16
21 21 21 13z m-5246 -13 c4 -5 -52 -16 -126 -25 l-133 -17 110 5 c61 3 122 7
137 10 14 3 29 0 33 -6 4 -7 11 -8 18 -1 12 9 39 14 70 12 32 -2 10 -16 -25
-16 -18 1 -36 -3 -39 -8 -3 -4 -18 -3 -33 3 -24 9 -27 8 -22 -5 4 -12 -1 -14
-32 -10 -20 3 -67 2 -104 -3 -37 -4 -65 -5 -62 0 3 4 -2 5 -10 2 -9 -3 -13
-10 -10 -15 3 -5 -2 -9 -10 -9 -9 0 -16 5 -16 10 0 6 -8 10 -17 10 -14 0 -15
-2 -5 -9 10 -6 3 -10 -22 -15 -20 -4 -41 -4 -46 -1 -6 3 -10 2 -10 -2 0 -9
-134 -32 -199 -36 -19 -1 -36 4 -38 10 -2 6 32 17 89 26 122 21 141 23 156 13
14 -9 30 0 19 11 -19 18 -230 -11 -332 -45 -16 -6 -47 -13 -69 -17 -21 -3 -36
-8 -33 -11 2 -3 37 1 77 7 67 11 74 11 86 -6 19 -26 18 -40 -2 -21 -18 19 -19
19 -64 5 -39 -12 -170 -18 -170 -7 0 3 6 9 13 11 7 3 6 6 -5 6 -22 1 -33 -18
-19 -32 20 -20 12 -27 -29 -27 -30 0 -42 5 -52 23 -15 28 -19 47 -8 47 5 0 17
3 27 6 15 5 15 4 3 -5 -13 -9 -12 -11 6 -11 11 0 25 5 31 11 5 5 24 12 40 14
16 2 57 10 89 19 32 8 82 18 109 21 28 4 57 9 65 12 8 3 40 7 70 10 30 2 78 8
105 13 39 6 54 5 66 -6 12 -11 22 -12 40 -4 24 10 24 10 -3 5 -15 -3 -29 -1
-32 4 -3 5 47 16 112 25 64 10 124 19 132 20 30 7 67 6 74 -1z m226 -13 c-8
-5 -33 -9 -55 -8 l-40 1 40 7 c65 12 73 12 55 0z m2450 0 c0 -5 -9 -10 -21
-10 -11 0 -17 5 -14 10 3 6 13 10 21 10 8 0 14 -4 14 -10z m2500 -21 c0 -7 8
-18 18 -25 16 -12 15 -13 -6 -9 l-23 4 21 -26 c11 -14 20 -35 19 -47 0 -16 -2
-17 -7 -6 -4 8 -20 34 -36 58 -25 36 -27 45 -15 53 19 12 29 11 29 -2z m113
-41 c16 -17 16 -18 -1 -18 -10 0 -29 11 -42 26 -21 21 -22 27 -10 34 11 7 18
5 25 -7 6 -9 18 -25 28 -35z m-5223 -9 c0 -6 -4 -7 -10 -4 -5 3 -10 11 -10 16
0 6 5 7 10 4 6 -3 10 -11 10 -16z m4957 -6 c-8 -7 -37 9 -31 19 3 5 12 4 20
-3 8 -6 13 -14 11 -16z m-5111 1 c18 -14 18 -14 -6 -3 -31 14 -36 19 -24 19 6
0 19 -7 30 -16z m101 -6 c-3 -8 -6 -5 -6 6 -1 11 2 17 5 13 3 -3 4 -12 1 -19z
m4913 2 c0 -5 -17 -9 -37 -9 -38 1 -38 1 -8 9 43 11 45 11 45 0z m210 6 c0 -3
-4 -8 -10 -11 -5 -3 -10 -1 -10 4 0 6 5 11 10 11 6 0 10 -2 10 -4z m-42 -38
c20 -32 40 -108 28 -108 -3 0 -10 19 -16 41 -6 23 -22 51 -36 64 -27 25 -30
35 -10 35 8 0 23 -15 34 -32z m-322 -17 c24 4 26 -3 4 -15 -23 -13 -26 -12
-42 12 -25 38 -22 49 6 23 13 -12 27 -21 32 -20z m61 33 c-3 -3 -12 -4 -19 -1
-8 3 -5 6 6 6 11 1 17 -2 13 -5z m467 0 c8 -3 13 -11 10 -19 -3 -7 2 -20 12
-29 19 -19 14 -29 -10 -20 -9 3 -16 14 -16 24 0 11 -4 22 -10 25 -10 6 -14 25
-6 25 2 0 11 -3 20 -6z m539 -14 c3 -11 2 -20 -3 -20 -12 0 -31 26 -23 33 11
12 21 7 26 -13z m-6206 4 c-3 -3 -12 -4 -19 -1 -8 3 -5 6 6 6 11 1 17 -2 13
-5z m5043 -14 c-19 -13 -30 -13 -30 0 0 6 10 10 23 10 18 0 19 -2 7 -10z
m-5143 -6 c-3 -3 -12 -4 -19 -1 -8 3 -5 6 6 6 11 1 17 -2 13 -5z m5029 -29 c9
-8 11 -15 6 -15 -5 0 -15 7 -22 15 -7 8 -9 15 -6 15 4 0 14 -7 22 -15z m-5690
-17 c53 -17 70 -19 85 -10 17 11 19 9 19 -13 0 -16 -6 -25 -15 -25 -14 0 -14
-3 0 -31 13 -23 20 -29 37 -23 13 4 24 1 29 -7 8 -12 11 -12 18 0 8 12 12 13
26 1 12 -10 15 -28 14 -75 -1 -34 2 -68 6 -75 6 -10 4 -12 -9 -7 -11 4 -15 3
-11 -4 4 -6 -4 -13 -16 -17 -23 -6 -23 -6 5 -12 28 -5 28 -6 13 -22 -9 -9 -39
-21 -67 -27 -74 -16 -280 -33 -315 -27 l-30 6 23 -16 c13 -9 29 -13 37 -11 7
3 16 -1 20 -10 12 -34 -13 -35 -97 -5 -45 17 -101 36 -123 42 -22 7 -56 19
-75 27 -19 8 -55 21 -80 30 -47 16 -70 30 -70 44 0 4 8 8 18 8 9 0 35 4 57 10
56 14 122 23 180 26 28 1 66 6 85 10 19 5 44 10 55 11 28 4 118 -17 130 -31 6
-6 21 -11 35 -12 14 0 49 -10 79 -20 50 -18 101 -20 101 -4 0 3 -32 21 -70 39
-39 18 -70 36 -70 41 0 9 -37 19 -107 28 -24 3 -43 10 -43 16 0 8 -3 8 -11 0
-13 -13 -51 -5 -46 11 2 6 12 11 23 11 10 0 24 6 30 14 9 12 11 66 3 107 -5
32 36 32 127 2z m5859 -26 c-2 -3 -7 3 -11 12 -3 9 -14 16 -23 17 -12 0 -11 2
4 8 15 6 22 3 28 -12 4 -11 5 -22 2 -25z m-355 4 c-33 -17 -46 -19 -48 -10 -2
7 -10 10 -20 7 -9 -3 -14 -3 -10 2 8 8 67 22 103 24 12 0 2 -9 -25 -23z m405
14 c3 -5 1 -10 -4 -10 -6 0 -11 5 -11 10 0 6 2 10 4 10 3 0 8 -4 11 -10z
m-597 -25 c19 -42 13 -52 -13 -22 -28 31 -32 47 -12 47 8 0 19 -11 25 -25z
m-4987 -2 c13 -16 12 -17 -3 -4 -17 13 -22 21 -14 21 2 0 10 -8 17 -17z m5079
-39 c0 -8 -3 -14 -7 -14 -9 0 -33 49 -33 64 1 16 40 -34 40 -50z m680 48 c0
-4 -9 -15 -20 -25 -19 -16 -20 -16 -20 2 0 17 11 28 33 30 4 1 7 -2 7 -7z
m-5784 -14 c5 -8 2 -9 -9 -5 -19 7 -21 -1 -8 -22 7 -10 4 -19 -7 -28 -16 -12
-16 -12 0 -13 11 0 15 -5 12 -15 -4 -9 0 -15 9 -15 9 0 15 -10 15 -26 l0 -25
-22 20 c-23 22 -46 28 -46 12 0 -5 10 -11 22 -13 12 -2 23 -9 26 -17 3 -8 -1
-12 -9 -9 -8 3 -22 -1 -31 -10 -17 -14 -18 -13 -19 9 -1 13 0 34 0 46 1 11 -3
24 -8 28 -6 3 -11 11 -11 17 0 7 9 2 21 -11 26 -27 37 -20 17 11 -18 28 -30
70 -17 62 5 -3 9 -12 9 -20 0 -8 4 -14 9 -14 4 0 6 11 3 25 -3 20 0 25 16 25
12 0 24 -5 28 -12z m6639 3 c3 -5 1 -12 -5 -16 -5 -3 -10 1 -10 9 0 18 6 21
15 7z m-6615 -41 c0 -5 -4 -10 -10 -10 -5 0 -10 5 -10 10 0 6 5 10 10 10 6 0
10 -4 10 -10z m4427 -42 c-3 -8 -6 -5 -6 6 -1 11 2 17 5 13 3 -3 4 -12 1 -19z
m-1274 5 c-7 -2 -19 -2 -25 0 -7 3 -2 5 12 5 14 0 19 -2 13 -5z m417 -4 c8 -4
27 -10 41 -13 29 -6 45 -40 25 -53 -20 -14 -71 -9 -72 7 -1 8 -2 19 -3 24 0 5
-7 3 -15 -3 -11 -9 -19 -9 -34 0 -16 10 -24 8 -50 -11 -27 -20 -35 -22 -57
-12 -14 6 -25 16 -25 22 0 14 6 13 23 -4 13 -13 17 -13 33 0 14 10 15 13 3 8
-11 -3 -18 2 -22 15 -3 13 1 21 12 24 26 8 125 5 141 -4z m587 5 c-3 -3 -12
-4 -19 -1 -8 3 -5 6 6 6 11 1 17 -2 13 -5z m1641 -25 c13 -21 3 -26 -16 -7 -7
7 -12 8 -12 4 0 -5 -7 -3 -15 4 -8 7 -13 16 -10 20 8 13 40 0 53 -21z m-2458
-4 c8 -5 23 -25 34 -43 l18 -34 -28 4 c-18 2 -28 8 -26 16 1 8 -2 11 -9 7 -12
-8 -81 54 -74 65 5 9 65 -2 85 -15z m1051 -21 c12 -25 19 -48 16 -50 -2 -2
-14 18 -25 46 -26 63 -18 66 9 4z m904 36 c3 -5 1 -10 -4 -10 -6 0 -11 5 -11
10 0 6 2 10 4 10 3 0 8 -4 11 -10z m-1277 -41 c-3 -8 -7 -3 -11 10 -4 17 -3
21 5 13 5 -5 8 -16 6 -23z m-852 10 c3 -5 11 -9 17 -9 8 0 8 3 -1 9 -8 5 -1 8
21 9 26 1 41 -6 63 -30 l29 -31 -37 6 c-21 3 -40 1 -43 -4 -4 -5 -2 -9 2 -9 5
0 9 -9 10 -20 1 -11 -4 -20 -13 -20 -21 0 -17 -20 9 -42 l22 -20 -23 4 c-12 1
-21 6 -20 9 2 4 -6 16 -16 28 -17 19 -17 21 -3 21 10 0 17 5 17 10 0 6 -9 10
-20 10 -11 0 -43 16 -70 36 -28 20 -54 33 -58 29 -4 -4 3 -14 16 -22 12 -9 22
-22 22 -29 0 -8 4 -14 9 -14 4 0 13 -23 18 -51 7 -36 7 -47 0 -40 -6 6 -14 11
-17 11 -8 0 -6 -37 3 -46 3 -4 4 -11 1 -16 -4 -6 -15 10 -26 33 -26 60 -84
145 -103 153 -29 11 -14 23 43 33 72 12 141 13 148 2z m2001 -4 c9 -24 -1 -27
-15 -5 -8 13 -8 20 -2 20 6 0 13 -7 17 -15z m-3456 -75 c22 0 39 5 39 10 0 15
34 12 66 -5 18 -9 41 -13 62 -9 22 4 40 1 58 -11 15 -10 38 -15 55 -13 20 3
34 -1 46 -14 9 -10 27 -18 40 -18 19 0 23 -5 23 -31 0 -22 -5 -32 -20 -36 -23
-6 -27 -23 -5 -23 8 0 15 -4 15 -10 0 -13 27 -13 35 0 4 6 1 18 -6 26 -9 11
-9 18 -1 26 7 7 12 8 12 3 0 -6 4 -4 9 4 8 12 14 13 35 3 22 -10 26 -9 26 3 0
8 6 15 13 15 30 0 142 -22 152 -29 5 -5 27 -11 48 -15 21 -4 35 -11 32 -16 -3
-5 -18 -5 -35 0 -17 5 -32 5 -35 0 -7 -11 59 -24 80 -16 9 3 15 0 15 -10 0
-10 -6 -14 -15 -10 -8 3 -15 1 -15 -4 0 -6 8 -10 18 -10 21 -1 55 -29 65 -52
3 -10 0 -24 -8 -32 -19 -19 -19 -32 0 -40 9 -3 16 1 16 9 1 8 3 20 4 25 1 6 3
12 4 15 0 3 1 8 2 13 2 21 24 32 51 27 21 -5 28 -3 28 8 0 10 7 13 19 10 11
-3 17 -11 15 -18 -4 -9 12 -17 51 -26 31 -7 58 -16 61 -21 3 -4 18 -8 33 -8
52 0 120 -36 134 -70 4 -11 6 -10 6 4 2 41 20 -1 26 -59 3 -33 10 -73 16 -90
5 -16 8 -43 8 -60 -1 -16 0 -64 1 -105 1 -47 -2 -76 -9 -78 -6 -2 -11 -10 -11
-18 0 -8 -7 -11 -17 -8 -13 4 -12 1 3 -8 18 -11 19 -18 12 -45 -5 -18 -10 -33
-11 -33 -1 0 -42 11 -92 24 -49 14 -92 23 -94 21 -2 -3 4 -7 13 -11 9 -3 16
-15 16 -25 0 -16 -5 -18 -27 -14 -55 12 -108 27 -123 36 -31 19 -66 31 -92 33
-15 1 -30 5 -34 9 -10 10 -26 9 -20 -2 4 -5 -3 -7 -15 -4 -13 4 -17 8 -9 13
11 7 -48 28 -190 69 -41 12 -95 28 -120 36 -25 7 -85 23 -135 35 -49 11 -92
24 -95 29 -3 5 -16 11 -30 15 -19 6 -21 5 -10 -3 8 -6 10 -11 5 -11 -6 0 -19
6 -30 14 -22 15 -50 24 -195 62 -52 14 -111 30 -130 36 -19 5 -50 10 -67 9
-18 -1 -33 4 -33 9 0 6 -6 10 -12 10 -7 1 -31 9 -53 20 -22 11 -50 19 -63 20
-13 0 -21 4 -18 9 3 5 -10 12 -30 16 -20 3 -34 8 -32 11 3 2 94 -18 203 -46
109 -27 200 -48 203 -46 2 3 -16 10 -39 16 -43 10 -112 33 -197 64 -55 21 -93
46 -86 57 3 5 -4 9 -15 9 -12 0 -30 9 -42 21 -19 19 -19 20 -2 16 31 -10 145
-28 148 -25 2 2 -23 12 -56 22 -45 15 -59 24 -59 39 0 11 9 21 20 24 31 8 20
23 -30 44 -25 10 -36 18 -26 18 20 1 20 1 0 16 -24 18 -14 18 61 0 33 -8 71
-15 85 -14 20 0 17 3 -17 17 -23 9 -45 20 -49 25 -4 4 -20 7 -36 7 -32 0 -88
25 -88 40 0 5 -9 12 -21 15 -11 4 -18 9 -16 11 7 8 97 -18 97 -27 0 -5 20 -9
45 -9 25 0 45 3 45 6 0 12 -43 44 -59 44 -9 0 -33 5 -55 11 -36 10 -37 11 -19
24 21 15 67 9 57 -6 -3 -5 16 -8 41 -7 33 1 50 7 58 20 14 21 17 22 54 7 15
-6 59 -13 97 -16 39 -2 85 -11 104 -19 19 -8 44 -14 56 -14 31 1 -35 28 -109
46 l-60 14 58 -3 c49 -3 57 -1 53 12 -3 9 2 6 10 -6 12 -17 26 -23 55 -23z
m1225 25 c10 -8 24 -14 29 -15 6 0 3 5 -5 10 -12 8 -11 10 6 10 22 0 41 -36
22 -42 -5 -2 0 -20 12 -41 12 -20 17 -37 11 -37 -6 0 -11 4 -11 9 0 16 -26 19
-45 5 -17 -13 -18 -15 -2 -26 11 -9 14 -18 7 -28 -7 -11 -11 -9 -19 13 -6 16
-11 35 -11 43 0 8 -7 17 -16 21 -8 3 -13 12 -10 19 3 8 0 11 -8 8 -8 -3 -16 5
-20 21 -4 14 -11 23 -16 20 -6 -3 -10 -2 -10 4 0 9 20 18 51 20 8 0 24 -6 35
-14z m628 6 c4 -5 -3 -7 -14 -4 -23 6 -26 13 -6 13 8 0 17 -4 20 -9z m376 -33
c25 -50 50 -149 50 -196 0 -42 -15 -34 -18 9 -5 63 -32 138 -48 132 -8 -3 -14
0 -14 6 0 6 5 11 10 11 19 0 10 31 -12 40 -13 5 -17 9 -9 9 7 1 11 7 7 16 -13
34 15 12 34 -27z m109 -8 c6 -19 8 -30 3 -25 -5 6 -15 26 -21 45 -6 19 -8 30
-3 25 5 -6 15 -26 21 -45z m-4053 28 c4 -7 3 -10 -1 -5 -5 4 -18 1 -31 -7 -12
-8 -24 -12 -28 -9 -13 13 -5 22 22 26 15 2 28 5 29 6 1 0 5 -5 9 -11z m1379 2
c3 -5 -1 -10 -10 -10 -9 0 -13 5 -10 10 3 6 8 10 10 10 2 0 7 -4 10 -10z
m2915 -6 c0 -8 -4 -12 -10 -9 -5 3 -10 10 -10 16 0 5 5 9 10 9 6 0 10 -7 10
-16z m68 -3 c5 -16 -33 -14 -47 3 -10 12 -8 14 15 12 16 -2 30 -8 32 -15z
m-972 -9 c6 -4 19 -28 29 -54 16 -43 16 -48 1 -63 -9 -9 -16 -13 -17 -8 -1 4
-2 19 -2 33 -1 15 -7 24 -15 22 -8 -1 -11 2 -8 7 4 5 -4 17 -16 25 -12 9 -17
16 -10 16 6 0 12 7 12 15 0 16 9 19 26 7z m-4310 -23 c9 -16 -18 -30 -33 -17
-7 6 -10 14 -7 19 7 13 31 11 40 -2z m878 -15 c7 -19 2 -18 -19 6 -16 17 -16
20 -3 15 9 -4 19 -13 22 -21z m4166 12 c0 -3 -4 -8 -10 -11 -5 -3 -10 -1 -10
4 0 6 5 11 10 11 6 0 10 -2 10 -4z m-862 -23 c6 -19 -25 -16 -32 3 -4 11 -1
14 11 12 9 -2 18 -9 21 -15z m872 -13 c0 -5 -2 -10 -4 -10 -3 0 -8 5 -11 10
-3 6 -1 10 4 10 6 0 11 -4 11 -10z m-4120 -37 c23 -20 26 -34 8 -30 -8 1 -14
-12 -16 -36 l-3 -38 -24 35 c-34 50 -39 73 -18 79 30 8 32 8 53 -10z m4216 2
c-3 -8 0 -15 6 -15 6 0 9 -3 5 -6 -10 -11 -26 6 -20 21 3 8 7 15 10 15 3 0 3
-7 -1 -15z m2629 -3 c-3 -3 -11 0 -18 7 -9 10 -8 11 6 5 10 -3 15 -9 12 -12z
m-2685 -2 c0 -5 -5 -10 -11 -10 -5 0 -7 5 -4 10 3 6 8 10 11 10 2 0 4 -4 4
-10z m-4347 -31 c-6 -6 -43 -16 -82 -22 -43 -7 -71 -16 -71 -24 0 -6 -5 -15
-12 -19 -8 -5 -9 -2 -5 9 7 18 -3 21 -40 11 -18 -5 -22 -11 -17 -31 6 -21 3
-24 -12 -21 -12 2 -20 13 -22 29 -4 34 25 46 132 55 44 4 91 10 105 14 36 11
36 11 24 -1z m84 -9 c13 -15 18 -38 6 -27 -3 4 -13 1 -21 -6 -13 -10 -15 -9
-10 11 5 17 2 22 -12 22 -11 0 -21 4 -24 9 -10 15 48 7 61 -9z m5388 10 c-3
-5 -11 -10 -16 -10 -6 0 -7 5 -4 10 3 6 11 10 16 10 6 0 7 -4 4 -10z m65 1 c0
-5 -11 -8 -25 -8 -13 0 -22 3 -19 8 3 5 14 9 25 9 10 0 19 -4 19 -9z m-2118
-21 c10 0 18 -4 18 -10 0 -5 -6 -10 -12 -10 -9 0 -8 -4 2 -10 13 -9 13 -10 0
-10 -8 0 -23 15 -33 33 -10 17 -13 26 -6 20 7 -7 21 -13 31 -13z m-3987 1 c3
-5 22 -15 41 -21 20 -7 53 -24 73 -37 32 -22 33 -24 9 -18 -42 11 -159 71
-151 78 9 10 21 9 28 -2z m593 -24 c5 -16 2 -27 -9 -27 -5 0 -7 5 -3 11 4 7
-3 10 -17 9 -35 -3 -41 -1 -34 10 7 12 58 9 63 -3z m3140 -14 c24 -65 25 -69
7 -53 -18 18 -38 80 -26 80 5 0 13 -12 19 -27z m402 17 c0 -5 -5 -10 -11 -10
-5 0 -7 5 -4 10 3 6 8 10 11 10 2 0 4 -4 4 -10z m-785 -30 c3 -5 -3 -10 -14
-10 -12 0 -21 5 -21 10 0 6 6 10 14 10 8 0 18 -4 21 -10z m180 -36 c30 -5 61
-25 38 -24 -24 1 -135 29 -141 35 -6 7 10 5 103 -11z m4295 7 c0 -5 -10 -11
-22 -13 -32 -4 -38 -47 -8 -55 23 -6 24 -33 1 -41 -8 -3 -11 0 -8 5 6 9 -35
53 -48 53 -3 0 -5 -15 -6 -32 -1 -30 -2 -29 -11 12 -6 25 -15 51 -20 58 -7 8
-7 12 0 12 5 0 15 -7 22 -15 14 -17 34 -16 28 0 -2 5 11 13 27 16 45 10 45 10
45 0z m-4060 -92 c0 -38 -9 -59 -26 -59 -18 0 -18 8 1 26 19 20 19 48 0 64 -8
7 -12 17 -8 23 9 15 33 -23 33 -54z m3930 51 c0 -5 -2 -10 -4 -10 -3 0 -8 5
-11 10 -3 6 -1 10 4 10 6 0 11 -4 11 -10z m-162 -97 c-10 -2 -28 -2 -40 0 -13
2 -5 4 17 4 22 1 32 -1 23 -4z m472 -14 c10 -7 -40 -8 -154 -5 -93 3 -199 7
-235 8 l-66 1 55 6 c82 9 382 1 400 -10z m165 1 c4 -6 -20 -9 -67 -8 l-73 1
65 7 c36 4 66 7 67 8 1 1 5 -2 8 -8z m-4418 -52 c-3 -7 -5 -2 -5 12 0 14 2 19
5 13 2 -7 2 -19 0 -25z m3923 13 c0 -5 -9 -7 -20 -4 -11 3 -20 7 -20 9 0 2 9
4 20 4 11 0 20 -4 20 -9z m-90 -31 c0 -5 -8 -10 -17 -10 -15 0 -16 2 -3 10 19
12 20 12 20 0z m100 -34 c0 -3 -4 -8 -10 -11 -5 -3 -10 -1 -10 4 0 6 5 11 10
11 6 0 10 -2 10 -4z m-390 -31 c0 -14 -4 -25 -8 -25 -7 0 -8 31 -3 48 4 11 11
-3 11 -23z m-3510 -45 c0 -5 -4 -10 -10 -10 -5 0 -10 5 -10 10 0 6 5 10 10 10
6 0 10 -4 10 -10z m3540 -20 c0 -5 -11 -10 -25 -10 -14 0 -25 5 -25 10 0 6 11
10 25 10 14 0 25 -4 25 -10z m-3550 -30 c0 -5 -4 -10 -10 -10 -5 0 -10 5 -10
10 0 6 5 10 10 10 6 0 10 -4 10 -10z m3593 -7 c-7 -2 -19 -2 -25 0 -7 3 -2 5
12 5 14 0 19 -2 13 -5z m-3593 -37 c0 -3 -4 -8 -10 -11 -5 -3 -10 -1 -10 4 0
6 5 11 10 11 6 0 10 -2 10 -4z m-14 -113 c-11 -11 -17 4 -9 23 7 18 8 18 11 1
2 -10 1 -21 -2 -24z m3236 17 c22 -1 22 -1 4 -15 -16 -12 -22 -12 -42 2 -29
18 -32 38 -5 23 11 -5 30 -10 43 -10z m38 10 c0 -5 -2 -10 -4 -10 -3 0 -8 5
-11 10 -3 6 -1 10 4 10 6 0 11 -4 11 -10z m34 -30 c7 0 21 -9 32 -21 18 -20
18 -21 1 -34 -20 -15 -52 -9 -79 14 -23 20 -23 27 2 34 11 3 21 13 21 24 1 16
2 16 6 1 2 -10 10 -18 17 -18z m-161 -11 c5 -17 3 -18 -24 -3 -35 18 -36 22
-5 22 15 0 26 -7 29 -19z m-183 1 c0 -5 -4 -10 -10 -10 -5 0 -10 5 -10 10 0 6
5 10 10 10 6 0 10 -4 10 -10z m110 -11 c0 -11 -27 -12 -34 0 -3 4 -3 11 0 14
8 8 34 -3 34 -14z m-153 -21 c-41 -12 -49 -10 -37 11 8 16 13 18 35 8 l24 -12
-22 -7z m-3327 2 c8 -5 11 -10 5 -10 -5 0 -17 5 -25 10 -8 5 -10 10 -5 10 6 0
17 -5 25 -10z m3608 -23 l27 4 -25 -13 c-14 -8 -26 -10 -28 -6 -2 4 -15 8 -28
8 -13 0 -24 5 -24 11 0 6 9 8 20 4 13 -4 20 -2 21 7 1 8 3 7 6 -3 3 -11 12
-15 31 -12z m60 0 c2 -12 -1 -15 -12 -11 -22 8 -30 36 -9 32 10 -2 19 -11 21
-21z m-3388 -28 c0 -5 9 -9 20 -9 22 0 25 -7 11 -29 -6 -9 -11 -10 -15 -2 -4
6 -16 11 -27 11 -13 0 -19 7 -19 21 0 18 -3 19 -15 9 -16 -13 -35 -6 -35 15 0
10 8 11 40 3 22 -6 40 -14 40 -19z m3410 -9 c0 -5 -4 -10 -10 -10 -5 0 -10 5
-10 10 0 6 5 10 10 10 6 0 10 -4 10 -10z m-3346 -61 c-8 -13 -24 -1 -24 18 0
13 3 13 15 3 8 -7 12 -16 9 -21z"/>
<path d="M7793 8124 c-15 -16 -16 -24 -4 -24 8 0 24 30 19 35 -2 2 -9 -3 -15
-11z"/>
<path d="M7770 7810 c0 -5 5 -10 10 -10 6 0 10 5 10 10 0 6 -4 10 -10 10 -5 0
-10 -4 -10 -10z"/>
<path d="M5701 7119 c-29 -13 -47 -16 -51 -9 -3 6 -16 -3 -28 -20 -19 -25 -20
-29 -5 -24 57 19 162 75 138 73 -6 0 -30 -9 -54 -20z"/>
<path d="M5497 6934 c-4 -4 -7 -17 -7 -28 1 -19 1 -20 11 -3 11 19 8 43 -4 31z"/>
<path d="M5926 6671 c-11 -12 -14 -21 -7 -26 6 -3 11 0 11 9 0 8 6 16 13 19 6
2 9 7 6 11 -3 3 -14 -2 -23 -13z"/>
<path d="M8273 6553 c9 -2 23 -2 30 0 6 3 -1 5 -18 5 -16 0 -22 -2 -12 -5z"/>
<path d="M5917 6200 c-3 -11 -2 -22 2 -24 11 -7 43 22 36 33 -10 18 -32 12
-38 -9z"/>
<path d="M5395 6220 c-3 -5 -1 -10 4 -10 6 0 11 5 11 10 0 6 -2 10 -4 10 -3 0
-8 -4 -11 -10z"/>
<path d="M7158 6133 c12 -2 32 -2 45 0 12 2 2 4 -23 4 -25 0 -35 -2 -22 -4z"/>
<path d="M5340 5595 c-7 -9 -11 -17 -9 -20 3 -2 10 5 17 15 14 24 10 26 -8 5z"/>
<path d="M5820 5416 c0 -21 26 -25 102 -17 4 1 5 8 2 16 -8 20 -104 21 -104 1z"/>
<path d="M7148 4934 c-14 -8 -60 -15 -102 -17 -84 -2 -106 -17 -26 -17 28 0
50 -4 50 -9 0 -5 7 -12 16 -15 12 -5 15 -2 10 10 -5 13 -1 15 21 9 15 -3 31
-11 34 -17 8 -12 45 10 53 32 3 8 9 21 12 28 8 16 -33 14 -68 -4z"/>
<path d="M6815 4920 c3 -5 18 -10 33 -9 24 0 25 1 7 9 -28 12 -47 12 -40 0z"/>
<path d="M6803 4463 c9 -2 23 -2 30 0 6 3 -1 5 -18 5 -16 0 -22 -2 -12 -5z"/>
<path d="M4510 4330 c0 -6 7 -10 15 -10 8 0 15 2 15 4 0 2 -7 6 -15 10 -8 3
-15 1 -15 -4z"/>
<path d="M6138 4423 c7 -3 16 -2 19 1 4 3 -2 6 -13 5 -11 0 -14 -3 -6 -6z"/>
<path d="M6278 4403 c7 -3 16 -2 19 1 4 3 -2 6 -13 5 -11 0 -14 -3 -6 -6z"/>
<path d="M6005 4380 c-19 -8 -19 -9 3 -9 12 -1 22 4 22 9 0 6 -1 10 -2 9 -2 0
-12 -4 -23 -9z"/>
<path d="M6388 4363 c6 -2 18 -2 25 0 6 3 1 5 -13 5 -14 0 -19 -2 -12 -5z"/>
<path d="M6550 4335 c0 -8 2 -15 4 -15 2 0 6 7 10 15 3 8 1 15 -4 15 -6 0 -10
-7 -10 -15z"/>
<path d="M5570 4236 c0 -12 10 -16 37 -16 37 0 42 7 7 13 -10 1 -25 6 -31 10
-8 5 -13 3 -13 -7z"/>
<path d="M5841 4194 c0 -11 3 -14 6 -6 3 7 2 16 -1 19 -3 4 -6 -2 -5 -13z"/>
<path d="M6098 4163 c7 -3 16 -2 19 1 4 3 -2 6 -13 5 -11 0 -14 -3 -6 -6z"/>
<path d="M5615 3610 c-3 -5 -2 -10 4 -10 5 0 13 5 16 10 3 6 2 10 -4 10 -5 0
-13 -4 -16 -10z"/>
<path d="M4848 3503 c6 -2 18 -2 25 0 6 3 1 5 -13 5 -14 0 -19 -2 -12 -5z"/>
<path d="M5970 3591 c0 -5 5 -13 10 -16 6 -3 10 -2 10 4 0 5 -4 13 -10 16 -5
3 -10 2 -10 -4z"/>
<path d="M3105 3340 c-4 -6 3 -10 14 -10 25 0 27 6 6 13 -8 4 -17 2 -20 -3z"/>
<path d="M3140 3300 c-13 -9 -13 -10 0 -10 8 0 22 5 30 10 13 9 13 10 0 10 -8
0 -22 -5 -30 -10z"/>
<path d="M4785 3240 c3 -5 23 -10 43 -9 30 0 33 2 17 9 -28 12 -67 12 -60 0z"/>
<path d="M4880 3230 c18 -12 60 -13 60 -2 0 4 -17 8 -37 9 -26 1 -33 -1 -23
-7z"/>
<path d="M4980 3210 c43 -12 118 -16 127 -7 3 4 -7 7 -23 7 -16 0 -54 2 -84 5
-48 4 -50 3 -20 -5z"/>
<path d="M5138 3193 c7 -3 16 -2 19 1 4 3 -2 6 -13 5 -11 0 -14 -3 -6 -6z"/>
<path d="M5188 3183 c6 -2 18 -2 25 0 6 3 1 5 -13 5 -14 0 -19 -2 -12 -5z"/>
<path d="M6090 3168 c0 -4 14 -8 30 -8 17 0 30 2 30 4 0 2 -13 6 -30 8 -16 3
-30 1 -30 -4z"/>
<path d="M5600 3116 c0 -2 16 -6 35 -8 19 -2 35 0 35 4 0 4 -16 8 -35 8 -19 0
-35 -2 -35 -4z"/>
<path d="M5698 3113 c7 -3 16 -2 19 1 4 3 -2 6 -13 5 -11 0 -14 -3 -6 -6z"/>
<path d="M3488 3253 c7 -3 16 -2 19 1 4 3 -2 6 -13 5 -11 0 -14 -3 -6 -6z"/>
<path d="M3075 2970 c-3 -5 -1 -10 4 -10 6 0 11 5 11 10 0 6 -2 10 -4 10 -3 0
-8 -4 -11 -10z"/>
<path d="M6920 3080 c0 -5 5 -10 11 -10 5 0 7 5 4 10 -3 6 -8 10 -11 10 -2 0
-4 -4 -4 -10z"/>
<path d="M6686 3041 c-7 -11 22 -23 36 -15 6 4 5 10 -3 15 -18 11 -26 11 -33
0z"/>
<path d="M4839 2746 c10 -12 9 -16 -6 -25 -24 -14 -8 -14 18 0 14 7 30 7 55
-1 20 -7 38 -9 41 -6 7 6 -46 29 -91 40 -25 6 -28 5 -17 -8z"/>
<path d="M5228 2463 c7 -3 16 -2 19 1 4 3 -2 6 -13 5 -11 0 -14 -3 -6 -6z"/>
<path d="M5458 2393 c7 -3 16 -2 19 1 4 3 -2 6 -13 5 -11 0 -14 -3 -6 -6z"/>
<path d="M5930 2266 c0 -14 61 -36 77 -28 8 5 12 12 7 15 -14 8 -84 20 -84 13z"/>
<path d="M6185 2185 c17 -8 37 -14 45 -14 8 0 -1 7 -20 14 -46 18 -64 17 -25
0z"/>
<path d="M5826 9848 c-38 -45 -45 -66 -37 -113 l6 -39 32 41 c38 48 59 94 40
90 -7 -1 -11 8 -10 26 1 15 0 27 -1 27 -2 0 -15 -15 -30 -32z"/>
<path d="M5766 9828 c-36 -41 -45 -71 -26 -83 6 -3 10 4 10 18 0 13 14 43 30
65 39 54 32 54 -14 0z"/>
<path d="M6086 9348 c21 -37 47 -69 52 -64 6 7 -40 76 -51 76 -5 0 -5 -6 -1
-12z"/>
<path d="M6190 9189 c0 -11 5 -17 10 -14 6 3 10 13 10 21 0 8 -4 14 -10 14 -5
0 -10 -9 -10 -21z"/>
<path d="M6124 9169 c-3 -6 -17 -9 -30 -6 -19 3 -22 1 -14 -13 12 -22 74 -52
93 -44 9 3 21 -4 31 -18 15 -21 17 -21 32 -6 19 19 22 64 5 81 -9 9 -13 6 -17
-11 -8 -29 -25 -28 -52 3 -24 27 -37 31 -48 14z"/>
<path d="M7905 9140 c-3 -5 3 -10 15 -10 12 0 18 5 15 10 -3 6 -10 10 -15 10
-5 0 -12 -4 -15 -10z"/>
<path d="M8330 9125 c0 -8 7 -15 16 -15 14 0 14 3 4 15 -7 8 -14 15 -16 15 -2
0 -4 -7 -4 -15z"/>
<path d="M8324 9081 c4 -5 0 -12 -6 -14 -7 -3 -3 -6 9 -6 16 -1 21 3 17 14 -4
8 -10 15 -16 15 -5 0 -7 -4 -4 -9z"/>
<path d="M6255 9050 c-3 -5 -1 -10 4 -10 6 0 11 5 11 10 0 6 -2 10 -4 10 -3 0
-8 -4 -11 -10z"/>
<path d="M8321 9024 c0 -11 3 -14 6 -6 3 7 2 16 -1 19 -3 4 -6 -2 -5 -13z"/>
<path d="M6713 8853 c9 -2 23 -2 30 0 6 3 -1 5 -18 5 -16 0 -22 -2 -12 -5z"/>
<path d="M8455 8840 c3 -5 8 -10 11 -10 2 0 4 5 4 10 0 6 -5 10 -11 10 -5 0
-7 -4 -4 -10z"/>
<path d="M7345 8800 c3 -5 11 -10 16 -10 6 0 7 5 4 10 -3 6 -11 10 -16 10 -6
0 -7 -4 -4 -10z"/>
<path d="M8800 8770 c0 -5 5 -10 10 -10 6 0 10 5 10 10 0 6 -4 10 -10 10 -5 0
-10 -4 -10 -10z"/>
<path d="M7481 8644 c-1 -13 10 -29 24 -38 14 -9 37 -35 52 -57 15 -23 29 -36
31 -29 3 7 -3 17 -12 22 -9 5 -16 15 -16 22 0 8 -15 27 -34 43 -18 17 -36 36
-39 44 -3 9 -6 6 -6 -7z"/>
<path d="M8682 8558 c6 -18 28 -21 28 -4 0 9 -7 16 -16 16 -9 0 -14 -5 -12
-12z"/>
<path d="M6221 8524 c-13 -13 -19 -24 -13 -24 13 0 42 28 42 41 0 12 -1 11
-29 -17z"/>
<path d="M7451 8534 c0 -11 3 -14 6 -6 3 7 2 16 -1 19 -3 4 -6 -2 -5 -13z"/>
<path d="M7441 8478 c-16 -26 -11 -30 12 -8 10 10 14 20 10 23 -5 3 -15 -3
-22 -15z"/>
<path d="M7595 8470 c3 -5 8 -10 11 -10 2 0 4 5 4 10 0 6 -5 10 -11 10 -5 0
-7 -4 -4 -10z"/>
<path d="M6416 8459 c-10 -31 -39 -147 -47 -189 -17 -91 -26 -141 -27 -145 -1
-3 -2 -12 -2 -20 0 -8 -7 -15 -15 -15 -13 0 -15 9 -11 46 3 25 9 51 13 57 4 7
8 30 8 52 1 22 4 60 8 85 6 39 4 36 -17 -25 -14 -38 -25 -91 -25 -117 -1 -27
-5 -48 -9 -48 -4 0 -8 -28 -9 -62 0 -35 -3 -79 -7 -98 l-7 -35 17 38 c16 37
33 44 42 17 3 -7 0 -10 -6 -6 -6 3 -13 2 -17 -4 -3 -5 2 -10 12 -10 14 0 12
-5 -11 -24 -29 -23 -30 -24 -19 -72 12 -51 5 -74 -23 -74 -9 0 -14 -11 -14
-29 0 -16 -6 -36 -13 -43 -8 -7 -13 -23 -12 -36 2 -23 -9 -30 -20 -12 -3 6
-10 10 -15 10 -5 0 1 -15 13 -34 18 -28 24 -32 37 -21 22 19 78 24 91 8 18
-21 44 -15 67 17 12 16 53 48 92 71 42 25 70 48 70 58 0 9 -14 29 -31 44 -25
22 -30 33 -27 57 2 16 1 27 -4 24 -4 -3 -8 -20 -8 -37 0 -21 -7 -36 -20 -45
-18 -11 -20 -10 -20 18 0 18 11 42 29 63 16 18 37 52 47 76 22 56 12 77 -63
128 l-58 40 1 96 c1 53 7 119 14 147 7 28 10 54 6 57 -3 3 -8 0 -10 -8z m15
-379 c15 -8 17 -7 13 5 -4 8 -2 15 4 15 19 0 42 -12 42 -22 0 -5 7 -16 15 -24
20 -20 19 -34 -1 -34 -12 0 -15 -6 -11 -20 4 -14 -6 -36 -29 -65 -22 -29 -34
-56 -34 -76 0 -28 -1 -29 -16 -15 -8 9 -19 16 -24 16 -16 0 -27 56 -22 110 4
48 6 51 18 35 21 -29 26 -12 9 35 -12 34 -13 46 -3 58 8 9 14 10 16 3 2 -6 12
-16 23 -21z m-93 -252 c-3 -7 -12 -14 -21 -16 -12 -2 -15 1 -11 12 7 19 38 22
32 4z m-17 -48 c5 0 9 -5 9 -11 0 -6 -6 -9 -12 -6 -7 2 -23 0 -36 -4 -20 -8
-22 -7 -12 12 7 12 17 18 27 15 8 -3 19 -6 24 -6z"/>
<path d="M7634 8402 c3 -10 7 -37 8 -60 2 -50 12 -54 27 -11 13 38 14 49 2 31
-6 -10 -10 -3 -15 22 -4 20 -12 36 -17 36 -6 0 -8 -8 -5 -18z"/>
<path d="M7366 8288 c-9 -12 -16 -32 -15 -43 0 -17 2 -17 10 5 6 13 17 33 26
42 9 10 11 18 5 18 -6 0 -18 -10 -26 -22z"/>
<path d="M6615 8221 c-3 -5 -1 -12 5 -16 5 -3 10 1 10 9 0 18 -6 21 -15 7z"/>
<path d="M6601 8077 c-13 -21 -12 -21 5 -5 10 10 16 20 13 22 -3 3 -11 -5 -18
-17z"/>
<path d="M7264 8082 c-6 -4 -13 -14 -17 -23 -4 -13 1 -18 21 -22 25 -5 25 -4
8 9 -16 11 -17 16 -6 29 13 16 11 19 -6 7z"/>
<path d="M8925 8080 c3 -5 8 -10 11 -10 2 0 4 5 4 10 0 6 -5 10 -11 10 -5 0
-7 -4 -4 -10z"/>
<path d="M8891 8056 c-18 -21 8 -46 42 -39 22 4 25 8 16 20 -22 25 -46 34 -58
19z"/>
<path d="M6562 8030 c-12 -12 -22 -26 -22 -33 0 -7 11 1 25 17 24 28 29 36 22
36 -2 0 -13 -9 -25 -20z"/>
<path d="M8953 7997 c-3 -6 -1 -7 5 -3 7 4 12 2 12 -3 0 -13 27 -15 34 -2 3 5
-6 11 -19 14 -14 2 -28 0 -32 -6z"/>
<path d="M8920 7975 c0 -8 7 -15 15 -15 9 0 12 6 9 15 -4 8 -10 15 -15 15 -5
0 -9 -7 -9 -15z"/>
<path d="M7051 7929 c-72 -68 -61 -71 14 -4 33 30 56 54 50 54 -5 0 -34 -22
-64 -50z"/>
<path d="M7189 7923 c-13 -16 -12 -17 4 -4 9 7 17 15 17 17 0 8 -8 3 -21 -13z"/>
<path d="M5820 7920 c-12 -8 -10 -10 8 -10 13 0 20 4 17 10 -7 12 -6 12 -25 0z"/>
<path d="M7117 7903 c-4 -3 -7 -11 -7 -17 0 -6 5 -5 12 2 6 6 9 14 7 17 -3 3
-9 2 -12 -2z"/>
<path d="M8955 7850 c3 -5 8 -10 11 -10 2 0 4 5 4 10 0 6 -5 10 -11 10 -5 0
-7 -4 -4 -10z"/>
<path d="M8998 7803 c7 -3 16 -2 19 1 4 3 -2 6 -13 5 -11 0 -14 -3 -6 -6z"/>
<path d="M7098 7793 c7 -3 16 -2 19 1 4 3 -2 6 -13 5 -11 0 -14 -3 -6 -6z"/>
<path d="M6625 7550 c-3 -5 -1 -10 4 -10 6 0 11 5 11 10 0 6 -2 10 -4 10 -3 0
-8 -4 -11 -10z"/>
<path d="M9080 7490 c0 -5 7 -10 16 -10 8 0 12 5 9 10 -3 6 -10 10 -16 10 -5
0 -9 -4 -9 -10z"/>
<path d="M9120 7490 c0 -5 5 -10 10 -10 6 0 10 5 10 10 0 6 -4 10 -10 10 -5 0
-10 -4 -10 -10z"/>
<path d="M4652 7285 c6 -14 15 -25 20 -25 12 0 9 12 -6 33 -19 25 -27 21 -14
-8z"/>
<path d="M4742 7190 c-50 -80 -57 -227 -13 -255 14 -8 14 10 1 34 -5 11 -6 39
-1 69 5 30 4 55 -1 60 -6 6 -6 12 1 16 6 4 11 18 11 30 0 13 7 29 15 36 8 7
15 16 15 21 0 16 -15 10 -28 -11z"/>
<path d="M4988 7102 c11 -12 19 -14 24 -8 4 6 0 14 -10 18 -29 11 -33 9 -14
-10z"/>
<path d="M9320 7099 c0 -5 5 -7 10 -4 6 3 10 8 10 11 0 2 -4 4 -10 4 -5 0 -10
-5 -10 -11z"/>
<path d="M9960 7071 c0 -6 5 -13 10 -16 6 -3 10 1 10 9 0 9 -4 16 -10 16 -5 0
-10 -4 -10 -9z"/>
<path d="M4968 7063 c7 -3 16 -2 19 1 4 3 -2 6 -13 5 -11 0 -14 -3 -6 -6z"/>
<path d="M9372 7058 c-16 -16 -15 -28 2 -28 7 0 16 9 19 20 6 23 -3 26 -21 8z"/>
<path d="M4948 7036 c-61 -12 -62 -26 -3 -26 32 0 47 5 52 15 8 21 5 22 -49
11z"/>
<path d="M4865 6780 c-3 -5 -1 -10 4 -10 6 0 11 5 11 10 0 6 -2 10 -4 10 -3 0
-8 -4 -11 -10z"/>
<path d="M9395 6760 c-3 -5 -1 -10 4 -10 6 0 11 5 11 10 0 6 -2 10 -4 10 -3 0
-8 -4 -11 -10z"/>
<path d="M4800 6337 c0 -8 7 -17 15 -21 8 -3 15 -2 15 3 0 5 -7 14 -15 21 -12
10 -15 10 -15 -3z"/>
<path d="M9550 6330 c-8 -5 -11 -12 -7 -16 4 -4 15 0 24 9 18 18 8 23 -17 7z"/>
<path d="M9614 6185 c-7 -16 3 -35 17 -35 6 0 7 5 4 10 -3 6 1 13 9 16 23 9
20 24 -4 24 -11 0 -23 -7 -26 -15z"/>
<path d="M4678 6023 c7 -3 16 -2 19 1 4 3 -2 6 -13 5 -11 0 -14 -3 -6 -6z"/>
<path d="M9585 5800 c-3 -5 -1 -10 4 -10 6 0 11 5 11 10 0 6 -2 10 -4 10 -3 0
-8 -4 -11 -10z"/>
<path d="M4665 5780 c-3 -5 3 -10 15 -10 12 0 18 5 15 10 -3 6 -10 10 -15 10
-5 0 -12 -4 -15 -10z"/>
<path d="M4580 5720 c0 -5 6 -10 14 -10 8 0 18 5 21 10 3 6 -3 10 -14 10 -12
0 -21 -4 -21 -10z"/>
<path d="M9702 5708 c3 -7 14 -14 26 -14 18 -1 20 2 11 12 -14 17 -42 18 -37
2z"/>
<path d="M9695 5650 c3 -5 8 -10 11 -10 2 0 4 5 4 10 0 6 -5 10 -11 10 -5 0
-7 -4 -4 -10z"/>
<path d="M9750 5651 c0 -5 6 -11 13 -14 9 -3 9 -8 -2 -21 -21 -25 -4 -33 19
-8 24 25 25 32 5 32 -8 0 -15 5 -15 10 0 6 -4 10 -10 10 -5 0 -10 -4 -10 -9z"/>
<path d="M9825 5630 c3 -5 8 -10 11 -10 2 0 4 5 4 10 0 6 -5 10 -11 10 -5 0
-7 -4 -4 -10z"/>
<path d="M9830 5580 c0 -6 7 -10 15 -10 8 0 15 2 15 4 0 2 -7 6 -15 10 -8 3
-15 1 -15 -4z"/>
<path d="M4450 5561 c0 -13 40 -55 46 -49 3 3 -6 17 -20 31 -14 15 -26 22 -26
18z"/>
<path d="M9745 5561 c-3 -6 3 -15 12 -21 16 -10 15 -10 -4 -5 -16 5 -23 2 -23
-8 0 -16 27 -30 41 -21 5 3 19 -2 31 -10 12 -9 33 -16 46 -16 20 0 22 3 13 14
-7 8 -25 18 -41 21 -19 4 -30 14 -34 31 -6 24 -30 33 -41 15z"/>
<path d="M4495 5550 c-8 -13 5 -13 25 0 13 8 13 10 -2 10 -9 0 -20 -4 -23 -10z"/>
<path d="M9856 5445 c-11 -29 -7 -43 15 -48 17 -5 20 -1 17 26 -3 34 -22 47
-32 22z"/>
<path d="M4395 5270 c4 -6 11 -8 16 -5 14 9 11 15 -7 15 -8 0 -12 -5 -9 -10z"/>
<path d="M9908 5273 c7 -3 16 -2 19 1 4 3 -2 6 -13 5 -11 0 -14 -3 -6 -6z"/>
<path d="M9950 5270 c0 -5 5 -10 10 -10 6 0 10 5 10 10 0 6 -4 10 -10 10 -5 0
-10 -4 -10 -10z"/>
<path d="M9958 5233 c7 -3 16 -2 19 1 4 3 -2 6 -13 5 -11 0 -14 -3 -6 -6z"/>
<path d="M4280 5090 c-12 -8 -11 -10 8 -10 12 0 22 5 22 10 0 13 -11 13 -30 0z"/>
<path d="M9815 5000 c3 -5 8 -10 11 -10 2 0 4 5 4 10 0 6 -5 10 -11 10 -5 0
-7 -4 -4 -10z"/>
<path d="M4330 4822 c0 -5 7 -9 15 -9 8 0 12 4 9 9 -3 4 -9 8 -15 8 -5 0 -9
-4 -9 -8z"/>
<path d="M4290 4809 c0 -5 5 -7 10 -4 6 3 10 8 10 11 0 2 -4 4 -10 4 -5 0 -10
-5 -10 -11z"/>
<path d="M4320 4769 c0 -5 5 -7 10 -4 6 3 10 8 10 11 0 2 -4 4 -10 4 -5 0 -10
-5 -10 -11z"/>
<path d="M4266 4655 c4 -8 12 -15 19 -15 7 0 15 7 19 15 4 11 -1 15 -19 15
-18 0 -23 -4 -19 -15z"/>
<path d="M9895 4610 c-3 -5 -1 -10 4 -10 6 0 11 5 11 10 0 6 -2 10 -4 10 -3 0
-8 -4 -11 -10z"/>
<path d="M10100 4348 c0 -12 1 -19 3 -17 1 2 9 12 16 22 12 14 11 17 -3 17
-10 0 -16 -8 -16 -22z"/>
<path d="M4250 4352 c0 -12 19 -26 26 -19 2 2 -2 10 -11 17 -9 8 -15 8 -15 2z"/>
<path d="M10065 4310 c4 -6 11 -8 16 -5 14 9 11 15 -7 15 -8 0 -12 -5 -9 -10z"/>
<path d="M10080 4190 c0 -5 10 -10 23 -10 18 0 19 2 7 10 -19 13 -30 13 -30 0z"/>
<path d="M4050 4004 c0 -8 5 -12 10 -9 6 4 8 11 5 16 -9 14 -15 11 -15 -7z"/>
<path d="M4031 3954 c0 -11 3 -14 6 -6 3 7 2 16 -1 19 -3 4 -6 -2 -5 -13z"/>
<path d="M3900 3849 c0 -5 5 -7 10 -4 6 3 10 8 10 11 0 2 -4 4 -10 4 -5 0 -10
-5 -10 -11z"/>
<path d="M3750 3740 c0 -5 5 -10 11 -10 5 0 7 5 4 10 -3 6 -8 10 -11 10 -2 0
-4 -4 -4 -10z"/>
<path d="M3630 3626 c0 -8 5 -18 10 -21 6 -3 10 3 10 14 0 12 -4 21 -10 21 -5
0 -10 -6 -10 -14z"/>
<path d="M10150 3280 c0 -5 7 -7 15 -4 8 4 15 8 15 10 0 2 -7 4 -15 4 -8 0
-15 -4 -15 -10z"/>
<path d="M10150 3251 c0 -15 42 -25 50 -12 4 7 15 9 25 5 13 -5 16 -4 11 4 -8
14 -86 16 -86 3z"/>
<path d="M10175 3110 c-4 -6 6 -10 22 -10 22 0 25 2 13 10 -19 12 -27 12 -35
0z"/>
<path d="M10230 3083 c1 -19 19 -35 36 -31 15 3 14 6 -9 21 -15 10 -27 14 -27
10z"/>
<path d="M2320 3056 c14 -9 34 -15 45 -16 30 0 5 17 -35 24 -35 7 -35 7 -10
-8z"/>
<path d="M2270 3011 c0 -5 5 -13 10 -16 6 -3 10 -2 10 4 0 5 -4 13 -10 16 -5
3 -10 2 -10 -4z"/>
<path d="M10260 3006 c0 -2 7 -7 16 -10 8 -3 12 -2 9 4 -6 10 -25 14 -25 6z"/>
<path d="M10400 2930 c0 -5 9 -10 19 -10 11 0 23 5 26 10 4 6 -5 10 -19 10
-14 0 -26 -4 -26 -10z"/>
<path d="M10470 2930 c20 -13 63 -13 55 0 -3 6 -21 10 -38 10 -24 0 -28 -3
-17 -10z"/>
<path d="M2325 2880 c-3 -5 -1 -10 4 -10 6 0 11 5 11 10 0 6 -2 10 -4 10 -3 0
-8 -4 -11 -10z"/>
<path d="M10480 2849 c0 -5 5 -7 10 -4 6 3 10 8 10 11 0 2 -4 4 -10 4 -5 0
-10 -5 -10 -11z"/>
<path d="M10890 2844 c0 -8 5 -12 10 -9 6 4 8 11 5 16 -9 14 -15 11 -15 -7z"/>
<path d="M10874 2809 c-13 -5 -7 -8 24 -8 23 -1 42 1 42 3 0 8 -48 12 -66 5z"/>
<path d="M2590 2763 c0 -12 -10 -32 -22 -44 l-23 -22 28 7 c18 4 35 1 50 -9
12 -8 26 -15 32 -15 5 0 -5 9 -23 20 -23 14 -32 26 -28 38 3 9 1 24 -4 32 -8
12 -10 11 -10 -7z"/>
<path d="M10620 2529 c0 -5 5 -7 10 -4 6 3 10 8 10 11 0 2 -4 4 -10 4 -5 0
-10 -5 -10 -11z"/>
<path d="M10505 2510 c-3 -5 1 -10 9 -10 8 0 18 5 21 10 3 6 -1 10 -9 10 -8 0
-18 -4 -21 -10z"/>
<path d="M10347 2454 c-5 -5 -55 -11 -120 -13 -40 -1 -24 -20 23 -27 22 -4 37
-10 35 -15 -3 -4 5 -13 17 -20 21 -11 22 -11 9 4 -9 12 -10 17 -2 17 7 0 9 5
5 11 -4 8 1 9 17 4 19 -6 22 -5 12 6 -10 10 -9 15 5 25 9 8 14 14 11 14 -3 0
-8 -3 -12 -6z"/>
<path d="M10150 2400 c0 -5 7 -7 15 -4 10 4 15 0 15 -12 1 -18 1 -18 15 -1 9
13 20 17 37 12 18 -5 20 -4 8 4 -19 13 -90 14 -90 1z"/>
<path d="M10280 2360 c0 -5 5 -10 10 -10 6 0 10 5 10 10 0 6 -4 10 -10 10 -5
0 -10 -4 -10 -10z"/>
<path d="M10635 2263 c11 -2 27 -7 35 -10 8 -3 31 -7 50 -8 29 -3 31 -2 13 5
-13 5 -44 11 -70 13 -27 3 -39 3 -28 0z"/>
<path d="M10140 2240 c8 -5 22 -9 30 -9 10 0 8 3 -5 9 -27 12 -43 12 -25 0z"/>
<path d="M10772 2245 c11 -11 118 -34 118 -25 0 4 -17 11 -37 15 -21 3 -49 9
-63 12 -14 3 -22 2 -18 -2z"/>
<path d="M10915 2220 c-3 -5 -1 -10 4 -10 6 0 11 5 11 10 0 6 -2 10 -4 10 -3
0 -8 -4 -11 -10z"/>
<path d="M10290 2190 c0 -5 7 -7 15 -4 8 4 15 8 15 10 0 2 -7 4 -15 4 -8 0
-15 -4 -15 -10z"/>
<path d="M10025 2090 c-3 -5 -1 -10 4 -10 6 0 11 5 11 10 0 6 -2 10 -4 10 -3
0 -8 -4 -11 -10z"/>
<path d="M10178 2023 c17 -2 47 -2 65 0 17 2 3 4 -33 4 -36 0 -50 -2 -32 -4z"/>
</g>
</svg>
